<?xml version="1.0" encoding="utf-8"?>
<!-- Generator: Adobe Illustrator 23.0.4, SVG Export Plug-In . SVG Version: 6.00 Build 0)  -->
<svg version="1.1" id="Layer_1" xmlns:ev="http://www.w3.org/2001/xml-events"
	 xmlns="http://www.w3.org/2000/svg" xmlns:xlink="http://www.w3.org/1999/xlink" x="0px" y="0px" viewBox="0 0 59 50"
	 style="enable-background:new 0 0 59 50;" xml:space="preserve">
<style type="text/css">
	.st0{fill:#F3FAFE;}
	.st1{fill:#26A9E1;}
</style>
<circle class="st0" cx="30.11" cy="25" r="24.2"/>
<path class="st1" d="M42.66,30.51v5.53c0,0.83-0.68,1.51-1.51,1.51h-2.01c-0.83,0-1.51-0.68-1.51-1.51v-5.53
	c-0.72-0.06-2.01-0.62-2.01-2.11v-2.87c0-1.02,0.48-2.24,2.63-2.64c-0.25-0.39-0.37-0.89-0.37-1.52c0-1.32,1-2.39,2.23-2.39h0.07
	c1.23,0,2.23,1.07,2.23,2.39c0,0.63-0.12,1.13-0.37,1.52c2.14,0.4,2.63,1.62,2.63,2.64v2.87C44.67,29.89,43.38,30.44,42.66,30.51z
	 M43.66,25.52c0-0.43,0-1.56-2.56-1.75c-0.26-0.02-0.47-0.24-0.47-0.5v-0.22c0-0.19,0.1-0.36,0.27-0.44
	c0.12-0.07,0.51-0.27,0.51-1.25c0-0.76-0.55-1.38-1.22-1.38h-0.07c-0.68,0-1.22,0.62-1.22,1.38c0,0.98,0.38,1.18,0.51,1.25
	c0.16,0.09,0.27,0.26,0.27,0.44v0.22c0,0.26-0.2,0.48-0.47,0.5c-2.56,0.18-2.56,1.32-2.56,1.75v2.87c0,0.82,0.7,1.04,1,1.1v-3.52
	c0-0.28,0.22-0.5,0.5-0.5c0.28,0,0.5,0.22,0.5,0.5v10.07c0,0.28,0.23,0.5,0.5,0.5h0.5v-5.82c0-0.28,0.22-0.5,0.5-0.5
	s0.5,0.22,0.5,0.5v5.82h0.5c0.28,0,0.5-0.23,0.5-0.5V25.98c0-0.28,0.22-0.5,0.5-0.5s0.5,0.22,0.5,0.5v3.52c0.3-0.06,1-0.28,1-1.1
	V25.52z M38.46,18.23c-0.32-0.56-1.12-0.9-2.38-0.99c-0.26-0.02-0.47-0.24-0.47-0.5v-0.22c0-0.19,0.1-0.36,0.27-0.44
	c0.12-0.07,0.51-0.27,0.51-1.25c0-0.76-0.55-1.38-1.22-1.38H35.1c-0.68,0-1.22,0.62-1.22,1.38c0,0.98,0.38,1.18,0.51,1.25
	c0.16,0.09,0.27,0.26,0.27,0.44v0.22c0,0.26-0.2,0.48-0.47,0.5c-1.28,0.09-2.09,0.43-2.4,1.02c-0.09,0.17-0.26,0.27-0.44,0.27
	c-0.08,0-0.16-0.02-0.23-0.06c-0.25-0.13-0.34-0.43-0.21-0.68c0.39-0.74,1.18-1.23,2.35-1.44c-0.25-0.39-0.37-0.89-0.37-1.52
	c0-1.32,1-2.39,2.23-2.39h0.07c1.23,0,2.23,1.07,2.23,2.39c0,0.63-0.12,1.13-0.37,1.52c1.14,0.21,1.91,0.68,2.32,1.38
	c0.14,0.24,0.05,0.55-0.19,0.68C38.91,18.56,38.6,18.48,38.46,18.23z M32.37,21.36c0,0.63-0.12,1.13-0.37,1.52
	c2.14,0.4,2.63,1.62,2.63,2.64v2.87c0,1.49-1.29,2.05-2.01,2.11v5.53c0,0.83-0.68,1.51-1.51,1.51h-2.01c-0.83,0-1.51-0.68-1.51-1.51
	v-5.53c-0.72-0.06-2.01-0.62-2.01-2.11v-2.87c0-1.02,0.48-2.24,2.63-2.64c-0.25-0.39-0.37-0.89-0.37-1.52c0-1.32,1-2.39,2.23-2.39
	h0.07C31.37,18.98,32.37,20.05,32.37,21.36z M30.14,19.98h-0.07c-0.68,0-1.22,0.62-1.22,1.38c0,0.98,0.38,1.18,0.51,1.25
	c0.16,0.09,0.27,0.26,0.27,0.44v0.22c0,0.26-0.2,0.48-0.47,0.5c-2.56,0.18-2.56,1.32-2.56,1.75v2.87c0,0.82,0.7,1.04,1,1.1v-3.52
	c0-0.28,0.22-0.5,0.5-0.5c0.28,0,0.5,0.22,0.5,0.5v10.07c0,0.28,0.23,0.5,0.5,0.5h0.5v-5.82c0-0.28,0.22-0.5,0.5-0.5
	s0.5,0.22,0.5,0.5v5.82h0.5c0.28,0,0.5-0.23,0.5-0.5V25.98c0-0.28,0.22-0.5,0.5-0.5s0.5,0.22,0.5,0.5v3.52c0.3-0.06,1-0.28,1-1.1
	v-2.87c0-0.43,0-1.56-2.56-1.75c-0.26-0.02-0.47-0.24-0.47-0.5v-0.22c0-0.19,0.1-0.36,0.27-0.44c0.12-0.07,0.51-0.27,0.51-1.25
	C31.37,20.6,30.82,19.98,30.14,19.98z M28.85,18.46c-0.17,0-0.34-0.09-0.43-0.25c-0.33-0.55-1.12-0.88-2.37-0.97
	c-0.26-0.02-0.47-0.24-0.47-0.5v-0.22c0-0.19,0.1-0.36,0.27-0.44c0.12-0.07,0.51-0.27,0.51-1.25c0-0.76-0.55-1.38-1.22-1.38h-0.07
	c-0.68,0-1.22,0.62-1.22,1.38c0,0.98,0.38,1.18,0.51,1.25c0.16,0.09,0.27,0.26,0.27,0.44v0.22c0,0.26-0.2,0.48-0.47,0.5
	c-1.25,0.09-2.04,0.41-2.37,0.97c-0.14,0.24-0.45,0.32-0.69,0.18c-0.24-0.14-0.32-0.45-0.18-0.69c0.41-0.69,1.18-1.14,2.29-1.35
	c-0.25-0.39-0.37-0.89-0.37-1.52c0-1.32,1-2.39,2.23-2.39h0.07c1.23,0,2.23,1.07,2.23,2.39c0,0.63-0.12,1.13-0.37,1.52
	c1.12,0.21,1.89,0.66,2.29,1.35c0.14,0.24,0.06,0.55-0.18,0.69C29.02,18.44,28.93,18.46,28.85,18.46z M22.33,21.36
	c0,0.63-0.12,1.13-0.37,1.52c2.14,0.4,2.63,1.62,2.63,2.64v2.87c0,1.49-1.29,2.05-2.01,2.11v5.53c0,0.83-0.68,1.51-1.51,1.51h-2.01
	c-0.83,0-1.51-0.68-1.51-1.51v-5.53c-0.72-0.06-2.01-0.62-2.01-2.11v-2.87c0-1.02,0.48-2.24,2.63-2.64
	c-0.25-0.39-0.37-0.89-0.37-1.52c0-1.32,1-2.39,2.23-2.39h0.07C21.33,18.98,22.33,20.05,22.33,21.36z M20.11,19.98h-0.07
	c-0.68,0-1.22,0.62-1.22,1.38c0,0.98,0.38,1.18,0.51,1.25c0.16,0.09,0.27,0.26,0.27,0.44v0.22c0,0.26-0.2,0.48-0.47,0.5
	c-2.56,0.18-2.56,1.32-2.56,1.75v2.87c0,0.82,0.7,1.04,1,1.1v-3.52c0-0.28,0.22-0.5,0.5-0.5c0.28,0,0.5,0.22,0.5,0.5v10.07
	c0,0.28,0.23,0.5,0.5,0.5h0.5v-5.82c0-0.28,0.22-0.5,0.5-0.5s0.5,0.22,0.5,0.5v5.82h0.5c0.28,0,0.5-0.23,0.5-0.5V25.98
	c0-0.28,0.22-0.5,0.5-0.5s0.5,0.22,0.5,0.5v3.52c0.3-0.06,1-0.28,1-1.1v-2.87c0-0.43,0-1.56-2.56-1.75
	c-0.26-0.02-0.47-0.24-0.47-0.5v-0.22c0-0.19,0.1-0.36,0.27-0.44c0.12-0.07,0.51-0.27,0.51-1.25C21.33,20.6,20.78,19.98,20.11,19.98
	z"/>
</svg>
