<?xml version="1.0" encoding="utf-8"?>
<!-- Generator: Adobe Illustrator 23.0.4, SVG Export Plug-In . SVG Version: 6.00 Build 0)  -->
<svg version="1.1" id="Layer_1" xmlns:ev="http://www.w3.org/2001/xml-events"
	 xmlns="http://www.w3.org/2000/svg" xmlns:xlink="http://www.w3.org/1999/xlink" x="0px" y="0px" viewBox="0 0 59 50"
	 style="enable-background:new 0 0 59 50;" xml:space="preserve">
<style type="text/css">
	.st0{fill:#F3FAFE;}
	.st1{fill:#28ABE2;stroke:#FFFFFF;stroke-width:0.15;stroke-miterlimit:10;}
</style>
<circle class="st0" cx="30.11" cy="25" r="24.2"/>
<g>
	<path class="st1" d="M28.17,31.03c-0.05-0.19-0.04-0.16-0.07-0.24c-0.03-0.08,0.03-0.01-0.04-0.1c-0.07-0.09-0.04,0.07-0.07-0.17
		c-0.03-0.24,0-0.13-0.07-0.32c-0.07-0.19-0.03-0.15-0.1-0.24c-0.06-0.1-0.05,0-0.09-0.16c-0.04-0.16,0-0.09-0.07-0.2
		c-0.07-0.12-0.1-0.1-0.13-0.18c-0.03-0.08-0.07-0.02,0-0.16c0.07-0.14,0.16-0.03,0.06-0.21c-0.11-0.17,0.06-0.36-0.12-0.2
		c-0.18,0.16-0.01,0.07-0.22,0.21c-0.2,0.13-0.22,0.04-0.26,0.15c-0.04,0.11-0.02,0.05-0.06,0.17c-0.04,0.12,0.03,0.15-0.09,0.19
		c-0.12,0.04,0.05,0.14-0.15,0.04c-0.2-0.1-0.26-0.08-0.25-0.12c0.01-0.03-0.1,0.04,0.04-0.1s0.2-0.1,0.21-0.22
		c0.01-0.13,0.14-0.16-0.04-0.18c-0.19-0.02-0.16-0.13-0.26,0.03c-0.11,0.16-0.13,0.14-0.13,0.23c0,0.1,0.21,0.02-0.02,0.11
		c-0.23,0.09-0.27,0.04-0.24,0.11c0.03,0.07,0.01,0.05,0.07,0.1c0.06,0.04,0.1-0.05,0.06,0.04c-0.04,0.09,0,0.1-0.07,0.11
		c-0.07,0.01-0.12-0.13-0.13-0.01c0,0.12-0.03,0.12,0.02,0.23c0.04,0.11,0,0.09,0.04,0.18c0.04,0.09,0.17,0.01,0.18,0.01
		c0.01,0-0.03,0.11,0.04-0.01c0.07-0.12,0.01-0.1,0.08-0.17c0.07-0.06,0.03-0.22,0.1-0.08c0.07,0.13,0.09,0.11,0.03,0.22
		c-0.05,0.11-0.09,0.22-0.1,0.34c-0.01,0.13-0.09,0.17,0.03,0.17c0.11,0,0.03-0.11,0.15-0.01c0.11,0.1,0,0.09,0.13,0.16
		c0.13,0.07,0.16-0.04,0.17,0.07c0.01,0.12-0.01,0.08-0.01,0.24c0,0.16-0.01,0.14,0.03,0.23c0.04,0.09,0.06,0.05,0.05,0.13
		c-0.02,0.08-0.22,0.08,0,0.11c0.22,0.03,0.22,0.12,0.33,0.02c0.11-0.1,0.18,0.03,0.11-0.1c-0.07-0.13-0.01-0.07-0.11-0.19
		c-0.1-0.12-0.12-0.03-0.17-0.22c-0.05-0.19-0.09-0.13-0.06-0.25c0.03-0.12,0.22-0.09,0.02-0.16c-0.2-0.06-0.1-0.05-0.2-0.06
		c-0.1-0.02-0.06,0.08-0.13-0.03c-0.06-0.1-0.08-0.15-0.1-0.18c-0.03-0.03-0.11,0.11-0.01-0.07c0.1-0.18,0.13-0.1,0.1-0.22
		c-0.03-0.13-0.03-0.08-0.06-0.18c-0.03-0.1-0.15-0.1-0.02-0.15c0.13-0.04,0.01-0.09,0.17-0.04c0.16,0.04,0.19,0.07,0.26,0.07
		c0.07,0,0.13-0.09,0.09,0.02c-0.04,0.1-0.13,0.13-0.08,0.18c0.05,0.05-0.01-0.06,0.1,0.08c0.11,0.14,0.1,0.02,0.14,0.17
		c0.03,0.15-0.08,0.15,0.06,0.17c0.14,0.01,0.01,0.04,0.16,0.04c0.14,0,0.11-0.02,0.18-0.01c0.06,0,0.1-0.13,0.08,0.04
		c-0.02,0.16-0.05,0.1-0.02,0.2c0.03,0.1-0.01,0.1,0.07,0.12c0.08,0.02,0.16,0.08,0.16,0.08c-0.05,0.14-0.09,0.14-0.04,0.26
		c0.04,0.13,0.12,0.17,0.07,0.27c-0.05,0.1-0.19,0.11-0.04,0.16c0.15,0.05,0.07,0.19,0.19,0.06c0.12-0.14,0.22,0.12,0.15-0.22
		C28.19,31.06,28.22,31.22,28.17,31.03z"/>
	<path class="st1" d="M21.99,25.31l-0.04,0.25c0,0,0.07-0.08,0.16,0c0.09,0.08,0.46-0.18,0.46-0.18c0.12-0.02,0.25,0.03,0.41,0.05
		c0.16,0.02,0.23-0.05,0.47-0.08c0.23-0.03,0.63,0.01,0.63,0.01s-0.28-0.06-0.4-0.07c-0.12-0.01-0.29-0.1-0.4-0.17
		c-0.11-0.07-0.21-0.1-0.28-0.11c-0.06-0.02-0.37,0.08-0.37,0.08c-0.03,0.02-0.22,0.13-0.35,0.22
		C22.14,25.41,21.99,25.31,21.99,25.31z"/>
	<path class="st1" d="M25.43,26.79c-0.03,0.07,0.06,0.19,0.07,0.24c0.01,0.05-0.02,0.13-0.07,0.18c-0.05,0.04-0.17-0.13-0.17-0.13
		s-0.18,0.06-0.21,0.23c-0.04,0.16,0.19,0.22,0.29,0.12c0.1-0.11,0.04-0.18,0.16-0.17c0.12,0.01,0.26-0.18,0.26-0.18
		c0.1-0.23,0.33-0.36,0.31-0.43c-0.02-0.08-0.07-0.08-0.11-0.13c-0.04-0.05,0.03-0.06,0-0.13c-0.03-0.07-0.05-0.07-0.05-0.07
		C25.62,26.38,25.46,26.71,25.43,26.79z"/>
	<path class="st1" d="M17.33,22.69c0,0-0.33-0.15-0.47-0.16c-0.14-0.01-0.12-0.05-0.32-0.12c-0.2-0.07,0,0.03,0-0.28
		c0-0.3,0.18-0.04-0.03-0.4c-0.21-0.36-0.16-0.26-0.26-0.42c-0.11-0.16-0.36,0.11-0.16-0.24c0.2-0.34,0.25-0.24,0.29-0.5
		c0.04-0.26,0.28,0.01,0-0.38c-0.28-0.4-0.26-0.32-0.28-0.4c-0.01-0.08-0.24-0.01-0.09-0.33c0.15-0.32,0.02-0.13,0.22-0.36
		c0.2-0.22,0.11-0.16,0.25-0.28c0.14-0.12,0.03,0.16,0.16-0.2c0.13-0.36,0.18-0.4,0.13-0.43c-0.05-0.04-0.01,0.12-0.13,0
		c-0.12-0.12-0.25,0.14-0.12-0.12c0.13-0.26,0.12-0.21,0.2-0.3c0.08-0.09,0.04-0.12-0.08-0.16c-0.12-0.04-0.17,0.03-0.2-0.09
		c-0.03-0.12-0.18,0.01-0.06-0.29c0.12-0.3,0.06-0.3,0.17-0.43c0.11-0.13,0,0,0.17-0.16c0.17-0.16,0.32-0.29,0.32-0.29
		s-0.02-0.12-0.12-0.3c-0.09-0.18-0.15-0.2-0.15-0.25c0-0.05,0-0.17,0-0.17s0.05-0.01,0-0.07c-0.05-0.05-0.39-0.25-0.39-0.25
		l-5.1,5.02c0,0,0.08,0.05,0.12,0.09c0.05,0.04,0.1,0.03,0.21,0.11c0.11,0.07,0.05,0.03,0.18,0.04c0.13,0.01,0.05,0.02,0.15,0.16
		c0.1,0.14-0.02,0.04-0.09,0.15c-0.01,0.02-0.02,0.03-0.03,0.05c1.58,0.87,3.89,1.77,5.41,2.32C17.24,23.24,17.12,22.84,17.33,22.69
		z"/>
	<g>
		<path class="st1" d="M21.11,22.52c-0.16-0.07-0.32-0.38-0.2-0.09c0.12,0.29,0.2,0.35,0.29,0.46c0.09,0.12,0.15,0.13,0.11,0.18
			c-0.04,0.05,0.05,0.09-0.12,0.09c-0.16-0.01-0.07-0.02-0.21,0c-0.15,0.02,0.03-0.18-0.18,0.02c-0.21,0.19-0.13,0.26-0.24,0.19
			c-0.11-0.07-0.25-0.09-0.25-0.09l-0.12,0.11c0.11,0.12,0.12,0.16,0.23,0.23c0.1,0.06,0,0.13,0.26,0.11
			c0.26-0.02,0.05-0.07,0.26-0.02c0.2,0.04,0.13,0.05,0.24,0.08c0.12,0.03,0.3,0.13,0.33,0c0.03-0.13-0.09-0.17,0.09-0.24
			c0.18-0.06,0.13-0.07,0.24-0.05c0.11,0.02,0,0.19,0.22-0.02c0.22-0.21,0.08-0.24,0.27-0.27c0.19-0.04,0.07-0.02,0.27-0.04
			c0.21-0.02-0.04,0.1,0.32,0c0.35-0.1,0.35-0.03,0.44-0.13c0.09-0.1,0.11-0.12,0.11-0.12s0.32-0.12-0.17-0.04
			c-0.49,0.07-0.4,0.12-0.58,0.11c-0.18-0.01-0.2-0.1-0.29-0.04c-0.09,0.06,0.01,0.06-0.13,0.09c-0.14,0.03-0.05,0.08-0.18,0.02
			c-0.13-0.05-0.09-0.12-0.21-0.06c-0.12,0.05-0.07,0.18-0.15,0.07c-0.08-0.1-0.13-0.25-0.19-0.27c-0.05-0.02-0.12,0.01-0.17-0.04
			C21.34,22.72,21.27,22.59,21.11,22.52z"/>
		<path class="st1" d="M25.81,14.89c0.01,0.01,0.04,0.02,0.07,0.04c0.16,0.09-0.09,0.08,0.24,0.09c0.33,0.01,0.21,0.16,0.36,0
			c0.15-0.16,0.16,0.05,0.2-0.24c0.04-0.28,0.17-0.19,0.03-0.32c-0.14-0.12-0.09-0.14-0.16-0.14c-0.07-0.01,0.15,0.13-0.07-0.01
			c-0.22-0.13-0.31-0.01-0.27-0.2c0.04-0.18,0.19-0.2,0.11-0.34c-0.08-0.14,0.15-0.34-0.08-0.14c-0.23,0.2-0.31,0.18-0.35,0.32
			c-0.05,0.13-0.04,0.11,0,0.23c0.04,0.12,0.04,0.12,0.06,0.22c0.03,0.11,0.03,0.11-0.01,0.15c-0.04,0.04-0.12,0.08-0.12,0.08v0.24
			C25.82,14.88,25.82,14.89,25.81,14.89z"/>
		<path class="st1" d="M26.9,18.71c0.23-0.04,0.4,0.18,0.3-0.12c-0.1-0.3,0.04-0.23-0.1-0.3c-0.14-0.07,0.19,0.15-0.14-0.07
			c-0.33-0.22-0.4-0.1-0.48-0.3c-0.08-0.2-0.07-0.01-0.1-0.31c-0.03-0.3-0.05-0.16-0.07-0.37c-0.02-0.2-0.04-0.12-0.04-0.3
			c-0.01-0.18-0.04-0.23,0.04-0.35c0.09-0.11-0.04,0.16,0.09-0.11c0.12-0.27,0.14-0.48,0.04-0.53c-0.1-0.05-0.06-0.18-0.17-0.11
			c-0.12,0.07-0.22,0.04-0.25,0.17c-0.03,0.12-0.07,0.23-0.07,0.23s0-0.06-0.14-0.12c-0.15-0.07-0.1-0.19-0.15-0.07
			c-0.04,0.12-0.1,0.05-0.04,0.3c0.05,0.25,0.05,0.16,0.05,0.35c0,0.19,0.12,0.24,0.03,0.34c-0.1,0.11,0.08,0.17-0.1,0.11
			c-0.18-0.07-0.2,0-0.2-0.11s0.09-0.07,0.07-0.28c-0.03-0.2,0.11-0.3,0-0.35c-0.11-0.05-0.11-0.11-0.19-0.18
			c-0.08-0.07-0.31-0.12-0.31-0.12s0.19,0.39,0.16,0.49l-0.49,1.65l-2.17-0.54l0.11,0.44c0,0-0.02,0.02,0.1,0.1
			c0.12,0.09,0.06,0.11,0.19,0.17c0.12,0.05,0.08,0.03,0.22,0.07c0.14,0.04,0.14,0.04,0.14,0.04s-0.04,0.04,0,0.14
			c0.04,0.1-0.16,0.04,0,0.15c0.16,0.11-0.24,0.12,0.24,0.15c0.48,0.03,0.32-0.03,0.61,0c0.3,0.03,0.02-0.01,0.36,0.01
			c0.34,0.02,0.04,0.13,0.34,0.02c0.3-0.11,0.04,0.05,0.35-0.11c0.31-0.16,0.35-0.23,0.35-0.23l0.11,0.07c0,0-0.05,0.12,0.12,0.22
			c0.18,0.1,0.18,0.01,0.25,0.1c0.07,0.09-0.03,0.12,0.22,0.17c0.25,0.05,0.19,0.12,0.38,0.08c0.19-0.04,0.11,0.05,0.27-0.01
			c0.16-0.06,0.04-0.27,0-0.34c-0.04-0.07,0.18,0.05-0.04-0.07c-0.22-0.12-0.22-0.12-0.22-0.12s-0.05-0.16,0.14-0.1
			C26.9,18.71,26.67,18.75,26.9,18.71z"/>
		<path class="st1" d="M27.73,19.23c-0.03-0.03-0.05-0.06-0.05-0.06S27.7,19.23,27.73,19.23z"/>
		<path class="st1" d="M24.76,19.95c-0.01,0-0.01,0.02,0,0.06C24.76,19.98,24.77,19.95,24.76,19.95z"/>
		<path class="st1" d="M21.11,18.95c0.11,0.18-0.09,0,0.2,0.32c0.29,0.33,0.07,0.25,0.45,0.54c0.38,0.3,0.51,0.24,0.55,0.45
			c0.04,0.21-0.12,0.17,0.12,0.39c0.25,0.22-0.18,0.27,0.35,0.27c0.53,0,0.5-0.1,0.57,0c0.07,0.1-0.03,0.07,0.1,0.2
			c0.12,0.13,0.4,0.45,0.52,0.49c0.11,0.04,2.35,0.68,2.35,0.68l-0.29,2.81c0.55,0.16,2.99,0.14,2.99,0.14
			c0-0.42,0.11-0.46,0.16-0.63c0.05-0.16,0.11-0.01,0.18-0.12c0.07-0.11,0.03-0.14,0.08-0.33c0.05-0.19,0.08-0.08,0.37-0.3
			c0.29-0.22,0,0,0-0.22c0-0.22,0.01-0.11,0.18-0.19c0.16-0.08,0,0,0.23-0.07c0.23-0.07,0.2-0.08,0.34-0.2
			c0.02-0.01,0.03-0.02,0.04-0.03c-0.09-0.07-0.32-0.25-0.39-0.29c-0.1-0.05,0,0,0.19-0.03c0.19-0.03,0.25-0.14,0.27-0.31
			c0.03-0.17,0.07-0.06,0.22-0.02c0.15,0.04,0.07,0.03,0.2-0.08c0.14-0.11,0,0,0.27-0.2c0.27-0.2,0,0,0.1-0.16
			c0.1-0.16,0.02-0.18,0-0.26c-0.02-0.08-0.16,0.03-0.42,0c-0.26-0.03-0.14-0.01-0.31-0.15c-0.18-0.14-0.14-0.19-0.19-0.38
			c-0.05-0.19,0.08-0.05,0.31-0.05c0.23,0,0.11,0.07,0.26,0.14c0.15,0.07,0.03,0.07,0.22,0.19c0.19,0.12,0.1-0.03,0.25-0.16
			c0.15-0.14,0.1-0.12,0.19-0.23c0.1-0.11,0.03-0.29,0.08-0.35c0.05-0.07,0.03-0.1,0.12-0.18c0.1-0.08,0,0,0.05-0.01
			c0.05-0.01,0.05,0.16,0.31,0.33c0.26,0.18,0.12-0.05,0.16-0.1c0.04-0.04-0.15-0.38-0.05-0.37c0.1,0.01,0,0,0.1,0.03
			c0.1,0.03,0.1,0.1,0.26,0.23c0.16,0.14,0,0,0.15-0.35c0.15-0.35,0.08-0.14,0.15-0.27c0.07-0.14,0.07-0.08,0-0.34
			c-0.07-0.26,0,0-0.11-0.11c-0.11-0.11-0.12-0.14-0.05-0.23c0.07-0.1,0.07-0.08,0-0.25c-0.07-0.16-0.16-0.11-0.2-0.29
			c-0.04-0.18-0.03-0.08-0.14-0.31c-0.11-0.23-0.08,0-0.3-0.03c-0.22-0.03-0.12-0.03-0.48-0.01c-0.35,0.01,0.03,0.18,0.12,0.31
			c0.1,0.14,0.03,0.16,0,0.35c-0.03,0.19-0.22,0.04-0.41,0.23c-0.19,0.19,0,0.19-0.07,0.59c-0.07,0.4-0.02,0.15-0.09,0.22
			c-0.07,0.07-0.18-0.01-0.31-0.15c-0.14-0.14,0,0-0.15-0.14c-0.15-0.14,0.01-0.23,0.08-0.42c0.07-0.19,0.05-0.15,0-0.26
			c-0.05-0.11-0.12-0.24-0.3-0.38c-0.18-0.14-0.26,0.46-0.4,0.83c-0.14,0.37,0,0-0.16-0.33c-0.16-0.33-0.1-0.11-0.26-0.22
			c-0.16-0.11,0,0,0.2-0.44c0.2-0.44-0.18-0.07-0.46-0.23c-0.29-0.16-0.08-0.04-0.18-0.26c-0.1-0.22,0.04-0.16,0.07-0.36
			c0.03-0.2-0.05-0.16-0.14-0.38c-0.08-0.22-0.07-0.1-0.14-0.23c-0.07-0.14,0.12-0.1,0.1-0.23c-0.03-0.13-0.07-0.17-0.04-0.22
			c0.03-0.05,0.14-0.04,0.26-0.14c0.12-0.1,0.11-0.08,0.37-0.22c0.26-0.14,0.1-0.25,0.15-0.63c0.05-0.39-0.07,0.04-0.29,0
			c-0.22-0.04-0.1,0.02-0.3,0c-0.2-0.02-0.08,0-0.31,0.04c-0.23,0.04-0.01,0.08-0.19,0.22c-0.18,0.14,0,0-0.31,0.38
			c-0.31,0.38,0.03,0.12,0.11,0.42c0.08,0.3,0.05,0.18,0.1,0.44c0.04,0.26,0,0-0.1,0.18c-0.1,0.18-0.07,0.05-0.19,0.28
			c-0.12,0.23-0.03,0.08,0.03,0.13c0.05,0.05,0.07,0.05-0.01,0.22c-0.08,0.16-0.07,0.1,0.01,0.45c0.08,0.35,0,0,0.12,0.05
			c0.12,0.05,0.07,0.05,0.26,0.23c0.19,0.18,0.01,0.12,0.12,0.39c0.11,0.27,0.03,0.06,0,0.4c-0.03,0.34,0,0-0.1,0.18
			c-0.1,0.18-0.08,0.01-0.26,0.11c-0.18,0.09,0.01,0.16-0.04,0.38c-0.06,0.22-0.11,0.08-0.24,0.01c-0.13-0.07,0.02-0.07,0-0.33
			c-0.02-0.26,0.02-0.16,0-0.29c-0.02-0.12-0.04-0.12,0-0.2c0.04-0.08,0.17-0.1,0.23-0.19c0.05-0.1-0.08-0.12-0.23-0.25
			c-0.15-0.12-0.1-0.05-0.22-0.29c-0.12-0.23-0.1-0.15-0.23-0.29c-0.14-0.14-0.19,0.12-0.19,0.12s0,0.12-0.04,0.42
			c-0.02,0.13-0.04,0.17-0.06,0.17c0.04,0.04,0.08,0.09,0.13,0.13c0.08,0.07,0.05,0.07,0.12,0.23c0.07,0.16,0,0-0.1,0
			c-0.1,0,0,0.2,0,0.2s0,0,0.15,0c0.15,0,0,0,0.05,0.22c0.05,0.22-0.04,0.07-0.19,0.14c-0.15,0.07-0.05,0-0.37-0.21
			c-0.31-0.21-0.08-0.05-0.3,0c-0.08,0.02-0.11,0.03-0.12,0.04c0-0.01,0-0.02-0.02-0.04c-0.07-0.07-0.11,0.01-0.49-0.12
			c-0.38-0.14-0.07-0.01-0.41-0.1c-0.34-0.08,0,0-0.27-0.22c-0.27-0.22-0.03-0.07-0.1-0.34c-0.07-0.27-0.17,0.03-0.45,0.11
			c-0.27,0.08-0.18,0.02-0.4-0.01c-0.22-0.03-0.01,0.07-0.12,0.18c-0.11,0.11,0,0,0.04,0.2c0.04,0.2-0.03,0.1-0.11,0.3
			c-0.01,0.03-0.02,0.05-0.03,0.07c0.01,0.03,0.03,0.08,0.05,0.12c0.05,0.1-0.03,0.07-0.18,0.31c-0.15,0.25,0,0-0.08-0.16
			c-0.08-0.16,0,0-0.18-0.34c-0.18-0.34,0-0.12,0.11-0.31c0.11-0.19,0.01-0.1-0.1-0.22c-0.11-0.12,0,0-0.25,0.09
			c-0.25,0.09-0.14,0.03-0.47-0.02c-0.33-0.05-0.08,0.07-0.41,0c-0.33-0.07-0.1-0.03-0.46-0.14c-0.37-0.11-0.07-0.07-0.16-0.22
			c-0.1-0.15,0.03-0.1,0.09-0.13c0.06-0.03,0.06-0.03,0.29-0.01c0.23,0.03-0.01-0.04,0-0.11c0.01-0.07-0.05-0.04-0.2-0.25
			c-0.15-0.2,0,0-0.12-0.11c-0.12-0.11-0.1,0.03-0.1,0.03s0,0-0.12,0.03c-0.12,0.03,0,0-0.23-0.11c-0.23-0.11-0.07-0.07-0.16-0.14
			c-0.1-0.07-0.08-0.1-0.19-0.2c-0.11-0.11,0-0.08,0-0.08l-0.35-0.27c-0.01,0.03-0.57,0.86-0.56,0.93
			C20.98,18.79,21,18.77,21.11,18.95z"/>
		<path class="st1" d="M24.76,20.02C24.76,20.02,24.76,20.01,24.76,20.02C24.75,20.04,24.74,20.06,24.76,20.02z"/>
		<path class="st1" d="M30.6,23.15c0.03,0.02,0.04,0.03,0.04,0.03S30.68,23.09,30.6,23.15z"/>
		<path class="st1" d="M27.16,16.98c0.29,0.2,0.29,0.02,0.38,0.25c0.08,0.23-0.3,0.26,0.12,0.27c0.42,0.02,0.32,0.15,0.45,0
			c0.12-0.15-0.06-0.08,0.12-0.15c0.18-0.07,0.2,0.26,0.21-0.12c0.01-0.38,0.17-0.27,0-0.43c-0.17-0.16-0.2-0.15-0.22-0.21
			c-0.02-0.06-0.07,0-0.02-0.1c0.05-0.09,0,0.02,0.11-0.15c0.11-0.17,0.17-0.13,0.13-0.28c-0.04-0.15,0.15-0.19-0.08-0.16
			c-0.23,0.03-0.2-0.02-0.27,0.05c-0.06,0.08-0.24-0.05-0.31-0.06c-0.07-0.01-0.07-0.05-0.18,0.02c-0.11,0.07-0.21,0.04-0.13,0.16
			c0.08,0.12,0.06,0.03,0.11,0.15c0.05,0.11,0.1,0.06,0.04,0.18c-0.06,0.12-0.15,0.18-0.15,0.18c-0.13,0.04-0.02,0.19-0.16,0.04
			c-0.15-0.15-0.09-0.13-0.15-0.15c-0.06-0.02-0.09-0.08-0.15,0.03c-0.06,0.11-0.23-0.07-0.06,0.18
			C27.11,16.92,26.87,16.77,27.16,16.98z"/>
		<path class="st1" d="M27.66,14.17c-0.22,0-0.11,0.06-0.26,0.05c-0.16-0.01-0.08-0.02-0.23-0.12c-0.15-0.1-0.07-0.3-0.15-0.1
			c-0.08,0.2,0.04,0.63,0.12,0.64c0.08,0.02-0.08-0.11,0.1,0c0.18,0.11,0.14,0.12,0.25,0.14c0.11,0.02,0.21,0.05,0.21,0.05
			c-0.05,0.11-0.35,0.1-0.06,0.27c0.29,0.17,0.07,0.2,0.33,0.2c0.26-0.01,0.16,0.18,0.26-0.01c0.09-0.19,0.1-0.07,0.09-0.19
			c-0.01-0.13-0.09,0.23,0-0.2c0.09-0.43,0.19-0.37,0.04-0.57c-0.14-0.2,0.05-0.24-0.18-0.23c-0.23,0.01-0.14,0-0.3,0.03
			C27.73,14.16,27.87,14.17,27.66,14.17z"/>
		<path class="st1" d="M27.1,13.75c-0.05-0.3-0.1-0.46-0.12-0.48c-0.02-0.02,0.02-0.22-0.02-0.02c-0.04,0.2-0.03,0.26,0.02,0.32
			C27.03,13.62,27.1,13.75,27.1,13.75z"/>
		<path class="st1" d="M27.2,12.97c0.19,0.01,0.14,0.05,0.25-0.01c0.11-0.07-0.01-0.17,0.11-0.07s0.12,0.02,0.13,0.11
			c0.01,0.09,0.11,0.09,0.11,0.09c-0.03,0.02-0.1,0.07-0.14,0.1c-0.04,0.03-0.05-0.13-0.04,0.03c0.01,0.16-0.11,0.24,0.07,0.19
			c0.18-0.05,0.07-0.04,0.21-0.06c0.14-0.02,0.25,0.35,0.2-0.05c-0.05-0.4-0.03-0.38-0.05-0.45c-0.02-0.07,0.1-0.04-0.07-0.16
			c-0.17-0.11-0.2-0.09-0.27-0.19c-0.07-0.1-0.02-0.09-0.15-0.22c-0.13-0.13-0.19-0.26-0.26-0.17c-0.07,0.09-0.14,0-0.11,0.2
			c0.03,0.2,0.03,0.15,0.09,0.24c0.05,0.09,0.1,0.03,0.09,0.12c-0.01,0.09-0.03,0.09-0.13,0.11c-0.1,0.02-0.11-0.11-0.1,0.02
			C27.14,12.94,27,12.97,27.2,12.97z"/>
		<path class="st1" d="M28.54,13.15c0.07,0.03-0.22,0.02-0.08,0.13c0.14,0.11,0.19,0.02,0.2,0.14c0.01,0.12-0.28,0.12,0.04,0.14
			c0.32,0.02,0.26-0.04,0.4,0c0.14,0.04,0.18-0.01,0.14-0.11c-0.04-0.1-0.02-0.06-0.09-0.09c-0.07-0.03,0.01-0.05-0.11-0.04
			c-0.11,0.01-0.05,0.23-0.11,0.01c-0.07-0.22-0.09-0.15-0.07-0.26c0.03-0.11,0.13-0.09,0.01-0.17c-0.13-0.08-0.12-0.04-0.19-0.1
			c-0.07-0.07-0.01-0.03-0.13-0.09c-0.12-0.07-0.13-0.15-0.16-0.11c-0.03,0.04-0.03,0.07-0.03,0.13c0,0.06-0.05,0.02,0,0.15
			C28.43,12.99,28.33,13.06,28.54,13.15z"/>
		<path class="st1" d="M28.74,12.35c0.66-0.01,0.72-0.06,0.7-0.01c-0.02,0.05-0.02-0.05-0.18,0.09c-0.17,0.13-0.17,0.11-0.11,0.26
			c0.06,0.15-0.13,0.03,0.09,0.24c0.21,0.21-0.04,0.18,0.21,0.21c0.25,0.03,0.26,0.22,0.4-0.03c0.14-0.26-0.25-0.04,0.16-0.31
			c0.41-0.27,0.45-0.33,0.45-0.33s0.25-0.12,0.06,0.07c-0.19,0.19-0.28,0.11-0.24,0.3c0.04,0.18-0.11,0.2,0.05,0.24
			c0.16,0.04,0.23,0,0.28,0.03c0.05,0.03,0.08-0.07,0.05,0.05c-0.03,0.12-0.09,0.04-0.26,0.06c-0.16,0.02-0.27-0.04-0.2,0.09
			c0.07,0.13,0.09,0.18,0.1,0.26c0.01,0.08,0.12,0.03-0.01,0.11c-0.13,0.08-0.08,0.01-0.16,0.08c-0.08,0.06-0.07,0.07-0.13,0.17
			c-0.06,0.1,0.12,0.05-0.11,0.1c-0.23,0.05-0.17,0.08-0.35,0.08c-0.18,0-0.29,0.01-0.29,0.01c-0.34-0.19-0.11-0.13-0.4-0.23
			c-0.29-0.1-0.24-0.16-0.29-0.1c-0.05,0.07-0.08-0.04-0.09,0.15c-0.01,0.19-0.26,0.12,0.13,0.32c0.39,0.2,0.36,0.18,0.52,0.2
			c0.16,0.02,0.01-0.16,0.18,0c0.17,0.16,0.21,0.03,0.16,0.21c-0.05,0.18-0.01,0.1-0.05,0.23c-0.03,0.14-0.09,0.11-0.01,0.26
			c0.08,0.16-0.24,0.22,0.11,0.23c0.35,0.01,0,0.03,0.42,0c0.42-0.03,0.14-0.12,0.48-0.04c0.34,0.09-0.53,0.18,0.44,0.11
			c0.97-0.07,0.84,0.02,0.97-0.07c0.13-0.09,0.07,0.07,0.18-0.13c0.11-0.2,0.13-0.16,0.13-0.28c0-0.12,0.14,0.06,0-0.16
			c-0.14-0.22-0.09-0.28-0.21-0.29c-0.13-0.01,0-0.09-0.24-0.04c-0.24,0.05-0.17,0.05-0.36,0.09c-0.18,0.04,0.03,0.02-0.28,0.08
			c-0.3,0.06-0.16,0.1-0.38,0.1c-0.21,0-0.16-0.19-0.34-0.05c-0.18,0.14-0.02,0.39-0.18,0.14c-0.16-0.25-0.17-0.29-0.2-0.34
			c-0.03-0.05-0.19-0.01,0.12-0.17c0.31-0.16,0.14-0.18,0.39-0.17c0.25,0.01,0.1,0.05,0.36-0.01c0.26-0.05,0.23-0.05,0.39-0.13
			c0.16-0.08,0.01-0.21,0.19-0.11c0.18,0.1,0.11,0.05,0.31,0.14c0.2,0.09,0.09,0.37,0.28,0.09c0.18-0.28,0.2-0.24,0.22-0.37
			c0.02-0.13,0.12-0.19-0.04-0.2c-0.16-0.01-0.05,0.11-0.21-0.01c-0.16-0.13-0.24-0.22-0.33-0.19c-0.09,0.03,0.13-0.11,0.36-0.5
			c0.24-0.39,0.43-0.38,0.27-0.51c-0.16-0.13-0.23-0.18-0.31-0.19c-0.09-0.01-0.18,0.02-0.15-0.03c0.03-0.05-0.01-0.21,0.22-0.3
			c0.22-0.09,0.16,0.13,0.26-0.13c0.09-0.26,0.01,0.07,0.11-0.29c0.1-0.36-0.01-0.3,0.1-0.46c0.11-0.16,0.1,0,0.14-0.24
			c0.04-0.24,0.03-0.36,0-0.43c-0.03-0.08,0.1-0.07-0.08-0.17c-0.18-0.1,0.05-0.43-0.5-0.2c-0.55,0.23-0.59,0.34-0.71,0.47
			c-0.12,0.14,0.07,0.3-0.17,0.11c-0.24-0.19,0.07-0.18-0.41-0.22c-0.48-0.05-0.25-0.15-0.65-0.06c-0.39,0.09-0.42,0.03-0.62,0.14
			c-0.2,0.11-0.52-0.14-0.22,0.22c0.3,0.36,0.14,0.3,0.39,0.46c0.26,0.16,0.09,0.19,0.3,0.27c0.2,0.08,0.11,0.24,0.38,0.05
			c0.28-0.18-0.02-0.25,0.39-0.27c0.41-0.02,0.66-0.24,0.45,0.03c-0.2,0.28,0.11,0.15-0.32,0.34c-0.43,0.18-0.61-0.08-0.82,0.15
			c-0.21,0.23,0.03,0.59-0.26,0.21c-0.28-0.38-0.27-0.41-0.32-0.45c-0.05-0.04,0.05-0.09-0.17-0.2c-0.22-0.11-0.41-0.13-0.41-0.09
			c0,0.05-0.25,0.61-0.18,0.68c0.07,0.07,0.25-0.11,0.1,0.22C28.66,12.31,28.08,12.37,28.74,12.35z"/>
		<path class="st1" d="M28.87,15.46c0.33-0.02,0.43,0.32,0.34-0.06c-0.09-0.38-0.05-0.28-0.09-0.38c-0.05-0.1-0.07-0.16-0.07-0.16
			l-0.11,0.01c-0.16-0.01-0.19-0.03-0.24,0.07c-0.05,0.11,0-0.06-0.05,0.11c-0.05,0.16-0.18,0.15,0,0.28
			C28.83,15.47,28.54,15.48,28.87,15.46z"/>
		<path class="st1" d="M39.55,19.98C39.56,19.99,39.57,19.99,39.55,19.98L39.55,19.98z"/>
		<path class="st1" d="M32.37,15.66c-0.03,0.01-0.07,0.12-0.18,0.19c-0.13,0.09-0.08,0.05-0.22,0.19c-0.14,0.13,0,0-0.09,0.06
			c-0.09,0.06-0.08-0.01-0.36,0c-0.28,0.01-0.08,0.08-0.25,0.22c-0.17,0.13,0,0-0.11,0.27c-0.11,0.27,0,0.09,0.07,0.53
			c0.07,0.45,0,0-0.11-0.12c-0.11-0.12,0,0-0.03-0.24c-0.03-0.24-0.07-0.17-0.16-0.39c-0.09-0.22,0.05-0.26,0.16-0.52l0.03-0.05
			c0,0-0.47,0.05-0.61,0.05c-0.13,0-0.04,0.24-0.12,0.41c-0.08,0.17-0.05,0.09-0.09,0.25c-0.04,0.16-0.04,0.13-0.04,0.2
			c0,0.07,0.01,0.3,0.01,0.3s0,0-0.06,0.45c-0.06,0.45,0.02,0.12,0.1,0.11c0.08-0.01,0.2,0.17,0.29,0.21c0.09,0.04,0,0-0.09,0.08
			c-0.09,0.08-0.1,0.01-0.25,0.04c-0.14,0.03,0.08,0.16,0.3,0.26c0.22,0.11,0.2,0,0.49-0.01c0.29-0.01,0.08,0.09,0.22,0.18
			c0.14,0.09,0.08-0.05,0.17-0.09c0.09-0.04,0.21,0.01,0.5,0c0.29-0.01,0.09,0.05,0.38,0.12c0.29,0.07,0.11-0.03,0.2-0.12
			c0.09-0.09,0.11-0.07,0.33-0.08c0.22-0.01,0.13,0.08,0.45,0.08s0.11-0.01,0.21-0.18c0.11-0.17,0.2-0.05,0.41-0.08
			c0.21-0.03,0.14,0.01,0.21,0.01c0.07,0,0.14,0.33,0.34,0.5c0.2,0.17,0,0,0.09-0.11c0.09-0.11,0.2,0.12,0.42,0.14
			c0.22,0.03,0.05,0.07,0.11,0.29c0.05,0.22-0.03,0.13-0.29,0.24c-0.26,0.11-0.08,0.01-0.34,0.13c-0.26,0.12,0,0.07,0.09,0.42
			c0.09,0.36,0.04,0.07,0.42,0.18c0.38,0.12,0.2-0.17,0.3-0.41c0.11-0.24,0,0,0.11-0.09c0.11-0.09,0.09-0.14,0.03-0.35
			c-0.07-0.21,0,0,0.11-0.13c0.11-0.13,0.17,0.16,0.37,0.22c0.2,0.07,0.08,0.09,0.22,0.3c0.14,0.21,0,0-0.11,0.58
			c-0.11,0.58-0.04,0.14-0.09,0.37c-0.05,0.22,0.08,0.09,0.29,0.24c0.21,0.14,0,0-0.17,0.08c-0.17,0.08-0.16,0.26-0.32,0.39
			c-0.16,0.13,0,0-0.26-0.03c-0.26-0.03-0.07,0.01-0.3-0.11c-0.24-0.12-0.08-0.01-0.24,0.3c-0.1,0.2-0.07,0.19-0.05,0.18
			c0,0,0,0,0,0c-0.07,0.07,0,0,0.07,0.18c0.07,0.18,0.09,0.04,0.28,0.12c0.18,0.08,0.18,0.01,0.28,0.01c0.09,0,0.16-0.03,0.32-0.09
			c0.16-0.07,0.13-0.05,0.26-0.09c0.13-0.04,0.11-0.05,0.2-0.14c0.09-0.09,0.08,0.04,0.25,0.07c0.17,0.03,0.07,0.05,0.33,0.22
			c0.26,0.17,0,0,0.24-0.01c0.24-0.01,0.13,0.04,0.59,0.26c0.46,0.22,0.11,0.09,0.34,0.27c0.24,0.18,0.12-0.01,0.34,0
			c0.22,0.01,0.24-0.01,0.45-0.01c0.21-0.01,0.16,0.05,0.39-0.02c0.24-0.07,0.41,0.07,0.55,0c0.14-0.07,0,0-0.08-0.26
			c-0.08-0.26,0,0-0.17-0.07c-0.17-0.07-0.07,0.01-0.55-0.08c-0.49-0.09-0.45-0.17-0.55-0.35c-0.11-0.17,0,0,0.13,0.03
			c0.13,0.03,0.47,0.03,0.59-0.01c0.12-0.04,0.09,0.04,0.82,0.25c0.73,0.21,0.01-0.04-0.1-0.11c-0.11-0.07-0.07-0.09-0.01-0.34
			c0.05-0.25,0.01-0.12-0.11-0.33c-0.12-0.21-0.37-0.25-0.55-0.43c-0.18-0.18,0,0-0.3-0.03c-0.3-0.03,0,0-0.5-0.29
			c-0.5-0.29-0.12-0.08-0.24-0.24c-0.12-0.16-0.07-0.2-0.07-0.38c0-0.18,0.09,0.01,0.46,0.07c0.37,0.05,0,0,0.3,0.08
			c0.3,0.08,0.12,0.09,0.3,0.22c0.18,0.13,0.09,0.05,0.32,0.11c0.07,0.02,0.1,0.03,0.11,0.03c0-0.01,0-0.02,0.04-0.03
			c0.11-0.05,0.01-0.26,0.07-0.57c0.05-0.3,0.09-0.24,0.18-0.38c0.09-0.14,0,0,0.08-0.28c0.08-0.28-0.09,0.08-0.57,0.07
			c-0.47-0.01-0.08,0.01-0.33-0.11c-0.25-0.12,0,0-0.61-0.22c-0.61-0.22,0,0-0.55-0.16c-0.55-0.16-0.22-0.05-0.66-0.26
			c-0.43-0.21,0,0-0.26-0.3c-0.26-0.3,0,0-0.33-0.07c-0.33-0.07-0.18-0.03-0.26-0.24c-0.08-0.21,0.03-0.12-0.08-0.24
			c-0.11-0.12,0,0-0.25,0.04c-0.25,0.04-0.22,0.09-0.49,0c-0.26-0.09-0.04-0.07-0.25-0.42c-0.21-0.36,0,0-0.21-0.1
			c-0.21-0.1-0.12-0.04-0.65,0.14c-0.53,0.18-0.07,0-0.14-0.14c-0.08-0.14-0.05-0.03-0.11-0.42c-0.05-0.39-0.14-0.01-0.62-0.13
			c-0.47-0.12-0.07,0-0.4-0.06c-0.33-0.06,0.07-0.11,0.08-0.18c0.01-0.07,0.03-0.08,0-0.12c-0.03-0.04-0.25-0.03-0.45-0.05
			c-0.2-0.03,0,0-0.29-0.09C32.32,15.61,32.34,15.64,32.37,15.66z"/>
		<path class="st1" d="M34.14,21.99c-0.3-0.32-0.18-0.3-0.4-0.37c-0.23-0.07-0.02-0.14-0.33-0.09c-0.32,0.05-0.35,0-0.44,0.02
			c-0.09,0.02,0.19,0.21-0.18-0.02c-0.37-0.23-0.67-0.46-0.75-0.35c0,0,0.02,0.04,0,0.16c-0.02,0.12-0.02-0.05,0.01,0.21
			c0.03,0.26,0.2,0.02,0,0.33c-0.2,0.32-0.25,0.31-0.29,0.43c-0.04,0.11-0.18,0.2,0,0.29s-0.11,0.04,0.38,0
			c0.49-0.04,0.55-0.18,0.62,0.05s-0.21,0.95,0.18,0.23c0.39-0.72,0.3-0.74,0.39-0.72c0.09,0.02-0.16,0.09,0.18,0.15
			c0.33,0.06,0.23,0.32,0.44,0C34.14,21.99,34.44,22.31,34.14,21.99z"/>
		<path class="st1" d="M33.25,23.29c0.35,0.07,0.23,0.09,0.42,0c0.19-0.09,0.28,0.21,0.19-0.09c-0.09-0.3,0-0.23-0.09-0.3
			c-0.09-0.07-0.09-0.07-0.09-0.07l-0.09-0.07c-0.32,0.05-0.45-0.02-0.44,0.14c0.02,0.16-0.09,0.2,0,0.29
			C33.25,23.29,32.9,23.22,33.25,23.29z"/>
	</g>
	<path class="st1" d="M21.99,25.31l-0.04,0.25c0,0,0.07-0.08,0.16,0c0.09,0.08,0.46-0.18,0.46-0.18c0.12-0.02,0.25,0.03,0.41,0.05
		c0.16,0.02,0.23-0.05,0.47-0.08c0.23-0.03,0.63,0.01,0.63,0.01s-0.28-0.06-0.4-0.07c-0.12-0.01-0.29-0.1-0.4-0.17
		c-0.11-0.07-0.21-0.1-0.28-0.11c-0.06-0.02-0.37,0.08-0.37,0.08c-0.03,0.02-0.22,0.13-0.35,0.22
		C22.14,25.41,21.99,25.31,21.99,25.31z"/>
	<path class="st1" d="M16.93,27.68c-0.03,0.08,0.07,0.37,0.23,0.52c0.16,0.15,0.21,0.05,0.21,0.05s0.02,0.08,0.02,0.16
		s0.05,0.05,0.29,0.26c0.24,0.21,0.03,0.06,0.01,0.23c-0.02,0.17,0.01,0.1,0.02,0.17c0.01,0.07,0.08,0.07,0.12,0.09
		c0.03,0.02,0.16,0.13,0.22,0.19c0.06,0.06,0.17,0.19,0.29,0.33c0.12,0.14,0,0,0.03,0.09c0.03,0.09,0.16,0.37,0.28,0.6
		c0.12,0.23-0.13,0.68-0.08,0.79c0.05,0.1,0.22,0.34,0.22,0.34s1.59,0.32,2.12,0.38l1.66-6.5c0,0-0.37,0.26-0.46,0.18
		c-0.09-0.08-0.16,0-0.16,0l0.04-0.25c0,0,0.15,0.1,0.3,0c0.14-0.1,0.32-0.2,0.35-0.22l0.08-0.33c0,0-1.78-0.33-3.92-0.97
		l-1.63,3.77C17.17,27.56,16.96,27.6,16.93,27.68z"/>
	<g>
		<path class="st1" d="M12.37,28.55c-0.06-0.02-0.12-0.19-0.13-0.22c-0.02-0.04-0.15,0.02-0.17,0.04c-0.02,0.03,0.01,0.08,0.02,0.11
			c0.01,0.03,0.12,0.13,0.1,0.18c-0.01,0.05-0.02,0.1-0.02,0.13c0,0.03,0.05,0.06,0.09,0.08c0.04,0.02,0.1,0.11,0.14,0.18
			c0.04,0.07,0.03,0.04,0.06,0.08c0.03,0.04,0,0.06,0.03,0.16c0.03,0.1,0,0,0.07-0.02c0.07-0.02,0.17,0,0.17,0s-0.01,0.07-0.02,0.09
			c0,0.02,0,0-0.11,0.13c-0.11,0.13,0,0.04,0.08,0.1c0.07,0.05,0.07,0.01,0.07,0.01s0,0,0.02,0.01c0.02,0.01,0.03,0.03,0.12,0.11
			c0.09,0.08,0.06,0.02,0.2,0.08c0.14,0.05,0,0.02-0.05,0.06c-0.05,0.04-0.07,0.03-0.06,0.21c0,0.18,0.05,0.08,0.19,0.21
			c0.13,0.13,0.1,0.07,0.32,0.24c0.22,0.17,0.02,0,0.21,0.15c0.19,0.15,0.08,0,0.15-0.04c0.07-0.04,0.01-0.07,0.04-0.1
			c0.03-0.03,0.05-0.09,0.11-0.14c0.06-0.05-0.01-0.08-0.09-0.15c-0.08-0.07-0.03-0.06-0.02-0.19c0.01-0.13,0-0.09-0.05-0.18
			c-0.05-0.09-0.1-0.04-0.33-0.13c-0.24-0.1-0.05-0.04-0.14-0.16c-0.09-0.12-0.04-0.1-0.02-0.23c0.02-0.13-0.01-0.13-0.04-0.19
			c-0.04-0.06-0.04-0.06-0.09-0.09c-0.06-0.04-0.09-0.05-0.09-0.08c0-0.03-0.13-0.15-0.4-0.29c-0.27-0.13-0.04-0.03-0.23-0.08
			C12.29,28.55,12.42,28.57,12.37,28.55z"/>
		<path class="st1" d="M11.46,26.33c0.02-0.08,0.05-0.18,0.09-0.24c0.04-0.05,0.04-0.04,0.08-0.09c0.04-0.04,0.11-0.16,0.23-0.25
			c0,0-0.02-0.12-0.05-0.15c-0.03-0.03-0.07-0.02-0.17-0.06c-0.1-0.04-0.1-0.04-0.23-0.09c-0.13-0.05-0.05-0.04-0.13-0.06
			c-0.08-0.02-0.09-0.04-0.16,0c-0.07,0.04,0.09,0.2,0.04,0.36c-0.04,0.16-0.04,0.11-0.04,0.21c-0.01,0.11,0.07,0.23,0.07,0.23
			s0.02,0.06,0.04,0.13c0.02,0.07-0.02,0.1,0,0.19c0.02,0.1,0.02,0.09,0.04,0.14c0.03,0.05,0.04,0.06,0.09,0.2
			c0.02,0.06,0.03,0.09,0.03,0.11c0.01-0.01,0.01-0.03,0.02-0.04c0.01-0.04,0.03-0.13-0.02-0.2c-0.04-0.07-0.03-0.06,0-0.17
			c0.03-0.11,0.05-0.06,0.08-0.13C11.48,26.38,11.44,26.41,11.46,26.33z"/>
		<path class="st1" d="M17.82,31.28c0.42,0.1,0.78,0.18,0.98,0.22c0,0-0.17-0.23-0.22-0.34c-0.05-0.1,0.2-0.56,0.08-0.79
			c-0.12-0.23-0.24-0.51-0.28-0.6c-0.03-0.09,0.08,0.05-0.03-0.09c-0.12-0.14-0.23-0.27-0.29-0.33c-0.06-0.06-0.19-0.16-0.22-0.19
			c-0.03-0.02-0.1-0.02-0.12-0.09c-0.01-0.07-0.05,0-0.02-0.17c0.02-0.17,0.23-0.02-0.01-0.23c-0.24-0.21-0.29-0.17-0.29-0.26
			s-0.02-0.16-0.02-0.16s-0.05,0.1-0.21-0.05c-0.16-0.15-0.27-0.44-0.23-0.52c0.03-0.08,0.24-0.12,0.24-0.12l1.63-3.77
			c0,0-0.63-0.21-1.56-0.55c-1.52-0.55-3.83-1.45-5.41-2.32c0,0,0,0,0,0l-0.02,0.04c0,0.02,0,0.04,0.01,0.11
			c0.02,0.13,0.03,0.05,0.03,0.28c-0.01,0.22,0,0,0.04,0.26c0.04,0.26,0.13,0.24,0.18,0.22c0.05-0.02,0.14-0.05,0.26-0.13
			c0.12-0.09,0.08-0.03,0.21-0.03c0.13,0,0.09,0.03,0.2-0.01c0.11-0.04,0.09-0.01,0.12,0c0.03,0.01,0.05,0.07,0.11,0.14
			c0.06,0.07,0.02,0.03-0.05,0.17c-0.07,0.14-0.02,0.05-0.03,0.17c-0.01,0.12,0.06,0.08,0.1,0.18c0.04,0.1,0,0.05-0.02,0.26
			c-0.02,0.21,0.03,0.09,0.09,0.26c0.05,0.16,0.03,0.28,0.06,0.43c0.03,0.16,0.03,0.13,0.02,0.34c-0.01,0.21-0.01,0.05-0.1,0.41
			c-0.09,0.35,0.01,0.07,0.05,0.12c0.05,0.05,0,0,0.12,0.3c0.12,0.3,0.05,0.09,0.12,0.23c0.07,0.14,0.01,0.03-0.03,0.26
			c-0.04,0.22,0,0-0.13,0.11c-0.13,0.11-0.01,0.03,0.01,0.22c0.02,0.19-0.06,0.05-0.19,0.11c-0.13,0.07-0.08,0.07-0.29,0.16
			c-0.04,0.02-0.06,0.03-0.08,0.03l-0.01,0.01v0.16c0,0-0.02,0.06,0,0.09c0.02,0.03-0.1,0.17-0.1,0.17s-0.01,0.01-0.07,0.09
			c-0.06,0.08-0.06,0.09-0.1,0.16c-0.05,0.07-0.03,0.05-0.09,0.12c-0.06,0.07-0.12,0.06-0.12,0.15c0,0.09-0.02,0.03,0,0.14
			c0.02,0.1-0.12,0.07,0.06,0.16c0.17,0.09,0.17,0.08,0.26,0.15c0.08,0.07,0,0.17-0.01,0.27c-0.01,0.09,0.13,0.06,0.19,0.19
			c0.06,0.13,0.05,0.22,0,0.3c-0.05,0.08-0.08,0.12-0.05,0.17c0.03,0.06,0.19,0.02,0.09,0.13c-0.1,0.1-0.12,0.19-0.16,0.3
			s-0.2,0.01-0.03,0.12c0.16,0.1-0.27-0.05,0.23,0.15c0.49,0.2,0.38,0.23,0.57,0.26c0.2,0.02,0.35-0.17,0.33,0
			c-0.02,0.17-0.06,0.15,0,0.3c0.07,0.15,0,0,0.16,0.21c0.16,0.21,0.16,0.1,0.16,0.21c0,0.1-0.12,0.12,0,0.2
			c0.12,0.08,0.06,0.01,0.19,0.09c0.13,0.08,0.2-0.07,0.13,0.08c-0.07,0.15-0.16,0.1-0.07,0.21c0.09,0.1,0.1,0.09,0.16,0.14
			c0.06,0.05,0,0.16,0,0.16l2.9,0.7C17.43,31.19,17.63,31.24,17.82,31.28z"/>
	</g>
	<path class="st1" d="M28.17,31.03c-0.05-0.19-0.04-0.16-0.07-0.24c-0.03-0.08,0.03-0.01-0.04-0.1c-0.07-0.09-0.04,0.07-0.07-0.17
		c-0.03-0.24,0-0.13-0.07-0.32c-0.07-0.19-0.03-0.15-0.1-0.24c-0.06-0.1-0.05,0-0.09-0.16c-0.04-0.16,0-0.09-0.07-0.2
		c-0.07-0.12-0.1-0.1-0.13-0.18c-0.03-0.08-0.07-0.02,0-0.16c0.07-0.14,0.16-0.03,0.06-0.21c-0.11-0.17,0.06-0.36-0.12-0.2
		c-0.18,0.16-0.01,0.07-0.22,0.21c-0.2,0.13-0.22,0.04-0.26,0.15c-0.04,0.11-0.02,0.05-0.06,0.17c-0.04,0.12,0.03,0.15-0.09,0.19
		c-0.12,0.04,0.05,0.14-0.15,0.04c-0.2-0.1-0.26-0.08-0.25-0.12c0.01-0.03-0.1,0.04,0.04-0.1s0.2-0.1,0.21-0.22
		c0.01-0.13,0.14-0.16-0.04-0.18c-0.19-0.02-0.16-0.13-0.26,0.03c-0.11,0.16-0.13,0.14-0.13,0.23c0,0.1,0.21,0.02-0.02,0.11
		c-0.23,0.09-0.27,0.04-0.24,0.11c0.03,0.07,0.01,0.05,0.07,0.1c0.06,0.04,0.1-0.05,0.06,0.04c-0.04,0.09,0,0.1-0.07,0.11
		c-0.07,0.01-0.12-0.13-0.13-0.01c0,0.12-0.03,0.12,0.02,0.23c0.04,0.11,0,0.09,0.04,0.18c0.04,0.09,0.17,0.01,0.18,0.01
		c0.01,0-0.03,0.11,0.04-0.01c0.07-0.12,0.01-0.1,0.08-0.17c0.07-0.06,0.03-0.22,0.1-0.08c0.07,0.13,0.09,0.11,0.03,0.22
		c-0.05,0.11-0.09,0.22-0.1,0.34c-0.01,0.13-0.09,0.17,0.03,0.17c0.11,0,0.03-0.11,0.15-0.01c0.11,0.1,0,0.09,0.13,0.16
		c0.13,0.07,0.16-0.04,0.17,0.07c0.01,0.12-0.01,0.08-0.01,0.24c0,0.16-0.01,0.14,0.03,0.23c0.04,0.09,0.06,0.05,0.05,0.13
		c-0.02,0.08-0.22,0.08,0,0.11c0.22,0.03,0.22,0.12,0.33,0.02c0.11-0.1,0.18,0.03,0.11-0.1c-0.07-0.13-0.01-0.07-0.11-0.19
		c-0.1-0.12-0.12-0.03-0.17-0.22c-0.05-0.19-0.09-0.13-0.06-0.25c0.03-0.12,0.22-0.09,0.02-0.16c-0.2-0.06-0.1-0.05-0.2-0.06
		c-0.1-0.02-0.06,0.08-0.13-0.03c-0.06-0.1-0.08-0.15-0.1-0.18c-0.03-0.03-0.11,0.11-0.01-0.07c0.1-0.18,0.13-0.1,0.1-0.22
		c-0.03-0.13-0.03-0.08-0.06-0.18c-0.03-0.1-0.15-0.1-0.02-0.15c0.13-0.04,0.01-0.09,0.17-0.04c0.16,0.04,0.19,0.07,0.26,0.07
		c0.07,0,0.13-0.09,0.09,0.02c-0.04,0.1-0.13,0.13-0.08,0.18c0.05,0.05-0.01-0.06,0.1,0.08c0.11,0.14,0.1,0.02,0.14,0.17
		c0.03,0.15-0.08,0.15,0.06,0.17c0.14,0.01,0.01,0.04,0.16,0.04c0.14,0,0.11-0.02,0.18-0.01c0.06,0,0.1-0.13,0.08,0.04
		c-0.02,0.16-0.05,0.1-0.02,0.2c0.03,0.1-0.01,0.1,0.07,0.12c0.08,0.02,0.16,0.08,0.16,0.08c-0.05,0.14-0.09,0.14-0.04,0.26
		c0.04,0.13,0.12,0.17,0.07,0.27c-0.05,0.1-0.19,0.11-0.04,0.16c0.15,0.05,0.07,0.19,0.19,0.06c0.12-0.14,0.22,0.12,0.15-0.22
		C28.19,31.06,28.22,31.22,28.17,31.03z"/>
	<path class="st1" d="M25.43,26.79c-0.03,0.07,0.06,0.19,0.07,0.24c0.01,0.05-0.02,0.13-0.07,0.18c-0.05,0.04-0.17-0.13-0.17-0.13
		s-0.18,0.06-0.21,0.23c-0.04,0.16,0.19,0.22,0.29,0.12c0.1-0.11,0.04-0.18,0.16-0.17c0.12,0.01,0.26-0.18,0.26-0.18
		c0.1-0.23,0.33-0.36,0.31-0.43c-0.02-0.08-0.07-0.08-0.11-0.13c-0.04-0.05,0.03-0.06,0-0.13c-0.03-0.07-0.05-0.07-0.05-0.07
		C25.62,26.38,25.46,26.71,25.43,26.79z"/>
	<path class="st1" d="M25.48,32.36l0.28-5.29c0,0-0.13,0.19-0.26,0.18c-0.12-0.01-0.07,0.06-0.16,0.17
		c-0.1,0.11-0.33,0.05-0.29-0.12c0.04-0.16,0.21-0.23,0.21-0.23s0.12,0.17,0.17,0.13c0.05-0.04,0.08-0.13,0.07-0.18
		c-0.01-0.05-0.1-0.16-0.07-0.24c0.03-0.07,0.18-0.4,0.48-0.47l0.12-1.22c0,0-2.24-0.05-3.31-0.34l-0.08,0.33c0,0,0.3-0.1,0.37-0.08
		c0.06,0.02,0.17,0.04,0.28,0.11c0.11,0.07,0.28,0.16,0.4,0.17c0.12,0.01,0.4,0.07,0.4,0.07s-0.4-0.04-0.63-0.01
		c-0.23,0.03-0.3,0.1-0.47,0.08c-0.16-0.02-0.29-0.07-0.41-0.05l-1.66,6.5c0,0,1.21,0.22,3.1,0.38
		C24.47,32.3,24.96,32.33,25.48,32.36z"/>
	<g>
		<path class="st1" d="M19.16,20.16c-0.02-0.01-0.03-0.02-0.03-0.02S19.13,20.16,19.16,20.16z"/>
		<path class="st1" d="M19.02,19.47c0.06-0.04,0.08-0.05,0.08-0.05s0.04,0.03,0.35,0.16c0.31,0.13,0.12,0.02,0.29,0.01
			c0.17-0.01,0.09,0,0.17,0c0.09,0,0.05,0.04,0.17,0.19c0.12,0.15,0.01,0.06,0,0.14c-0.01,0.08-0.04,0-0.14-0.04
			c-0.1-0.04-0.17-0.13-0.19-0.15c-0.02-0.02,0.01,0.12-0.05,0.19c-0.05,0.07-0.04,0.02-0.1,0.05c-0.07,0.03,0,0-0.23,0.12
			c-0.11,0.06-0.17,0.07-0.2,0.07c0.05,0.03,0.15,0.08,0.19,0.11c0.05,0.05,0.07,0.07,0.23,0.21c0.16,0.14,0.11-0.07,0.22-0.19
			c0.11-0.12,0.11-0.07,0.27-0.12c0,0,0.14,0.01,0.18,0.05c0.04,0.04-0.01,0.03-0.03,0.14c-0.02,0.11-0.05,0.04-0.25,0.16
			c-0.19,0.12,0.08,0.13,0.19,0.08c0.11-0.06,0.04-0.03,0.22-0.08c0.18-0.05,0.12-0.03,0.15-0.13c0.04-0.09,0-0.1,0.03-0.21
			c0.03-0.1,0.12-0.09,0.15-0.08c0.04,0.01,0,0,0.19,0.24c0.19,0.24,0.09,0.03,0.27,0c0.19-0.03,0.01-0.07,0.01-0.15
			c0-0.08,0.02-0.04,0.1-0.07c0.08-0.03,0.13-0.04,0.18-0.12c0.05-0.08-0.03-0.13-0.24-0.19c-0.21-0.06-0.06,0.02-0.06,0.02
			s-0.03,0.03-0.4,0.03c-0.37,0-0.09-0.08-0.07-0.16c0.01-0.08,0.06-0.09,0.14-0.15c0.08-0.05,0.34-0.09,0.33-0.14
			c-0.01-0.05-0.29-0.05-0.39-0.09c-0.1-0.04-0.16-0.01-0.32,0.02c-0.15,0.02-0.27,0.03-0.39,0.04c-0.12,0.01-0.41-0.05-0.49-0.05
			c-0.08,0-0.08-0.02-0.2-0.05c-0.12-0.03-0.07-0.01-0.4,0C18.66,19.28,18.95,19.51,19.02,19.47z"/>
		<path class="st1" d="M23.81,15.13C23.81,15.13,23.81,15.13,23.81,15.13C23.98,15.14,23.81,15.13,23.81,15.13z"/>
		<path class="st1" d="M16.55,16.81c-0.11,0.13-0.05,0.13-0.17,0.43c-0.12,0.3,0.04,0.17,0.06,0.29c0.03,0.12,0.08,0.05,0.2,0.09
			c0.12,0.04,0.16,0.07,0.08,0.16c-0.08,0.09-0.07,0.04-0.2,0.3c-0.13,0.26,0,0,0.12,0.12c0.12,0.12,0.08-0.04,0.13,0
			c0.05,0.04,0,0.08-0.13,0.43c-0.13,0.36-0.02,0.08-0.16,0.2c-0.14,0.12-0.05,0.05-0.25,0.28c-0.2,0.22-0.07,0.04-0.22,0.36
			c-0.15,0.32,0.07,0.25,0.09,0.33c0.01,0.08,0,0,0.28,0.4c0.28,0.4,0.04,0.12,0,0.38c-0.04,0.26-0.09,0.16-0.29,0.5
			c-0.2,0.34,0.05,0.08,0.16,0.24c0.11,0.16,0.05,0.07,0.26,0.42c0.21,0.36,0.03,0.09,0.03,0.4c0,0.3-0.2,0.21,0,0.28
			c0.2,0.07,0.17,0.11,0.32,0.12c0.14,0.01,0.47,0.16,0.47,0.16c-0.21,0.16-0.09,0.55-0.09,0.55c0.92,0.34,1.56,0.55,1.56,0.55
			c2.14,0.64,3.92,0.97,3.92,0.97c1.07,0.29,3.31,0.34,3.31,0.34l0.29-2.81c0,0-2.24-0.63-2.35-0.68c-0.11-0.04-0.39-0.36-0.52-0.49
			c-0.12-0.13-0.03-0.1-0.1-0.2c-0.07-0.1-0.04,0-0.57,0c-0.53,0-0.11-0.05-0.35-0.27c-0.25-0.22-0.08-0.18-0.12-0.39
			c-0.04-0.21-0.18-0.15-0.55-0.45c-0.38-0.3-0.16-0.22-0.45-0.54c-0.29-0.33-0.09-0.14-0.2-0.32c-0.11-0.18-0.13-0.17-0.14-0.24
			c-0.01-0.07,0.54-0.9,0.56-0.93c0.01-0.03,0.01-0.07,0-0.09c-0.01-0.01-0.08-0.01-0.34-0.2c-0.26-0.19-0.02-0.04-0.23-0.1
			c-0.2-0.07,0,0-0.11,0.18c-0.11,0.18-0.06,0-0.35-0.05c-0.29-0.05-0.03-0.04,0.06-0.1c0.09-0.06,0.1-0.05,0.09-0.1
			c-0.02-0.05-0.06-0.02-0.07-0.06c-0.01-0.04,0.03-0.09,0.13-0.19c0.1-0.1,0.03-0.08,0.02-0.12c-0.01-0.04-0.02,0-0.18,0.09
			s0,0-0.16,0.05c-0.16,0.05-0.01,0.02-0.19,0.27c-0.18,0.25-0.05,0.02-0.15,0c-0.1-0.02,0-0.03-0.02-0.21
			c-0.01-0.19-0.02-0.02-0.06-0.11c-0.04-0.09-0.01-0.05-0.02-0.23c-0.01-0.19,0-0.08,0-0.18c0-0.1,0-0.1-0.03-0.2
			c-0.03-0.1-0.02-0.03-0.1,0c-0.08,0.02-0.02,0.04-0.02,0.07c0,0.02-0.13,0.14-0.2,0.21c-0.07,0.07-0.04,0.03-0.16,0.1
			c-0.12,0.07,0,0-0.07-0.05c-0.07-0.05-0.03-0.01-0.09-0.03c-0.07-0.02-0.21-0.01-0.59,0.1c-0.37,0.11-0.1,0.02-0.33,0
			c-0.22-0.02,0,0,0.04-0.03c0.04-0.03,0.07-0.04,0.34-0.07c0.27-0.03,0.12,0,0.24,0c0.1,0,0.05,0,0.12-0.03
			c0.01,0,0.03-0.01,0.05-0.02c0.15-0.04,0.18-0.15,0.19-0.2c0.01-0.05,0.07-0.08-0.04-0.05c-0.11,0.03-0.03-0.01-0.1-0.08
			c-0.07-0.07,0,0-0.1-0.01c-0.1-0.01-0.08,0.02-0.19,0.05c-0.11,0.03-0.13,0.01-0.34,0.03c-0.21,0.01-0.05,0-0.18,0.03
			c-0.13,0.03-0.03,0-0.21,0.05c-0.18,0.05-0.08,0.01-0.48,0.05c-0.4,0.04-0.03-0.01,0.01-0.05c0.04-0.04,0.04-0.01,0.15-0.02
			c0.1-0.01,0.21-0.19,0.22-0.23c0.01-0.04-0.03-0.01-0.11-0.07c-0.08-0.06-0.09-0.06-0.19-0.06c-0.1,0-0.01,0.03-0.1,0.11
			c-0.09,0.09-0.05,0.02-0.22,0.07c-0.17,0.05-0.04,0.02-0.13,0.08c-0.09,0.06-0.07,0.08-0.09,0.1c-0.03,0.03-0.02,0.02-0.1-0.08
			c-0.09-0.1-0.09-0.03-0.09-0.03s-0.14,0.13-0.32,0.29C16.55,16.81,16.65,16.68,16.55,16.81z"/>
		<path class="st1" d="M25.14,16.59c0,0-0.08-0.14-0.16-0.11c-0.08,0.04-0.17,0.16-0.22,0.13c-0.05-0.03-0.05-0.03-0.05-0.03
			s-0.03,0.04,0.01-0.11c0.04-0.15,0.09-0.16,0.04-0.22c-0.05-0.05,0-0.08-0.12-0.11c-0.12-0.03-0.12-0.13-0.2-0.06
			c-0.08,0.07,0.28,0.14-0.14,0.14c-0.42,0-0.55,0.21-0.42,0c0.13-0.21,0.21-0.24,0.24-0.3c0.03-0.07,0-0.16-0.21-0.08
			c-0.21,0.08-0.32,0.11-0.46,0.13c-0.14,0.03-0.11-0.05-0.22,0.05c-0.12,0.11-0.16,0.2-0.21,0.32c-0.05,0.12-0.04,0.07-0.13,0.09
			c-0.09,0.03-0.24-0.24-0.09,0.03c0.14,0.26,0.13,0.12,0.14,0.26c0.01,0.14-0.25,0.25,0,0.21c0.25-0.04,0.24-0.07,0.36-0.04
			c0.12,0.03,0.32-0.08,0.11,0.12c-0.21,0.21,0.01,0.23-0.32,0.17c-0.33-0.07-0.42-0.09-0.42-0.09S22.5,17,22.59,17.17
			c0.09,0.17-0.11,0.09,0.16,0.22c0.26,0.13-0.18,0.11,0.36,0.17c0.54,0.07,0.5,0,0.7,0.07c0.2,0.07,0.16-0.09,0.2,0.07
			c0.04,0.16,0.37,0.24,0.04,0.16c-0.33-0.08-0.24-0.08-0.39-0.12c-0.16-0.04-0.58-0.08-0.78-0.08c-0.2,0-0.39,0.04-0.39,0.04
			l2.17,0.54L25.14,16.59z"/>
		<path class="st1" d="M21.37,16.21c0.04,0.08,0.07,0.28,0.07,0.28c0.26,0.04,0.08,0.2,0.33,0c0.25-0.2-0.07-0.09,0.32-0.26
			c0.38-0.17,0-0.09,0.38-0.17c0.38-0.08,0.09,0.05,0.38-0.08c0.29-0.13-0.04-0.05,0.34-0.15c0.38-0.1,0.32-0.07,0.5-0.14
			c0.18-0.07,0.01,0,0.18-0.07c0.17-0.07,0.39,0.26,0.17-0.07c-0.2-0.29-0.23-0.4-0.24-0.42c-0.02,0-0.05,0-0.09,0
			c-0.32-0.01-0.34,0.05-0.41,0c-0.07-0.05,0.03-0.01-0.14-0.18c-0.17-0.17-0.18-0.22-0.25-0.25c-0.07-0.03,0.24-0.07-0.21-0.07
			c-0.45,0-0.58-0.14-0.65,0c-0.07,0.14,0.18,0-0.04,0.22c-0.22,0.22-0.34,0.26-0.45,0.34c-0.11,0.08-0.14-0.14-0.13,0.2
			c0.01,0.34,0.23,0.31,0.06,0.43c-0.17,0.12-0.28,0.08-0.24,0.19C21.29,16.12,21.33,16.13,21.37,16.21z"/>
		<path class="st1" d="M24.73,13.79c-0.05,0.11-0.05-0.04-0.05,0.11c0,0.14-0.25,0.26-0.25,0.26s-0.01-0.03-0.08,0.01
			c-0.07,0.04-0.25,0.03-0.09,0.11c0.16,0.08,0.36-0.03,0.16,0.08c-0.2,0.11-0.16-0.05-0.2,0.11s-0.17,0.14,0.04,0.2
			c0.21,0.05-0.05,0.13,0.21,0.05c0.26-0.08,0.16-0.16,0.33-0.14c0.17,0.01,0.12,0,0.26,0.1c0.14,0.11,0.33,0.11,0.33,0.11
			c-0.16,0.07,0,0.11-0.25,0.12c-0.25,0.01-0.34-0.05-0.41,0c-0.07,0.05-0.2-0.04-0.13,0.11c0.07,0.14-0.2,0.09,0.07,0.14
			c0.26,0.05,0.05,0.05,0.3,0c0.25-0.05,0.11-0.11,0.36-0.09c0.25,0.01,0.25,0.03,0.34,0c0.08-0.02,0.13-0.12,0.15-0.16
			c0-0.01,0.01-0.01,0.01-0.01v-0.24c0,0-0.28-0.05-0.32-0.08c-0.04-0.03-0.04-0.03-0.04-0.03s-0.03-0.07-0.03-0.13
			c0-0.07,0.07,0.03,0-0.07c-0.07-0.09-0.08-0.01-0.13-0.14c-0.05-0.13-0.13-0.21-0.13-0.21s0.03,0.04-0.05,0
			c-0.08-0.04,0-0.05-0.14-0.12C24.85,13.8,24.78,13.68,24.73,13.79z"/>
		<path class="st1" d="M23.45,13.65c0.05,0.05,0.05-0.07,0.16-0.15c0.11-0.08,0.01,0.07,0.13,0.25c0.12,0.18,0,0,0.17-0.16
			c0,0,0.11,0.08,0.16,0.04c0.05-0.04,0.07-0.05,0.26-0.05c0.2,0,0,0-0.01,0.08c-0.01,0.08,0,0.08,0.22-0.07
			c0.22-0.14,0.12-0.09,0.22-0.28c0.11-0.18,0,0,0.09-0.08c0.09-0.08,0.11-0.08,0.14-0.26c0.04-0.18,0,0-0.22-0.01
			c-0.22-0.01,0,0-0.21-0.03c-0.21-0.03,0,0-0.24,0.05c-0.24,0.05-0.08,0.07-0.33,0.24c-0.25,0.17,0,0-0.32,0.07
			c-0.32,0.07-0.2,0.03-0.32,0.08C23.25,13.42,23.4,13.6,23.45,13.65z"/>
		<path class="st1" d="M24.24,14c0-0.06-0.1-0.17-0.1-0.17c-0.08,0.04-0.11,0.11-0.17,0.13c-0.07,0.03-0.16,0-0.16,0.08
			s0.12,0.16,0.17,0.12c0.05-0.04,0.01-0.01,0.11-0.08C24.19,14.01,24.24,14.06,24.24,14z"/>
		<path class="st1" d="M25.71,13.3c0.38,0.07,0.38,0.26,0.38,0.07s0.08-0.29,0-0.29c-0.08,0-0.22,0.13-0.08,0
			c0.14-0.13,0.38-0.07,0.14-0.13c-0.24-0.07-0.08-0.12-0.24-0.07c-0.16,0.05-0.16,0.03-0.24,0.09c-0.08,0.07-0.16,0.11-0.16,0.11
			C25.62,13.21,25.33,13.24,25.71,13.3z"/>
		<path class="st1" d="M26.41,12.74c0-0.01,0-0.04-0.01-0.12c-0.01-0.13-0.08-0.1-0.26-0.14c-0.22-0.05-0.25,0.26-0.25,0.26
			s0,0,0.11-0.03c0.11-0.03,0.11,0.08,0.11,0.08S26.1,12.79,26.41,12.74C26.41,12.75,26.41,12.74,26.41,12.74z"/>
	</g>
	<path class="st1" d="M29.08,32.65c0.01,0.01,0.02,0.01,0.03,0.02C29.1,32.66,29.09,32.66,29.08,32.65z"/>
	<path class="st1" d="M27.63,30.43c0.06,0,0.1-0.13,0.08,0.04c-0.02,0.16-0.05,0.1-0.02,0.2c0.03,0.1-0.01,0.1,0.07,0.12
		c0.08,0.02,0.16,0.08,0.16,0.08c-0.05,0.14-0.09,0.14-0.04,0.26c0.04,0.13,0.12,0.17,0.07,0.27c-0.05,0.1-0.19,0.11-0.04,0.16
		c0.15,0.05,0.07,0.19,0.19,0.06c0.12-0.14,0.22,0.12,0.15-0.22c-0.07-0.34-0.04-0.18-0.09-0.37c-0.05-0.19-0.04-0.16-0.07-0.24
		c-0.03-0.08,0.03-0.01-0.04-0.1c-0.07-0.09-0.04,0.07-0.07-0.17c-0.03-0.24,0-0.13-0.07-0.32c-0.07-0.19-0.03-0.15-0.1-0.24
		c-0.06-0.1-0.05,0-0.09-0.16c-0.04-0.16,0-0.09-0.07-0.2c-0.07-0.12-0.1-0.1-0.13-0.18c-0.03-0.08-0.07-0.02,0-0.16
		c0.07-0.14,0.16-0.03,0.06-0.21c-0.11-0.17,0.06-0.36-0.12-0.2c-0.18,0.16-0.01,0.07-0.22,0.21c-0.2,0.13-0.22,0.04-0.26,0.15
		c-0.04,0.11-0.02,0.05-0.06,0.17c-0.04,0.12,0.03,0.15-0.09,0.19c-0.12,0.04,0.05,0.14-0.15,0.04c-0.2-0.1-0.26-0.08-0.25-0.12
		c0.01-0.03-0.1,0.04,0.04-0.1s0.2-0.1,0.21-0.22c0.01-0.13,0.14-0.16-0.04-0.18c-0.19-0.02-0.16-0.13-0.26,0.03
		c-0.11,0.16-0.13,0.14-0.13,0.23c0,0.1,0.21,0.02-0.02,0.11c-0.23,0.09-0.27,0.04-0.24,0.11c0.03,0.07,0.01,0.05,0.07,0.1
		c0.06,0.04,0.1-0.05,0.06,0.04c-0.04,0.09,0,0.1-0.07,0.11c-0.07,0.01-0.12-0.13-0.13-0.01c0,0.12-0.03,0.12,0.02,0.23
		c0.04,0.11,0,0.09,0.04,0.18c0.04,0.09,0.17,0.01,0.18,0.01c0.01,0-0.03,0.11,0.04-0.01c0.07-0.12,0.01-0.1,0.08-0.17
		c0.07-0.06,0.03-0.22,0.1-0.08c0.07,0.13,0.09,0.11,0.03,0.22c-0.05,0.11-0.09,0.22-0.1,0.34c-0.01,0.13-0.09,0.17,0.03,0.17
		c0.11,0,0.03-0.11,0.15-0.01c0.11,0.1,0,0.09,0.13,0.16c0.13,0.07,0.16-0.04,0.17,0.07c0.01,0.12-0.01,0.08-0.01,0.24
		c0,0.16-0.01,0.14,0.03,0.23c0.04,0.09,0.06,0.05,0.05,0.13c-0.02,0.08-0.22,0.08,0,0.11c0.22,0.03,0.22,0.12,0.33,0.02
		c0.11-0.1,0.18,0.03,0.11-0.1c-0.07-0.13-0.01-0.07-0.11-0.19c-0.1-0.12-0.12-0.03-0.17-0.22c-0.05-0.19-0.09-0.13-0.06-0.25
		c0.03-0.12,0.22-0.09,0.02-0.16c-0.2-0.06-0.1-0.05-0.2-0.06c-0.1-0.02-0.06,0.08-0.13-0.03c-0.06-0.1-0.08-0.15-0.1-0.18
		c-0.03-0.03-0.11,0.11-0.01-0.07c0.1-0.18,0.13-0.1,0.1-0.22c-0.03-0.13-0.03-0.08-0.06-0.18c-0.03-0.1-0.15-0.1-0.02-0.15
		c0.13-0.04,0.01-0.09,0.17-0.04c0.16,0.04,0.19,0.07,0.26,0.07c0.07,0,0.13-0.09,0.09,0.02c-0.04,0.1-0.13,0.13-0.08,0.18
		c0.05,0.05-0.01-0.06,0.1,0.08c0.11,0.14,0.1,0.02,0.14,0.17c0.03,0.15-0.08,0.15,0.06,0.17c0.14,0.01,0.01,0.04,0.16,0.04
		C27.6,30.45,27.57,30.42,27.63,30.43z"/>
	<path class="st1" d="M28.66,32.48c0,0,0.29,0.06,0.42,0.17c0.01-0.02,0.03-0.04,0.05-0.06c0.21-0.26,0.24-0.17,0.21-0.26
		c-0.02-0.09-0.17-0.39-0.19-0.43c-0.02,0.01-0.05,0.02-0.15,0.05c-0.21,0.07-0.21,0.07-0.21,0.07l0.01,0.34
		C28.69,32.37,28.66,32.48,28.66,32.48z"/>
	<path class="st1" d="M27.79,32.48c0.46,0.02,0.82,0.02,0.87,0c0,0,0.02-0.11,0.14-0.12l-0.01-0.34l-0.05-2.08l2.73-2.75
		c0,0-0.43-0.09-0.62-0.21c-0.18-0.12-0.36-0.05-0.43,0c-0.08,0.05-0.38,0.13-0.45,0.14c-0.07,0.01,0.11-0.14,0.03-0.34
		c-0.08-0.2-0.26-0.67-0.34-0.74c-0.08-0.07-0.17-0.13-0.28-0.13c-0.11,0-0.34-0.12-0.34-0.16c0-0.04-0.08-0.25-0.01-0.51
		c0,0-2.44,0.01-2.99-0.14l-0.12,1.22c0,0,0.02,0,0.05,0.07c0.03,0.07-0.03,0.08,0,0.13c0.04,0.05,0.09,0.05,0.11,0.13
		c0.02,0.08-0.21,0.2-0.31,0.43l-0.28,5.29C25.48,32.36,26.85,32.44,27.79,32.48z M27.45,30.44c-0.14,0-0.01-0.03-0.16-0.04
		c-0.14-0.01-0.03-0.02-0.06-0.17c-0.03-0.15-0.03-0.03-0.14-0.17c-0.11-0.14-0.05-0.03-0.1-0.08c-0.05-0.05,0.03-0.07,0.08-0.18
		c0.04-0.1-0.02-0.02-0.09-0.02c-0.07,0-0.09-0.03-0.26-0.07c-0.16-0.04-0.04,0-0.17,0.04c-0.13,0.04-0.02,0.05,0.02,0.15
		c0.03,0.1,0.03,0.05,0.06,0.18c0.03,0.13,0,0.04-0.1,0.22c-0.1,0.18-0.02,0.04,0.01,0.07c0.03,0.03,0.04,0.08,0.1,0.18
		c0.06,0.1,0.03,0.01,0.13,0.03c0.1,0.02,0,0,0.2,0.06c0.2,0.06,0.01,0.03-0.02,0.16c-0.03,0.12,0.01,0.06,0.06,0.25
		c0.05,0.19,0.07,0.1,0.17,0.22c0.1,0.12,0.04,0.06,0.11,0.19c0.07,0.13,0,0-0.11,0.1c-0.11,0.1-0.11,0.02-0.33-0.02
		c-0.22-0.03-0.02-0.03,0-0.11c0.02-0.08-0.01-0.04-0.05-0.13c-0.04-0.09-0.03-0.07-0.03-0.23c0-0.16,0.02-0.13,0.01-0.24
		c-0.01-0.12-0.04,0-0.17-0.07c-0.13-0.07-0.02-0.06-0.13-0.16c-0.11-0.1-0.03,0-0.15,0.01c-0.11,0-0.03-0.04-0.03-0.17
		c0.01-0.13,0.04-0.23,0.1-0.34c0.05-0.11,0.04-0.09-0.03-0.22c-0.07-0.13-0.03,0.02-0.1,0.08c-0.07,0.06,0,0.05-0.08,0.17
		c-0.07,0.12-0.03,0-0.04,0.01c-0.01,0-0.14,0.08-0.18-0.01c-0.04-0.09,0-0.07-0.04-0.18c-0.04-0.11-0.02-0.11-0.02-0.23
		c0-0.12,0.06,0.03,0.13,0.01c0.07-0.01,0.03-0.02,0.07-0.11c0.04-0.09,0,0-0.06-0.04c-0.06-0.04-0.03-0.03-0.07-0.1
		c-0.03-0.07,0-0.02,0.24-0.11c0.23-0.09,0.02-0.01,0.02-0.11c0-0.1,0.03-0.08,0.13-0.23c0.11-0.16,0.08-0.04,0.26-0.03
		c0.19,0.02,0.06,0.05,0.04,0.18c-0.01,0.13-0.07,0.08-0.21,0.22s-0.03,0.06-0.04,0.1c-0.01,0.03,0.05,0.02,0.25,0.12
		c0.2,0.1,0.03,0,0.15-0.04c0.12-0.04,0.05-0.06,0.09-0.19c0.04-0.12,0.02-0.06,0.06-0.17c0.04-0.11,0.06-0.01,0.26-0.15
		c0.2-0.13,0.03-0.05,0.22-0.21c0.18-0.16,0.01,0.03,0.12,0.2c0.11,0.17,0.01,0.07-0.06,0.21c-0.07,0.14-0.03,0.08,0,0.16
		c0.03,0.08,0.06,0.06,0.13,0.18c0.07,0.12,0.03,0.05,0.07,0.2c0.04,0.16,0.03,0.06,0.09,0.16c0.06,0.1,0.03,0.05,0.1,0.24
		c0.07,0.19,0.04,0.08,0.07,0.32c0.03,0.24,0.01,0.08,0.07,0.17c0.07,0.09,0.01,0.02,0.04,0.1c0.03,0.08,0.02,0.05,0.07,0.24
		c0.05,0.19,0.01,0.03,0.09,0.37c0.07,0.34-0.03,0.08-0.15,0.22c-0.12,0.14-0.04,0-0.19-0.06c-0.15-0.05-0.02-0.07,0.04-0.16
		c0.05-0.1-0.03-0.14-0.07-0.27c-0.04-0.13,0-0.12,0.04-0.26c0,0-0.07-0.06-0.16-0.08c-0.08-0.02-0.04-0.02-0.07-0.12
		c-0.03-0.1,0-0.03,0.02-0.2c0.02-0.16-0.02-0.03-0.08-0.04C27.57,30.42,27.6,30.45,27.45,30.44z"/>
	<g>
		<path class="st1" d="M47.87,26.15c-0.03-0.21,0,0-0.16-0.18c-0.16-0.18-0.18,0.03-0.87-0.13c-0.68-0.16,0,0-0.26-0.26
			c-0.26-0.26-0.16-0.06-0.63-0.16c0,0-0.24-0.05-0.95-0.12c-0.71-0.07-0.21-0.19-0.53-0.43c-0.32-0.24,0,0-0.47-0.1
			c-0.47-0.1-0.18,0.08-0.61,0c-0.42-0.08-0.11-0.11-0.18-0.29c-0.08-0.18-0.26-0.18-0.71-0.55c-0.45-0.37,0,0-0.26-0.06
			c-0.26-0.06-0.16-0.23-0.37-0.52c-0.21-0.29,0,0-0.13-0.14c-0.13-0.14-0.37-0.05-0.47-0.12C41.16,23.01,41.01,23,41.01,23s0,0,0,0
			c0.03,0.01,0,0.15,0.04,0.2c0.05,0.07,0.15,0.19,0.41,0.44c0.26,0.25,0.13,0.13,0.23,0.21c0.1,0.08,0.2,0.13,0.2,0.13
			s0,0,0.03,0.1c0.03,0.1,0.03,0.1,0.23,0.36c0.2,0.26,0.11,0,0.25,0s0.03,0.1,0.1,0.28c0.07,0.18,0.11,0.11,0.21,0.31
			c0.1,0.2,0.11,0,0.11,0s0.26,0.15,0.57,0.41c0.31,0.26,0,0.13-0.11,0.33c-0.11,0.2-0.03,0.13-0.07,0.33c-0.03,0.2,0,0-0.13,0.2
			c-0.13,0.2,0,0-0.26,0.21c-0.26,0.21-0.11-0.01-0.41,0c-0.3,0.02-0.11-0.02-0.3,0c-0.18,0.02-0.08,0.08-0.18,0.41
			c-0.1,0.33,0.02,0.2,0.13,0.28c0.11,0.08,0.13,0.13,0.21,0.23c0.08,0.1,0.13,0.1,0.36,0.2c0.23,0.1,0.08-0.03,0.23-0.03
			c0.15,0,0.05,0.07,0.16,0.28c0.11,0.21,0.07,0.08,0.2,0.18c0.13,0.1,0.11-0.11,0.23-0.15c0.11-0.03,0,0,0.16,0.1
			c0.16,0.1,0.13,0.02,0.2,0.02c0.07,0,0.07-0.18,0.07-0.18s-0.1-0.38-0.07-0.46c0.03-0.08,0.03-0.08,0.13-0.18
			c0.1-0.1,0.05,0.12,0.07,0.28c0.02,0.16,0.03,0.08,0.26,0.13c0.23,0.05,0.08,0.05,0.08,0.05s0,0,0.33,0.05
			c0.33,0.05,0.11-0.03,0.15-0.1c0.03-0.07,0.13-0.11,0.28-0.21c0.15-0.1,0.26-0.08,0.72-0.2c0.46-0.12,0.15-0.08,0.46-0.16
			c0.31-0.08,0.26-0.13,0.51-0.21c0.25-0.08,0.39-0.15,0.39-0.15l0.21,0.23c0,0,0,0,0.14-0.17c0.14-0.17,0.16-0.08,0.32-0.21
			C48.03,26.39,47.9,26.36,47.87,26.15z"/>
		<path class="st1" d="M51.45,28.99c-0.15-0.58,0.07-0.46-0.15-0.58c-0.22-0.12-0.22-0.27-0.38-0.19c-0.15,0.08-0.17,0.17-0.24,0.14
			c-0.07-0.03-0.08,0.14-0.13-0.19c-0.05-0.33,0.2-0.44-0.05-0.33c-0.25,0.11-0.25,0.29-0.29,0.19c-0.04-0.1-0.01-0.26-0.1-0.37
			c-0.09-0.11-0.08-0.29-0.22-0.16c-0.14,0.13-0.03,0.05-0.26,0.25c-0.23,0.21-0.21,0.32-0.26,0.07c-0.05-0.25,0.08-0.41-0.08-0.33
			c-0.16,0.08-0.15,0.12-0.28,0.22c-0.13,0.09,0.08,0.29-0.13,0.09c-0.22-0.2-0.14-0.38-0.28-0.38c-0.14-0.01-0.25,0.02-0.25-0.04
			c-0.01-0.05,0.09-0.08,0.05-0.17c-0.04-0.09-0.16-0.18-0.16-0.18s-0.05-0.1,0.02-0.15c0.07-0.05-0.17-0.32-0.25-0.16
			c0,0-0.05-0.06-0.15,0.08c-0.1,0.14-0.15,0.21-0.15,0.29c-0.01,0.08-0.05-0.07,0,0.18c0.05,0.25,0.13,0.09,0.07,0.34
			c-0.06,0.25-0.08,0.18-0.09,0.45c-0.01,0.26-0.01,0.24,0.1,0.45c0.11,0.21,0.23,0.15,0.11,0.42c-0.12,0.27-0.21,0.2-0.09,0.42
			c0.12,0.22-0.51,0.28,0.12,0.22c0.62-0.05,0.46,0.12,0.74-0.05c0.28-0.17-0.12,0.01,0.32-0.18c0.45-0.19,0.18-0.08,0.45-0.19
			c0.27-0.12,0.11,0.08,0.4-0.17c0.29-0.25,0.25-0.6,0.29-0.25c0.04,0.35,0.1,0.32,0,0.47c-0.1,0.15-0.17,0.18-0.16,0.27
			c0.01,0.09-0.17,0.32,0.13,0.1c0.3-0.22,0.24-0.03,0.31-0.25c0.07-0.22,0.01-0.07,0.1-0.26c0.09-0.19-0.04-0.22,0.09-0.19
			c0.13,0.02,0.05,0.07,0.14,0.2c0.08,0.13-0.17,0.21,0.15,0.15c0.32-0.06,0.2-0.01,0.37-0.06C51.42,29.07,51.6,29.58,51.45,28.99z"
			/>
	</g>
	<path class="st1" d="M31.17,32.8c-0.18,0.04-0.17-0.07-0.25,0.08c-0.02,0.04-0.01,0.08,0.01,0.12c0,0,0.1,0.06,0.19,0.04
		c0.09-0.02,0.15-0.05,0.21-0.04c0.06,0.01,0.06,0.04,0.14,0.04c0.04,0,0.1-0.02,0.14-0.03C31.26,32.82,31.34,32.76,31.17,32.8z"/>
	<path class="st1" d="M39.66,34.58c-0.13,0.09-0.04,0.14-0.2,0.17c-0.08,0.01-0.13,0.01-0.16,0.01c0,0.01,0,0.01,0.01,0.02
		c0.07,0.18,0.18,0.33-0.03,0.26c-0.21-0.07-0.09-0.09-0.31-0.12c-0.22-0.03-0.03-0.14-0.3-0.01c-0.27,0.13-0.27,0.2-0.37,0.23
		c-0.09,0.04-0.09-0.05-0.17,0.1c-0.08,0.16-0.26,0.23-0.09,0.25c0.17,0.01,0.35,0,0.35,0s0.03-0.01,0.05,0c0,0,0-0.05,0.24-0.09
		c0.24-0.04,0.21-0.09,0.34-0.07c0.13,0.02,0.16,0.09,0.29,0.08c0.13-0.01,0.01,0.04,0.23-0.08c0.22-0.13,0.16-0.04,0.3-0.2
		c0.14-0.16,0.13-0.11,0.14-0.2c0.01-0.09-0.15-0.25-0.05-0.45l0,0c-0.01,0.01-0.03,0.01-0.05,0.02
		C39.73,34.56,39.79,34.48,39.66,34.58z"/>
	<path class="st1" d="M38,36.29C38,36.29,38,36.29,38,36.29C38,36.29,38,36.29,38,36.29z"/>
	<path class="st1" d="M29.08,32.65c0.01,0.01,0.02,0.01,0.03,0.02C29.1,32.66,29.09,32.66,29.08,32.65z"/>
	<path class="st1" d="M45.69,32.15c0.08-0.05,0.06-0.06,0.12-0.12c0.06-0.06,0.01-0.01,0.06-0.06c0-0.1-0.01-0.21-0.02-0.31
		c-0.02,0-0.03,0-0.06-0.02c-0.08-0.06,0.08-0.04-0.17-0.16c-0.24-0.12-0.23-0.14-0.33-0.21c-0.1-0.07-0.13,0.13-0.14-0.08
		c-0.01-0.21,0.04-0.38,0.01-0.42c-0.03-0.03,0-0.26-0.14-0.04c-0.14,0.22-0.05,0.45-0.24,0.29c-0.19-0.16-0.11-0.25-0.28-0.27
		c-0.03,0.02-0.06,0.04-0.09,0.06c-0.38,0.26-0.08,0.02-0.33,0.11c-0.25,0.1-0.08,0.05-0.23,0.08c-0.15,0.03-0.18,0.05-0.36,0.13
		c-0.18,0.08,0,0-0.15,0.11c-0.15,0.11,0.03,0.18,0,0.31c0,0,0.06-0.04,0.15,0c0.09,0.04,0.19,0.04,0.24,0.12
		c0.05,0.08,0.03,0.03,0.05,0.23c0.02,0.21,0,0.28,0.09,0.38c0.09,0.1-0.03,0.08,0.13,0.15c0.16,0.07,0.1,0.07,0.23,0.1
		c0.13,0.03,0.13-0.18,0.18,0c0.05,0.18,0.01,0.22,0.05,0.27c0.01,0.02,0.01,0.03,0,0.03c0.01-0.01,0.05-0.02,0.12-0.03
		c0.15-0.03,0.13-0.01,0.18-0.02c0.02,0,0.06-0.01,0.13-0.04c0.23-0.08,0.16,0.1,0.3-0.1c0.14-0.2-0.03-0.15,0.21-0.31
		C45.65,32.18,45.61,32.2,45.69,32.15z"/>
	<path class="st1" d="M48.19,30.7c-0.26,0.11-0.18,0.28-0.33,0.16c-0.15-0.13-0.13-0.14-0.22-0.34c-0.1-0.2,0.01-0.35-0.1-0.2
		c-0.11,0.16-0.2,0.05-0.14,0.28c0.07,0.23,0.13,0.19,0.1,0.39c-0.03,0.2-0.08,0.24-0.1,0.28c-0.02,0.04,0.21-0.08-0.07,0.11
		c-0.28,0.19-0.26,0.23-0.35,0.22c-0.09-0.02,0.02-0.09-0.14-0.03c-0.17,0.07-0.15,0.18-0.29,0.13c-0.14-0.04-0.11-0.01-0.19-0.07
		c-0.08-0.06,0.14-0.13-0.17-0.08c-0.15,0.02-0.23,0.05-0.28,0.07c0.01,0.1,0.02,0.19,0.02,0.29c0.09,0.09,0.09,0.12-0.01,0.2
		c-0.11,0.08-0.39,0.23-0.13,0.12c0.26-0.11,0.14-0.13,0.38-0.13c0.24,0,0.21-0.05,0.24,0c0.03,0.05,0.17,0.1-0.04,0.15
		c-0.21,0.05-0.08-0.01-0.29,0.08c-0.21,0.08-0.2-0.02-0.27,0.18c-0.07,0.2,0.09,0.16-0.08,0.32c-0.17,0.16-0.24,0.12-0.28,0.23
		c-0.04,0.11-0.13,0.13-0.03,0.25c0.1,0.12-0.22,0.15,0.22,0.22c0.43,0.07,0.3,0.33,0.49,0.07c0.19-0.26,0.3,0.03,0.21-0.34
		c-0.09-0.37-0.11-0.31-0.04-0.54c0.07-0.23-0.15-0.22,0.11-0.24c0.26-0.03-0.06,0.15,0.33-0.03c0.38-0.18,0.25-0.02,0.46-0.22
		c0.21-0.2,0.22-0.13,0.25-0.25c0.03-0.13-0.18-0.06,0.06-0.16c0.23-0.1,0.18,0.01,0.23-0.1c0.06-0.11-0.08,0.04,0.08-0.18
		c0.16-0.21,0.16-0.06,0.19-0.26c0.03-0.21,0.11-0.21,0.18-0.38C48.27,30.73,48.45,30.59,48.19,30.7z"/>
	<path class="st1" d="M29.41,32.75c0.3,0.05,0.08,0.04,0.26-0.03c0.18-0.07,0.05,0,0.39-0.04c0.34-0.04,0.08,0.01,0.37,0.25
		c0.29,0.23,0,0,0.37,0.1c0.26,0.07,0.18,0.04,0.14-0.04c-0.02-0.03-0.03-0.07-0.01-0.12c0.08-0.14,0.07-0.04,0.25-0.08
		c0.17-0.04,0.09,0.02,0.44,0.21c0.03,0.02,0.06,0.03,0.1,0.05c0.46,0.23,0.07,0.03,0.3,0.01c0.23-0.01,0.05-0.09,0.18-0.4
		c0.13-0.31,0.12-0.16,0.37-0.26c0.25-0.1,0.18,0.08,0.52,0.09c0.34,0.01,0.13,0.04,0.31,0c0.18-0.04,0.08,0.06,0.22,0.19
		c0.14,0.13,0.2,0.16,0.3,0.18c0.1,0.03,0.03,0.07,0.18,0.26c0.16,0.2,0,0,0.13-0.1c0.13-0.1,0.13-0.04,0.22-0.03
		c0.09,0.01,0.12,0.18,0.13,0.22c0.01,0.04,0.01,0.05,0.04,0.4c0.03,0.35,0.03,0.16,0.13,0.18c0.1,0.03,0.13,0.01,0.56,0.04
		c0.43,0.03,0.12,0.09,0.38,0.26c0.26,0.17,0,0,0.13-0.09c0.13-0.09,0.13-0.03,0.47-0.08c0.34-0.05,0.12,0,0.26,0
		c0.14,0,0.07-0.01,0.38-0.07c0.31-0.05,0.08,0.04,0.31,0.2c0.23,0.16,0.08,0.09,0.22,0.2c0.14,0.1,0.01,0.05,0.1,0.39
		c0.09,0.34-0.04,0.13-0.1,0.17c-0.07,0.04,0,0-0.4-0.08c-0.4-0.08-0.17-0.09-0.31-0.13c-0.14-0.04,0,0,0.03,0.12
		c0.03,0.12,0.07,0.13,0.12,0.24c0.05,0.1-0.07,0.08-0.18,0.35c-0.12,0.27,0,0,0,0.18c0,0.18,0,0-0.05,0.31
		c-0.05,0.31-0.04,0.05-0.12,0.05c-0.08,0,0,0.09-0.12,0.23c-0.12,0.14,0,0-0.27,0.52c-0.27,0.52,0,0,0.26,0.07
		c0.26,0.07,0.18-0.05,0.33-0.26c0.14-0.21,0.1-0.2,0.29-0.26c0.18-0.07,0.14,0,0.39,0c0.25,0,0.12-0.07,0.22-0.16
		c0.1-0.09,0.1-0.09,0.4-0.2c0.3-0.1,0.17,0.01,0.29,0c0.03,0,0.05-0.01,0.06-0.02c0.03-0.03,0.02-0.08,0.05-0.19
		c0.03-0.08,0.01-0.11-0.01-0.12c-0.02-0.01-0.05,0-0.05,0s-0.18,0.01-0.35,0c-0.17-0.01,0.01-0.09,0.09-0.25
		c0.08-0.16,0.08-0.07,0.17-0.1c0.09-0.04,0.09-0.1,0.37-0.23c0.27-0.13,0.08-0.01,0.3,0.01c0.22,0.03,0.1,0.05,0.31,0.12
		c0.21,0.07,0.09-0.08,0.03-0.26c0-0.01,0-0.01-0.01-0.02c0.03,0,0.08,0,0.16-0.01c0.16-0.03,0.07-0.08,0.2-0.17
		c0.13-0.09,0.08-0.01,0.22-0.08c0.02-0.01,0.03-0.02,0.05-0.02c0.08-0.04,0.03-0.02,0.12-0.1c0.1-0.09,0.08-0.08,0.17-0.18
		c0.09-0.1,0.12-0.13,0.22-0.22c0.1-0.09,0.21-0.05,0.33-0.08c0.12-0.03,0.07-0.2-0.05-0.39c-0.12-0.2-0.55-0.08-0.73-0.04
		c-0.18,0.04-0.72,0.27-1.25,0.33c-0.54,0.05-0.84-0.43-1.16-0.8c-0.33-0.37-0.72-2.38-0.72-2.38s-0.07-0.01-0.13-0.1
		c-0.07-0.09-0.16,0-0.16,0s-0.05,0.01-0.29-0.34c-0.24-0.35-0.1-0.08-0.44-0.2c-0.34-0.12-0.1-0.08-0.2-0.25
		c-0.09-0.17-0.04-0.07-0.22-0.14c-0.18-0.08,0,0-0.21-0.16c-0.21-0.16,0.04-0.13,0.08-0.35c0.04-0.22-0.05-0.08-0.2-0.4
		c-0.14-0.33-0.08-0.23-0.13-0.4c-0.05-0.17-0.07-0.13-0.2-0.26c-0.13-0.13-0.09-0.05-0.39-0.08c-0.3-0.03-0.18,0.01-0.34,0.04
		c-0.16,0.03-0.23,0.05-0.44,0.16c-0.21,0.1-0.08-0.05-0.22-0.17c-0.14-0.12-0.05,0.03-0.2,0c-0.15-0.03-0.14-0.04-0.74-0.16
		c-0.6-0.12-0.09-0.07-0.34-0.18c-0.25-0.12-0.1-0.08-0.17-0.15c-0.07-0.07-0.13-0.07-0.25-0.18c-0.12-0.1-0.2-0.1-0.2-0.1
		l-2.73,2.75l0.05,2.08c0,0,0,0,0.21-0.07c0.09-0.03,0.13-0.04,0.15-0.05c0.02,0.04,0.17,0.34,0.19,0.43c0.03,0.09,0,0-0.21,0.26
		c-0.02,0.02-0.04,0.04-0.05,0.06c0.01,0,0.02,0.01,0.03,0.02C29.17,32.69,29.27,32.72,29.41,32.75z"/>
	<path class="st1" d="M38.73,33.79c0.54-0.05,1.07-0.29,1.25-0.33c0.18-0.04,0.61-0.16,0.73,0.04c0.12,0.2,0.17,0.37,0.05,0.39
		c0,0,0.12-0.04,0.34-0.1c0.21-0.07-0.02-0.05,0.31-0.1c0.04-0.01,0.08-0.01,0.11-0.01c0.19,0.01,0.1,0.16,0.35,0.01
		c0.23-0.14,0.15-0.02,0.21-0.08c0.02-0.02,0.04-0.05,0.09-0.1c0.15-0.17,0.17-0.18,0.21-0.25c0.02-0.03,0.04-0.07,0.07-0.15
		c0.11-0.25,0.15-0.23,0.15-0.34c0-0.11-0.07,0,0-0.28c0.07-0.29,0-0.06,0.1-0.39c0.1-0.33,0-0.38,0.13-0.46
		c0.13-0.08-0.18-0.1,0.13-0.08c0.31,0.02,0.36,0.12,0.39-0.01c0.03-0.13-0.15-0.19,0-0.31c0.15-0.11-0.03-0.03,0.15-0.11
		c0.18-0.08,0.21-0.1,0.36-0.13c0.15-0.03-0.02,0.02,0.23-0.08c0.25-0.1-0.05,0.15,0.33-0.11c0.03-0.02,0.06-0.04,0.09-0.06
		c0.29-0.19,0.3-0.14,0.4-0.32c0.11-0.2,0.16-0.28,0.16-0.28s0.05-0.08-0.07-0.15c-0.11-0.07-0.18-0.18-0.34-0.1
		c-0.16,0.08-0.15,0.1-0.46,0.2c-0.31,0.1-0.43,0.18-0.43,0.18s-0.07,0.02-0.2,0.1c-0.13,0.08-0.1,0-0.25,0.13
		c-0.15,0.13-0.16,0.11-0.26,0.23c-0.1,0.11-0.03,0.03-0.21,0.26c-0.18,0.23-0.13,0.28-0.28,0.43c-0.15,0.15-0.25,0.23-0.25,0.23
		s0.02-0.56,0.08-0.77c0.07-0.21-0.05-0.14,0.13-0.37c0.18-0.23,0.23-0.2,0.38-0.31c0.15-0.11-0.02,0.11,0.15-0.11
		c0.16-0.23,0.05-0.13,0.21-0.36c0.16-0.23-0.25,0,0.16-0.23c0.41-0.23,0.11-0.1,0.72-0.26c0.61-0.16,0.49-0.08,0.79-0.21
		c0.3-0.13-0.02,0.03,0.41-0.16c0.43-0.2,0.26-0.07,0.56-0.25c0.3-0.18,0.11-0.02,0.43-0.28c0.31-0.26,0.31-0.13,0.41-0.34
		c0.1-0.21-0.03-0.2,0.1-0.39c0.13-0.2,0.07-0.1,0.26-0.33c0.2-0.23,0.3-0.38,0.3-0.38l-0.21-0.23c0,0-0.15,0.07-0.39,0.15
		c-0.25,0.08-0.2,0.13-0.51,0.21c-0.31,0.08,0,0.05-0.46,0.16c-0.46,0.12-0.57,0.1-0.72,0.2c-0.15,0.1-0.25,0.15-0.28,0.21
		c-0.03,0.07,0.18,0.15-0.15,0.1c-0.33-0.05-0.33-0.05-0.33-0.05s0.15,0-0.08-0.05c-0.23-0.05-0.25,0.03-0.26-0.13
		c-0.02-0.16,0.03-0.38-0.07-0.28c-0.1,0.1-0.1,0.1-0.13,0.18c-0.03,0.08,0.07,0.46,0.07,0.46s0,0.18-0.07,0.18
		c-0.07,0-0.03,0.08-0.2-0.02c-0.16-0.1-0.05-0.13-0.16-0.1c-0.11,0.03-0.1,0.25-0.23,0.15c-0.13-0.1-0.08,0.03-0.2-0.18
		c-0.11-0.21-0.02-0.28-0.16-0.28c-0.15,0,0,0.13-0.23,0.03c-0.23-0.1-0.28-0.1-0.36-0.2c-0.08-0.1-0.1-0.15-0.21-0.23
		c-0.11-0.08-0.23,0.05-0.13-0.28c0.1-0.33,0-0.39,0.18-0.41c0.18-0.02,0,0.02,0.3,0c0.3-0.02,0.15,0.2,0.41,0
		c0.26-0.21,0.13-0.01,0.26-0.21c0.13-0.2,0.1,0,0.13-0.2c0.03-0.2-0.05-0.13,0.07-0.33c0.11-0.2,0.43-0.07,0.11-0.33
		c-0.31-0.26-0.57-0.41-0.57-0.41s-0.02,0.2-0.11,0c-0.1-0.2-0.15-0.13-0.21-0.31c-0.07-0.18,0.03-0.28-0.1-0.28s-0.05,0.26-0.25,0
		c-0.2-0.26-0.2-0.26-0.23-0.36c-0.03-0.1-0.03-0.1-0.03-0.1s-0.1-0.05-0.2-0.13c-0.1-0.08,0.03,0.03-0.23-0.21
		c-0.26-0.25-0.36-0.36-0.41-0.44c-0.04-0.05-0.01-0.19-0.04-0.2c-0.01,0-0.03,0.01-0.06,0.06c-0.11,0.17-0.02,0.54-0.02,0.54
		c0.08,0.31,0.21,0.23,0.05,0.39c-0.16,0.16-0.11,0.13-0.22,0.25c-0.11,0.11-0.03,0.08-0.11,0.18c-0.08,0.1,0.02,0.13-0.16,0.13
		c-0.18,0-0.1,0.05-0.18,0c-0.08-0.05,0.08,0.07-0.08-0.05c-0.16-0.11,0.05-0.1-0.16-0.11c-0.21-0.02-0.25-0.1-0.34-0.02
		c-0.1,0.08,0.03,0.41-0.1,0.08c-0.13-0.33-0.1-0.41-0.18-0.44c-0.08-0.03-0.11-0.1-0.18-0.13c-0.07-0.03-0.05,0.1-0.08-0.13
		c-0.03-0.23-0.23-0.41-0.28-0.4c-0.05,0.01,0-0.15,0-0.15s-0.2-0.04-0.34,0c-0.15,0.04,0.02,0.2-0.25,0
		c-0.26-0.2-0.23-0.29-0.36-0.3c-0.13-0.02-0.15-0.18-0.48-0.13c-0.33,0.05-0.34,0-0.51,0s0.02-0.13-0.26,0
		c-0.28,0.13-0.16,0.13-0.38,0.12c-0.21-0.02-0.07-0.03-0.34-0.03c-0.28,0-0.25-0.07-0.39,0.03c-0.15,0.1-0.15,0.1-0.15,0.1
		s-0.02-0.09,0,0.08c0.02,0.17,0.05,0.19,0.13,0.29c0.08,0.1,0.23,0.02,0.08,0.28c-0.15,0.26-0.33,0.18-0.22,0.36
		c0.11,0.18,0.11,0.11,0.19,0.2c0.08,0.08,0.1-0.03,0.18,0.18c0.08,0.21,0.18-0.18,0.08,0.21c-0.1,0.39,0,0.21-0.11,0.51
		c-0.11,0.31-0.48,0.18-0.11,0.31c0.36,0.13-0.43-0.3,0.48,0.13c0.9,0.43,1,0.3,1,0.46c0,0.16-0.1,0.02,0,0.28
		c0.1,0.26,0.15,0.07,0.11,0.41c-0.03,0.34-0.15,0.57-0.3,0.75c-0.15,0.18-0.13,0.18-0.28,0.28c-0.15,0.1-0.08,0.08-0.26,0.18
		c-0.18,0.1-0.18,0.35-0.15,0.41c0.03,0.05-0.02,0.05,0.18,0.32c0.2,0.26,0.15,0.2,0.28,0.43c0.13,0.23-0.07-0.07,0.13,0.23
		s0.21,0.03,0.2,0.3c-0.02,0.26-0.1,0.28-0.13,0.41c-0.03,0.13-0.15-0.07-0.03,0.13c0.11,0.2,0.27,0.08,0.11,0.3
		c-0.15,0.22-0.15,0.22-0.15,0.22s0.39,2.01,0.72,2.38C37.89,33.36,38.19,33.85,38.73,33.79z"/>
</g>
</svg>
