<?xml version="1.0" encoding="utf-8"?>
<!-- Generator: Adobe Illustrator 23.0.4, SVG Export Plug-In . SVG Version: 6.00 Build 0)  -->
<svg version="1.1" id="Layer_1" xmlns="http://www.w3.org/2000/svg" xmlns:xlink="http://www.w3.org/1999/xlink" x="0px" y="0px"
	 viewBox="0 0 420 140" style="enable-background:new 0 0 420 140;" xml:space="preserve">
<style type="text/css">
	.st0{fill:#F3FAFD;}
	.st1{fill:#333333;}
	.st2{fill:#26A7DF;}
</style>
<path class="st0" d="M36.87,60.81L36.87,60.81c-14.01,0-25.36-11.35-25.36-25.36v0c0-14.01,11.35-25.36,25.36-25.36h0
	c14.01,0,25.36,11.35,25.36,25.36v0C62.23,49.45,50.87,60.81,36.87,60.81z"/>
<g>
	<path class="st1" d="M78.6,14.71c0-0.21,0.06-0.39,0.22-0.77l0.91-1.93h0.77l-0.55,2.05c0.22,0.17,0.34,0.39,0.34,0.66
		c0,0.45-0.38,0.83-0.84,0.83C78.98,15.54,78.6,15.16,78.6,14.71z M81.01,14.71c0-0.21,0.06-0.39,0.22-0.77l0.91-1.93h0.77
		l-0.55,2.05c0.22,0.17,0.34,0.39,0.34,0.66c0,0.45-0.38,0.83-0.84,0.83C81.39,15.54,81.01,15.16,81.01,14.71z"/>
	<path class="st1" d="M86.15,22.51h-1.2v-9.64h1.2V22.51z"/>
	<path class="st1" d="M90.25,14.08v1.06h1.82l-0.13,0.91h-1.69v6.46h-1.18v-6.46h-1.3v-0.91h1.3V14.1c0-1.22,0.8-2.06,2.24-2.06
		c0.69,0,1.18,0.13,1.75,0.38l-0.38,0.85c-0.48-0.21-0.91-0.28-1.3-0.28C90.56,12.99,90.25,13.34,90.25,14.08z"/>
	<path class="st1" d="M100.16,22.56c-0.52,1.57-1.34,2.66-3.32,2.91l-0.14-0.92c1.5-0.28,1.91-0.85,2.34-2.03h-0.41l-2.49-7.37h1.26
		l2.03,6.51l1.99-6.51h1.22L100.16,22.56z"/>
	<path class="st1" d="M110.06,18.82c0,2.31-1.19,3.87-3.25,3.87s-3.24-1.5-3.24-3.84c0-2.31,1.19-3.87,3.25-3.87
		C108.9,14.98,110.06,16.46,110.06,18.82z M104.84,18.84c0,1.95,0.7,2.89,1.98,2.89c1.27,0,1.99-0.94,1.99-2.91
		c0-1.95-0.7-2.89-1.98-2.89C105.56,15.93,104.84,16.87,104.84,18.84z"/>
	<path class="st1" d="M117.66,22.51h-1.01l-0.1-1.19c-0.55,0.9-1.25,1.36-2.31,1.36c-1.3,0-2.06-0.81-2.06-2.25v-5.28h1.18v5.15
		c0,1.05,0.36,1.44,1.2,1.44s1.46-0.55,1.92-1.32v-5.28h1.18V22.51z"/>
	<path class="st1" d="M129.63,21.86l-0.28,0.83c-0.71-0.1-1.18-0.39-1.37-1.13c-0.52,0.78-1.3,1.13-2.21,1.13
		c-1.46,0-2.33-0.91-2.33-2.23c0-1.57,1.18-2.41,3.19-2.41h1.2v-0.59c0-1.09-0.52-1.51-1.58-1.51c-0.56,0-1.23,0.14-1.99,0.41
		l-0.29-0.87c0.88-0.34,1.68-0.5,2.49-0.5c1.75,0,2.55,0.9,2.55,2.42v3.42C129.02,21.51,129.24,21.72,129.63,21.86z M127.84,20.58
		v-1.75h-1.05c-1.37,0-2.1,0.52-2.1,1.57c0,0.9,0.46,1.39,1.34,1.39C126.83,21.79,127.42,21.38,127.84,20.58z"/>
	<path class="st1" d="M135.57,15.06l-0.21,1.15c-0.22-0.06-0.38-0.08-0.64-0.08c-0.94,0-1.47,0.66-1.81,2.07v4.31h-1.18v-7.37h1.01
		l0.11,1.54c0.39-1.13,1.08-1.71,1.99-1.71C135.09,14.98,135.36,15.01,135.57,15.06z"/>
	<path class="st1" d="M142.12,19.24h-4.75c0.13,1.78,0.94,2.48,2.06,2.48c0.74,0,1.29-0.21,1.93-0.66l0.52,0.7
		c-0.71,0.57-1.53,0.92-2.54,0.92c-2.03,0-3.22-1.44-3.22-3.78c0-2.31,1.15-3.92,3.03-3.92c1.98,0,3,1.39,3,3.61
		C142.15,18.84,142.13,19.08,142.12,19.24z M140.99,18.26c0-1.48-0.59-2.34-1.81-2.34c-1.02,0-1.71,0.73-1.81,2.45h3.61V18.26z"/>
	<path class="st1" d="M147.96,21.11v-8.94l1.18-0.14v9.05c0,0.41,0.14,0.62,0.49,0.62c0.18,0,0.34-0.03,0.48-0.08l0.31,0.83
		c-0.27,0.14-0.62,0.24-0.98,0.24C148.53,22.68,147.96,22.14,147.96,21.11z"/>
	<path class="st1" d="M157.97,18.82c0,2.31-1.19,3.87-3.25,3.87s-3.24-1.5-3.24-3.84c0-2.31,1.19-3.87,3.25-3.87
		C156.81,14.98,157.97,16.46,157.97,18.82z M152.74,18.84c0,1.95,0.7,2.89,1.98,2.89c1.27,0,1.99-0.94,1.99-2.91
		c0-1.95-0.7-2.89-1.98-2.89C153.47,15.93,152.74,16.87,152.74,18.84z"/>
	<path class="st1" d="M166.1,18.82c0,2.31-1.19,3.87-3.25,3.87s-3.24-1.5-3.24-3.84c0-2.31,1.19-3.87,3.25-3.87
		C164.94,14.98,166.1,16.46,166.1,18.82z M160.88,18.84c0,1.95,0.7,2.89,1.98,2.89c1.27,0,1.99-0.94,1.99-2.91
		c0-1.95-0.7-2.89-1.98-2.89C161.61,15.93,160.88,16.87,160.88,18.84z"/>
	<path class="st1" d="M169.47,22.51h-1.18V12.18l1.18-0.14V22.51z M170.87,18.41l3.12,4.1h-1.41l-3.03-4.02l2.8-3.35h1.32
		L170.87,18.41z"/>
	<path class="st1" d="M176.8,12.49c0,0.46-0.34,0.81-0.84,0.81c-0.49,0-0.83-0.35-0.83-0.81c0-0.46,0.34-0.81,0.83-0.81
		C176.46,11.67,176.8,12.02,176.8,12.49z M176.56,22.51h-1.18v-7.37h1.18V22.51z"/>
	<path class="st1" d="M184.82,17.23v5.28h-1.18V17.4c0-1.13-0.46-1.5-1.22-1.5c-0.87,0-1.46,0.55-1.96,1.36v5.25h-1.18v-7.37h1.01
		l0.1,1.11c0.55-0.76,1.32-1.27,2.31-1.27C184.05,14.98,184.82,15.83,184.82,17.23z"/>
	<path class="st1" d="M193.3,15.44c-0.59,0.18-1.27,0.21-2.13,0.22c0.85,0.38,1.29,0.99,1.29,1.89c0,1.44-1.04,2.48-2.77,2.48
		c-0.34,0-0.64-0.04-0.94-0.14c-0.25,0.17-0.41,0.43-0.41,0.73c0,0.35,0.22,0.63,1.01,0.63h1.18c1.5,0,2.48,0.85,2.48,2
		c0,1.42-1.13,2.21-3.39,2.21c-2.37,0-3.14-0.71-3.14-2.2h1.06c0,0.88,0.42,1.27,2.07,1.27c1.62,0,2.2-0.43,2.2-1.2
		c0-0.73-0.57-1.09-1.53-1.09h-1.16c-1.29,0-1.88-0.64-1.88-1.37c0-0.49,0.28-0.95,0.8-1.29c-0.84-0.45-1.23-1.09-1.23-2.06
		c0-1.5,1.18-2.55,2.8-2.55c1.86,0.04,2.51-0.24,3.33-0.62L193.3,15.44z M188.02,17.53c0,1.04,0.59,1.72,1.62,1.72
		c1.05,0,1.61-0.63,1.61-1.72c0-1.09-0.55-1.69-1.64-1.69C188.57,15.83,188.02,16.55,188.02,17.53z"/>
	<path class="st1" d="M199.74,14.08v1.06h1.82l-0.13,0.91h-1.69v6.46h-1.18v-6.46h-1.3v-0.91h1.3V14.1c0-1.22,0.8-2.06,2.24-2.06
		c0.69,0,1.18,0.13,1.75,0.38l-0.38,0.85c-0.48-0.21-0.91-0.28-1.3-0.28C200.05,12.99,199.74,13.34,199.74,14.08z"/>
	<path class="st1" d="M208.9,18.82c0,2.31-1.19,3.87-3.25,3.87s-3.24-1.5-3.24-3.84c0-2.31,1.19-3.87,3.25-3.87
		C207.74,14.98,208.9,16.46,208.9,18.82z M203.67,18.84c0,1.95,0.7,2.89,1.98,2.89c1.27,0,1.99-0.94,1.99-2.91
		c0-1.95-0.7-2.89-1.98-2.89C204.4,15.93,203.67,16.87,203.67,18.84z"/>
	<path class="st1" d="M214.93,15.06l-0.21,1.15c-0.22-0.06-0.38-0.08-0.64-0.08c-0.94,0-1.47,0.66-1.81,2.07v4.31h-1.18v-7.37h1.01
		l0.11,1.54c0.39-1.13,1.08-1.71,1.99-1.71C214.46,14.98,214.72,15.01,214.93,15.06z"/>
	<path class="st1" d="M225.7,21.86l-0.28,0.83c-0.71-0.1-1.18-0.39-1.37-1.13c-0.52,0.78-1.3,1.13-2.21,1.13
		c-1.46,0-2.33-0.91-2.33-2.23c0-1.57,1.18-2.41,3.19-2.41h1.2v-0.59c0-1.09-0.52-1.51-1.58-1.51c-0.56,0-1.23,0.14-1.99,0.41
		l-0.29-0.87c0.88-0.34,1.68-0.5,2.49-0.5c1.75,0,2.55,0.9,2.55,2.42v3.42C225.08,21.51,225.31,21.72,225.7,21.86z M223.91,20.58
		v-1.75h-1.05c-1.37,0-2.1,0.52-2.1,1.57c0,0.9,0.46,1.39,1.34,1.39C222.9,21.79,223.49,21.38,223.91,20.58z"/>
	<path class="st1" d="M237.37,15.44c-0.59,0.18-1.27,0.21-2.13,0.22c0.85,0.38,1.29,0.99,1.29,1.89c0,1.44-1.04,2.48-2.77,2.48
		c-0.34,0-0.64-0.04-0.94-0.14c-0.25,0.17-0.41,0.43-0.41,0.73c0,0.35,0.22,0.63,1.01,0.63h1.18c1.5,0,2.48,0.85,2.48,2
		c0,1.42-1.13,2.21-3.39,2.21c-2.37,0-3.14-0.71-3.14-2.2h1.06c0,0.88,0.42,1.27,2.07,1.27c1.62,0,2.2-0.43,2.2-1.2
		c0-0.73-0.57-1.09-1.53-1.09h-1.16c-1.29,0-1.88-0.64-1.88-1.37c0-0.49,0.28-0.95,0.8-1.29c-0.84-0.45-1.23-1.09-1.23-2.06
		c0-1.5,1.18-2.55,2.8-2.55c1.86,0.04,2.51-0.24,3.33-0.62L237.37,15.44z M232.09,17.53c0,1.04,0.59,1.72,1.62,1.72
		c1.05,0,1.61-0.63,1.61-1.72c0-1.09-0.55-1.69-1.64-1.69C232.64,15.83,232.09,16.55,232.09,17.53z"/>
	<path class="st1" d="M244.5,18.82c0,2.31-1.19,3.87-3.25,3.87c-2.06,0-3.24-1.5-3.24-3.84c0-2.31,1.19-3.87,3.25-3.87
		C243.34,14.98,244.5,16.46,244.5,18.82z M239.28,18.84c0,1.95,0.7,2.89,1.97,2.89c1.28,0,1.99-0.94,1.99-2.91
		c0-1.95-0.7-2.89-1.97-2.89C240,15.93,239.28,16.87,239.28,18.84z"/>
	<path class="st1" d="M252.63,18.82c0,2.31-1.19,3.87-3.25,3.87c-2.06,0-3.24-1.5-3.24-3.84c0-2.31,1.19-3.87,3.25-3.87
		C251.47,14.98,252.63,16.46,252.63,18.82z M247.41,18.84c0,1.95,0.7,2.89,1.97,2.89c1.28,0,1.99-0.94,1.99-2.91
		c0-1.95-0.7-2.89-1.97-2.89C248.14,15.93,247.41,16.87,247.41,18.84z"/>
	<path class="st1" d="M260.42,12.18v10.34h-1.02l-0.13-1.04c-0.46,0.73-1.2,1.2-2.14,1.2c-1.78,0-2.77-1.51-2.77-3.82
		c0-2.26,1.08-3.88,2.89-3.88c0.9,0,1.53,0.42,2,0.92v-3.87L260.42,12.18z M259.24,20.58v-3.67c-0.45-0.6-0.98-0.99-1.75-0.99
		c-1.15,0-1.88,0.97-1.88,2.93s0.64,2.9,1.75,2.9C258.22,21.74,258.75,21.32,259.24,20.58z"/>
	<path class="st1" d="M272.5,15.15v10.32l-1.18-0.14v-3.8c-0.48,0.7-1.2,1.15-2.12,1.15c-1.78,0-2.77-1.51-2.77-3.82
		c0-2.26,1.08-3.88,2.89-3.88c0.95,0,1.6,0.46,2.09,1.01l0.08-0.84H272.5z M271.32,20.58v-3.67c-0.45-0.6-0.98-0.99-1.75-0.99
		c-1.15,0-1.88,0.97-1.88,2.93s0.64,2.9,1.77,2.9C270.3,21.74,270.83,21.32,271.32,20.58z"/>
	<path class="st1" d="M280.65,22.51h-1.01l-0.1-1.19c-0.55,0.9-1.25,1.36-2.31,1.36c-1.3,0-2.06-0.81-2.06-2.25v-5.28h1.18v5.15
		c0,1.05,0.36,1.44,1.2,1.44c0.84,0,1.46-0.55,1.92-1.32v-5.28h1.18V22.51z"/>
	<path class="st1" d="M288.86,21.86l-0.28,0.83c-0.71-0.1-1.18-0.39-1.37-1.13c-0.52,0.78-1.3,1.13-2.21,1.13
		c-1.46,0-2.33-0.91-2.33-2.23c0-1.57,1.18-2.41,3.19-2.41h1.2v-0.59c0-1.09-0.52-1.51-1.58-1.51c-0.56,0-1.23,0.14-1.99,0.41
		l-0.29-0.87c0.88-0.34,1.68-0.5,2.49-0.5c1.75,0,2.55,0.9,2.55,2.42v3.42C288.25,21.51,288.47,21.72,288.86,21.86z M287.07,20.58
		v-1.75h-1.05c-1.37,0-2.1,0.52-2.1,1.57c0,0.9,0.46,1.39,1.34,1.39C286.06,21.79,286.65,21.38,287.07,20.58z"/>
	<path class="st1" d="M290.75,21.11v-8.94l1.18-0.14v9.05c0,0.41,0.14,0.62,0.49,0.62c0.18,0,0.34-0.03,0.48-0.08l0.31,0.83
		c-0.27,0.14-0.62,0.24-0.98,0.24C291.33,22.68,290.75,22.14,290.75,21.11z"/>
	<path class="st1" d="M296.31,12.49c0,0.46-0.34,0.81-0.84,0.81c-0.49,0-0.83-0.35-0.83-0.81c0-0.46,0.34-0.81,0.83-0.81
		C295.97,11.67,296.31,12.02,296.31,12.49z M296.07,22.51h-1.18v-7.37h1.18V22.51z"/>
	<path class="st1" d="M302.43,22.19c-0.48,0.32-1.01,0.49-1.62,0.49c-1.22,0-1.95-0.71-1.95-2.06v-4.57h-1.27v-0.91h1.27v-1.69
		l1.18-0.13v1.82h1.78l-0.13,0.91h-1.65v4.51c0,0.77,0.27,1.13,0.92,1.13c0.35,0,0.66-0.1,1.02-0.31L302.43,22.19z"/>
	<path class="st1" d="M306.52,22.56c-0.52,1.57-1.34,2.66-3.32,2.91l-0.14-0.92c1.5-0.28,1.9-0.85,2.34-2.03h-0.41l-2.49-7.37h1.26
		l2.03,6.51l1.99-6.51H309L306.52,22.56z"/>
	<path class="st1" d="M311.11,21.77c0,0.29-0.07,0.56-0.24,0.94l-0.91,2.09h-0.84l0.56-2.27c-0.22-0.17-0.38-0.45-0.38-0.76
		c0-0.49,0.39-0.9,0.9-0.9C310.73,20.88,311.11,21.28,311.11,21.77z"/>
	<path class="st1" d="M318.25,14.08v1.06h1.82l-0.13,0.91h-1.7v6.46h-1.18v-6.46h-1.3v-0.91h1.3V14.1c0-1.22,0.8-2.06,2.24-2.06
		c0.69,0,1.18,0.13,1.75,0.38l-0.38,0.85c-0.48-0.21-0.91-0.28-1.3-0.28C318.56,12.99,318.25,13.34,318.25,14.08z"/>
	<path class="st1" d="M326.79,21.86l-0.28,0.83c-0.71-0.1-1.18-0.39-1.37-1.13c-0.52,0.78-1.3,1.13-2.21,1.13
		c-1.46,0-2.33-0.91-2.33-2.23c0-1.57,1.18-2.41,3.19-2.41h1.2v-0.59c0-1.09-0.52-1.51-1.58-1.51c-0.56,0-1.23,0.14-1.99,0.41
		l-0.29-0.87c0.88-0.34,1.68-0.5,2.49-0.5c1.75,0,2.55,0.9,2.55,2.42v3.42C326.17,21.51,326.4,21.72,326.79,21.86z M325,20.58v-1.75
		h-1.05c-1.37,0-2.1,0.52-2.1,1.57c0,0.9,0.46,1.39,1.34,1.39C323.99,21.79,324.58,21.38,325,20.58z"/>
	<path class="st1" d="M333.16,15.82l-0.5,0.74c-0.66-0.43-1.22-0.64-1.92-0.64c-0.87,0-1.43,0.41-1.43,1.04s0.42,0.91,1.64,1.23
		c1.55,0.41,2.42,0.99,2.42,2.28c0,1.5-1.36,2.21-2.84,2.21c-1.25,0-2.12-0.41-2.76-0.97L328.4,21c0.6,0.45,1.27,0.73,2.1,0.73
		c0.98,0,1.64-0.45,1.64-1.19c0-0.77-0.38-1.05-1.83-1.44c-1.58-0.42-2.21-1.08-2.21-2.12c0-1.16,1.11-2,2.6-2
		C331.7,14.98,332.46,15.29,333.16,15.82z"/>
	<path class="st1" d="M338.9,22.19c-0.48,0.32-1.01,0.49-1.62,0.49c-1.22,0-1.95-0.71-1.95-2.06v-4.57h-1.27v-0.91h1.27v-1.69
		l1.18-0.13v1.82h1.78l-0.13,0.91h-1.65v4.51c0,0.77,0.27,1.13,0.92,1.13c0.35,0,0.66-0.1,1.02-0.31L338.9,22.19z"/>
	<path class="st1" d="M350.02,18.82c0,2.25-0.98,3.87-2.87,3.87c-0.83,0-1.5-0.29-1.96-0.87v3.52l-1.18,0.14V15.15h1.01l0.1,1.02
		c0.53-0.76,1.32-1.19,2.18-1.19C349.23,14.98,350.02,16.48,350.02,18.82z M348.75,18.82c0-1.96-0.59-2.9-1.74-2.9
		c-0.81,0-1.43,0.56-1.83,1.18v3.68c0.39,0.59,0.98,0.94,1.69,0.94C348.1,21.72,348.75,20.79,348.75,18.82z"/>
	<path class="st1" d="M356.12,15.06l-0.21,1.15c-0.22-0.06-0.38-0.08-0.64-0.08c-0.94,0-1.47,0.66-1.81,2.07v4.31h-1.18v-7.37h1.01
		l0.11,1.54c0.39-1.13,1.08-1.71,1.99-1.71C355.64,14.98,355.91,15.01,356.12,15.06z"/>
	<path class="st1" d="M363.16,18.82c0,2.31-1.19,3.87-3.25,3.87c-2.06,0-3.24-1.5-3.24-3.84c0-2.31,1.19-3.87,3.25-3.87
		C362,14.98,363.16,16.46,363.16,18.82z M357.94,18.84c0,1.95,0.7,2.89,1.98,2.89c1.27,0,1.99-0.94,1.99-2.91
		c0-1.95-0.7-2.89-1.97-2.89C358.67,15.93,357.94,16.87,357.94,18.84z"/>
	<path class="st1" d="M371.18,15.44c-0.59,0.18-1.28,0.21-2.13,0.22c0.85,0.38,1.29,0.99,1.29,1.89c0,1.44-1.04,2.48-2.77,2.48
		c-0.34,0-0.64-0.04-0.94-0.14c-0.25,0.17-0.41,0.43-0.41,0.73c0,0.35,0.22,0.63,1.01,0.63h1.18c1.5,0,2.48,0.85,2.48,2
		c0,1.42-1.13,2.21-3.39,2.21c-2.37,0-3.14-0.71-3.14-2.2h1.06c0,0.88,0.42,1.27,2.07,1.27c1.62,0,2.2-0.43,2.2-1.2
		c0-0.73-0.57-1.09-1.53-1.09h-1.16c-1.29,0-1.88-0.64-1.88-1.37c0-0.49,0.28-0.95,0.8-1.29c-0.84-0.45-1.23-1.09-1.23-2.06
		c0-1.5,1.18-2.55,2.8-2.55c1.86,0.04,2.51-0.24,3.33-0.62L371.18,15.44z M365.9,17.53c0,1.04,0.59,1.72,1.62,1.72
		c1.05,0,1.61-0.63,1.61-1.72c0-1.09-0.55-1.69-1.64-1.69C366.45,15.83,365.9,16.55,365.9,17.53z"/>
	<path class="st1" d="M376.42,15.06l-0.21,1.15c-0.22-0.06-0.38-0.08-0.64-0.08c-0.94,0-1.47,0.66-1.81,2.07v4.31h-1.18v-7.37h1.01
		l0.11,1.54c0.39-1.13,1.08-1.71,1.99-1.71C375.94,14.98,376.21,15.01,376.42,15.06z"/>
	<path class="st1" d="M382.97,19.24h-4.75c0.13,1.78,0.94,2.48,2.06,2.48c0.74,0,1.29-0.21,1.93-0.66l0.52,0.7
		c-0.71,0.57-1.53,0.92-2.54,0.92c-2.03,0-3.22-1.44-3.22-3.78c0-2.31,1.15-3.92,3.03-3.92c1.97,0,3,1.39,3,3.61
		C383,18.84,382.98,19.08,382.97,19.24z M381.84,18.26c0-1.48-0.59-2.34-1.81-2.34c-1.02,0-1.71,0.73-1.81,2.45h3.61V18.26z"/>
	<path class="st1" d="M389.54,15.82l-0.5,0.74c-0.66-0.43-1.22-0.64-1.92-0.64c-0.87,0-1.43,0.41-1.43,1.04s0.42,0.91,1.64,1.23
		c1.55,0.41,2.42,0.99,2.42,2.28c0,1.5-1.36,2.21-2.84,2.21c-1.25,0-2.12-0.41-2.76-0.97l0.63-0.71c0.6,0.45,1.27,0.73,2.1,0.73
		c0.98,0,1.64-0.45,1.64-1.19c0-0.77-0.38-1.05-1.83-1.44c-1.58-0.42-2.21-1.08-2.21-2.12c0-1.16,1.11-2,2.6-2
		C388.08,14.98,388.83,15.29,389.54,15.82z"/>
	<path class="st1" d="M395.91,15.82l-0.5,0.74c-0.66-0.43-1.22-0.64-1.92-0.64c-0.87,0-1.43,0.41-1.43,1.04s0.42,0.91,1.64,1.23
		c1.55,0.41,2.42,0.99,2.42,2.28c0,1.5-1.36,2.21-2.84,2.21c-1.25,0-2.12-0.41-2.76-0.97l0.63-0.71c0.6,0.45,1.27,0.73,2.1,0.73
		c0.98,0,1.64-0.45,1.64-1.19c0-0.77-0.38-1.05-1.83-1.44c-1.58-0.42-2.21-1.08-2.21-2.12c0-1.16,1.11-2,2.6-2
		C394.45,14.98,395.21,15.29,395.91,15.82z"/>
	<path class="st1" d="M85.91,42.91H84.3l-1.36-6.3l-1.4,6.3h-1.57l-1.75-7.37h1.19l1.39,6.54l1.51-6.54h1.32l1.46,6.54l1.4-6.54
		h1.12L85.91,42.91z"/>
	<path class="st1" d="M90.7,32.89c0,0.46-0.34,0.81-0.84,0.81c-0.49,0-0.83-0.35-0.83-0.81c0-0.46,0.34-0.81,0.83-0.81
		C90.36,32.07,90.7,32.42,90.7,32.89z M90.46,42.91h-1.18v-7.37h1.18V42.91z"/>
	<path class="st1" d="M96.82,42.59c-0.48,0.32-1.01,0.49-1.62,0.49c-1.22,0-1.95-0.71-1.95-2.06v-4.57h-1.27v-0.91h1.27v-1.69
		l1.18-0.13v1.82h1.78l-0.13,0.91h-1.65v4.51c0,0.77,0.27,1.13,0.92,1.13c0.35,0,0.66-0.1,1.02-0.31L96.82,42.59z"/>
	<path class="st1" d="M103.71,37.63v5.28h-1.18V37.8c0-1.13-0.48-1.5-1.23-1.5c-0.84,0-1.44,0.55-1.95,1.34v5.27h-1.18V32.59
		l1.18-0.14v4.15c0.55-0.74,1.29-1.22,2.24-1.22C102.92,35.38,103.71,36.25,103.71,37.63z"/>
	<path class="st1" d="M113.95,35.46l-0.21,1.15c-0.22-0.06-0.38-0.08-0.64-0.08c-0.94,0-1.47,0.66-1.81,2.07v4.31h-1.18v-7.37h1.01
		l0.11,1.54c0.39-1.13,1.08-1.71,1.99-1.71C113.48,35.38,113.74,35.41,113.95,35.46z"/>
	<path class="st1" d="M120.5,39.64h-4.75c0.13,1.78,0.94,2.48,2.06,2.48c0.74,0,1.29-0.21,1.93-0.66l0.52,0.7
		c-0.71,0.57-1.53,0.92-2.54,0.92c-2.03,0-3.22-1.44-3.22-3.78c0-2.31,1.15-3.92,3.03-3.92c1.98,0,3,1.39,3,3.61
		C120.53,39.24,120.52,39.48,120.5,39.64z M119.37,38.66c0-1.48-0.59-2.34-1.81-2.34c-1.02,0-1.71,0.73-1.81,2.45h3.61V38.66z"/>
	<path class="st1" d="M128.01,42.26l-0.28,0.83c-0.71-0.1-1.18-0.39-1.37-1.13c-0.52,0.78-1.3,1.13-2.21,1.13
		c-1.46,0-2.33-0.91-2.33-2.23c0-1.57,1.18-2.41,3.19-2.41h1.2v-0.59c0-1.09-0.52-1.51-1.58-1.51c-0.56,0-1.23,0.14-1.99,0.41
		l-0.29-0.87c0.88-0.34,1.68-0.5,2.49-0.5c1.75,0,2.55,0.9,2.55,2.42v3.42C127.39,41.91,127.62,42.12,128.01,42.26z M126.22,40.98
		v-1.75h-1.05c-1.37,0-2.1,0.52-2.1,1.57c0,0.9,0.46,1.39,1.34,1.39C125.21,42.19,125.8,41.78,126.22,40.98z"/>
	<path class="st1" d="M134.38,36.22l-0.5,0.74c-0.66-0.43-1.22-0.64-1.92-0.64c-0.87,0-1.43,0.41-1.43,1.04s0.42,0.91,1.64,1.23
		c1.56,0.41,2.42,0.99,2.42,2.28c0,1.5-1.36,2.21-2.84,2.21c-1.25,0-2.12-0.41-2.76-0.97l0.63-0.71c0.6,0.45,1.27,0.73,2.1,0.73
		c0.98,0,1.64-0.45,1.64-1.19c0-0.77-0.38-1.05-1.83-1.44c-1.58-0.42-2.21-1.08-2.21-2.12c0-1.16,1.11-2,2.61-2
		C132.92,35.38,133.68,35.69,134.38,36.22z"/>
	<path class="st1" d="M142.43,39.22c0,2.31-1.19,3.87-3.25,3.87s-3.24-1.5-3.24-3.84c0-2.31,1.19-3.87,3.25-3.87
		C141.27,35.38,142.43,36.86,142.43,39.22z M137.2,39.24c0,1.95,0.7,2.89,1.98,2.89c1.27,0,1.99-0.94,1.99-2.91
		c0-1.95-0.7-2.89-1.98-2.89C137.93,36.33,137.2,37.27,137.2,39.24z"/>
	<path class="st1" d="M150.16,37.63v5.28h-1.18V37.8c0-1.13-0.46-1.5-1.22-1.5c-0.87,0-1.46,0.55-1.96,1.36v5.25h-1.18v-7.37h1.01
		l0.1,1.11c0.55-0.76,1.32-1.27,2.31-1.27C149.39,35.38,150.16,36.23,150.16,37.63z"/>
	<path class="st1" d="M158.3,42.26l-0.28,0.83c-0.71-0.1-1.18-0.39-1.37-1.13c-0.52,0.78-1.3,1.13-2.21,1.13
		c-1.46,0-2.33-0.91-2.33-2.23c0-1.57,1.18-2.41,3.19-2.41h1.2v-0.59c0-1.09-0.52-1.51-1.58-1.51c-0.56,0-1.23,0.14-1.99,0.41
		l-0.29-0.87c0.88-0.34,1.68-0.5,2.49-0.5c1.75,0,2.55,0.9,2.55,2.42v3.42C157.69,41.91,157.91,42.12,158.3,42.26z M156.51,40.98
		v-1.75h-1.05c-1.37,0-2.1,0.52-2.1,1.57c0,0.9,0.46,1.39,1.34,1.39C155.5,42.19,156.09,41.78,156.51,40.98z"/>
	<path class="st1" d="M166.41,39.22c0,2.33-1.08,3.87-2.87,3.87c-0.84,0-1.48-0.39-1.99-0.99l-0.13,0.83h-1.02V32.58l1.18-0.14v4.05
		c0.5-0.69,1.2-1.11,2.12-1.11C165.36,35.38,166.41,36.77,166.41,39.22z M165.15,39.22c0-2.11-0.7-2.9-1.78-2.9
		c-0.84,0-1.4,0.56-1.79,1.18v3.63c0.39,0.6,0.99,1.02,1.69,1.02C164.39,42.14,165.15,41.26,165.15,39.22z"/>
	<path class="st1" d="M168.61,41.51v-8.94l1.18-0.14v9.05c0,0.41,0.14,0.62,0.49,0.62c0.18,0,0.34-0.03,0.48-0.08l0.31,0.83
		c-0.27,0.14-0.62,0.24-0.98,0.24C169.18,43.08,168.61,42.54,168.61,41.51z"/>
	<path class="st1" d="M178.13,39.64h-4.75c0.13,1.78,0.94,2.48,2.06,2.48c0.74,0,1.29-0.21,1.93-0.66l0.52,0.7
		c-0.71,0.57-1.53,0.92-2.54,0.92c-2.03,0-3.22-1.44-3.22-3.78c0-2.31,1.15-3.92,3.03-3.92c1.98,0,3,1.39,3,3.61
		C178.16,39.24,178.14,39.48,178.13,39.64z M176.99,38.66c0-1.48-0.59-2.34-1.81-2.34c-1.02,0-1.71,0.73-1.81,2.45h3.61V38.66z"/>
	<path class="st1" d="M190.04,39.22c0,2.26-0.98,3.87-2.87,3.87c-0.83,0-1.5-0.29-1.96-0.87v3.52l-1.18,0.14V35.55h1.01l0.1,1.02
		c0.53-0.76,1.32-1.19,2.19-1.19C189.26,35.38,190.04,36.88,190.04,39.22z M188.78,39.22c0-1.96-0.59-2.9-1.74-2.9
		c-0.81,0-1.43,0.56-1.83,1.18v3.68c0.39,0.59,0.98,0.94,1.69,0.94C188.12,42.12,188.78,41.19,188.78,39.22z"/>
	<path class="st1" d="M196.15,35.46l-0.21,1.15c-0.22-0.06-0.38-0.08-0.64-0.08c-0.94,0-1.47,0.66-1.81,2.07v4.31h-1.18v-7.37h1.01
		l0.11,1.54c0.39-1.13,1.08-1.71,1.99-1.71C195.67,35.38,195.94,35.41,196.15,35.46z"/>
	<path class="st1" d="M199.08,32.89c0,0.46-0.34,0.81-0.84,0.81c-0.49,0-0.83-0.35-0.83-0.81c0-0.46,0.34-0.81,0.83-0.81
		C198.75,32.07,199.08,32.42,199.08,32.89z M198.85,42.91h-1.18v-7.37h1.18V42.91z"/>
	<path class="st1" d="M206.44,36.16l-0.57,0.74c-0.49-0.36-0.97-0.55-1.6-0.55c-1.2,0-1.98,0.94-1.98,2.91c0,1.96,0.77,2.8,1.98,2.8
		c0.63,0,1.08-0.2,1.62-0.57l0.55,0.77c-0.63,0.53-1.37,0.81-2.21,0.81c-1.96,0-3.19-1.41-3.19-3.8c0-2.35,1.22-3.91,3.19-3.91
		C205.08,35.38,205.76,35.6,206.44,36.16z"/>
	<path class="st1" d="M213.42,39.64h-4.75c0.13,1.78,0.94,2.48,2.06,2.48c0.74,0,1.29-0.21,1.93-0.66l0.52,0.7
		c-0.71,0.57-1.53,0.92-2.54,0.92c-2.03,0-3.22-1.44-3.22-3.78c0-2.31,1.15-3.92,3.03-3.92c1.97,0,3,1.39,3,3.61
		C213.45,39.24,213.44,39.48,213.42,39.64z M212.29,38.66c0-1.48-0.59-2.34-1.81-2.34c-1.02,0-1.71,0.73-1.81,2.45h3.61V38.66z"/>
	<path class="st1" d="M219.99,36.22l-0.5,0.74c-0.66-0.43-1.22-0.64-1.92-0.64c-0.87,0-1.43,0.41-1.43,1.04s0.42,0.91,1.64,1.23
		c1.56,0.41,2.42,0.99,2.42,2.28c0,1.5-1.36,2.21-2.84,2.21c-1.25,0-2.12-0.41-2.76-0.97l0.63-0.71c0.6,0.45,1.27,0.73,2.1,0.73
		c0.98,0,1.64-0.45,1.64-1.19c0-0.77-0.38-1.05-1.83-1.44c-1.58-0.42-2.21-1.08-2.21-2.12c0-1.16,1.11-2,2.61-2
		C218.53,35.38,219.29,35.69,219.99,36.22z"/>
	<path class="st1" d="M223.25,42.17c0,0.29-0.07,0.56-0.24,0.94l-0.91,2.09h-0.84l0.56-2.27c-0.22-0.17-0.38-0.45-0.38-0.76
		c0-0.49,0.39-0.9,0.9-0.9C222.87,41.28,223.25,41.68,223.25,42.17z"/>
	<path class="st1" d="M233.58,40.45h-3.75l-0.76,2.47h-1.23l3.12-9.64h1.54l3.11,9.64h-1.29L233.58,40.45z M233.27,39.45l-1.57-5.17
		l-1.58,5.17H233.27z"/>
	<path class="st1" d="M237.02,41.51v-8.94l1.18-0.14v9.05c0,0.41,0.14,0.62,0.49,0.62c0.18,0,0.34-0.03,0.48-0.08l0.31,0.83
		c-0.27,0.14-0.62,0.24-0.98,0.24C237.6,43.08,237.02,42.54,237.02,41.51z"/>
	<path class="st1" d="M242.46,34.48v1.06h1.82l-0.13,0.91h-1.7v6.46h-1.18v-6.46h-1.3v-0.91h1.3V34.5c0-1.22,0.8-2.06,2.24-2.06
		c0.69,0,1.18,0.13,1.75,0.38l-0.38,0.85c-0.48-0.21-0.91-0.28-1.3-0.28C242.76,33.39,242.46,33.74,242.46,34.48z"/>
	<path class="st1" d="M251,42.26l-0.28,0.83c-0.71-0.1-1.18-0.39-1.37-1.13c-0.52,0.78-1.3,1.13-2.21,1.13
		c-1.46,0-2.33-0.91-2.33-2.23c0-1.57,1.18-2.41,3.19-2.41h1.21v-0.59c0-1.09-0.52-1.51-1.58-1.51c-0.56,0-1.23,0.14-1.99,0.41
		l-0.29-0.87c0.88-0.34,1.68-0.5,2.49-0.5c1.75,0,2.55,0.9,2.55,2.42v3.42C250.38,41.91,250.61,42.12,251,42.26z M249.21,40.98
		v-1.75h-1.05c-1.37,0-2.1,0.52-2.1,1.57c0,0.9,0.46,1.39,1.34,1.39C248.2,42.19,248.78,41.78,249.21,40.98z"/>
	<path class="st1" d="M258.12,42.91h-1.2v-9.64h1.2V42.91z"/>
	<path class="st1" d="M266.47,37.63v5.28h-1.18V37.8c0-1.13-0.46-1.5-1.22-1.5c-0.87,0-1.46,0.55-1.96,1.36v5.25h-1.18v-7.37h1.01
		l0.1,1.11c0.55-0.76,1.32-1.27,2.31-1.27C265.7,35.38,266.47,36.23,266.47,37.63z"/>
	<path class="st1" d="M272.75,42.59c-0.48,0.32-1.01,0.49-1.62,0.49c-1.22,0-1.95-0.71-1.95-2.06v-4.57h-1.27v-0.91h1.27v-1.69
		l1.18-0.13v1.82h1.78l-0.13,0.91h-1.65v4.51c0,0.77,0.27,1.13,0.92,1.13c0.35,0,0.66-0.1,1.02-0.31L272.75,42.59z"/>
	<path class="st1" d="M279.36,39.64h-4.75c0.13,1.78,0.94,2.48,2.06,2.48c0.74,0,1.29-0.21,1.93-0.66l0.52,0.7
		c-0.71,0.57-1.53,0.92-2.54,0.92c-2.03,0-3.22-1.44-3.22-3.78c0-2.31,1.15-3.92,3.03-3.92c1.98,0,3,1.39,3,3.61
		C279.39,39.24,279.38,39.48,279.36,39.64z M278.23,38.66c0-1.48-0.59-2.34-1.81-2.34c-1.02,0-1.71,0.73-1.81,2.45h3.61V38.66z"/>
	<path class="st1" d="M285.35,35.46l-0.21,1.15c-0.22-0.06-0.38-0.08-0.64-0.08c-0.94,0-1.47,0.66-1.81,2.07v4.31h-1.18v-7.37h1.01
		l0.11,1.54c0.39-1.13,1.08-1.71,1.99-1.71C284.88,35.38,285.14,35.41,285.35,35.46z"/>
	<path class="st1" d="M288.29,32.89c0,0.46-0.34,0.81-0.84,0.81c-0.49,0-0.83-0.35-0.83-0.81c0-0.46,0.34-0.81,0.83-0.81
		C287.96,32.07,288.29,32.42,288.29,32.89z M288.05,42.91h-1.18v-7.37h1.18V42.91z"/>
	<path class="st1" d="M296.72,39.22c0,2.31-1.19,3.87-3.25,3.87c-2.06,0-3.24-1.5-3.24-3.84c0-2.31,1.19-3.87,3.25-3.87
		C295.56,35.38,296.72,36.86,296.72,39.22z M291.5,39.24c0,1.95,0.7,2.89,1.98,2.89c1.27,0,1.99-0.94,1.99-2.91
		c0-1.95-0.7-2.89-1.97-2.89C292.23,36.33,291.5,37.27,291.5,39.24z"/>
	<path class="st1" d="M302.75,35.46l-0.21,1.15c-0.22-0.06-0.38-0.08-0.64-0.08c-0.94,0-1.47,0.66-1.81,2.07v4.31h-1.18v-7.37h1.01
		l0.11,1.54c0.39-1.13,1.08-1.71,1.99-1.71C302.28,35.38,302.54,35.41,302.75,35.46z"/>
	<path class="st1" d="M308.47,36.22l-0.5,0.74c-0.66-0.43-1.22-0.64-1.92-0.64c-0.87,0-1.43,0.41-1.43,1.04s0.42,0.91,1.64,1.23
		c1.55,0.41,2.42,0.99,2.42,2.28c0,1.5-1.36,2.21-2.84,2.21c-1.25,0-2.12-0.41-2.76-0.97l0.63-0.71c0.6,0.45,1.27,0.73,2.1,0.73
		c0.98,0,1.64-0.45,1.64-1.19c0-0.77-0.38-1.05-1.83-1.44c-1.58-0.42-2.21-1.08-2.21-2.12c0-1.16,1.11-2,2.6-2
		C307.01,35.38,307.77,35.69,308.47,36.22z"/>
	<path class="st1" d="M315.74,32.89c0,0.46-0.34,0.81-0.84,0.81c-0.49,0-0.83-0.35-0.83-0.81c0-0.46,0.34-0.81,0.83-0.81
		C315.41,32.07,315.74,32.42,315.74,32.89z M315.51,42.91h-1.18v-7.37h1.18V42.91z"/>
	<path class="st1" d="M322.65,36.22l-0.5,0.74c-0.66-0.43-1.22-0.64-1.92-0.64c-0.87,0-1.43,0.41-1.43,1.04s0.42,0.91,1.64,1.23
		c1.55,0.41,2.42,0.99,2.42,2.28c0,1.5-1.36,2.21-2.84,2.21c-1.25,0-2.12-0.41-2.76-0.97l0.63-0.71c0.6,0.45,1.27,0.73,2.1,0.73
		c0.98,0,1.64-0.45,1.64-1.19c0-0.77-0.38-1.05-1.83-1.44c-1.58-0.42-2.21-1.08-2.21-2.12c0-1.16,1.11-2,2.6-2
		C321.19,35.38,321.95,35.69,322.65,36.22z"/>
	<path class="st1" d="M332.14,42.59c-0.48,0.32-1.01,0.49-1.62,0.49c-1.22,0-1.95-0.71-1.95-2.06v-4.57h-1.27v-0.91h1.27v-1.69
		l1.18-0.13v1.82h1.78l-0.13,0.91h-1.65v4.51c0,0.77,0.27,1.13,0.92,1.13c0.35,0,0.66-0.1,1.02-0.31L332.14,42.59z"/>
	<path class="st1" d="M339.03,37.63v5.28h-1.18V37.8c0-1.13-0.48-1.5-1.23-1.5c-0.84,0-1.44,0.55-1.95,1.34v5.27h-1.18V32.59
		l1.18-0.14v4.15c0.55-0.74,1.29-1.22,2.24-1.22C338.24,35.38,339.03,36.25,339.03,37.63z"/>
	<path class="st1" d="M347.13,39.64h-4.75c0.13,1.78,0.94,2.48,2.06,2.48c0.74,0,1.29-0.21,1.93-0.66l0.52,0.7
		c-0.71,0.57-1.53,0.92-2.54,0.92c-2.03,0-3.22-1.44-3.22-3.78c0-2.31,1.15-3.92,3.03-3.92c1.97,0,3,1.39,3,3.61
		C347.16,39.24,347.15,39.48,347.13,39.64z M346,38.66c0-1.48-0.59-2.34-1.81-2.34c-1.02,0-1.71,0.73-1.81,2.45H346V38.66z"/>
	<path class="st1" d="M356.88,35.46l-0.21,1.15c-0.22-0.06-0.38-0.08-0.64-0.08c-0.94,0-1.47,0.66-1.81,2.07v4.31h-1.18v-7.37h1.01
		l0.11,1.54c0.39-1.13,1.08-1.71,1.99-1.71C356.4,35.38,356.67,35.41,356.88,35.46z"/>
	<path class="st1" d="M359.81,32.89c0,0.46-0.34,0.81-0.84,0.81c-0.49,0-0.83-0.35-0.83-0.81c0-0.46,0.34-0.81,0.83-0.81
		C359.48,32.07,359.81,32.42,359.81,32.89z M359.58,42.91h-1.18v-7.37h1.18V42.91z"/>
	<path class="st1" d="M368.13,35.84c-0.59,0.18-1.28,0.21-2.13,0.22c0.85,0.38,1.29,0.99,1.29,1.89c0,1.44-1.04,2.48-2.77,2.48
		c-0.34,0-0.64-0.04-0.94-0.14c-0.25,0.17-0.41,0.43-0.41,0.73c0,0.35,0.22,0.63,1.01,0.63h1.18c1.5,0,2.48,0.85,2.48,2
		c0,1.42-1.13,2.21-3.39,2.21c-2.37,0-3.14-0.71-3.14-2.2h1.06c0,0.88,0.42,1.27,2.07,1.27c1.62,0,2.2-0.43,2.2-1.2
		c0-0.73-0.57-1.09-1.53-1.09h-1.16c-1.29,0-1.88-0.64-1.88-1.37c0-0.49,0.28-0.95,0.8-1.29c-0.84-0.45-1.23-1.09-1.23-2.06
		c0-1.5,1.18-2.55,2.8-2.55c1.86,0.04,2.51-0.24,3.33-0.62L368.13,35.84z M362.85,37.93c0,1.04,0.59,1.72,1.62,1.72
		c1.05,0,1.61-0.63,1.61-1.72c0-1.09-0.55-1.69-1.64-1.69C363.4,36.23,362.85,36.95,362.85,37.93z"/>
	<path class="st1" d="M375.06,37.63v5.28h-1.18V37.8c0-1.13-0.48-1.5-1.23-1.5c-0.84,0-1.44,0.55-1.95,1.34v5.27h-1.18V32.59
		l1.18-0.14v4.15c0.55-0.74,1.29-1.22,2.24-1.22C374.28,35.38,375.06,36.25,375.06,37.63z"/>
	<path class="st1" d="M381.35,42.59c-0.48,0.32-1.01,0.49-1.62,0.49c-1.22,0-1.95-0.71-1.95-2.06v-4.57h-1.27v-0.91h1.27v-1.69
		l1.18-0.13v1.82h1.78l-0.13,0.91h-1.65v4.51c0,0.77,0.27,1.13,0.92,1.13c0.35,0,0.66-0.1,1.02-0.31L381.35,42.59z"/>
	<path class="st1" d="M84.16,56.56l-0.57,0.74c-0.49-0.36-0.97-0.55-1.6-0.55c-1.2,0-1.98,0.94-1.98,2.91c0,1.96,0.77,2.8,1.98,2.8
		c0.63,0,1.08-0.2,1.62-0.57l0.55,0.77c-0.63,0.53-1.37,0.81-2.21,0.81c-1.96,0-3.19-1.41-3.19-3.8c0-2.35,1.22-3.91,3.19-3.91
		C82.8,55.78,83.49,56,84.16,56.56z"/>
	<path class="st1" d="M91.5,58.03v5.28h-1.18V58.2c0-1.13-0.48-1.5-1.23-1.5c-0.84,0-1.44,0.55-1.95,1.34v5.27h-1.18V52.99
		l1.18-0.14V57c0.55-0.74,1.29-1.22,2.24-1.22C90.71,55.78,91.5,56.65,91.5,58.03z"/>
	<path class="st1" d="M100.09,59.62c0,2.31-1.19,3.87-3.25,3.87s-3.24-1.5-3.24-3.84c0-2.31,1.19-3.87,3.25-3.87
		C98.93,55.78,100.09,57.26,100.09,59.62z M94.87,59.65c0,1.95,0.7,2.89,1.98,2.89c1.27,0,1.99-0.94,1.99-2.91
		c0-1.95-0.7-2.89-1.98-2.89C95.6,56.73,94.87,57.67,94.87,59.65z"/>
	<path class="st1" d="M103.7,53.29c0,0.46-0.34,0.81-0.84,0.81c-0.49,0-0.83-0.35-0.83-0.81c0-0.46,0.34-0.81,0.83-0.81
		C103.37,52.47,103.7,52.82,103.7,53.29z M103.46,63.31h-1.18v-7.37h1.18V63.31z"/>
	<path class="st1" d="M111.05,56.56l-0.57,0.74c-0.49-0.36-0.97-0.55-1.6-0.55c-1.2,0-1.98,0.94-1.98,2.91c0,1.96,0.77,2.8,1.98,2.8
		c0.63,0,1.08-0.2,1.62-0.57l0.55,0.77c-0.63,0.53-1.37,0.81-2.21,0.81c-1.96,0-3.19-1.41-3.19-3.8c0-2.35,1.22-3.91,3.19-3.91
		C109.7,55.78,110.38,56,111.05,56.56z"/>
	<path class="st1" d="M118.04,60.04h-4.75c0.13,1.78,0.94,2.48,2.06,2.48c0.74,0,1.29-0.21,1.93-0.66l0.52,0.7
		c-0.71,0.57-1.53,0.92-2.54,0.92c-2.03,0-3.22-1.44-3.22-3.78c0-2.31,1.15-3.92,3.03-3.92c1.98,0,3,1.39,3,3.61
		C118.07,59.65,118.05,59.88,118.04,60.04z M116.91,59.06c0-1.48-0.59-2.34-1.81-2.34c-1.02,0-1.71,0.73-1.81,2.45h3.61V59.06z"/>
	<path class="st1" d="M121.2,62.57c0,0.5-0.38,0.91-0.91,0.91c-0.5,0-0.9-0.41-0.9-0.91c0-0.49,0.39-0.9,0.9-0.9
		C120.82,61.68,121.2,62.08,121.2,62.57z"/>
	<path class="st1" d="M128.33,63.31h-1.2v-9.64h1.2V63.31z"/>
	<path class="st1" d="M139.31,56.62l-0.5,0.74c-0.66-0.43-1.22-0.64-1.92-0.64c-0.87,0-1.43,0.41-1.43,1.04s0.42,0.91,1.64,1.23
		c1.56,0.41,2.42,0.99,2.42,2.28c0,1.5-1.36,2.21-2.84,2.21c-1.25,0-2.12-0.41-2.76-0.97l0.63-0.71c0.6,0.45,1.27,0.73,2.1,0.73
		c0.98,0,1.64-0.45,1.64-1.19c0-0.77-0.38-1.05-1.83-1.44c-1.58-0.42-2.21-1.08-2.21-2.12c0-1.16,1.11-2,2.61-2
		C137.85,55.78,138.61,56.09,139.31,56.62z"/>
	<path class="st1" d="M145.05,62.99c-0.48,0.32-1.01,0.49-1.62,0.49c-1.22,0-1.95-0.71-1.95-2.06v-4.57h-1.27v-0.91h1.27v-1.69
		l1.18-0.13v1.82h1.78l-0.13,0.91h-1.65v4.51c0,0.77,0.27,1.13,0.92,1.13c0.35,0,0.66-0.1,1.02-0.31L145.05,62.99z"/>
	<path class="st1" d="M150.24,55.86l-0.21,1.15c-0.22-0.06-0.38-0.08-0.64-0.08c-0.94,0-1.47,0.66-1.81,2.07v4.31h-1.18v-7.37h1.01
		l0.11,1.54c0.39-1.13,1.08-1.71,1.99-1.71C149.76,55.78,150.03,55.81,150.24,55.86z"/>
	<path class="st1" d="M157.28,59.62c0,2.31-1.19,3.87-3.25,3.87s-3.24-1.5-3.24-3.84c0-2.31,1.19-3.87,3.25-3.87
		C156.12,55.78,157.28,57.26,157.28,59.62z M152.06,59.65c0,1.95,0.7,2.89,1.98,2.89c1.27,0,1.99-0.94,1.99-2.91
		c0-1.95-0.7-2.89-1.98-2.89C152.79,56.73,152.06,57.67,152.06,59.65z"/>
	<path class="st1" d="M165.01,58.03v5.28h-1.18V58.2c0-1.13-0.46-1.5-1.22-1.5c-0.87,0-1.46,0.55-1.96,1.36v5.25h-1.18v-7.37h1.01
		l0.1,1.11c0.55-0.76,1.32-1.27,2.31-1.27C164.24,55.78,165.01,56.63,165.01,58.03z"/>
	<path class="st1" d="M173.49,56.24c-0.59,0.18-1.27,0.21-2.13,0.22c0.85,0.38,1.29,0.99,1.29,1.89c0,1.44-1.04,2.48-2.77,2.48
		c-0.34,0-0.64-0.04-0.94-0.14c-0.25,0.17-0.41,0.43-0.41,0.73c0,0.35,0.22,0.63,1.01,0.63h1.18c1.5,0,2.48,0.85,2.48,2
		c0,1.42-1.13,2.21-3.39,2.21c-2.37,0-3.14-0.71-3.14-2.2h1.06c0,0.88,0.42,1.27,2.07,1.27c1.62,0,2.2-0.43,2.2-1.2
		c0-0.73-0.57-1.09-1.53-1.09h-1.16c-1.29,0-1.88-0.64-1.88-1.37c0-0.49,0.28-0.95,0.8-1.29c-0.84-0.45-1.23-1.09-1.23-2.06
		c0-1.5,1.18-2.55,2.8-2.55c1.86,0.04,2.51-0.24,3.33-0.62L173.49,56.24z M168.21,58.33c0,1.04,0.59,1.72,1.62,1.72
		c1.05,0,1.61-0.63,1.61-1.72c0-1.09-0.55-1.69-1.64-1.69C168.76,56.63,168.21,57.35,168.21,58.33z"/>
	<path class="st1" d="M174.82,61.91v-8.94l1.18-0.14v9.05c0,0.41,0.14,0.62,0.49,0.62c0.18,0,0.34-0.03,0.48-0.08l0.31,0.83
		c-0.27,0.14-0.62,0.24-0.98,0.24C175.4,63.48,174.82,62.94,174.82,61.91z"/>
	<path class="st1" d="M181.63,63.36c-0.52,1.57-1.34,2.66-3.32,2.91l-0.14-0.92c1.5-0.28,1.91-0.85,2.34-2.03h-0.41l-2.49-7.37h1.26
		l2.03,6.51l1.99-6.51h1.22L181.63,63.36z"/>
	<path class="st1" d="M193.22,55.86l-0.21,1.15c-0.22-0.06-0.38-0.08-0.64-0.08c-0.94,0-1.47,0.66-1.81,2.07v4.31h-1.18v-7.37h1.01
		l0.11,1.54c0.39-1.13,1.08-1.71,1.99-1.71C192.74,55.78,193.01,55.81,193.22,55.86z"/>
	<path class="st1" d="M199.77,60.04h-4.75c0.13,1.78,0.94,2.48,2.06,2.48c0.74,0,1.29-0.21,1.93-0.66l0.52,0.7
		c-0.71,0.57-1.53,0.92-2.54,0.92c-2.03,0-3.22-1.44-3.22-3.78c0-2.31,1.15-3.92,3.03-3.92c1.98,0,3,1.39,3,3.61
		C199.8,59.65,199.79,59.88,199.77,60.04z M198.64,59.06c0-1.48-0.59-2.34-1.81-2.34c-1.02,0-1.71,0.73-1.81,2.45h3.61V59.06z"/>
	<path class="st1" d="M206.79,56.56l-0.57,0.74c-0.49-0.36-0.97-0.55-1.6-0.55c-1.2,0-1.98,0.94-1.98,2.91c0,1.96,0.77,2.8,1.98,2.8
		c0.63,0,1.08-0.2,1.62-0.57l0.55,0.77c-0.63,0.53-1.37,0.81-2.21,0.81c-1.96,0-3.19-1.41-3.19-3.8c0-2.35,1.22-3.91,3.19-3.91
		C205.43,55.78,206.11,56,206.79,56.56z"/>
	<path class="st1" d="M214.26,59.62c0,2.31-1.19,3.87-3.25,3.87c-2.06,0-3.23-1.5-3.23-3.84c0-2.31,1.19-3.87,3.25-3.87
		C213.1,55.78,214.26,57.26,214.26,59.62z M209.04,59.65c0,1.95,0.7,2.89,1.97,2.89c1.28,0,1.99-0.94,1.99-2.91
		c0-1.95-0.7-2.89-1.97-2.89C209.77,56.73,209.04,57.67,209.04,59.65z"/>
	<path class="st1" d="M225.77,58.03v5.28h-1.18V58.2c0-1.13-0.48-1.5-1.08-1.5c-0.83,0-1.3,0.55-1.82,1.36v5.25h-1.18V58.2
		c0-1.13-0.48-1.5-1.08-1.5c-0.81,0-1.3,0.55-1.81,1.36v5.25h-1.18v-7.37h1.01l0.1,1.11c0.52-0.76,1.2-1.27,2.16-1.27
		c0.92,0,1.58,0.52,1.85,1.37c0.53-0.81,1.23-1.37,2.23-1.37C225,55.78,225.77,56.65,225.77,58.03z"/>
	<path class="st1" d="M237.76,58.03v5.28h-1.18V58.2c0-1.13-0.48-1.5-1.08-1.5c-0.83,0-1.3,0.55-1.82,1.36v5.25h-1.18V58.2
		c0-1.13-0.48-1.5-1.08-1.5c-0.81,0-1.3,0.55-1.81,1.36v5.25h-1.18v-7.37h1.01l0.1,1.11c0.52-0.76,1.21-1.27,2.16-1.27
		c0.92,0,1.58,0.52,1.85,1.37c0.53-0.81,1.23-1.37,2.23-1.37C236.99,55.78,237.76,56.65,237.76,58.03z"/>
	<path class="st1" d="M245.87,60.04h-4.75c0.13,1.78,0.94,2.48,2.06,2.48c0.74,0,1.29-0.21,1.93-0.66l0.52,0.7
		c-0.71,0.57-1.53,0.92-2.54,0.92c-2.03,0-3.22-1.44-3.22-3.78c0-2.31,1.15-3.92,3.03-3.92c1.98,0,3,1.39,3,3.61
		C245.9,59.65,245.89,59.88,245.87,60.04z M244.74,59.06c0-1.48-0.59-2.34-1.81-2.34c-1.02,0-1.71,0.73-1.81,2.45h3.61V59.06z"/>
	<path class="st1" d="M253.56,58.03v5.28h-1.18V58.2c0-1.13-0.46-1.5-1.22-1.5c-0.87,0-1.46,0.55-1.96,1.36v5.25h-1.18v-7.37h1.01
		l0.1,1.11c0.55-0.76,1.32-1.27,2.31-1.27C252.79,55.78,253.56,56.63,253.56,58.03z"/>
	<path class="st1" d="M261.81,52.98v10.34h-1.02l-0.13-1.04c-0.46,0.73-1.2,1.2-2.14,1.2c-1.78,0-2.77-1.51-2.77-3.82
		c0-2.26,1.08-3.88,2.89-3.88c0.9,0,1.53,0.42,2,0.92v-3.87L261.81,52.98z M260.63,61.38v-3.67c-0.45-0.6-0.98-0.99-1.75-0.99
		c-1.15,0-1.88,0.97-1.88,2.93s0.64,2.9,1.75,2.9C259.61,62.54,260.14,62.12,260.63,61.38z"/>
	<path class="st1" d="M271.93,62.99c-0.48,0.32-1.01,0.49-1.62,0.49c-1.22,0-1.95-0.71-1.95-2.06v-4.57h-1.27v-0.91h1.27v-1.69
		l1.18-0.13v1.82h1.78l-0.13,0.91h-1.65v4.51c0,0.77,0.27,1.13,0.92,1.13c0.35,0,0.66-0.1,1.02-0.31L271.93,62.99z"/>
	<path class="st1" d="M278.81,58.03v5.28h-1.18V58.2c0-1.13-0.48-1.5-1.23-1.5c-0.84,0-1.44,0.55-1.95,1.34v5.27h-1.18V52.99
		l1.18-0.14V57c0.55-0.74,1.29-1.22,2.24-1.22C278.03,55.78,278.81,56.65,278.81,58.03z"/>
	<path class="st1" d="M282.89,53.29c0,0.46-0.34,0.81-0.84,0.81c-0.49,0-0.83-0.35-0.83-0.81c0-0.46,0.34-0.81,0.83-0.81
		C282.55,52.47,282.89,52.82,282.89,53.29z M282.65,63.31h-1.18v-7.37h1.18V63.31z"/>
	<path class="st1" d="M289.79,56.62l-0.5,0.74c-0.66-0.43-1.22-0.64-1.92-0.64c-0.87,0-1.43,0.41-1.43,1.04s0.42,0.91,1.64,1.23
		c1.55,0.41,2.42,0.99,2.42,2.28c0,1.5-1.36,2.21-2.84,2.21c-1.25,0-2.12-0.41-2.76-0.97l0.63-0.71c0.6,0.45,1.27,0.73,2.1,0.73
		c0.98,0,1.64-0.45,1.64-1.19c0-0.77-0.38-1.05-1.83-1.44c-1.58-0.42-2.21-1.08-2.21-2.12c0-1.16,1.11-2,2.6-2
		C288.33,55.78,289.09,56.09,289.79,56.62z"/>
	<path class="st1" d="M300.51,56.56l-0.57,0.74c-0.49-0.36-0.97-0.55-1.6-0.55c-1.21,0-1.98,0.94-1.98,2.91
		c0,1.96,0.77,2.8,1.98,2.8c0.63,0,1.08-0.2,1.62-0.57l0.55,0.77c-0.63,0.53-1.37,0.81-2.21,0.81c-1.96,0-3.19-1.41-3.19-3.8
		c0-2.35,1.22-3.91,3.19-3.91C299.16,55.78,299.84,56,300.51,56.56z"/>
	<path class="st1" d="M307.99,59.62c0,2.31-1.19,3.87-3.25,3.87c-2.06,0-3.24-1.5-3.24-3.84c0-2.31,1.19-3.87,3.25-3.87
		C306.83,55.78,307.99,57.26,307.99,59.62z M302.76,59.65c0,1.95,0.7,2.89,1.98,2.89c1.27,0,1.99-0.94,1.99-2.91
		c0-1.95-0.7-2.89-1.97-2.89C303.49,56.73,302.76,57.67,302.76,59.65z"/>
	<path class="st1" d="M315.72,58.03v5.28h-1.18V58.2c0-1.13-0.46-1.5-1.22-1.5c-0.87,0-1.46,0.55-1.96,1.36v5.25h-1.18v-7.37h1.01
		l0.1,1.11c0.55-0.76,1.32-1.27,2.31-1.27C314.95,55.78,315.72,56.63,315.72,58.03z"/>
	<path class="st1" d="M322,62.99c-0.48,0.32-1.01,0.49-1.62,0.49c-1.22,0-1.95-0.71-1.95-2.06v-4.57h-1.27v-0.91h1.27v-1.69
		l1.18-0.13v1.82h1.78l-0.13,0.91h-1.65v4.51c0,0.77,0.27,1.13,0.92,1.13c0.35,0,0.66-0.1,1.02-0.31L322,62.99z"/>
	<path class="st1" d="M327.2,55.86l-0.21,1.15c-0.22-0.06-0.38-0.08-0.64-0.08c-0.94,0-1.47,0.66-1.81,2.07v4.31h-1.18v-7.37h1.01
		l0.11,1.54c0.39-1.13,1.08-1.71,1.99-1.71C326.72,55.78,326.99,55.81,327.2,55.86z"/>
	<path class="st1" d="M333.72,62.66l-0.28,0.83c-0.71-0.1-1.18-0.39-1.37-1.13c-0.52,0.78-1.3,1.13-2.21,1.13
		c-1.46,0-2.33-0.91-2.33-2.23c0-1.57,1.18-2.41,3.19-2.41h1.2v-0.59c0-1.09-0.52-1.51-1.58-1.51c-0.56,0-1.23,0.14-1.99,0.41
		l-0.29-0.87c0.88-0.34,1.68-0.5,2.49-0.5c1.75,0,2.55,0.9,2.55,2.42v3.42C333.1,62.31,333.33,62.52,333.72,62.66z M331.93,61.38
		v-1.75h-1.05c-1.37,0-2.1,0.52-2.1,1.57c0,0.9,0.46,1.39,1.34,1.39C330.92,62.59,331.51,62.18,331.93,61.38z"/>
	<path class="st1" d="M340.68,56.56l-0.57,0.74c-0.49-0.36-0.97-0.55-1.6-0.55c-1.21,0-1.98,0.94-1.98,2.91
		c0,1.96,0.77,2.8,1.98,2.8c0.63,0,1.08-0.2,1.62-0.57l0.55,0.77c-0.63,0.53-1.37,0.81-2.21,0.81c-1.96,0-3.19-1.41-3.19-3.8
		c0-2.35,1.22-3.91,3.19-3.91C339.32,55.78,340.01,56,340.68,56.56z"/>
	<path class="st1" d="M346.11,62.99c-0.48,0.32-1.01,0.49-1.62,0.49c-1.22,0-1.95-0.71-1.95-2.06v-4.57h-1.27v-0.91h1.27v-1.69
		l1.18-0.13v1.82h1.78l-0.13,0.91h-1.65v4.51c0,0.77,0.27,1.13,0.92,1.13c0.35,0,0.66-0.1,1.02-0.31L346.11,62.99z"/>
	<path class="st1" d="M353.21,59.62c0,2.31-1.19,3.87-3.25,3.87c-2.06,0-3.24-1.5-3.24-3.84c0-2.31,1.19-3.87,3.25-3.87
		C352.05,55.78,353.21,57.26,353.21,59.62z M347.98,59.65c0,1.95,0.7,2.89,1.98,2.89c1.27,0,1.99-0.94,1.99-2.91
		c0-1.95-0.7-2.89-1.97-2.89C348.71,56.73,347.98,57.67,347.98,59.65z"/>
	<path class="st1" d="M359.24,55.86l-0.21,1.15c-0.22-0.06-0.38-0.08-0.64-0.08c-0.94,0-1.47,0.66-1.81,2.07v4.31h-1.18v-7.37h1.01
		l0.11,1.54c0.39-1.13,1.08-1.71,1.99-1.71C358.76,55.78,359.03,55.81,359.24,55.86z"/>
	<path class="st1" d="M360.79,62.57c0,0.5-0.38,0.91-0.91,0.91c-0.5,0-0.9-0.41-0.9-0.91c0-0.49,0.39-0.9,0.9-0.9
		C360.42,61.68,360.79,62.08,360.79,62.57z"/>
	<path class="st1" d="M362.61,53.62c0,0.21-0.06,0.39-0.22,0.77l-0.91,1.93h-0.77l0.55-2.04c-0.22-0.17-0.34-0.39-0.34-0.66
		c0-0.45,0.38-0.83,0.84-0.83C362.24,52.8,362.61,53.17,362.61,53.62z M365.02,53.62c0,0.21-0.06,0.39-0.22,0.77l-0.91,1.93h-0.77
		l0.55-2.04c-0.22-0.17-0.34-0.39-0.34-0.66c0-0.45,0.38-0.83,0.84-0.83C364.65,52.8,365.02,53.17,365.02,53.62z"/>
	<path class="st1" d="M78.8,78.83h3.91v1.01H78.8V78.83z"/>
	<path class="st1" d="M95.66,74.96l-1.16,1.22c-0.66-0.5-1.19-0.74-1.98-0.74c-1.36,0-2.37,1.01-2.37,3.42
		c0,2.55,0.67,3.42,2.02,3.42c0.48,0,0.91-0.1,1.32-0.32v-2.2h-1.26L92,78.13h3.71v4.8c-1.01,0.64-2.27,1.02-3.49,1.02
		c-2.97,0-4.45-1.78-4.45-5.1c0-3.29,2.04-5.08,4.65-5.08C93.83,73.77,94.86,74.26,95.66,74.96z"/>
	<path class="st1" d="M101.98,76.17l-0.35,2.14c-0.24-0.06-0.42-0.1-0.67-0.1c-0.92,0-1.3,0.69-1.54,1.82v3.68h-2.21v-7.44h1.93
		l0.18,1.44c0.34-1.04,1.06-1.65,1.92-1.65C101.52,76.07,101.74,76.09,101.98,76.17z"/>
	<path class="st1" d="M108.84,80.65h-4.61c0.15,1.33,0.78,1.69,1.69,1.69c0.6,0,1.13-0.21,1.78-0.66l0.91,1.23
		c-0.74,0.59-1.69,1.04-2.9,1.04c-2.48,0-3.74-1.6-3.74-3.92c0-2.23,1.22-3.99,3.47-3.99c2.13,0,3.43,1.4,3.43,3.81
		C108.89,80.09,108.87,80.42,108.84,80.65z M106.71,79.22c-0.01-1.01-0.32-1.71-1.2-1.71c-0.74,0-1.18,0.48-1.27,1.81h2.48V79.22z"
		/>
	<path class="st1" d="M116.98,76.71c-0.52,0.21-1.2,0.29-2.14,0.29c0.94,0.41,1.4,0.95,1.4,1.92c0,1.44-1.19,2.49-3.12,2.49
		c-0.31,0-0.59-0.03-0.85-0.08c-0.15,0.08-0.24,0.25-0.24,0.42c0,0.22,0.1,0.45,0.81,0.45h1.12c1.74,0,2.84,0.91,2.84,2.16
		c0,1.53-1.34,2.46-3.89,2.46c-2.82,0-3.56-0.92-3.56-2.39h1.99c0,0.64,0.28,0.92,1.62,0.92c1.3,0,1.61-0.36,1.61-0.84
		c0-0.43-0.32-0.73-1.06-0.73h-1.08c-1.62,0-2.28-0.67-2.28-1.47c0-0.55,0.35-1.09,0.88-1.43c-0.95-0.5-1.33-1.16-1.33-2.13
		c0-1.68,1.32-2.72,3.26-2.72c1.65,0.04,2.61-0.43,3.5-0.97L116.98,76.71z M111.89,78.73c0,0.81,0.45,1.26,1.12,1.26
		c0.73,0,1.12-0.43,1.12-1.29c0-0.83-0.38-1.21-1.12-1.21C112.33,77.5,111.89,77.96,111.89,78.73z"/>
	<path class="st1" d="M119.91,82.68c0,0.43-0.14,0.8-0.45,1.48l-0.88,2.03h-1.25l0.6-2.47c-0.35-0.24-0.56-0.62-0.56-1.05
		c0-0.71,0.55-1.26,1.27-1.26C119.37,81.42,119.91,81.96,119.91,82.68z"/>
	<path class="st1" d="M130.98,75.77h-2.4v7.94h-2.3v-7.94h-2.51v-1.76h7.42L130.98,75.77z"/>
	<path class="st1" d="M138.17,80c0,2.38-1.37,3.95-3.64,3.95c-2.26,0-3.64-1.46-3.64-3.96c0-2.38,1.37-3.95,3.64-3.95
		C136.8,76.04,138.17,77.5,138.17,80z M133.19,79.99c0,1.65,0.45,2.34,1.34,2.34s1.34-0.71,1.34-2.33c0-1.65-0.45-2.34-1.34-2.34
		S133.19,78.38,133.19,79.99z"/>
	<path class="st1" d="M144.26,76.17l-0.35,2.14c-0.24-0.06-0.42-0.1-0.67-0.1c-0.92,0-1.3,0.69-1.54,1.82v3.68h-2.21v-7.44h1.93
		l0.18,1.44c0.34-1.04,1.06-1.65,1.92-1.65C143.8,76.07,144.02,76.09,144.26,76.17z"/>
	<path class="st1" d="M151.54,80c0,2.38-1.37,3.95-3.64,3.95c-2.26,0-3.64-1.46-3.64-3.96c0-2.38,1.37-3.95,3.64-3.95
		C150.17,76.04,151.54,77.5,151.54,80z M146.56,79.99c0,1.65,0.45,2.34,1.34,2.34s1.34-0.71,1.34-2.33c0-1.65-0.45-2.34-1.34-2.34
		S146.56,78.38,146.56,79.99z"/>
	<path class="st1" d="M159.27,78.28v5.43h-2.21v-5.06c0-0.78-0.27-1-0.7-1c-0.49,0-0.9,0.35-1.29,0.97v5.08h-2.21v-7.44h1.93
		l0.15,0.88c0.63-0.74,1.34-1.12,2.27-1.12C158.5,76.04,159.27,76.87,159.27,78.28z"/>
	<path class="st1" d="M165.6,83.36c-0.56,0.39-1.34,0.59-2.02,0.59c-1.64-0.01-2.44-0.94-2.44-2.69v-3.45h-1.05v-1.54h1.05v-1.61
		l2.21-0.25v1.86h1.71l-0.24,1.54h-1.47v3.42c0,0.71,0.24,0.97,0.7,0.97c0.25,0,0.5-0.07,0.8-0.24L165.6,83.36z"/>
	<path class="st1" d="M172.95,80c0,2.38-1.37,3.95-3.64,3.95c-2.26,0-3.64-1.46-3.64-3.96c0-2.38,1.37-3.95,3.64-3.95
		C171.58,76.04,172.95,77.5,172.95,80z M167.96,79.99c0,1.65,0.45,2.34,1.34,2.34s1.34-0.71,1.34-2.33c0-1.65-0.45-2.34-1.34-2.34
		S167.96,78.38,167.96,79.99z"/>
</g>
<g>
	<path class="st2" d="M36.87,52.9c-9.62,0-17.45-7.83-17.45-17.45c0-9.62,7.83-17.45,17.45-17.45c9.62,0,17.45,7.83,17.45,17.45
		C54.32,45.07,46.49,52.9,36.87,52.9z M48.07,46.99c-1.53-1.11-3.79-1.97-6.46-2.44c-0.8-0.14-1.37-0.85-1.34-1.65
		c0.02-0.5,0.02-1.04,0.02-1.59c0-0.78,0.39-1.53,0.79-2.32c0.4-0.78,0.82-1.59,0.86-2.41l0.01-0.14l0.06-0.12
		c0.48-0.99,0.75-1.98,0.75-2.7c0-0.33-0.06-0.55-0.18-0.67l-0.25-0.25l0.06-0.35c0.07-0.37,0.13-0.75,0.2-1.13
		c0.06-0.33,0.11-0.66,0.17-1c0.49-2.71-0.41-4.5-2.68-5.3c-0.19-0.07-0.57-0.16-1.01-0.28c-1.4-0.36-3.39-0.86-4.75-1.7
		c0,0.02,0,0.04,0,0.06c-0.05,1-0.09,1.78-0.69,2.05c-2.33,1.05-3.13,2.59-2.66,5.16c0.06,0.34,0.12,0.67,0.17,1
		c0.07,0.39,0.13,0.77,0.2,1.13l0.07,0.35l-0.25,0.25c-0.12,0.12-0.18,0.34-0.18,0.67c0,0.72,0.27,1.7,0.75,2.7l0.06,0.12l0.01,0.14
		c0.04,0.81,0.44,1.58,0.84,2.33c0.42,0.8,0.82,1.56,0.82,2.39c0,0.56,0,1.09,0.02,1.6c0.03,0.8-0.54,1.5-1.34,1.65
		c-2.67,0.47-4.93,1.33-6.46,2.45c2.9,2.82,6.85,4.56,11.2,4.56C41.22,51.55,45.17,49.81,48.07,46.99z M36.87,19.34
		c-8.88,0-16.1,7.22-16.1,16.1c0,4.04,1.51,7.73,3.98,10.57c1.7-1.28,4.2-2.26,7.15-2.79c0.14-0.02,0.23-0.13,0.23-0.27
		c-0.02-0.52-0.02-1.08-0.02-1.66c0-0.5-0.32-1.12-0.66-1.77c-0.42-0.8-0.89-1.71-0.98-2.75c-0.53-1.14-0.83-2.26-0.83-3.16
		c0-0.54,0.11-0.97,0.33-1.32c-0.05-0.28-0.1-0.57-0.15-0.86c-0.05-0.32-0.11-0.65-0.17-0.99c-0.56-3.14,0.47-5.22,3.25-6.54
		c0.05-0.23,0.07-0.69,0.09-0.98c0.05-0.92,0.08-1.54,0.63-1.75c0.29-0.11,0.61-0.04,0.85,0.2c0.99,0.96,3.56,1.61,4.95,1.96
		c0.49,0.12,0.88,0.22,1.13,0.31c2.9,1.03,4.16,3.44,3.56,6.8c-0.06,0.33-0.12,0.66-0.17,0.99c-0.05,0.29-0.1,0.58-0.15,0.86
		c0.22,0.35,0.33,0.78,0.33,1.32c0,0.9-0.29,2.02-0.83,3.16c-0.09,1.06-0.57,1.99-1,2.82c-0.33,0.64-0.65,1.25-0.65,1.7
		c0,0.58,0,1.13-0.02,1.65c-0.01,0.13,0.09,0.24,0.23,0.27c2.95,0.52,5.45,1.5,7.15,2.79c2.47-2.83,3.98-6.52,3.98-10.57
		C52.97,26.57,45.75,19.34,36.87,19.34z"/>
</g>
</svg>
