<?xml version="1.0" encoding="utf-8"?>
<!-- Generator: Adobe Illustrator 23.0.4, SVG Export Plug-In . SVG Version: 6.00 Build 0)  -->
<svg version="1.1" id="Layer_1" xmlns="http://www.w3.org/2000/svg" xmlns:xlink="http://www.w3.org/1999/xlink" x="0px" y="0px"
	 viewBox="0 0 420 140" style="enable-background:new 0 0 420 140;" xml:space="preserve">
<style type="text/css">
	.st0{fill:#F3FAFD;}
	.st1{fill:#333333;}
	.st2{fill:#26A7DF;}
</style>
<path class="st0" d="M36.87,60.81L36.87,60.81c-14.01,0-25.36-11.35-25.36-25.36v0c0-14.01,11.35-25.36,25.36-25.36h0
	c14.01,0,25.36,11.35,25.36,25.36v0C62.23,49.45,50.87,60.81,36.87,60.81z"/>
<g>
	<path class="st1" d="M78.6,14.71c0-0.21,0.06-0.39,0.22-0.77l0.91-1.93h0.77l-0.55,2.05c0.22,0.17,0.34,0.39,0.34,0.66
		c0,0.45-0.38,0.83-0.84,0.83C78.98,15.54,78.6,15.16,78.6,14.71z M81.01,14.71c0-0.21,0.06-0.39,0.22-0.77l0.91-1.93h0.77
		l-0.55,2.05c0.22,0.17,0.34,0.39,0.34,0.66c0,0.45-0.38,0.83-0.84,0.83C81.39,15.54,81.01,15.16,81.01,14.71z"/>
	<path class="st1" d="M92.65,22.51h-1.55l-1.85-8.22l-1.86,8.22h-1.51l-2-9.64h1.2l1.61,8.56l1.92-8.56h1.3l1.96,8.56l1.67-8.56
		h1.12L92.65,22.51z"/>
	<path class="st1" d="M101.69,19.24h-4.75c0.13,1.78,0.94,2.48,2.06,2.48c0.74,0,1.29-0.21,1.93-0.66l0.52,0.7
		c-0.71,0.57-1.53,0.92-2.54,0.92c-2.03,0-3.22-1.44-3.22-3.78c0-2.31,1.15-3.92,3.03-3.92c1.98,0,3,1.39,3,3.61
		C101.72,18.84,101.7,19.08,101.69,19.24z M100.55,18.26c0-1.48-0.59-2.34-1.81-2.34c-1.02,0-1.71,0.73-1.81,2.45h3.61V18.26z"/>
	<path class="st1" d="M113.13,17.23v5.28h-1.18V17.4c0-1.13-0.48-1.5-1.23-1.5c-0.84,0-1.44,0.55-1.95,1.34v5.27h-1.18V12.19
		l1.18-0.14v4.15c0.55-0.74,1.29-1.22,2.24-1.22C112.34,14.98,113.13,15.85,113.13,17.23z"/>
	<path class="st1" d="M121.27,21.86l-0.28,0.83c-0.71-0.1-1.18-0.39-1.37-1.13c-0.52,0.78-1.3,1.13-2.21,1.13
		c-1.46,0-2.33-0.91-2.33-2.23c0-1.57,1.18-2.41,3.19-2.41h1.2v-0.59c0-1.09-0.52-1.51-1.58-1.51c-0.56,0-1.23,0.14-1.99,0.41
		l-0.29-0.87c0.88-0.34,1.68-0.5,2.49-0.5c1.75,0,2.55,0.9,2.55,2.42v3.42C120.66,21.51,120.88,21.72,121.27,21.86z M119.48,20.58
		v-1.75h-1.05c-1.37,0-2.1,0.52-2.1,1.57c0,0.9,0.46,1.39,1.34,1.39C118.47,21.79,119.06,21.38,119.48,20.58z"/>
	<path class="st1" d="M128.96,12.18v10.34h-1.02l-0.13-1.04c-0.46,0.73-1.2,1.2-2.14,1.2c-1.78,0-2.77-1.51-2.77-3.82
		c0-2.26,1.08-3.88,2.89-3.88c0.9,0,1.53,0.42,2,0.92v-3.87L128.96,12.18z M127.78,20.58v-3.67c-0.45-0.6-0.98-0.99-1.75-0.99
		c-1.15,0-1.88,0.97-1.88,2.93s0.64,2.9,1.75,2.9C126.76,21.74,127.29,21.32,127.78,20.58z"/>
	<path class="st1" d="M140.94,21.86l-0.28,0.83c-0.71-0.1-1.18-0.39-1.37-1.13c-0.52,0.78-1.3,1.13-2.21,1.13
		c-1.46,0-2.33-0.91-2.33-2.23c0-1.57,1.18-2.41,3.19-2.41h1.2v-0.59c0-1.09-0.52-1.51-1.58-1.51c-0.56,0-1.23,0.14-1.99,0.41
		l-0.29-0.87c0.88-0.34,1.68-0.5,2.49-0.5c1.75,0,2.55,0.9,2.55,2.42v3.42C140.33,21.51,140.55,21.72,140.94,21.86z M139.15,20.58
		v-1.75h-1.05c-1.37,0-2.1,0.52-2.1,1.57c0,0.9,0.46,1.39,1.34,1.39C138.14,21.79,138.73,21.38,139.15,20.58z"/>
	<path class="st1" d="M148.57,17.23v5.28h-1.18V17.4c0-1.13-0.46-1.5-1.22-1.5c-0.87,0-1.46,0.55-1.96,1.36v5.25h-1.18v-7.37h1.01
		l0.1,1.11c0.55-0.76,1.32-1.27,2.31-1.27C147.8,14.98,148.57,15.83,148.57,17.23z"/>
	<path class="st1" d="M160.47,21.86l-0.28,0.83c-0.71-0.1-1.18-0.39-1.37-1.13c-0.52,0.78-1.3,1.13-2.21,1.13
		c-1.46,0-2.33-0.91-2.33-2.23c0-1.57,1.18-2.41,3.19-2.41h1.2v-0.59c0-1.09-0.52-1.51-1.58-1.51c-0.56,0-1.23,0.14-1.99,0.41
		l-0.29-0.87c0.88-0.34,1.68-0.5,2.49-0.5c1.75,0,2.55,0.9,2.55,2.42v3.42C159.86,21.51,160.08,21.72,160.47,21.86z M158.68,20.58
		v-1.75h-1.05c-1.37,0-2.1,0.52-2.1,1.57c0,0.9,0.46,1.39,1.34,1.39C157.67,21.79,158.26,21.38,158.68,20.58z"/>
	<path class="st1" d="M171.89,17.23v5.28h-1.18V17.4c0-1.13-0.48-1.5-1.08-1.5c-0.83,0-1.3,0.55-1.82,1.36v5.25h-1.18V17.4
		c0-1.13-0.48-1.5-1.08-1.5c-0.81,0-1.3,0.55-1.81,1.36v5.25h-1.18v-7.37h1.01l0.1,1.11c0.52-0.76,1.2-1.27,2.16-1.27
		c0.92,0,1.58,0.52,1.85,1.37c0.53-0.81,1.23-1.37,2.23-1.37C171.12,14.98,171.89,15.85,171.89,17.23z"/>
	<path class="st1" d="M180.05,21.86l-0.28,0.83c-0.71-0.1-1.18-0.39-1.37-1.13c-0.52,0.78-1.3,1.13-2.21,1.13
		c-1.46,0-2.33-0.91-2.33-2.23c0-1.57,1.18-2.41,3.19-2.41h1.2v-0.59c0-1.09-0.52-1.51-1.58-1.51c-0.56,0-1.23,0.14-1.99,0.41
		l-0.29-0.87c0.88-0.34,1.68-0.5,2.49-0.5c1.75,0,2.55,0.9,2.55,2.42v3.42C179.43,21.51,179.65,21.72,180.05,21.86z M178.25,20.58
		v-1.75h-1.05c-1.37,0-2.1,0.52-2.1,1.57c0,0.9,0.46,1.39,1.34,1.39C177.24,21.79,177.83,21.38,178.25,20.58z"/>
	<path class="st1" d="M186.37,16.04l-3.91,5.48h3.94l-0.14,0.99h-5.13v-0.88l3.89-5.49h-3.57v-0.99h4.92V16.04z"/>
	<path class="st1" d="M189.63,12.49c0,0.46-0.34,0.81-0.84,0.81c-0.49,0-0.83-0.35-0.83-0.81c0-0.46,0.34-0.81,0.83-0.81
		C189.3,11.67,189.63,12.02,189.63,12.49z M189.4,22.51h-1.18v-7.37h1.18V22.51z"/>
	<path class="st1" d="M197.66,17.23v5.28h-1.18V17.4c0-1.13-0.46-1.5-1.22-1.5c-0.87,0-1.46,0.55-1.96,1.36v5.25h-1.18v-7.37h1.01
		l0.1,1.11c0.55-0.76,1.32-1.27,2.31-1.27C196.89,14.98,197.66,15.83,197.66,17.23z"/>
	<path class="st1" d="M206.14,15.44c-0.59,0.18-1.27,0.21-2.13,0.22c0.85,0.38,1.29,0.99,1.29,1.89c0,1.44-1.04,2.48-2.77,2.48
		c-0.34,0-0.64-0.04-0.94-0.14c-0.25,0.17-0.41,0.43-0.41,0.73c0,0.35,0.22,0.63,1.01,0.63h1.18c1.5,0,2.48,0.85,2.48,2
		c0,1.42-1.13,2.21-3.39,2.21c-2.37,0-3.14-0.71-3.14-2.2h1.06c0,0.88,0.42,1.27,2.07,1.27c1.62,0,2.2-0.43,2.2-1.2
		c0-0.73-0.57-1.09-1.53-1.09h-1.16c-1.29,0-1.88-0.64-1.88-1.37c0-0.49,0.28-0.95,0.8-1.29c-0.84-0.45-1.23-1.09-1.23-2.06
		c0-1.5,1.18-2.55,2.8-2.55c1.86,0.04,2.51-0.24,3.33-0.62L206.14,15.44z M200.86,17.53c0,1.04,0.59,1.72,1.62,1.72
		c1.05,0,1.61-0.63,1.61-1.72c0-1.09-0.55-1.69-1.64-1.69C201.41,15.83,200.86,16.55,200.86,17.53z"/>
	<path class="st1" d="M216.74,19.24h-4.75c0.13,1.78,0.94,2.48,2.06,2.48c0.74,0,1.29-0.21,1.93-0.66l0.52,0.7
		c-0.71,0.57-1.53,0.92-2.54,0.92c-2.03,0-3.22-1.44-3.22-3.78c0-2.31,1.15-3.92,3.03-3.92c1.97,0,3,1.39,3,3.61
		C216.77,18.84,216.75,19.08,216.74,19.24z M215.6,18.26c0-1.48-0.59-2.34-1.81-2.34c-1.02,0-1.71,0.73-1.81,2.45h3.61V18.26z"/>
	<path class="st1" d="M224.03,22.51h-1.43l-1.88-3.19l-1.91,3.19h-1.33l2.58-3.89l-2.27-3.47h1.37l1.61,2.76l1.61-2.76h1.33
		l-2.27,3.42L224.03,22.51z"/>
	<path class="st1" d="M231.5,18.82c0,2.25-0.98,3.87-2.87,3.87c-0.83,0-1.5-0.29-1.96-0.87v3.52l-1.18,0.14V15.15h1.01l0.1,1.02
		c0.53-0.76,1.32-1.19,2.19-1.19C230.71,14.98,231.5,16.48,231.5,18.82z M230.23,18.82c0-1.96-0.59-2.9-1.74-2.9
		c-0.81,0-1.43,0.56-1.83,1.18v3.68c0.39,0.59,0.98,0.94,1.69,0.94C229.58,21.72,230.23,20.79,230.23,18.82z"/>
	<path class="st1" d="M239.21,19.24h-4.75c0.13,1.78,0.94,2.48,2.06,2.48c0.74,0,1.29-0.21,1.93-0.66l0.52,0.7
		c-0.71,0.57-1.53,0.92-2.54,0.92c-2.03,0-3.22-1.44-3.22-3.78c0-2.31,1.15-3.92,3.03-3.92c1.98,0,3,1.39,3,3.61
		C239.24,18.84,239.22,19.08,239.21,19.24z M238.07,18.26c0-1.48-0.59-2.34-1.81-2.34c-1.02,0-1.71,0.73-1.81,2.45h3.61V18.26z"/>
	<path class="st1" d="M245.2,15.06l-0.21,1.15c-0.22-0.06-0.38-0.08-0.64-0.08c-0.94,0-1.47,0.66-1.81,2.07v4.31h-1.18v-7.37h1.01
		l0.11,1.54c0.39-1.13,1.08-1.71,1.99-1.71C244.72,14.98,244.99,15.01,245.2,15.06z"/>
	<path class="st1" d="M248.14,12.49c0,0.46-0.34,0.81-0.84,0.81c-0.49,0-0.83-0.35-0.83-0.81c0-0.46,0.34-0.81,0.83-0.81
		C247.8,11.67,248.14,12.02,248.14,12.49z M247.9,22.51h-1.18v-7.37h1.18V22.51z"/>
	<path class="st1" d="M256.08,19.24h-4.75c0.13,1.78,0.94,2.48,2.06,2.48c0.74,0,1.29-0.21,1.93-0.66l0.52,0.7
		c-0.71,0.57-1.53,0.92-2.54,0.92c-2.03,0-3.22-1.44-3.22-3.78c0-2.31,1.15-3.92,3.03-3.92c1.97,0,3,1.39,3,3.61
		C256.11,18.84,256.09,19.08,256.08,19.24z M254.94,18.26c0-1.48-0.59-2.34-1.81-2.34c-1.02,0-1.71,0.73-1.81,2.45h3.61V18.26z"/>
	<path class="st1" d="M263.76,17.23v5.28h-1.18V17.4c0-1.13-0.46-1.5-1.22-1.5c-0.87,0-1.46,0.55-1.96,1.36v5.25h-1.18v-7.37h1.01
		l0.1,1.11c0.55-0.76,1.32-1.27,2.31-1.27C262.99,14.98,263.76,15.83,263.76,17.23z"/>
	<path class="st1" d="M271.28,15.76l-0.57,0.74c-0.49-0.36-0.97-0.55-1.6-0.55c-1.21,0-1.98,0.94-1.98,2.91
		c0,1.96,0.77,2.8,1.98,2.8c0.63,0,1.08-0.2,1.62-0.57l0.55,0.77c-0.63,0.53-1.37,0.81-2.21,0.81c-1.96,0-3.19-1.41-3.19-3.8
		c0-2.35,1.22-3.91,3.19-3.91C269.92,14.98,270.61,15.2,271.28,15.76z"/>
	<path class="st1" d="M278.27,19.24h-4.75c0.13,1.78,0.94,2.48,2.06,2.48c0.74,0,1.29-0.21,1.93-0.66l0.52,0.7
		c-0.71,0.57-1.53,0.92-2.54,0.92c-2.03,0-3.22-1.44-3.22-3.78c0-2.31,1.15-3.92,3.03-3.92c1.97,0,3,1.39,3,3.61
		C278.3,18.84,278.28,19.08,278.27,19.24z M277.13,18.26c0-1.48-0.59-2.34-1.81-2.34c-1.02,0-1.71,0.73-1.81,2.45h3.61V18.26z"/>
	<path class="st1" d="M290.79,22.51h-1.61l-1.36-6.3l-1.4,6.3h-1.57l-1.75-7.37h1.19l1.39,6.54l1.51-6.54h1.32l1.46,6.54l1.4-6.54
		h1.12L290.79,22.51z"/>
	<path class="st1" d="M295.57,12.49c0,0.46-0.34,0.81-0.84,0.81c-0.49,0-0.83-0.35-0.83-0.81c0-0.46,0.34-0.81,0.83-0.81
		C295.24,11.67,295.57,12.02,295.57,12.49z M295.33,22.51h-1.18v-7.37h1.18V22.51z"/>
	<path class="st1" d="M301.69,22.19c-0.48,0.32-1.01,0.49-1.62,0.49c-1.22,0-1.95-0.71-1.95-2.06v-4.57h-1.27v-0.91h1.27v-1.69
		l1.18-0.13v1.82h1.78l-0.13,0.91h-1.65v4.51c0,0.77,0.27,1.13,0.92,1.13c0.35,0,0.66-0.1,1.02-0.31L301.69,22.19z"/>
	<path class="st1" d="M308.58,17.23v5.28h-1.18V17.4c0-1.13-0.48-1.5-1.23-1.5c-0.84,0-1.44,0.55-1.95,1.34v5.27h-1.18V12.19
		l1.18-0.14v4.15c0.55-0.74,1.29-1.22,2.24-1.22C307.79,14.98,308.58,15.85,308.58,17.23z"/>
	<path class="st1" d="M321.22,15.83c0,2.2-1.58,3.1-3.7,3.1h-1.26v3.59h-1.21v-9.64h2.47C319.82,12.88,321.22,13.82,321.22,15.83z
		 M319.93,15.85c0-1.48-0.94-2.02-2.42-2.02h-1.25v4.13h1.22C318.95,17.96,319.93,17.51,319.93,15.85z"/>
	<path class="st1" d="M327.91,14.82c0,1.19-0.9,1.92-2.02,2.58l2.56,2.41c0.34-0.7,0.64-1.5,0.85-2.44l1.11,0.31
		c-0.35,1.16-0.77,2.07-1.23,2.82l1.61,1.5l-0.85,0.69l-1.42-1.36c-0.77,0.87-1.74,1.36-3.09,1.36c-1.81,0-3.1-1.02-3.1-2.61
		c0-1.23,0.77-2.03,1.97-2.79c-0.85-0.81-1.39-1.44-1.39-2.41c0-1.22,0.9-2.17,2.48-2.17C326.89,12.71,327.91,13.61,327.91,14.82z
		 M323.54,20.04c0,1.06,0.84,1.71,2.02,1.71c0.95,0,1.65-0.39,2.28-1.08l-2.86-2.73C324.02,18.55,323.54,19.18,323.54,20.04z
		 M324.09,14.87c0,0.71,0.39,1.19,1.13,1.89c0.95-0.56,1.53-1.11,1.53-1.86c0-0.83-0.53-1.3-1.33-1.3
		C324.56,13.59,324.09,14.14,324.09,14.87z"/>
	<path class="st1" d="M338.96,15.83c0,2.2-1.58,3.1-3.7,3.1H334v3.59h-1.21v-9.64h2.47C337.56,12.88,338.96,13.82,338.96,15.83z
		 M337.67,15.85c0-1.48-0.94-2.02-2.42-2.02H334v4.13h1.22C336.69,17.96,337.67,17.51,337.67,15.85z"/>
	<path class="st1" d="M83.14,35.46l-0.21,1.15c-0.22-0.06-0.38-0.08-0.64-0.08c-0.94,0-1.47,0.66-1.81,2.07v4.31H79.3v-7.37h1.01
		l0.11,1.54c0.39-1.13,1.08-1.71,1.99-1.71C82.66,35.38,82.93,35.41,83.14,35.46z"/>
	<path class="st1" d="M89.69,39.64h-4.75c0.13,1.78,0.94,2.48,2.06,2.48c0.74,0,1.29-0.21,1.93-0.66l0.52,0.7
		c-0.71,0.57-1.53,0.92-2.54,0.92c-2.03,0-3.22-1.44-3.22-3.78c0-2.31,1.15-3.92,3.03-3.92c1.98,0,3,1.39,3,3.61
		C89.72,39.24,89.71,39.48,89.69,39.64z M88.56,38.66c0-1.48-0.59-2.34-1.81-2.34c-1.02,0-1.71,0.73-1.81,2.45h3.61V38.66z"/>
	<path class="st1" d="M97.38,37.63v5.28H96.2V37.8c0-1.13-0.46-1.5-1.22-1.5c-0.87,0-1.46,0.55-1.96,1.36v5.25h-1.18v-7.37h1.01
		l0.1,1.11c0.55-0.76,1.32-1.27,2.31-1.27C96.61,35.38,97.38,36.23,97.38,37.63z"/>
	<path class="st1" d="M105.97,39.22c0,2.31-1.19,3.87-3.25,3.87s-3.24-1.5-3.24-3.84c0-2.31,1.19-3.87,3.25-3.87
		C104.81,35.38,105.97,36.86,105.97,39.22z M100.75,39.24c0,1.95,0.7,2.89,1.98,2.89c1.27,0,1.99-0.94,1.99-2.91
		c0-1.95-0.7-2.89-1.98-2.89C101.48,36.33,100.75,37.27,100.75,39.24z"/>
	<path class="st1" d="M110.9,42.91h-1.43l-2.56-7.37h1.29l2,6.32l1.98-6.32h1.25L110.9,42.91z"/>
	<path class="st1" d="M120.23,42.26l-0.28,0.83c-0.71-0.1-1.18-0.39-1.37-1.13c-0.52,0.78-1.3,1.13-2.21,1.13
		c-1.46,0-2.33-0.91-2.33-2.23c0-1.57,1.18-2.41,3.19-2.41h1.2v-0.59c0-1.09-0.52-1.51-1.58-1.51c-0.56,0-1.23,0.14-1.99,0.41
		l-0.29-0.87c0.88-0.34,1.68-0.5,2.49-0.5c1.75,0,2.55,0.9,2.55,2.42v3.42C119.61,41.91,119.83,42.12,120.23,42.26z M118.43,40.98
		v-1.75h-1.05c-1.37,0-2.1,0.52-2.1,1.57c0,0.9,0.46,1.39,1.34,1.39C117.42,42.19,118.01,41.78,118.43,40.98z"/>
	<path class="st1" d="M125.95,42.59c-0.48,0.32-1.01,0.49-1.62,0.49c-1.22,0-1.95-0.71-1.95-2.06v-4.57h-1.27v-0.91h1.27v-1.69
		l1.18-0.13v1.82h1.78l-0.13,0.91h-1.65v4.51c0,0.77,0.27,1.13,0.92,1.13c0.35,0,0.66-0.1,1.02-0.31L125.95,42.59z"/>
	<path class="st1" d="M128.72,32.89c0,0.46-0.34,0.81-0.84,0.81c-0.49,0-0.83-0.35-0.83-0.81c0-0.46,0.34-0.81,0.83-0.81
		C128.38,32.07,128.72,32.42,128.72,32.89z M128.48,42.91h-1.18v-7.37h1.18V42.91z"/>
	<path class="st1" d="M137.15,39.22c0,2.31-1.19,3.87-3.25,3.87s-3.24-1.5-3.24-3.84c0-2.31,1.19-3.87,3.25-3.87
		C135.99,35.38,137.15,36.86,137.15,39.22z M131.93,39.24c0,1.95,0.7,2.89,1.98,2.89c1.27,0,1.99-0.94,1.99-2.91
		c0-1.95-0.7-2.89-1.98-2.89C132.65,36.33,131.93,37.27,131.93,39.24z"/>
	<path class="st1" d="M144.88,37.63v5.28h-1.18V37.8c0-1.13-0.46-1.5-1.22-1.5c-0.87,0-1.46,0.55-1.96,1.36v5.25h-1.18v-7.37h1.01
		l0.1,1.11c0.55-0.76,1.32-1.27,2.31-1.27C144.11,35.38,144.88,36.23,144.88,37.63z"/>
	<path class="st1" d="M151.95,36.22l-0.5,0.74c-0.66-0.43-1.22-0.64-1.92-0.64c-0.87,0-1.43,0.41-1.43,1.04s0.42,0.91,1.64,1.23
		c1.56,0.41,2.42,0.99,2.42,2.28c0,1.5-1.36,2.21-2.84,2.21c-1.25,0-2.12-0.41-2.76-0.97l0.63-0.71c0.6,0.45,1.27,0.73,2.1,0.73
		c0.98,0,1.64-0.45,1.64-1.19c0-0.77-0.38-1.05-1.83-1.44c-1.58-0.42-2.21-1.08-2.21-2.12c0-1.16,1.11-2,2.61-2
		C150.49,35.38,151.25,35.69,151.95,36.22z"/>
	<path class="st1" d="M155.21,42.17c0,0.5-0.38,0.91-0.91,0.91c-0.5,0-0.9-0.41-0.9-0.91c0-0.49,0.39-0.9,0.9-0.9
		C154.83,41.28,155.21,41.68,155.21,42.17z"/>
	<path class="st1" d="M169.67,42.91h-1.18l-0.36-4.41c-0.14-1.53-0.25-3.18-0.27-3.99l-2.17,7.3h-1.13l-2.27-7.31
		c-0.01,1.09-0.1,2.65-0.22,4.08l-0.34,4.34h-1.15l0.81-9.64h1.65l2.12,7.13l2.02-7.13h1.65L169.67,42.91z"/>
	<path class="st1" d="M175.76,35.46l-0.21,1.15c-0.22-0.06-0.38-0.08-0.64-0.08c-0.94,0-1.47,0.66-1.81,2.07v4.31h-1.18v-7.37h1.01
		l0.11,1.54c0.39-1.13,1.08-1.71,1.99-1.71C175.28,35.38,175.55,35.41,175.76,35.46z"/>
	<path class="st1" d="M186.57,37.63v5.28h-1.18V37.8c0-1.13-0.46-1.5-1.22-1.5c-0.87,0-1.46,0.55-1.96,1.36v5.25h-1.18v-7.37h1.01
		l0.1,1.11c0.55-0.76,1.32-1.27,2.31-1.27C185.8,35.38,186.57,36.23,186.57,37.63z"/>
	<path class="st1" d="M194.72,42.26l-0.28,0.83c-0.71-0.1-1.18-0.39-1.37-1.13c-0.52,0.78-1.3,1.13-2.21,1.13
		c-1.46,0-2.33-0.91-2.33-2.23c0-1.57,1.18-2.41,3.19-2.41h1.2v-0.59c0-1.09-0.52-1.51-1.58-1.51c-0.56,0-1.23,0.14-1.99,0.41
		l-0.29-0.87c0.88-0.34,1.68-0.5,2.49-0.5c1.75,0,2.55,0.9,2.55,2.42v3.42C194.1,41.91,194.33,42.12,194.72,42.26z M192.92,40.98
		v-1.75h-1.05c-1.37,0-2.1,0.52-2.1,1.57c0,0.9,0.46,1.39,1.34,1.39C191.92,42.19,192.5,41.78,192.92,40.98z"/>
	<path class="st1" d="M200.44,42.59c-0.48,0.32-1.01,0.49-1.62,0.49c-1.22,0-1.95-0.71-1.95-2.06v-4.57h-1.27v-0.91h1.27v-1.69
		l1.18-0.13v1.82h1.78l-0.13,0.91h-1.65v4.51c0,0.77,0.27,1.13,0.92,1.13c0.35,0,0.66-0.1,1.02-0.31L200.44,42.59z"/>
	<path class="st1" d="M207.33,37.63v5.28h-1.18V37.8c0-1.13-0.48-1.5-1.23-1.5c-0.84,0-1.44,0.55-1.95,1.34v5.27h-1.18V32.59
		l1.18-0.14v4.15c0.55-0.74,1.29-1.22,2.24-1.22C206.55,35.38,207.33,36.25,207.33,37.63z"/>
	<path class="st1" d="M215.48,42.26l-0.28,0.83c-0.71-0.1-1.18-0.39-1.37-1.13c-0.52,0.78-1.3,1.13-2.21,1.13
		c-1.46,0-2.33-0.91-2.33-2.23c0-1.57,1.18-2.41,3.19-2.41h1.21v-0.59c0-1.09-0.52-1.51-1.58-1.51c-0.56,0-1.23,0.14-1.99,0.41
		l-0.29-0.87c0.88-0.34,1.68-0.5,2.49-0.5c1.75,0,2.55,0.9,2.55,2.42v3.42C214.86,41.91,215.09,42.12,215.48,42.26z M213.69,40.98
		v-1.75h-1.05c-1.37,0-2.1,0.52-2.1,1.57c0,0.9,0.46,1.39,1.34,1.39C212.68,42.19,213.27,41.78,213.69,40.98z"/>
	<path class="st1" d="M223.11,37.63v5.28h-1.18V37.8c0-1.13-0.46-1.5-1.22-1.5c-0.87,0-1.46,0.55-1.96,1.36v5.25h-1.18v-7.37h1.01
		l0.1,1.11c0.55-0.76,1.32-1.27,2.31-1.27C222.34,35.38,223.11,36.23,223.11,37.63z"/>
	<path class="st1" d="M227.18,32.89c0,0.46-0.34,0.81-0.84,0.81c-0.49,0-0.83-0.35-0.83-0.81c0-0.46,0.34-0.81,0.83-0.81
		C226.84,32.07,227.18,32.42,227.18,32.89z M226.94,42.91h-1.18v-7.37h1.18V42.91z"/>
	<path class="st1" d="M235.16,42.26l-0.28,0.83c-0.71-0.1-1.18-0.39-1.37-1.13c-0.52,0.78-1.3,1.13-2.21,1.13
		c-1.46,0-2.33-0.91-2.33-2.23c0-1.57,1.18-2.41,3.19-2.41h1.21v-0.59c0-1.09-0.52-1.51-1.58-1.51c-0.56,0-1.23,0.14-1.99,0.41
		l-0.29-0.87c0.88-0.34,1.68-0.5,2.49-0.5c1.75,0,2.55,0.9,2.55,2.42v3.42C234.55,41.91,234.77,42.12,235.16,42.26z M233.37,40.98
		v-1.75h-1.05c-1.37,0-2.1,0.52-2.1,1.57c0,0.9,0.46,1.39,1.34,1.39C232.36,42.19,232.95,41.78,233.37,40.98z"/>
	<path class="st1" d="M237.05,41.51v-8.94l1.18-0.14v9.05c0,0.41,0.14,0.62,0.49,0.62c0.18,0,0.34-0.03,0.48-0.08l0.31,0.83
		c-0.27,0.14-0.62,0.24-0.98,0.24C237.62,43.08,237.05,42.54,237.05,41.51z"/>
	<path class="st1" d="M250.48,37.63v5.28h-1.18V37.8c0-1.13-0.48-1.5-1.23-1.5c-0.84,0-1.44,0.55-1.95,1.34v5.27h-1.18V32.59
		l1.18-0.14v4.15c0.55-0.74,1.29-1.22,2.24-1.22C249.69,35.38,250.48,36.25,250.48,37.63z"/>
	<path class="st1" d="M258.63,42.26l-0.28,0.83c-0.71-0.1-1.18-0.39-1.37-1.13c-0.52,0.78-1.3,1.13-2.21,1.13
		c-1.46,0-2.33-0.91-2.33-2.23c0-1.57,1.18-2.41,3.19-2.41h1.2v-0.59c0-1.09-0.52-1.51-1.58-1.51c-0.56,0-1.23,0.14-1.99,0.41
		l-0.29-0.87c0.88-0.34,1.68-0.5,2.49-0.5c1.75,0,2.55,0.9,2.55,2.42v3.42C258.01,41.91,258.23,42.12,258.63,42.26z M256.83,40.98
		v-1.75h-1.05c-1.37,0-2.1,0.52-2.1,1.57c0,0.9,0.46,1.39,1.34,1.39C255.82,42.19,256.41,41.78,256.83,40.98z"/>
	<path class="st1" d="M265,36.22l-0.5,0.74c-0.66-0.43-1.22-0.64-1.92-0.64c-0.87,0-1.43,0.41-1.43,1.04s0.42,0.91,1.64,1.23
		c1.56,0.41,2.42,0.99,2.42,2.28c0,1.5-1.36,2.21-2.84,2.21c-1.25,0-2.12-0.41-2.76-0.97l0.63-0.71c0.6,0.45,1.27,0.73,2.1,0.73
		c0.98,0,1.64-0.45,1.64-1.19c0-0.77-0.38-1.05-1.83-1.44c-1.58-0.42-2.21-1.08-2.21-2.12c0-1.16,1.11-2,2.61-2
		C263.54,35.38,264.3,35.69,265,36.22z"/>
	<path class="st1" d="M274.49,42.59c-0.48,0.32-1.01,0.49-1.62,0.49c-1.22,0-1.95-0.71-1.95-2.06v-4.57h-1.27v-0.91h1.27v-1.69
		l1.18-0.13v1.82h1.78l-0.13,0.91h-1.65v4.51c0,0.77,0.27,1.13,0.92,1.13c0.35,0,0.66-0.1,1.02-0.31L274.49,42.59z"/>
	<path class="st1" d="M281.38,37.63v5.28h-1.18V37.8c0-1.13-0.48-1.5-1.23-1.5c-0.84,0-1.44,0.55-1.95,1.34v5.27h-1.18V32.59
		l1.18-0.14v4.15c0.55-0.74,1.29-1.22,2.24-1.22C280.59,35.38,281.38,36.25,281.38,37.63z"/>
	<path class="st1" d="M289.48,39.64h-4.75c0.13,1.78,0.94,2.48,2.06,2.48c0.74,0,1.29-0.21,1.93-0.66l0.52,0.7
		c-0.71,0.57-1.53,0.92-2.54,0.92c-2.03,0-3.22-1.44-3.22-3.78c0-2.31,1.15-3.92,3.03-3.92c1.97,0,3,1.39,3,3.61
		C289.51,39.24,289.5,39.48,289.48,39.64z M288.35,38.66c0-1.48-0.59-2.34-1.81-2.34c-1.02,0-1.71,0.73-1.81,2.45h3.61V38.66z"/>
	<path class="st1" d="M304.7,37.63v5.28h-1.18V37.8c0-1.13-0.48-1.5-1.08-1.5c-0.83,0-1.3,0.55-1.82,1.36v5.25h-1.18V37.8
		c0-1.13-0.48-1.5-1.08-1.5c-0.81,0-1.3,0.55-1.81,1.36v5.25h-1.18v-7.37h1.01l0.1,1.11c0.52-0.76,1.2-1.27,2.16-1.27
		c0.92,0,1.58,0.52,1.85,1.37c0.53-0.81,1.23-1.37,2.23-1.37C303.93,35.38,304.7,36.25,304.7,37.63z"/>
	<path class="st1" d="M313.31,39.22c0,2.31-1.19,3.87-3.25,3.87c-2.06,0-3.24-1.5-3.24-3.84c0-2.31,1.19-3.87,3.25-3.87
		C312.15,35.38,313.31,36.86,313.31,39.22z M308.08,39.24c0,1.95,0.7,2.89,1.98,2.89c1.27,0,1.99-0.94,1.99-2.91
		c0-1.95-0.7-2.89-1.97-2.89C308.81,36.33,308.08,37.27,308.08,39.24z"/>
	<path class="st1" d="M319.92,36.22l-0.5,0.74c-0.66-0.43-1.22-0.64-1.92-0.64c-0.87,0-1.43,0.41-1.43,1.04s0.42,0.91,1.64,1.23
		c1.55,0.41,2.42,0.99,2.42,2.28c0,1.5-1.36,2.21-2.84,2.21c-1.25,0-2.12-0.41-2.76-0.97l0.63-0.71c0.6,0.45,1.27,0.73,2.1,0.73
		c0.98,0,1.64-0.45,1.64-1.19c0-0.77-0.38-1.05-1.83-1.44c-1.58-0.42-2.21-1.08-2.21-2.12c0-1.16,1.11-2,2.6-2
		C318.46,35.38,319.21,35.69,319.92,36.22z"/>
	<path class="st1" d="M325.65,42.59c-0.48,0.32-1.01,0.49-1.62,0.49c-1.22,0-1.95-0.71-1.95-2.06v-4.57h-1.27v-0.91h1.27v-1.69
		l1.18-0.13v1.82h1.78l-0.13,0.91h-1.65v4.51c0,0.77,0.27,1.13,0.92,1.13c0.35,0,0.66-0.1,1.02-0.31L325.65,42.59z"/>
	<path class="st1" d="M336.7,39.22c0,2.31-1.19,3.87-3.25,3.87c-2.06,0-3.24-1.5-3.24-3.84c0-2.31,1.19-3.87,3.25-3.87
		C335.54,35.38,336.7,36.86,336.7,39.22z M331.48,39.24c0,1.95,0.7,2.89,1.98,2.89c1.27,0,1.99-0.94,1.99-2.91
		c0-1.95-0.7-2.89-1.97-2.89C332.2,36.33,331.48,37.27,331.48,39.24z"/>
	<path class="st1" d="M342.73,35.46l-0.21,1.15c-0.22-0.06-0.38-0.08-0.64-0.08c-0.94,0-1.47,0.66-1.81,2.07v4.31h-1.18v-7.37h1.01
		l0.11,1.54c0.39-1.13,1.08-1.71,1.99-1.71C342.26,35.38,342.52,35.41,342.73,35.46z"/>
	<path class="st1" d="M349.86,35.84c-0.59,0.18-1.28,0.21-2.13,0.22c0.85,0.38,1.29,0.99,1.29,1.89c0,1.44-1.04,2.48-2.77,2.48
		c-0.34,0-0.64-0.04-0.94-0.14c-0.25,0.17-0.41,0.43-0.41,0.73c0,0.35,0.22,0.63,1.01,0.63h1.18c1.5,0,2.48,0.85,2.48,2
		c0,1.42-1.13,2.21-3.39,2.21c-2.37,0-3.14-0.71-3.14-2.2h1.06c0,0.88,0.42,1.27,2.07,1.27c1.62,0,2.2-0.43,2.2-1.2
		c0-0.73-0.57-1.09-1.53-1.09h-1.16c-1.29,0-1.88-0.64-1.88-1.37c0-0.49,0.28-0.95,0.8-1.29c-0.84-0.45-1.23-1.09-1.23-2.06
		c0-1.5,1.18-2.55,2.8-2.55c1.86,0.04,2.51-0.24,3.33-0.62L349.86,35.84z M344.58,37.93c0,1.04,0.59,1.72,1.62,1.72
		c1.05,0,1.61-0.63,1.61-1.72c0-1.09-0.55-1.69-1.64-1.69C345.13,36.23,344.58,36.95,344.58,37.93z"/>
	<path class="st1" d="M356.5,42.26l-0.28,0.83c-0.71-0.1-1.18-0.39-1.37-1.13c-0.52,0.78-1.3,1.13-2.21,1.13
		c-1.46,0-2.33-0.91-2.33-2.23c0-1.57,1.18-2.41,3.19-2.41h1.2v-0.59c0-1.09-0.52-1.51-1.58-1.51c-0.56,0-1.23,0.14-1.99,0.41
		l-0.29-0.87c0.88-0.34,1.68-0.5,2.49-0.5c1.75,0,2.55,0.9,2.55,2.42v3.42C355.88,41.91,356.1,42.12,356.5,42.26z M354.7,40.98
		v-1.75h-1.05c-1.37,0-2.1,0.52-2.1,1.57c0,0.9,0.46,1.39,1.34,1.39C353.7,42.19,354.28,41.78,354.7,40.98z"/>
	<path class="st1" d="M364.13,37.63v5.28h-1.18V37.8c0-1.13-0.46-1.5-1.22-1.5c-0.87,0-1.46,0.55-1.96,1.36v5.25h-1.18v-7.37h1.01
		l0.1,1.11c0.55-0.76,1.32-1.27,2.31-1.27C363.36,35.38,364.13,36.23,364.13,37.63z"/>
	<path class="st1" d="M368.2,32.89c0,0.46-0.34,0.81-0.84,0.81c-0.49,0-0.83-0.35-0.83-0.81c0-0.46,0.34-0.81,0.83-0.81
		C367.86,32.07,368.2,32.42,368.2,32.89z M367.96,42.91h-1.18v-7.37h1.18V42.91z"/>
	<path class="st1" d="M374.92,36.44l-3.91,5.48h3.94l-0.14,0.99h-5.13v-0.88l3.89-5.49H370v-0.99h4.92V36.44z"/>
	<path class="st1" d="M382.12,39.64h-4.75c0.13,1.78,0.94,2.48,2.06,2.48c0.74,0,1.29-0.21,1.93-0.66l0.52,0.7
		c-0.71,0.57-1.53,0.92-2.54,0.92c-2.03,0-3.22-1.44-3.22-3.78c0-2.31,1.15-3.92,3.03-3.92c1.97,0,3,1.39,3,3.61
		C382.14,39.24,382.13,39.48,382.12,39.64z M380.98,38.66c0-1.48-0.59-2.34-1.81-2.34c-1.02,0-1.71,0.73-1.81,2.45h3.61V38.66z"/>
	<path class="st1" d="M389.86,32.58v10.34h-1.02l-0.13-1.04c-0.46,0.73-1.21,1.2-2.14,1.2c-1.78,0-2.77-1.51-2.77-3.82
		c0-2.26,1.08-3.88,2.89-3.88c0.9,0,1.53,0.42,2,0.92v-3.87L389.86,32.58z M388.68,40.98v-3.67c-0.45-0.6-0.98-0.99-1.75-0.99
		c-1.15,0-1.88,0.97-1.88,2.93s0.64,2.9,1.75,2.9C387.66,42.14,388.19,41.72,388.68,40.98z"/>
	<path class="st1" d="M84.79,62.66l-0.28,0.83c-0.71-0.1-1.18-0.39-1.37-1.13c-0.52,0.78-1.3,1.13-2.21,1.13
		c-1.46,0-2.33-0.91-2.33-2.23c0-1.57,1.18-2.41,3.19-2.41H83v-0.59c0-1.09-0.52-1.51-1.58-1.51c-0.56,0-1.23,0.14-1.99,0.41
		l-0.29-0.87c0.88-0.34,1.68-0.5,2.49-0.5c1.75,0,2.55,0.9,2.55,2.42v3.42C84.18,62.31,84.4,62.52,84.79,62.66z M83,61.38v-1.75
		h-1.05c-1.37,0-2.1,0.52-2.1,1.57c0,0.9,0.46,1.39,1.34,1.39C81.99,62.59,82.58,62.18,83,61.38z"/>
	<path class="st1" d="M92.42,58.03v5.28h-1.18V58.2c0-1.13-0.46-1.5-1.22-1.5c-0.87,0-1.46,0.55-1.96,1.36v5.25h-1.18v-7.37h1.01
		l0.1,1.11c0.55-0.76,1.32-1.27,2.31-1.27C91.65,55.78,92.42,56.63,92.42,58.03z"/>
	<path class="st1" d="M100.67,52.98v10.34h-1.02l-0.13-1.04c-0.46,0.73-1.2,1.2-2.14,1.2c-1.78,0-2.77-1.51-2.77-3.82
		c0-2.26,1.08-3.88,2.89-3.88c0.9,0,1.53,0.42,2,0.92v-3.87L100.67,52.98z M99.49,61.38v-3.67c-0.45-0.6-0.98-0.99-1.75-0.99
		c-1.15,0-1.88,0.97-1.88,2.93s0.64,2.9,1.75,2.9C98.47,62.54,99,62.12,99.49,61.38z"/>
	<path class="st1" d="M112.65,62.66l-0.28,0.83c-0.71-0.1-1.18-0.39-1.37-1.13c-0.52,0.78-1.3,1.13-2.21,1.13
		c-1.46,0-2.33-0.91-2.33-2.23c0-1.57,1.18-2.41,3.19-2.41h1.2v-0.59c0-1.09-0.52-1.51-1.58-1.51c-0.56,0-1.23,0.14-1.99,0.41
		l-0.29-0.87c0.88-0.34,1.68-0.5,2.49-0.5c1.75,0,2.55,0.9,2.55,2.42v3.42C112.03,62.31,112.26,62.52,112.65,62.66z M110.86,61.38
		v-1.75h-1.05c-1.37,0-2.1,0.52-2.1,1.57c0,0.9,0.46,1.39,1.34,1.39C109.85,62.59,110.44,62.18,110.86,61.38z"/>
	<path class="st1" d="M124.06,58.03v5.28h-1.18V58.2c0-1.13-0.48-1.5-1.08-1.5c-0.83,0-1.3,0.55-1.82,1.36v5.25h-1.18V58.2
		c0-1.13-0.48-1.5-1.08-1.5c-0.81,0-1.3,0.55-1.81,1.36v5.25h-1.18v-7.37h1.01l0.1,1.11c0.52-0.76,1.2-1.27,2.16-1.27
		c0.92,0,1.58,0.52,1.85,1.37c0.53-0.81,1.23-1.37,2.23-1.37C123.29,55.78,124.06,56.65,124.06,58.03z"/>
	<path class="st1" d="M132.22,62.66l-0.28,0.83c-0.71-0.1-1.18-0.39-1.37-1.13c-0.52,0.78-1.3,1.13-2.21,1.13
		c-1.46,0-2.33-0.91-2.33-2.23c0-1.57,1.18-2.41,3.19-2.41h1.2v-0.59c0-1.09-0.52-1.51-1.58-1.51c-0.56,0-1.23,0.14-1.99,0.41
		l-0.29-0.87c0.88-0.34,1.68-0.5,2.49-0.5c1.75,0,2.55,0.9,2.55,2.42v3.42C131.61,62.31,131.83,62.52,132.22,62.66z M130.43,61.38
		v-1.75h-1.05c-1.37,0-2.1,0.52-2.1,1.57c0,0.9,0.46,1.39,1.34,1.39C129.42,62.59,130.01,62.18,130.43,61.38z"/>
	<path class="st1" d="M138.55,56.84l-3.91,5.48h3.94l-0.14,0.99h-5.13v-0.88l3.89-5.49h-3.57v-0.99h4.92V56.84z"/>
	<path class="st1" d="M141.81,53.29c0,0.46-0.34,0.81-0.84,0.81c-0.49,0-0.83-0.35-0.83-0.81c0-0.46,0.34-0.81,0.83-0.81
		C141.47,52.47,141.81,52.82,141.81,53.29z M141.57,63.31h-1.18v-7.37h1.18V63.31z"/>
	<path class="st1" d="M149.83,58.03v5.28h-1.18V58.2c0-1.13-0.46-1.5-1.22-1.5c-0.87,0-1.46,0.55-1.96,1.36v5.25h-1.18v-7.37h1.01
		l0.1,1.11c0.55-0.76,1.32-1.27,2.31-1.27C149.06,55.78,149.83,56.63,149.83,58.03z"/>
	<path class="st1" d="M158.32,56.24c-0.59,0.18-1.27,0.21-2.13,0.22c0.85,0.38,1.29,0.99,1.29,1.89c0,1.44-1.04,2.48-2.77,2.48
		c-0.34,0-0.64-0.04-0.94-0.14c-0.25,0.17-0.41,0.43-0.41,0.73c0,0.35,0.22,0.63,1.01,0.63h1.18c1.5,0,2.48,0.85,2.48,2
		c0,1.42-1.13,2.21-3.39,2.21c-2.37,0-3.14-0.71-3.14-2.2h1.06c0,0.88,0.42,1.27,2.07,1.27c1.62,0,2.2-0.43,2.2-1.2
		c0-0.73-0.57-1.09-1.53-1.09h-1.16c-1.29,0-1.88-0.64-1.88-1.37c0-0.49,0.28-0.95,0.8-1.29c-0.84-0.45-1.23-1.09-1.23-2.06
		c0-1.5,1.18-2.55,2.8-2.55c1.86,0.04,2.51-0.24,3.33-0.62L158.32,56.24z M153.04,58.33c0,1.04,0.59,1.72,1.62,1.72
		c1.05,0,1.61-0.63,1.61-1.72c0-1.09-0.55-1.69-1.64-1.69C153.58,56.63,153.04,57.35,153.04,58.33z"/>
	<path class="st1" d="M167.09,62.99c-0.48,0.32-1.01,0.49-1.62,0.49c-1.22,0-1.95-0.71-1.95-2.06v-4.57h-1.27v-0.91h1.27v-1.69
		l1.18-0.13v1.82h1.78l-0.13,0.91h-1.65v4.51c0,0.77,0.27,1.13,0.92,1.13c0.35,0,0.66-0.1,1.02-0.31L167.09,62.99z"/>
	<path class="st1" d="M173.7,60.04h-4.75c0.13,1.78,0.94,2.48,2.06,2.48c0.74,0,1.29-0.21,1.93-0.66l0.52,0.7
		c-0.71,0.57-1.53,0.92-2.54,0.92c-2.03,0-3.22-1.44-3.22-3.78c0-2.31,1.15-3.92,3.03-3.92c1.98,0,3,1.39,3,3.61
		C173.73,59.65,173.72,59.88,173.7,60.04z M172.57,59.06c0-1.48-0.59-2.34-1.81-2.34c-1.02,0-1.71,0.73-1.81,2.45h3.61V59.06z"/>
	<path class="st1" d="M181.21,62.66l-0.28,0.83c-0.71-0.1-1.18-0.39-1.37-1.13c-0.52,0.78-1.3,1.13-2.21,1.13
		c-1.46,0-2.33-0.91-2.33-2.23c0-1.57,1.18-2.41,3.19-2.41h1.2v-0.59c0-1.09-0.52-1.51-1.58-1.51c-0.56,0-1.23,0.14-1.99,0.41
		l-0.29-0.87c0.88-0.34,1.68-0.5,2.49-0.5c1.75,0,2.55,0.9,2.55,2.42v3.42C180.59,62.31,180.82,62.52,181.21,62.66z M179.41,61.38
		v-1.75h-1.05c-1.37,0-2.1,0.52-2.1,1.57c0,0.9,0.46,1.39,1.34,1.39C178.41,62.59,178.99,62.18,179.41,61.38z"/>
	<path class="st1" d="M192.62,58.03v5.28h-1.18V58.2c0-1.13-0.48-1.5-1.08-1.5c-0.83,0-1.3,0.55-1.82,1.36v5.25h-1.18V58.2
		c0-1.13-0.48-1.5-1.08-1.5c-0.81,0-1.3,0.55-1.81,1.36v5.25h-1.18v-7.37h1.01l0.1,1.11c0.52-0.76,1.2-1.27,2.16-1.27
		c0.92,0,1.58,0.52,1.85,1.37c0.53-0.81,1.23-1.37,2.23-1.37C191.85,55.78,192.62,56.65,192.62,58.03z"/>
	<path class="st1" d="M205.65,63.31h-1.61l-1.36-6.3l-1.4,6.3h-1.57l-1.75-7.37h1.19l1.39,6.54l1.51-6.54h1.32l1.46,6.54l1.4-6.54
		h1.12L205.65,63.31z"/>
	<path class="st1" d="M214.55,58.03v5.28h-1.18V58.2c0-1.13-0.48-1.5-1.23-1.5c-0.84,0-1.44,0.55-1.95,1.34v5.27h-1.18V52.99
		l1.18-0.14V57c0.55-0.74,1.29-1.22,2.24-1.22C213.77,55.78,214.55,56.65,214.55,58.03z"/>
	<path class="st1" d="M218.63,53.29c0,0.46-0.34,0.81-0.84,0.81c-0.49,0-0.83-0.35-0.83-0.81c0-0.46,0.34-0.81,0.83-0.81
		C218.29,52.47,218.63,52.82,218.63,53.29z M218.39,63.31h-1.18v-7.37h1.18V63.31z"/>
	<path class="st1" d="M225.98,56.56l-0.57,0.74c-0.49-0.36-0.97-0.55-1.6-0.55c-1.2,0-1.97,0.94-1.97,2.91c0,1.96,0.77,2.8,1.97,2.8
		c0.63,0,1.08-0.2,1.62-0.57l0.55,0.77c-0.63,0.53-1.37,0.81-2.21,0.81c-1.96,0-3.19-1.41-3.19-3.8c0-2.35,1.22-3.91,3.19-3.91
		C224.62,55.78,225.31,56,225.98,56.56z"/>
	<path class="st1" d="M233.31,58.03v5.28h-1.18V58.2c0-1.13-0.48-1.5-1.23-1.5c-0.84,0-1.44,0.55-1.95,1.34v5.27h-1.18V52.99
		l1.18-0.14V57c0.55-0.74,1.29-1.22,2.24-1.22C232.53,55.78,233.31,56.65,233.31,58.03z"/>
	<path class="st1" d="M245.31,52.98v10.34h-1.02l-0.13-1.04c-0.46,0.73-1.21,1.2-2.14,1.2c-1.78,0-2.77-1.51-2.77-3.82
		c0-2.26,1.08-3.88,2.89-3.88c0.9,0,1.53,0.42,2,0.92v-3.87L245.31,52.98z M244.14,61.38v-3.67c-0.45-0.6-0.98-0.99-1.75-0.99
		c-1.15,0-1.88,0.97-1.88,2.93s0.64,2.9,1.75,2.9C243.11,62.54,243.65,62.12,244.14,61.38z"/>
	<path class="st1" d="M249.47,53.29c0,0.46-0.34,0.81-0.84,0.81c-0.49,0-0.83-0.35-0.83-0.81c0-0.46,0.34-0.81,0.83-0.81
		C249.13,52.47,249.47,52.82,249.47,53.29z M249.23,63.31h-1.18v-7.37h1.18V63.31z"/>
	<path class="st1" d="M257.55,52.98v10.34h-1.02l-0.13-1.04c-0.46,0.73-1.21,1.2-2.14,1.2c-1.78,0-2.77-1.51-2.77-3.82
		c0-2.26,1.08-3.88,2.89-3.88c0.9,0,1.53,0.42,2,0.92v-3.87L257.55,52.98z M256.37,61.38v-3.67c-0.45-0.6-0.98-0.99-1.75-0.99
		c-1.15,0-1.88,0.97-1.88,2.93s0.64,2.9,1.75,2.9C255.35,62.54,255.88,62.12,256.37,61.38z"/>
	<path class="st1" d="M269.98,59.62c0,2.31-1.19,3.87-3.25,3.87c-2.06,0-3.24-1.5-3.24-3.84c0-2.31,1.19-3.87,3.25-3.87
		C268.82,55.78,269.98,57.26,269.98,59.62z M264.75,59.65c0,1.95,0.7,2.89,1.97,2.89c1.28,0,1.99-0.94,1.99-2.91
		c0-1.95-0.7-2.89-1.97-2.89C265.48,56.73,264.75,57.67,264.75,59.65z"/>
	<path class="st1" d="M277.58,63.31h-1.01l-0.1-1.19c-0.55,0.9-1.25,1.36-2.31,1.36c-1.3,0-2.06-0.81-2.06-2.25v-5.28h1.18v5.15
		c0,1.05,0.36,1.44,1.2,1.44c0.84,0,1.46-0.55,1.92-1.32v-5.28h1.18V63.31z"/>
	<path class="st1" d="M284.15,55.86l-0.21,1.15c-0.22-0.06-0.38-0.08-0.64-0.08c-0.94,0-1.47,0.66-1.81,2.07v4.31h-1.18v-7.37h1.01
		l0.11,1.54c0.39-1.13,1.08-1.71,1.99-1.71C283.67,55.78,283.94,55.81,284.15,55.86z"/>
	<path class="st1" d="M295.43,59.62c0,2.26-0.98,3.87-2.87,3.87c-0.83,0-1.5-0.29-1.96-0.87v3.52l-1.18,0.14V55.95h1.01l0.1,1.02
		c0.53-0.76,1.32-1.19,2.18-1.19C294.65,55.78,295.43,57.28,295.43,59.62z M294.17,59.62c0-1.96-0.59-2.9-1.74-2.9
		c-0.81,0-1.43,0.56-1.83,1.18v3.68c0.39,0.59,0.98,0.94,1.69,0.94C293.51,62.52,294.17,61.59,294.17,59.62z"/>
	<path class="st1" d="M301.53,55.86l-0.21,1.15c-0.22-0.06-0.38-0.08-0.64-0.08c-0.94,0-1.47,0.66-1.81,2.07v4.31h-1.18v-7.37h1.01
		l0.11,1.54c0.39-1.13,1.08-1.71,1.99-1.71C301.06,55.78,301.32,55.81,301.53,55.86z"/>
	<path class="st1" d="M308.58,59.62c0,2.31-1.19,3.87-3.25,3.87c-2.06,0-3.24-1.5-3.24-3.84c0-2.31,1.19-3.87,3.25-3.87
		C307.42,55.78,308.58,57.26,308.58,59.62z M303.35,59.65c0,1.95,0.7,2.89,1.98,2.89c1.27,0,1.99-0.94,1.99-2.91
		c0-1.95-0.7-2.89-1.97-2.89C304.08,56.73,303.35,57.67,303.35,59.65z"/>
	<path class="st1" d="M311.92,62.91c0,2.06-0.74,2.66-2.25,3.35l-0.34-0.85c0.97-0.46,1.42-0.83,1.42-2.42v-7.03h1.18V62.91z
		 M312.17,53.29c0,0.46-0.34,0.81-0.84,0.81c-0.49,0-0.83-0.35-0.83-0.81c0-0.46,0.34-0.81,0.83-0.81
		C311.84,52.47,312.17,52.82,312.17,53.29z"/>
	<path class="st1" d="M320.11,60.04h-4.75c0.13,1.78,0.94,2.48,2.06,2.48c0.74,0,1.29-0.21,1.93-0.66l0.52,0.7
		c-0.71,0.57-1.53,0.92-2.54,0.92c-2.03,0-3.22-1.44-3.22-3.78c0-2.31,1.15-3.92,3.03-3.92c1.97,0,3,1.39,3,3.61
		C320.14,59.65,320.13,59.88,320.11,60.04z M318.98,59.06c0-1.48-0.59-2.34-1.81-2.34c-1.02,0-1.71,0.73-1.81,2.45h3.61V59.06z"/>
	<path class="st1" d="M327.13,56.56l-0.57,0.74c-0.49-0.36-0.97-0.55-1.6-0.55c-1.21,0-1.98,0.94-1.98,2.91
		c0,1.96,0.77,2.8,1.98,2.8c0.63,0,1.08-0.2,1.62-0.57l0.55,0.77c-0.63,0.53-1.37,0.81-2.21,0.81c-1.96,0-3.19-1.41-3.19-3.8
		c0-2.35,1.22-3.91,3.19-3.91C325.77,55.78,326.45,56,327.13,56.56z"/>
	<path class="st1" d="M332.56,62.99c-0.48,0.32-1.01,0.49-1.62,0.49c-1.22,0-1.95-0.71-1.95-2.06v-4.57h-1.27v-0.91h1.27v-1.69
		l1.18-0.13v1.82h1.78l-0.13,0.91h-1.65v4.51c0,0.77,0.27,1.13,0.92,1.13c0.35,0,0.66-0.1,1.02-0.31L332.56,62.99z"/>
	<path class="st1" d="M344.28,63.31h-1.61l-1.36-6.3l-1.4,6.3h-1.57l-1.75-7.37h1.19l1.39,6.54l1.51-6.54h1.32l1.46,6.54l1.4-6.54
		h1.12L344.28,63.31z"/>
	<path class="st1" d="M349.06,53.29c0,0.46-0.34,0.81-0.84,0.81c-0.49,0-0.83-0.35-0.83-0.81c0-0.46,0.34-0.81,0.83-0.81
		C348.73,52.47,349.06,52.82,349.06,53.29z M348.82,63.31h-1.18v-7.37h1.18V63.31z"/>
	<path class="st1" d="M355.18,62.99c-0.48,0.32-1.01,0.49-1.62,0.49c-1.22,0-1.95-0.71-1.95-2.06v-4.57h-1.27v-0.91h1.27v-1.69
		l1.18-0.13v1.82h1.78l-0.13,0.91h-1.65v4.51c0,0.77,0.27,1.13,0.92,1.13c0.35,0,0.66-0.1,1.02-0.31L355.18,62.99z"/>
	<path class="st1" d="M362.07,58.03v5.28h-1.18V58.2c0-1.13-0.48-1.5-1.23-1.5c-0.84,0-1.44,0.55-1.95,1.34v5.27h-1.18V52.99
		l1.18-0.14V57c0.55-0.74,1.29-1.22,2.24-1.22C361.29,55.78,362.07,56.65,362.07,58.03z"/>
	<path class="st1" d="M370.67,59.62c0,2.31-1.19,3.87-3.25,3.87c-2.06,0-3.24-1.5-3.24-3.84c0-2.31,1.19-3.87,3.25-3.87
		C369.5,55.78,370.67,57.26,370.67,59.62z M365.44,59.65c0,1.95,0.7,2.89,1.98,2.89c1.27,0,1.99-0.94,1.99-2.91
		c0-1.95-0.7-2.89-1.97-2.89C366.17,56.73,365.44,57.67,365.44,59.65z"/>
	<path class="st1" d="M378.27,63.31h-1.01l-0.1-1.19c-0.55,0.9-1.25,1.36-2.31,1.36c-1.3,0-2.06-0.81-2.06-2.25v-5.28h1.18v5.15
		c0,1.05,0.36,1.44,1.2,1.44c0.84,0,1.46-0.55,1.92-1.32v-5.28h1.18V63.31z"/>
	<path class="st1" d="M384.62,62.99c-0.48,0.32-1.01,0.49-1.62,0.49c-1.22,0-1.95-0.71-1.95-2.06v-4.57h-1.27v-0.91h1.27v-1.69
		l1.18-0.13v1.82h1.78l-0.13,0.91h-1.65v4.51c0,0.77,0.27,1.13,0.92,1.13c0.35,0,0.66-0.1,1.02-0.31L384.62,62.99z"/>
	<path class="st1" d="M84.79,83.06l-0.28,0.83c-0.71-0.1-1.18-0.39-1.37-1.13c-0.52,0.79-1.3,1.13-2.21,1.13
		c-1.46,0-2.33-0.91-2.33-2.23c0-1.57,1.18-2.41,3.19-2.41H83v-0.59c0-1.09-0.52-1.51-1.58-1.51c-0.56,0-1.23,0.14-1.99,0.41
		l-0.29-0.87c0.88-0.34,1.68-0.5,2.49-0.5c1.75,0,2.55,0.9,2.55,2.42v3.42C84.18,82.71,84.4,82.92,84.79,83.06z M83,81.78v-1.75
		h-1.05c-1.37,0-2.1,0.52-2.1,1.57c0,0.9,0.46,1.39,1.34,1.39C81.99,82.99,82.58,82.58,83,81.78z"/>
	<path class="st1" d="M92.42,78.43v5.28h-1.18V78.6c0-1.13-0.46-1.5-1.22-1.5c-0.87,0-1.46,0.55-1.96,1.36v5.25h-1.18v-7.37h1.01
		l0.1,1.11c0.55-0.76,1.32-1.27,2.31-1.27C91.65,76.18,92.42,77.03,92.42,78.43z"/>
	<path class="st1" d="M97.78,83.76c-0.52,1.57-1.34,2.66-3.32,2.91l-0.14-0.92c1.5-0.28,1.91-0.85,2.34-2.03h-0.41l-2.49-7.37h1.26
		l2.03,6.51l1.99-6.51h1.22L97.78,83.76z"/>
	<path class="st1" d="M111.55,80.02c0,2.26-0.98,3.87-2.87,3.87c-0.83,0-1.5-0.29-1.96-0.87v3.52l-1.18,0.14V76.35h1.01l0.1,1.02
		c0.53-0.76,1.32-1.19,2.19-1.19C110.76,76.18,111.55,77.68,111.55,80.02z M110.28,80.02c0-1.96-0.59-2.9-1.74-2.9
		c-0.81,0-1.43,0.56-1.83,1.18v3.68c0.39,0.59,0.98,0.94,1.69,0.94C109.63,82.92,110.28,81.99,110.28,80.02z"/>
	<path class="st1" d="M117.65,76.26l-0.21,1.15c-0.22-0.06-0.38-0.08-0.64-0.08c-0.94,0-1.47,0.66-1.81,2.07v4.31h-1.18v-7.37h1.01
		l0.11,1.54c0.39-1.13,1.08-1.71,1.99-1.71C117.17,76.18,117.44,76.21,117.65,76.26z"/>
	<path class="st1" d="M124.69,80.02c0,2.31-1.19,3.87-3.25,3.87s-3.24-1.5-3.24-3.84c0-2.31,1.19-3.87,3.25-3.87
		C123.53,76.18,124.69,77.66,124.69,80.02z M119.47,80.04c0,1.95,0.7,2.89,1.98,2.89c1.27,0,1.99-0.94,1.99-2.91
		c0-1.95-0.7-2.89-1.98-2.89C120.19,77.13,119.47,78.07,119.47,80.04z"/>
	<path class="st1" d="M132.89,80.02c0,2.33-1.08,3.87-2.87,3.87c-0.84,0-1.48-0.39-1.99-0.99l-0.13,0.83h-1.02V73.38l1.18-0.14v4.05
		c0.5-0.69,1.2-1.11,2.12-1.11C131.84,76.18,132.89,77.57,132.89,80.02z M131.63,80.02c0-2.12-0.7-2.9-1.78-2.9
		c-0.84,0-1.4,0.56-1.79,1.18v3.63c0.39,0.6,0.99,1.02,1.69,1.02C130.88,82.94,131.63,82.06,131.63,80.02z"/>
	<path class="st1" d="M135.09,82.31v-8.94l1.18-0.14v9.05c0,0.41,0.14,0.62,0.49,0.62c0.18,0,0.34-0.03,0.48-0.08l0.31,0.83
		c-0.27,0.14-0.62,0.24-0.98,0.24C135.66,83.88,135.09,83.34,135.09,82.31z"/>
	<path class="st1" d="M144.61,80.44h-4.75c0.13,1.78,0.94,2.48,2.06,2.48c0.74,0,1.29-0.21,1.93-0.66l0.52,0.7
		c-0.71,0.58-1.53,0.92-2.54,0.92c-2.03,0-3.22-1.44-3.22-3.78c0-2.31,1.15-3.92,3.03-3.92c1.98,0,3,1.39,3,3.61
		C144.64,80.04,144.63,80.28,144.61,80.44z M143.48,79.46c0-1.48-0.59-2.34-1.81-2.34c-1.02,0-1.71,0.73-1.81,2.45h3.61V79.46z"/>
	<path class="st1" d="M156.08,78.43v5.28h-1.18V78.6c0-1.13-0.48-1.5-1.08-1.5c-0.83,0-1.3,0.55-1.82,1.36v5.25h-1.18V78.6
		c0-1.13-0.48-1.5-1.08-1.5c-0.81,0-1.3,0.55-1.81,1.36v5.25h-1.18v-7.37h1.01l0.1,1.11c0.52-0.76,1.2-1.27,2.16-1.27
		c0.92,0,1.58,0.52,1.85,1.37c0.53-0.81,1.23-1.37,2.23-1.37C155.31,76.18,156.08,77.05,156.08,78.43z"/>
	<path class="st1" d="M163.16,77.02l-0.5,0.74c-0.66-0.43-1.22-0.64-1.92-0.64c-0.87,0-1.43,0.41-1.43,1.04
		c0,0.63,0.42,0.91,1.64,1.23c1.56,0.41,2.42,0.99,2.42,2.28c0,1.5-1.36,2.21-2.84,2.21c-1.25,0-2.12-0.41-2.76-0.97l0.63-0.71
		c0.6,0.45,1.27,0.73,2.1,0.73c0.98,0,1.64-0.45,1.64-1.19c0-0.77-0.38-1.05-1.83-1.44c-1.58-0.42-2.21-1.08-2.21-2.12
		c0-1.16,1.11-2,2.61-2C161.7,76.18,162.46,76.49,163.16,77.02z"/>
	<path class="st1" d="M166.42,82.97c0,0.5-0.38,0.91-0.91,0.91c-0.5,0-0.9-0.41-0.9-0.91c0-0.49,0.39-0.9,0.9-0.9
		C166.04,82.08,166.42,82.48,166.42,82.97z"/>
	<path class="st1" d="M177.34,75.06h-3.8v3.25h3.29v0.98h-3.29v3.45h4.03v0.98h-5.24v-9.64h5.14L177.34,75.06z"/>
	<path class="st1" d="M182.19,83.71h-1.43l-2.56-7.37h1.29l2,6.32l1.98-6.32h1.25L182.19,83.71z"/>
	<path class="st1" d="M191.64,80.44h-4.75c0.13,1.78,0.94,2.48,2.06,2.48c0.74,0,1.29-0.21,1.93-0.66l0.52,0.7
		c-0.71,0.58-1.53,0.92-2.54,0.92c-2.03,0-3.22-1.44-3.22-3.78c0-2.31,1.15-3.92,3.03-3.92c1.98,0,3,1.39,3,3.61
		C191.67,80.04,191.65,80.28,191.64,80.44z M190.5,79.46c0-1.48-0.59-2.34-1.81-2.34c-1.02,0-1.71,0.73-1.81,2.45h3.61V79.46z"/>
	<path class="st1" d="M197.63,76.26l-0.21,1.15c-0.22-0.06-0.38-0.08-0.64-0.08c-0.94,0-1.47,0.66-1.81,2.07v4.31h-1.18v-7.37h1.01
		l0.11,1.54c0.39-1.13,1.08-1.71,1.99-1.71C197.15,76.18,197.42,76.21,197.63,76.26z"/>
	<path class="st1" d="M201.96,83.76c-0.52,1.57-1.34,2.66-3.32,2.91l-0.14-0.92c1.5-0.28,1.91-0.85,2.34-2.03h-0.41l-2.49-7.37h1.26
		l2.03,6.51l1.99-6.51h1.22L201.96,83.76z"/>
	<path class="st1" d="M209.58,83.39c-0.48,0.32-1.01,0.49-1.62,0.49c-1.22,0-1.95-0.71-1.95-2.06v-4.57h-1.27v-0.91h1.27v-1.69
		l1.18-0.13v1.82h1.78l-0.13,0.91h-1.65v4.51c0,0.77,0.27,1.13,0.92,1.13c0.35,0,0.66-0.1,1.02-0.31L209.58,83.39z"/>
	<path class="st1" d="M216.47,78.43v5.28h-1.18V78.6c0-1.13-0.48-1.5-1.23-1.5c-0.84,0-1.44,0.55-1.95,1.34v5.27h-1.18V73.39
		l1.18-0.14v4.15c0.55-0.74,1.29-1.22,2.24-1.22C215.69,76.18,216.47,77.05,216.47,78.43z"/>
	<path class="st1" d="M220.55,73.69c0,0.46-0.34,0.81-0.84,0.81c-0.49,0-0.83-0.35-0.83-0.81c0-0.46,0.34-0.81,0.83-0.81
		C220.21,72.87,220.55,73.22,220.55,73.69z M220.31,83.71h-1.18v-7.37h1.18V83.71z"/>
	<path class="st1" d="M228.57,78.43v5.28h-1.18V78.6c0-1.13-0.46-1.5-1.22-1.5c-0.87,0-1.46,0.55-1.96,1.36v5.25h-1.18v-7.37h1.01
		l0.1,1.11c0.55-0.76,1.32-1.27,2.31-1.27C227.8,76.18,228.57,77.03,228.57,78.43z"/>
	<path class="st1" d="M237.05,76.64c-0.59,0.18-1.27,0.21-2.13,0.22c0.85,0.38,1.29,0.99,1.29,1.89c0,1.44-1.04,2.48-2.77,2.48
		c-0.34,0-0.64-0.04-0.94-0.14c-0.25,0.17-0.41,0.43-0.41,0.73c0,0.35,0.22,0.63,1.01,0.63h1.18c1.5,0,2.48,0.85,2.48,2
		c0,1.42-1.13,2.21-3.39,2.21c-2.37,0-3.14-0.71-3.14-2.2h1.06c0,0.88,0.42,1.27,2.07,1.27c1.62,0,2.2-0.43,2.2-1.21
		c0-0.73-0.58-1.09-1.53-1.09h-1.16c-1.29,0-1.88-0.64-1.88-1.37c0-0.49,0.28-0.95,0.8-1.29c-0.84-0.45-1.23-1.09-1.23-2.06
		c0-1.5,1.18-2.55,2.8-2.55c1.86,0.04,2.51-0.24,3.33-0.62L237.05,76.64z M231.77,78.73c0,1.04,0.59,1.72,1.62,1.72
		c1.05,0,1.61-0.63,1.61-1.72c0-1.09-0.55-1.7-1.64-1.7C232.32,77.03,231.77,77.75,231.77,78.73z"/>
	<path class="st1" d="M248.81,83.71h-1.61l-1.36-6.3l-1.4,6.3h-1.57l-1.75-7.37h1.19l1.39,6.54l1.51-6.54h1.32l1.46,6.54l1.4-6.54
		h1.12L248.81,83.71z"/>
	<path class="st1" d="M257.51,83.06l-0.28,0.83c-0.71-0.1-1.18-0.39-1.37-1.13c-0.52,0.79-1.3,1.13-2.21,1.13
		c-1.46,0-2.33-0.91-2.33-2.23c0-1.57,1.18-2.41,3.19-2.41h1.21v-0.59c0-1.09-0.52-1.51-1.58-1.51c-0.56,0-1.23,0.14-1.99,0.41
		l-0.29-0.87c0.88-0.34,1.68-0.5,2.49-0.5c1.75,0,2.55,0.9,2.55,2.42v3.42C256.89,82.71,257.12,82.92,257.51,83.06z M255.71,81.78
		v-1.75h-1.05c-1.37,0-2.1,0.52-2.1,1.57c0,0.9,0.46,1.39,1.34,1.39C254.71,82.99,255.29,82.58,255.71,81.78z"/>
	<path class="st1" d="M263.88,77.02l-0.5,0.74c-0.66-0.43-1.22-0.64-1.92-0.64c-0.87,0-1.43,0.41-1.43,1.04
		c0,0.63,0.42,0.91,1.64,1.23c1.56,0.41,2.42,0.99,2.42,2.28c0,1.5-1.36,2.21-2.84,2.21c-1.25,0-2.12-0.41-2.76-0.97l0.63-0.71
		c0.6,0.45,1.27,0.73,2.1,0.73c0.98,0,1.64-0.45,1.64-1.19c0-0.77-0.38-1.05-1.83-1.44c-1.58-0.42-2.21-1.08-2.21-2.12
		c0-1.16,1.11-2,2.61-2C262.42,76.18,263.18,76.49,263.88,77.02z"/>
	<path class="st1" d="M275.33,73.38v10.34h-1.02l-0.13-1.04c-0.46,0.73-1.2,1.2-2.14,1.2c-1.78,0-2.77-1.51-2.77-3.82
		c0-2.25,1.08-3.88,2.89-3.88c0.9,0,1.53,0.42,2,0.92v-3.87L275.33,73.38z M274.15,81.78v-3.67c-0.45-0.6-0.98-1-1.75-1
		c-1.15,0-1.88,0.97-1.88,2.93s0.64,2.9,1.75,2.9C273.13,82.94,273.66,82.52,274.15,81.78z"/>
	<path class="st1" d="M284.01,80.02c0,2.31-1.19,3.87-3.25,3.87c-2.06,0-3.24-1.5-3.24-3.84c0-2.31,1.19-3.87,3.25-3.87
		C282.85,76.18,284.01,77.66,284.01,80.02z M278.79,80.04c0,1.95,0.7,2.89,1.98,2.89c1.27,0,1.99-0.94,1.99-2.91
		c0-1.95-0.7-2.89-1.98-2.89C279.51,77.13,278.79,78.07,278.79,80.04z"/>
	<path class="st1" d="M291.74,78.43v5.28h-1.18V78.6c0-1.13-0.46-1.5-1.22-1.5c-0.87,0-1.46,0.55-1.96,1.36v5.25h-1.18v-7.37h1.01
		l0.1,1.11c0.55-0.76,1.32-1.27,2.31-1.27C290.97,76.18,291.74,77.03,291.74,78.43z"/>
	<path class="st1" d="M299.84,80.44h-4.75c0.13,1.78,0.94,2.48,2.06,2.48c0.74,0,1.29-0.21,1.93-0.66l0.52,0.7
		c-0.71,0.58-1.53,0.92-2.54,0.92c-2.03,0-3.22-1.44-3.22-3.78c0-2.31,1.15-3.92,3.03-3.92c1.97,0,3,1.39,3,3.61
		C299.87,80.04,299.86,80.28,299.84,80.44z M298.71,79.46c0-1.48-0.59-2.34-1.81-2.34c-1.02,0-1.71,0.73-1.81,2.45h3.61V79.46z"/>
	<path class="st1" d="M311.69,80.02c0,2.31-1.19,3.87-3.25,3.87c-2.06,0-3.24-1.5-3.24-3.84c0-2.31,1.19-3.87,3.25-3.87
		C310.52,76.18,311.69,77.66,311.69,80.02z M306.46,80.04c0,1.95,0.7,2.89,1.98,2.89c1.27,0,1.99-0.94,1.99-2.91
		c0-1.95-0.7-2.89-1.97-2.89C307.19,77.13,306.46,78.07,306.46,80.04z"/>
	<path class="st1" d="M319.41,78.43v5.28h-1.18V78.6c0-1.13-0.46-1.5-1.22-1.5c-0.87,0-1.46,0.55-1.96,1.36v5.25h-1.18v-7.37h1.01
		l0.1,1.11c0.55-0.76,1.32-1.27,2.31-1.27C318.64,76.18,319.41,77.03,319.41,78.43z"/>
	<path class="st1" d="M329.45,83.39c-0.48,0.32-1.01,0.49-1.62,0.49c-1.22,0-1.95-0.71-1.95-2.06v-4.57h-1.27v-0.91h1.27v-1.69
		l1.18-0.13v1.82h1.78l-0.13,0.91h-1.65v4.51c0,0.77,0.27,1.13,0.92,1.13c0.35,0,0.66-0.1,1.02-0.31L329.45,83.39z"/>
	<path class="st1" d="M332.22,73.69c0,0.46-0.34,0.81-0.84,0.81c-0.49,0-0.83-0.35-0.83-0.81c0-0.46,0.34-0.81,0.83-0.81
		C331.88,72.87,332.22,73.22,332.22,73.69z M331.98,83.71h-1.18v-7.37h1.18V83.71z"/>
	<path class="st1" d="M344.03,78.43v5.28h-1.18V78.6c0-1.13-0.48-1.5-1.08-1.5c-0.83,0-1.3,0.55-1.82,1.36v5.25h-1.18V78.6
		c0-1.13-0.48-1.5-1.08-1.5c-0.81,0-1.3,0.55-1.81,1.36v5.25h-1.18v-7.37h1.01l0.1,1.11c0.52-0.76,1.2-1.27,2.16-1.27
		c0.92,0,1.58,0.52,1.85,1.37c0.53-0.81,1.23-1.37,2.23-1.37C343.26,76.18,344.03,77.05,344.03,78.43z"/>
	<path class="st1" d="M352.14,80.44h-4.75c0.13,1.78,0.94,2.48,2.06,2.48c0.74,0,1.29-0.21,1.93-0.66l0.52,0.7
		c-0.71,0.58-1.53,0.92-2.54,0.92c-2.03,0-3.22-1.44-3.22-3.78c0-2.31,1.15-3.92,3.03-3.92c1.97,0,3,1.39,3,3.61
		C352.17,80.04,352.16,80.28,352.14,80.44z M351.01,79.46c0-1.48-0.59-2.34-1.81-2.34c-1.02,0-1.71,0.73-1.81,2.45h3.61V79.46z"/>
	<path class="st1" d="M363.54,83.06l-0.28,0.83c-0.71-0.1-1.18-0.39-1.37-1.13c-0.52,0.79-1.3,1.13-2.21,1.13
		c-1.46,0-2.33-0.91-2.33-2.23c0-1.57,1.18-2.41,3.19-2.41h1.2v-0.59c0-1.09-0.52-1.51-1.58-1.51c-0.56,0-1.23,0.14-1.99,0.41
		l-0.29-0.87c0.88-0.34,1.68-0.5,2.49-0.5c1.75,0,2.55,0.9,2.55,2.42v3.42C362.92,82.71,363.15,82.92,363.54,83.06z M361.75,81.78
		v-1.75h-1.05c-1.37,0-2.1,0.52-2.1,1.57c0,0.9,0.46,1.39,1.34,1.39C360.74,82.99,361.33,82.58,361.75,81.78z"/>
	<path class="st1" d="M371.17,78.43v5.28h-1.18V78.6c0-1.13-0.46-1.5-1.22-1.5c-0.87,0-1.46,0.55-1.96,1.36v5.25h-1.18v-7.37h1.01
		l0.1,1.11c0.55-0.76,1.32-1.27,2.31-1.27C370.4,76.18,371.17,77.03,371.17,78.43z"/>
	<path class="st1" d="M379.42,73.38v10.34h-1.02l-0.13-1.04c-0.46,0.73-1.21,1.2-2.14,1.2c-1.78,0-2.77-1.51-2.77-3.82
		c0-2.25,1.08-3.88,2.89-3.88c0.9,0,1.53,0.42,2,0.92v-3.87L379.42,73.38z M378.24,81.78v-3.67c-0.45-0.6-0.98-1-1.75-1
		c-1.15,0-1.88,0.97-1.88,2.93s0.64,2.9,1.75,2.9C377.22,82.94,377.75,82.52,378.24,81.78z"/>
	<path class="st1" d="M389.54,83.39c-0.48,0.32-1.01,0.49-1.62,0.49c-1.22,0-1.95-0.71-1.95-2.06v-4.57h-1.27v-0.91h1.27v-1.69
		l1.18-0.13v1.82h1.78l-0.13,0.91h-1.65v4.51c0,0.77,0.27,1.13,0.92,1.13c0.35,0,0.66-0.1,1.02-0.31L389.54,83.39z"/>
	<path class="st1" d="M396.42,78.43v5.28h-1.18V78.6c0-1.13-0.48-1.5-1.23-1.5c-0.84,0-1.44,0.55-1.95,1.34v5.27h-1.18V73.39
		l1.18-0.14v4.15c0.55-0.74,1.29-1.22,2.24-1.22C395.64,76.18,396.42,77.05,396.42,78.43z"/>
	<path class="st1" d="M404.53,80.44h-4.75c0.13,1.78,0.94,2.48,2.06,2.48c0.74,0,1.29-0.21,1.93-0.66l0.52,0.7
		c-0.71,0.58-1.53,0.92-2.54,0.92c-2.03,0-3.22-1.44-3.22-3.78c0-2.31,1.15-3.92,3.03-3.92c1.97,0,3,1.39,3,3.61
		C404.56,80.04,404.54,80.28,404.53,80.44z M403.4,79.46c0-1.48-0.59-2.34-1.81-2.34c-1.02,0-1.71,0.73-1.81,2.45h3.61V79.46z"/>
	<path class="st1" d="M84.89,96.75v10.32l-1.18-0.14v-3.8c-0.48,0.7-1.2,1.15-2.12,1.15c-1.78,0-2.77-1.51-2.77-3.82
		c0-2.25,1.08-3.88,2.89-3.88c0.95,0,1.6,0.46,2.09,1.01l0.08-0.84H84.89z M83.71,102.18v-3.67c-0.45-0.6-0.98-1-1.75-1
		c-1.15,0-1.88,0.97-1.88,2.93s0.64,2.9,1.76,2.9C82.69,103.34,83.22,102.92,83.71,102.18z"/>
	<path class="st1" d="M93.04,104.12h-1.01l-0.1-1.19c-0.55,0.9-1.25,1.36-2.31,1.36c-1.3,0-2.06-0.81-2.06-2.25v-5.28h1.18v5.16
		c0,1.05,0.36,1.44,1.2,1.44s1.46-0.55,1.92-1.32v-5.28h1.18V104.12z"/>
	<path class="st1" d="M101.25,103.46l-0.28,0.83c-0.71-0.1-1.18-0.39-1.37-1.13c-0.52,0.79-1.3,1.13-2.21,1.13
		c-1.46,0-2.33-0.91-2.33-2.23c0-1.57,1.18-2.41,3.19-2.41h1.2v-0.59c0-1.09-0.52-1.51-1.58-1.51c-0.56,0-1.23,0.14-1.99,0.41
		l-0.29-0.87c0.88-0.34,1.68-0.5,2.49-0.5c1.75,0,2.55,0.9,2.55,2.42v3.42C100.64,103.11,100.86,103.32,101.25,103.46z
		 M99.46,102.18v-1.75h-1.05c-1.37,0-2.1,0.52-2.1,1.57c0,0.9,0.46,1.39,1.34,1.39C98.45,103.39,99.04,102.98,99.46,102.18z"/>
	<path class="st1" d="M103.14,102.71v-8.94l1.18-0.14v9.05c0,0.41,0.14,0.62,0.49,0.62c0.18,0,0.34-0.03,0.48-0.08l0.31,0.83
		c-0.27,0.14-0.62,0.24-0.98,0.24C103.72,104.28,103.14,103.74,103.14,102.71z"/>
	<path class="st1" d="M108.7,94.09c0,0.46-0.34,0.81-0.84,0.81c-0.49,0-0.83-0.35-0.83-0.81s0.34-0.81,0.83-0.81
		C108.36,93.27,108.7,93.62,108.7,94.09z M108.46,104.12h-1.18v-7.37h1.18V104.12z"/>
	<path class="st1" d="M114.82,103.79c-0.48,0.32-1.01,0.49-1.62,0.49c-1.22,0-1.95-0.71-1.95-2.06v-4.57h-1.27v-0.91h1.27v-1.69
		l1.18-0.13v1.82h1.78l-0.13,0.91h-1.65v4.51c0,0.77,0.27,1.13,0.92,1.13c0.35,0,0.66-0.1,1.02-0.31L114.82,103.79z"/>
	<path class="st1" d="M118.91,104.16c-0.52,1.57-1.34,2.66-3.32,2.91l-0.14-0.92c1.5-0.28,1.91-0.85,2.34-2.03h-0.41l-2.49-7.37
		h1.26l2.03,6.51l1.99-6.51h1.22L118.91,104.16z"/>
	<path class="st1" d="M133.27,104.12h-1.61l-1.36-6.3l-1.4,6.3h-1.57l-1.75-7.37h1.19l1.39,6.54l1.51-6.54h1.32l1.46,6.54l1.4-6.54
		h1.12L133.27,104.12z"/>
	<path class="st1" d="M141.97,103.46l-0.28,0.83c-0.71-0.1-1.18-0.39-1.37-1.13c-0.52,0.79-1.3,1.13-2.21,1.13
		c-1.46,0-2.33-0.91-2.33-2.23c0-1.57,1.18-2.41,3.19-2.41h1.2v-0.59c0-1.09-0.52-1.51-1.58-1.51c-0.56,0-1.23,0.14-1.99,0.41
		l-0.29-0.87c0.88-0.34,1.68-0.5,2.49-0.5c1.75,0,2.55,0.9,2.55,2.42v3.42C141.35,103.11,141.57,103.32,141.97,103.46z
		 M140.17,102.18v-1.75h-1.05c-1.37,0-2.1,0.52-2.1,1.57c0,0.9,0.46,1.39,1.34,1.39C139.16,103.39,139.75,102.98,140.17,102.18z"/>
	<path class="st1" d="M148.34,97.42l-0.5,0.74c-0.66-0.43-1.22-0.64-1.92-0.64c-0.87,0-1.43,0.41-1.43,1.04
		c0,0.63,0.42,0.91,1.64,1.23c1.56,0.41,2.42,0.99,2.42,2.28c0,1.5-1.36,2.21-2.84,2.21c-1.25,0-2.12-0.41-2.76-0.97l0.63-0.71
		c0.6,0.45,1.27,0.73,2.1,0.73c0.98,0,1.64-0.45,1.64-1.19c0-0.77-0.38-1.05-1.83-1.44c-1.58-0.42-2.21-1.08-2.21-2.12
		c0-1.16,1.11-2,2.61-2C146.88,96.58,147.64,96.89,148.34,97.42z"/>
	<path class="st1" d="M157.83,103.79c-0.48,0.32-1.01,0.49-1.62,0.49c-1.22,0-1.95-0.71-1.95-2.06v-4.57h-1.27v-0.91h1.27v-1.69
		l1.18-0.13v1.82h1.78l-0.13,0.91h-1.65v4.51c0,0.77,0.27,1.13,0.92,1.13c0.35,0,0.66-0.1,1.02-0.31L157.83,103.79z"/>
	<path class="st1" d="M164.72,98.83v5.28h-1.18V99c0-1.13-0.48-1.5-1.23-1.5c-0.84,0-1.44,0.55-1.95,1.34v5.27h-1.18V93.79
		l1.18-0.14v4.15c0.55-0.74,1.29-1.22,2.24-1.22C163.93,96.58,164.72,97.45,164.72,98.83z"/>
	<path class="st1" d="M172.82,100.84h-4.75c0.13,1.78,0.94,2.48,2.06,2.48c0.74,0,1.29-0.21,1.93-0.66l0.52,0.7
		c-0.71,0.58-1.53,0.92-2.54,0.92c-2.03,0-3.22-1.44-3.22-3.78c0-2.31,1.15-3.92,3.03-3.92c1.98,0,3,1.39,3,3.61
		C172.85,100.45,172.84,100.68,172.82,100.84z M171.69,99.86c0-1.48-0.59-2.34-1.81-2.34c-1.02,0-1.71,0.73-1.81,2.45h3.61V99.86z"
		/>
	<path class="st1" d="M184.74,100.42c0,2.33-1.08,3.87-2.87,3.87c-0.84,0-1.48-0.39-1.99-0.99l-0.13,0.83h-1.02V93.78l1.18-0.14
		v4.05c0.5-0.69,1.2-1.11,2.12-1.11C183.69,96.58,184.74,97.97,184.74,100.42z M183.48,100.42c0-2.12-0.7-2.9-1.78-2.9
		c-0.84,0-1.4,0.56-1.79,1.18v3.63c0.39,0.6,0.99,1.02,1.69,1.02C182.72,103.34,183.48,102.46,183.48,100.42z"/>
	<path class="st1" d="M192.45,100.84h-4.75c0.13,1.78,0.94,2.48,2.06,2.48c0.74,0,1.29-0.21,1.93-0.66l0.52,0.7
		c-0.71,0.58-1.53,0.92-2.54,0.92c-2.03,0-3.22-1.44-3.22-3.78c0-2.31,1.15-3.92,3.03-3.92c1.98,0,3,1.39,3,3.61
		C192.48,100.45,192.46,100.68,192.45,100.84z M191.31,99.86c0-1.48-0.59-2.34-1.81-2.34c-1.02,0-1.71,0.73-1.81,2.45h3.61V99.86z"
		/>
	<path class="st1" d="M199.02,97.42l-0.5,0.74c-0.66-0.43-1.22-0.64-1.92-0.64c-0.87,0-1.43,0.41-1.43,1.04
		c0,0.63,0.42,0.91,1.64,1.23c1.56,0.41,2.42,0.99,2.42,2.28c0,1.5-1.36,2.21-2.84,2.21c-1.25,0-2.12-0.41-2.76-0.97l0.63-0.71
		c0.6,0.45,1.27,0.73,2.1,0.73c0.98,0,1.64-0.45,1.64-1.19c0-0.77-0.38-1.05-1.83-1.44c-1.58-0.42-2.21-1.08-2.21-2.12
		c0-1.16,1.11-2,2.61-2C197.56,96.58,198.31,96.89,199.02,97.42z"/>
	<path class="st1" d="M204.75,103.79c-0.48,0.32-1.01,0.49-1.62,0.49c-1.22,0-1.95-0.71-1.95-2.06v-4.57h-1.27v-0.91h1.27v-1.69
		l1.18-0.13v1.82h1.78l-0.13,0.91h-1.65v4.51c0,0.77,0.27,1.13,0.92,1.13c0.35,0,0.66-0.1,1.02-0.31L204.75,103.79z"/>
	<path class="st1" d="M207.3,103.37c0,0.5-0.38,0.91-0.91,0.91c-0.5,0-0.9-0.41-0.9-0.91c0-0.49,0.39-0.9,0.9-0.9
		C206.92,102.48,207.3,102.88,207.3,103.37z"/>
	<path class="st1" d="M214.43,104.12h-1.2v-9.64h1.2V104.12z"/>
	<path class="st1" d="M227.6,104.12h-1.61l-1.36-6.3l-1.4,6.3h-1.57l-1.75-7.37h1.19l1.39,6.54l1.51-6.54h1.32l1.46,6.54l1.4-6.54
		h1.12L227.6,104.12z"/>
	<path class="st1" d="M236.91,100.42c0,2.31-1.19,3.87-3.25,3.87c-2.06,0-3.24-1.5-3.24-3.84c0-2.31,1.19-3.87,3.25-3.87
		C235.75,96.58,236.91,98.06,236.91,100.42z M231.69,100.45c0,1.95,0.7,2.89,1.97,2.89c1.28,0,1.99-0.94,1.99-2.91
		c0-1.95-0.7-2.89-1.97-2.89C232.42,97.53,231.69,98.47,231.69,100.45z"/>
	<path class="st1" d="M244.51,104.12h-1.01l-0.1-1.19c-0.55,0.9-1.25,1.36-2.31,1.36c-1.3,0-2.06-0.81-2.06-2.25v-5.28h1.18v5.16
		c0,1.05,0.36,1.44,1.2,1.44c0.84,0,1.46-0.55,1.92-1.32v-5.28h1.18V104.12z"/>
	<path class="st1" d="M247.17,102.71v-8.94l1.18-0.14v9.05c0,0.41,0.14,0.62,0.49,0.62c0.18,0,0.34-0.03,0.48-0.08l0.31,0.83
		c-0.27,0.14-0.62,0.24-0.98,0.24C247.75,104.28,247.17,103.74,247.17,102.71z"/>
	<path class="st1" d="M256.83,93.78v10.34h-1.02l-0.13-1.04c-0.46,0.73-1.2,1.2-2.14,1.2c-1.78,0-2.77-1.51-2.77-3.82
		c0-2.25,1.08-3.88,2.89-3.88c0.9,0,1.53,0.42,2,0.92v-3.87L256.83,93.78z M255.66,102.18v-3.67c-0.45-0.6-0.98-1-1.75-1
		c-1.15,0-1.88,0.97-1.88,2.93s0.64,2.9,1.75,2.9C254.64,103.34,255.17,102.92,255.66,102.18z"/>
	<path class="st1" d="M267.17,96.66l-0.21,1.15c-0.22-0.06-0.38-0.08-0.64-0.08c-0.94,0-1.47,0.66-1.81,2.07v4.31h-1.18v-7.37h1.01
		l0.11,1.54c0.39-1.13,1.08-1.71,1.99-1.71C266.69,96.58,266.96,96.61,267.17,96.66z"/>
	<path class="st1" d="M273.72,100.84h-4.75c0.13,1.78,0.94,2.48,2.06,2.48c0.74,0,1.29-0.21,1.93-0.66l0.52,0.7
		c-0.71,0.58-1.53,0.92-2.54,0.92c-2.03,0-3.22-1.44-3.22-3.78c0-2.31,1.15-3.92,3.03-3.92c1.98,0,3,1.39,3,3.61
		C273.75,100.45,273.73,100.68,273.72,100.84z M272.58,99.86c0-1.48-0.59-2.34-1.81-2.34c-1.02,0-1.71,0.73-1.81,2.45h3.61V99.86z"
		/>
	<path class="st1" d="M280.73,97.36l-0.57,0.74c-0.49-0.36-0.97-0.55-1.6-0.55c-1.21,0-1.98,0.94-1.98,2.91
		c0,1.96,0.77,2.8,1.98,2.8c0.63,0,1.08-0.2,1.62-0.57l0.55,0.77c-0.63,0.53-1.37,0.81-2.21,0.81c-1.96,0-3.19-1.42-3.19-3.8
		c0-2.35,1.22-3.91,3.19-3.91C279.37,96.58,280.06,96.8,280.73,97.36z"/>
	<path class="st1" d="M288.21,100.42c0,2.31-1.19,3.87-3.25,3.87c-2.06,0-3.24-1.5-3.24-3.84c0-2.31,1.19-3.87,3.25-3.87
		C287.05,96.58,288.21,98.06,288.21,100.42z M282.98,100.45c0,1.95,0.7,2.89,1.98,2.89c1.27,0,1.99-0.94,1.99-2.91
		c0-1.95-0.7-2.89-1.97-2.89C283.71,97.53,282.98,98.47,282.98,100.45z"/>
	<path class="st1" d="M299.72,98.83v5.28h-1.18V99c0-1.13-0.48-1.5-1.08-1.5c-0.83,0-1.3,0.55-1.82,1.36v5.25h-1.18V99
		c0-1.13-0.48-1.5-1.08-1.5c-0.81,0-1.3,0.55-1.81,1.36v5.25h-1.18v-7.37h1.01l0.1,1.11c0.52-0.76,1.2-1.27,2.16-1.27
		c0.92,0,1.58,0.52,1.85,1.37c0.53-0.81,1.23-1.37,2.23-1.37C298.95,96.58,299.72,97.45,299.72,98.83z"/>
	<path class="st1" d="M311.7,98.83v5.28h-1.18V99c0-1.13-0.48-1.5-1.08-1.5c-0.83,0-1.3,0.55-1.82,1.36v5.25h-1.18V99
		c0-1.13-0.48-1.5-1.08-1.5c-0.81,0-1.3,0.55-1.81,1.36v5.25h-1.18v-7.37h1.01l0.1,1.11c0.52-0.76,1.2-1.27,2.16-1.27
		c0.92,0,1.58,0.52,1.85,1.37c0.53-0.81,1.23-1.37,2.23-1.37C310.93,96.58,311.7,97.45,311.7,98.83z"/>
	<path class="st1" d="M319.82,100.84h-4.75c0.13,1.78,0.94,2.48,2.06,2.48c0.74,0,1.29-0.21,1.93-0.66l0.52,0.7
		c-0.71,0.58-1.53,0.92-2.54,0.92c-2.03,0-3.22-1.44-3.22-3.78c0-2.31,1.15-3.92,3.03-3.92c1.97,0,3,1.39,3,3.61
		C319.85,100.45,319.83,100.68,319.82,100.84z M318.68,99.86c0-1.48-0.59-2.34-1.81-2.34c-1.02,0-1.71,0.73-1.81,2.45h3.61V99.86z"
		/>
	<path class="st1" d="M327.5,98.83v5.28h-1.18V99c0-1.13-0.46-1.5-1.22-1.5c-0.87,0-1.46,0.55-1.96,1.36v5.25h-1.18v-7.37h1.01
		l0.1,1.11c0.55-0.76,1.32-1.27,2.31-1.27C326.73,96.58,327.5,97.43,327.5,98.83z"/>
	<path class="st1" d="M335.75,93.78v10.34h-1.02l-0.13-1.04c-0.46,0.73-1.21,1.2-2.14,1.2c-1.78,0-2.77-1.51-2.77-3.82
		c0-2.25,1.08-3.88,2.89-3.88c0.9,0,1.53,0.42,2,0.92v-3.87L335.75,93.78z M334.57,102.18v-3.67c-0.45-0.6-0.98-1-1.75-1
		c-1.15,0-1.88,0.97-1.88,2.93s0.64,2.9,1.75,2.9C333.55,103.34,334.08,102.92,334.57,102.18z"/>
	<path class="st1" d="M348.48,97.43c0,2.2-1.58,3.1-3.7,3.1h-1.26v3.59h-1.21v-9.64h2.47C347.08,94.48,348.48,95.42,348.48,97.43z
		 M347.19,97.45c0-1.48-0.94-2.02-2.42-2.02h-1.25v4.13h1.22C346.21,99.56,347.19,99.11,347.19,97.45z"/>
	<path class="st1" d="M355.17,96.42c0,1.19-0.9,1.92-2.02,2.58l2.56,2.41c0.34-0.7,0.64-1.5,0.85-2.44l1.11,0.31
		c-0.35,1.16-0.77,2.07-1.23,2.82l1.61,1.5l-0.85,0.69l-1.42-1.36c-0.77,0.87-1.74,1.36-3.1,1.36c-1.81,0-3.09-1.02-3.09-2.61
		c0-1.23,0.77-2.03,1.97-2.79c-0.85-0.81-1.39-1.44-1.39-2.41c0-1.22,0.9-2.17,2.48-2.17C354.14,94.31,355.17,95.21,355.17,96.42z
		 M350.8,101.64c0,1.06,0.84,1.71,2.02,1.71c0.95,0,1.65-0.39,2.28-1.08l-2.86-2.73C351.27,100.15,350.8,100.78,350.8,101.64z
		 M351.34,96.47c0,0.71,0.39,1.19,1.13,1.89c0.95-0.56,1.53-1.11,1.53-1.86c0-0.83-0.53-1.3-1.33-1.3
		C351.82,95.19,351.34,95.74,351.34,96.47z"/>
	<path class="st1" d="M366.21,97.43c0,2.2-1.58,3.1-3.7,3.1h-1.26v3.59h-1.21v-9.64h2.47C364.81,94.48,366.21,95.42,366.21,97.43z
		 M364.92,97.45c0-1.48-0.94-2.02-2.42-2.02h-1.25v4.13h1.22C363.94,99.56,364.92,99.11,364.92,97.45z"/>
	<path class="st1" d="M375.45,103.79c-0.48,0.32-1.01,0.49-1.62,0.49c-1.22,0-1.95-0.71-1.95-2.06v-4.57h-1.27v-0.91h1.27v-1.69
		l1.18-0.13v1.82h1.78l-0.13,0.91h-1.65v4.51c0,0.77,0.27,1.13,0.92,1.13c0.35,0,0.66-0.1,1.02-0.31L375.45,103.79z"/>
	<path class="st1" d="M382.55,100.42c0,2.31-1.19,3.87-3.25,3.87c-2.06,0-3.24-1.5-3.24-3.84c0-2.31,1.19-3.87,3.25-3.87
		C381.39,96.58,382.55,98.06,382.55,100.42z M377.33,100.45c0,1.95,0.7,2.89,1.98,2.89c1.27,0,1.99-0.94,1.99-2.91
		c0-1.95-0.7-2.89-1.98-2.89C378.05,97.53,377.33,98.47,377.33,100.45z"/>
	<path class="st1" d="M84.75,121.24H80c0.13,1.78,0.94,2.48,2.06,2.48c0.74,0,1.29-0.21,1.93-0.66l0.52,0.7
		c-0.71,0.58-1.53,0.92-2.54,0.92c-2.03,0-3.22-1.44-3.22-3.78c0-2.31,1.15-3.92,3.03-3.92c1.98,0,3,1.39,3,3.61
		C84.78,120.85,84.76,121.08,84.75,121.24z M83.61,120.26c0-1.48-0.59-2.34-1.81-2.34c-1.02,0-1.71,0.73-1.81,2.45h3.61V120.26z"/>
	<path class="st1" d="M89.63,124.52h-1.43l-2.56-7.37h1.29l2,6.32l1.98-6.32h1.25L89.63,124.52z"/>
	<path class="st1" d="M99.09,121.24h-4.75c0.13,1.78,0.94,2.48,2.06,2.48c0.74,0,1.29-0.21,1.93-0.66l0.52,0.7
		c-0.71,0.58-1.53,0.92-2.54,0.92c-2.03,0-3.22-1.44-3.22-3.78c0-2.31,1.15-3.92,3.03-3.92c1.98,0,3,1.39,3,3.61
		C99.11,120.85,99.1,121.08,99.09,121.24z M97.95,120.26c0-1.48-0.59-2.34-1.81-2.34c-1.02,0-1.71,0.73-1.81,2.45h3.61V120.26z"/>
	<path class="st1" d="M105.08,117.06l-0.21,1.15c-0.22-0.06-0.38-0.08-0.64-0.08c-0.94,0-1.47,0.66-1.81,2.07v4.31h-1.18v-7.37h1.01
		l0.11,1.54c0.39-1.13,1.08-1.71,1.99-1.71C104.6,116.98,104.87,117.01,105.08,117.06z"/>
	<path class="st1" d="M109.4,124.56c-0.52,1.57-1.34,2.66-3.32,2.91l-0.14-0.92c1.5-0.28,1.91-0.85,2.34-2.03h-0.41l-2.49-7.37h1.26
		l2.03,6.51l1.99-6.51h1.22L109.4,124.56z"/>
	<path class="st1" d="M119.3,120.82c0,2.31-1.19,3.87-3.25,3.87s-3.24-1.5-3.24-3.84c0-2.31,1.19-3.87,3.25-3.87
		C118.14,116.98,119.3,118.46,119.3,120.82z M114.08,120.85c0,1.95,0.7,2.89,1.98,2.89c1.27,0,1.99-0.94,1.99-2.91
		c0-1.95-0.7-2.89-1.98-2.89C114.81,117.93,114.08,118.87,114.08,120.85z"/>
	<path class="st1" d="M127.03,119.23v5.28h-1.18v-5.11c0-1.13-0.46-1.5-1.22-1.5c-0.87,0-1.46,0.55-1.96,1.36v5.25h-1.18v-7.37h1.01
		l0.1,1.11c0.55-0.76,1.32-1.27,2.31-1.27C126.26,116.98,127.03,117.83,127.03,119.23z"/>
	<path class="st1" d="M135.14,121.24h-4.75c0.13,1.78,0.94,2.48,2.06,2.48c0.74,0,1.29-0.21,1.93-0.66l0.52,0.7
		c-0.71,0.58-1.53,0.92-2.54,0.92c-2.03,0-3.22-1.44-3.22-3.78c0-2.31,1.15-3.92,3.03-3.92c1.98,0,3,1.39,3,3.61
		C135.16,120.85,135.15,121.08,135.14,121.24z M134,120.26c0-1.48-0.59-2.34-1.81-2.34c-1.02,0-1.71,0.73-1.81,2.45H134V120.26z"/>
	<path class="st1" d="M138.3,123.77c0,0.5-0.38,0.91-0.91,0.91c-0.5,0-0.9-0.41-0.9-0.91c0-0.49,0.39-0.9,0.9-0.9
		C137.92,122.88,138.3,123.28,138.3,123.77z"/>
	<path class="st1" d="M141.54,123.77c0,0.5-0.38,0.91-0.91,0.91c-0.5,0-0.9-0.41-0.9-0.91c0-0.49,0.39-0.9,0.9-0.9
		C141.17,122.88,141.54,123.28,141.54,123.77z"/>
	<path class="st1" d="M144.79,123.77c0,0.5-0.38,0.91-0.91,0.91c-0.5,0-0.9-0.41-0.9-0.91c0-0.49,0.39-0.9,0.9-0.9
		C144.41,122.88,144.79,123.28,144.79,123.77z"/>
	<path class="st1" d="M146.61,114.82c0,0.21-0.06,0.39-0.22,0.77l-0.91,1.93h-0.77l0.55-2.04c-0.22-0.17-0.34-0.39-0.34-0.66
		c0-0.45,0.38-0.83,0.84-0.83C146.23,114,146.61,114.37,146.61,114.82z M149.02,114.82c0,0.21-0.06,0.39-0.22,0.77l-0.91,1.93h-0.77
		l0.55-2.04c-0.22-0.17-0.34-0.39-0.34-0.66c0-0.45,0.38-0.83,0.84-0.83C148.64,114,149.02,114.37,149.02,114.82z"/>
	<path class="st1" d="M154.31,119.63h3.91v1.01h-3.91V119.63z"/>
	<path class="st1" d="M166.41,123.04c0,2.45-1.48,3.31-3.12,3.84l-0.62-1.62c1.26-0.49,1.44-1.15,1.44-2.3v-8.15h2.3V123.04z"/>
	<path class="st1" d="M174.54,123.27l-0.46,1.44c-0.88-0.07-1.46-0.34-1.79-1.08c-0.53,0.83-1.36,1.12-2.24,1.12
		c-1.48,0-2.42-0.97-2.42-2.33c0-1.62,1.23-2.51,3.49-2.51h0.76v-0.32c0-0.88-0.35-1.15-1.26-1.15c-0.48,0-1.2,0.14-1.95,0.39
		l-0.5-1.46c0.94-0.35,1.96-0.55,2.8-0.55c2.16,0,3.08,0.91,3.08,2.63v2.89C174.04,122.93,174.19,123.14,174.54,123.27z
		 M171.87,122.46v-1.32h-0.55c-1.01,0-1.5,0.35-1.5,1.09c0,0.59,0.32,0.94,0.87,0.94C171.21,123.17,171.6,122.9,171.87,122.46z"/>
	<path class="st1" d="M179.7,124.53c-0.59,1.88-1.85,2.97-4.19,3.1l-0.24-1.55c1.46-0.18,1.99-0.6,2.4-1.55h-0.76l-2.27-7.44h2.35
		l1.33,6.02l1.46-6.02h2.28L179.7,124.53z"/>
	<path class="st1" d="M189.64,117.51c-0.52,0.21-1.2,0.29-2.14,0.29c0.94,0.41,1.4,0.95,1.4,1.92c0,1.44-1.19,2.49-3.12,2.49
		c-0.31,0-0.59-0.03-0.85-0.08c-0.15,0.08-0.24,0.25-0.24,0.42c0,0.22,0.1,0.45,0.81,0.45h1.12c1.74,0,2.84,0.91,2.84,2.16
		c0,1.53-1.34,2.46-3.89,2.46c-2.82,0-3.56-0.92-3.56-2.39h1.99c0,0.64,0.28,0.92,1.62,0.92c1.3,0,1.61-0.36,1.61-0.84
		c0-0.43-0.32-0.73-1.06-0.73h-1.08c-1.62,0-2.28-0.67-2.28-1.47c0-0.55,0.35-1.09,0.88-1.43c-0.95-0.5-1.33-1.16-1.33-2.13
		c0-1.68,1.32-2.72,3.26-2.72c1.65,0.04,2.6-0.43,3.5-0.97L189.64,117.51z M184.55,119.53c0,0.81,0.45,1.26,1.12,1.26
		c0.73,0,1.12-0.43,1.12-1.29c0-0.83-0.38-1.21-1.12-1.21C184.99,118.3,184.55,118.76,184.55,119.53z"/>
	<path class="st1" d="M192.91,114.42c0,0.71-0.55,1.26-1.32,1.26s-1.3-0.55-1.3-1.26c0-0.71,0.53-1.26,1.3-1.26
		S192.91,113.7,192.91,114.42z M192.71,124.52h-2.21v-7.44h2.21V124.52z"/>
	<path class="st1" d="M194.38,122.62v-8.5l2.21-0.24v8.66c0,0.31,0.11,0.46,0.38,0.46c0.15,0,0.27-0.03,0.36-0.07l0.43,1.57
		c-0.34,0.14-0.81,0.25-1.34,0.25C195.14,124.75,194.38,123.98,194.38,122.62z"/>
	<path class="st1" d="M198.54,122.62v-8.5l2.21-0.24v8.66c0,0.31,0.11,0.46,0.38,0.46c0.15,0,0.27-0.03,0.36-0.07l0.43,1.57
		c-0.34,0.14-0.81,0.25-1.34,0.25C199.29,124.75,198.54,123.98,198.54,122.62z"/>
	<path class="st1" d="M204.95,123.48c0,0.43-0.14,0.8-0.45,1.48l-0.88,2.03h-1.25l0.6-2.47c-0.35-0.24-0.56-0.62-0.56-1.05
		c0-0.71,0.55-1.26,1.27-1.26C204.4,122.22,204.95,122.76,204.95,123.48z"/>
	<path class="st1" d="M219.23,124.52h-2.25l-0.17-3.8c-0.07-1.36-0.1-2.76-0.03-3.96l-1.5,6.74h-2.17l-1.6-6.74
		c0.1,1.43,0.1,2.63,0.04,3.99l-0.17,3.77h-2.24l0.73-9.71h2.9l1.46,6.58l1.36-6.58h2.91L219.23,124.52z"/>
	<path class="st1" d="M222.97,114.42c0,0.71-0.55,1.26-1.32,1.26s-1.3-0.55-1.3-1.26c0-0.71,0.53-1.26,1.3-1.26
		S222.97,113.7,222.97,114.42z M222.77,124.52h-2.21v-7.44h2.21V124.52z"/>
	<path class="st1" d="M229.86,117.75l-0.81,1.25c-0.57-0.36-1.19-0.58-1.83-0.58c-0.6,0-0.9,0.22-0.9,0.56
		c0,0.39,0.2,0.56,1.53,0.95c1.47,0.42,2.3,1.04,2.3,2.37c0,1.54-1.46,2.45-3.31,2.45c-1.29,0-2.38-0.45-3.11-1.11l1.08-1.21
		c0.56,0.43,1.25,0.73,1.98,0.73c0.67,0,1.08-0.25,1.08-0.7c0-0.5-0.22-0.66-1.57-1.04c-1.47-0.42-2.2-1.18-2.2-2.33
		c0-1.27,1.16-2.27,3.04-2.27C228.21,116.84,229.17,117.19,229.86,117.75z"/>
	<path class="st1" d="M236.52,117.75l-0.81,1.25c-0.57-0.36-1.19-0.58-1.83-0.58c-0.6,0-0.9,0.22-0.9,0.56
		c0,0.39,0.2,0.56,1.53,0.95c1.47,0.42,2.3,1.04,2.3,2.37c0,1.54-1.46,2.45-3.31,2.45c-1.29,0-2.38-0.45-3.11-1.11l1.08-1.21
		c0.56,0.43,1.25,0.73,1.97,0.73c0.67,0,1.08-0.25,1.08-0.7c0-0.5-0.22-0.66-1.57-1.04c-1.47-0.42-2.2-1.18-2.2-2.33
		c0-1.27,1.16-2.27,3.04-2.27C234.87,116.84,235.83,117.19,236.52,117.75z"/>
	<path class="st1" d="M240.34,114.42c0,0.71-0.55,1.26-1.32,1.26s-1.3-0.55-1.3-1.26c0-0.71,0.53-1.26,1.3-1.26
		S240.34,113.7,240.34,114.42z M240.15,124.52h-2.21v-7.44h2.21V124.52z"/>
	<path class="st1" d="M247.23,117.75l-0.81,1.25c-0.57-0.36-1.19-0.58-1.83-0.58c-0.6,0-0.9,0.22-0.9,0.56
		c0,0.39,0.2,0.56,1.53,0.95c1.47,0.42,2.3,1.04,2.3,2.37c0,1.54-1.46,2.45-3.31,2.45c-1.29,0-2.38-0.45-3.11-1.11l1.08-1.21
		c0.56,0.43,1.25,0.73,1.98,0.73c0.67,0,1.08-0.25,1.08-0.7c0-0.5-0.22-0.66-1.57-1.04c-1.47-0.42-2.2-1.18-2.2-2.33
		c0-1.27,1.16-2.27,3.04-2.27C245.58,116.84,246.54,117.19,247.23,117.75z"/>
	<path class="st1" d="M253.89,117.75l-0.81,1.25c-0.57-0.36-1.19-0.58-1.83-0.58c-0.6,0-0.9,0.22-0.9,0.56
		c0,0.39,0.2,0.56,1.53,0.95c1.47,0.42,2.3,1.04,2.3,2.37c0,1.54-1.46,2.45-3.31,2.45c-1.29,0-2.38-0.45-3.11-1.11l1.08-1.21
		c0.56,0.43,1.25,0.73,1.98,0.73c0.67,0,1.08-0.25,1.08-0.7c0-0.5-0.22-0.66-1.57-1.04c-1.47-0.42-2.2-1.18-2.2-2.33
		c0-1.27,1.16-2.27,3.04-2.27C252.24,116.84,253.21,117.19,253.89,117.75z"/>
	<path class="st1" d="M261.58,123.27l-0.46,1.44c-0.88-0.07-1.46-0.34-1.79-1.08c-0.53,0.83-1.36,1.12-2.24,1.12
		c-1.49,0-2.42-0.97-2.42-2.33c0-1.62,1.23-2.51,3.49-2.51h0.76v-0.32c0-0.88-0.35-1.15-1.26-1.15c-0.48,0-1.2,0.14-1.95,0.39
		l-0.5-1.46c0.94-0.35,1.96-0.55,2.8-0.55c2.16,0,3.08,0.91,3.08,2.63v2.89C261.08,122.93,261.23,123.14,261.58,123.27z
		 M258.91,122.46v-1.32h-0.55c-1.01,0-1.5,0.35-1.5,1.09c0,0.59,0.32,0.94,0.87,0.94C258.25,123.17,258.64,122.9,258.91,122.46z"/>
	<path class="st1" d="M269.11,124.52h-1.92l-0.1-0.94c-0.55,0.78-1.27,1.18-2.25,1.18c-1.39,0-2.07-0.9-2.07-2.34v-5.34h2.21v5.06
		c0,0.76,0.25,0.98,0.71,0.98c0.46,0,0.88-0.31,1.2-0.87v-5.17h2.21V124.52z"/>
	<path class="st1" d="M277.7,117.51c-0.52,0.21-1.21,0.29-2.14,0.29c0.94,0.41,1.4,0.95,1.4,1.92c0,1.44-1.19,2.49-3.12,2.49
		c-0.31,0-0.59-0.03-0.85-0.08c-0.15,0.08-0.24,0.25-0.24,0.42c0,0.22,0.1,0.45,0.81,0.45h1.12c1.74,0,2.84,0.91,2.84,2.16
		c0,1.53-1.34,2.46-3.89,2.46c-2.82,0-3.56-0.92-3.56-2.39h1.99c0,0.64,0.28,0.92,1.62,0.92c1.3,0,1.61-0.36,1.61-0.84
		c0-0.43-0.32-0.73-1.06-0.73h-1.08c-1.62,0-2.28-0.67-2.28-1.47c0-0.55,0.35-1.09,0.88-1.43c-0.95-0.5-1.33-1.16-1.33-2.13
		c0-1.68,1.32-2.72,3.26-2.72c1.65,0.04,2.61-0.43,3.5-0.97L277.7,117.51z M272.61,119.53c0,0.81,0.45,1.26,1.12,1.26
		c0.73,0,1.12-0.43,1.12-1.29c0-0.83-0.38-1.21-1.12-1.21C273.04,118.3,272.61,118.76,272.61,119.53z"/>
	<path class="st1" d="M284.65,123.27l-0.46,1.44c-0.88-0.07-1.46-0.34-1.79-1.08c-0.53,0.83-1.36,1.12-2.24,1.12
		c-1.48,0-2.42-0.97-2.42-2.33c0-1.62,1.23-2.51,3.49-2.51h0.76v-0.32c0-0.88-0.35-1.15-1.26-1.15c-0.48,0-1.2,0.14-1.95,0.39
		l-0.5-1.46c0.94-0.35,1.96-0.55,2.8-0.55c2.16,0,3.08,0.91,3.08,2.63v2.89C284.15,122.93,284.3,123.14,284.65,123.27z
		 M281.98,122.46v-1.32h-0.55c-1.01,0-1.5,0.35-1.5,1.09c0,0.59,0.32,0.94,0.87,0.94C281.32,123.17,281.71,122.9,281.98,122.46z"/>
</g>
<g>
	<path class="st2" d="M36.87,52.9c-9.62,0-17.45-7.83-17.45-17.45c0-9.62,7.83-17.45,17.45-17.45c9.62,0,17.45,7.83,17.45,17.45
		C54.32,45.07,46.49,52.9,36.87,52.9z M48.07,46.99c-1.53-1.11-3.79-1.97-6.46-2.44c-0.8-0.14-1.37-0.85-1.34-1.65
		c0.02-0.5,0.02-1.04,0.02-1.59c0-0.78,0.39-1.53,0.79-2.32c0.4-0.78,0.82-1.59,0.86-2.41l0.01-0.14l0.06-0.12
		c0.48-0.99,0.75-1.98,0.75-2.7c0-0.33-0.06-0.55-0.18-0.67l-0.25-0.25l0.06-0.35c0.07-0.37,0.13-0.75,0.2-1.13
		c0.06-0.33,0.11-0.66,0.17-1c0.49-2.71-0.41-4.5-2.68-5.3c-0.19-0.07-0.57-0.16-1.01-0.28c-1.4-0.36-3.39-0.86-4.75-1.7
		c0,0.02,0,0.04,0,0.06c-0.05,1-0.09,1.78-0.69,2.05c-2.33,1.05-3.13,2.59-2.66,5.16c0.06,0.34,0.12,0.67,0.17,1
		c0.07,0.39,0.13,0.77,0.2,1.13l0.07,0.35l-0.25,0.25c-0.12,0.12-0.18,0.34-0.18,0.67c0,0.72,0.27,1.7,0.75,2.7l0.06,0.12l0.01,0.14
		c0.04,0.81,0.44,1.58,0.84,2.33c0.42,0.8,0.82,1.56,0.82,2.39c0,0.56,0,1.09,0.02,1.6c0.03,0.8-0.54,1.5-1.34,1.65
		c-2.67,0.47-4.93,1.33-6.46,2.45c2.9,2.82,6.85,4.56,11.2,4.56C41.22,51.55,45.17,49.81,48.07,46.99z M36.87,19.34
		c-8.88,0-16.1,7.22-16.1,16.1c0,4.04,1.51,7.73,3.98,10.57c1.7-1.28,4.2-2.26,7.15-2.79c0.14-0.02,0.23-0.13,0.23-0.27
		c-0.02-0.52-0.02-1.08-0.02-1.66c0-0.5-0.32-1.12-0.66-1.77c-0.42-0.8-0.89-1.71-0.98-2.75c-0.53-1.14-0.83-2.26-0.83-3.16
		c0-0.54,0.11-0.97,0.33-1.32c-0.05-0.28-0.1-0.57-0.15-0.86c-0.05-0.32-0.11-0.65-0.17-0.99c-0.56-3.14,0.47-5.22,3.25-6.54
		c0.05-0.23,0.07-0.69,0.09-0.98c0.05-0.92,0.08-1.54,0.63-1.75c0.29-0.11,0.61-0.04,0.85,0.2c0.99,0.96,3.56,1.61,4.95,1.96
		c0.49,0.12,0.88,0.22,1.13,0.31c2.9,1.03,4.16,3.44,3.56,6.8c-0.06,0.33-0.12,0.66-0.17,0.99c-0.05,0.29-0.1,0.58-0.15,0.86
		c0.22,0.35,0.33,0.78,0.33,1.32c0,0.9-0.29,2.02-0.83,3.16c-0.09,1.06-0.57,1.99-1,2.82c-0.33,0.64-0.65,1.25-0.65,1.7
		c0,0.58,0,1.13-0.02,1.65c-0.01,0.13,0.09,0.24,0.23,0.27c2.95,0.52,5.45,1.5,7.15,2.79c2.47-2.83,3.98-6.52,3.98-10.57
		C52.97,26.57,45.75,19.34,36.87,19.34z"/>
</g>
</svg>
