<?xml version="1.0" encoding="utf-8"?>
<!-- Generator: Adobe Illustrator 23.0.4, SVG Export Plug-In . SVG Version: 6.00 Build 0)  -->
<svg version="1.1" id="Layer_1" xmlns="http://www.w3.org/2000/svg" xmlns:xlink="http://www.w3.org/1999/xlink" x="0px" y="0px"
	 viewBox="0 0 420 140" style="enable-background:new 0 0 420 140;" xml:space="preserve">
<style type="text/css">
	.st0{fill:#F3FAFD;}
	.st1{fill:#333333;}
	.st2{fill:#26A7DF;}
</style>
<path class="st0" d="M36.87,60.81L36.87,60.81c-14.01,0-25.36-11.35-25.36-25.36v0c0-14.01,11.35-25.36,25.36-25.36h0
	c14.01,0,25.36,11.35,25.36,25.36v0C62.23,49.45,50.87,60.81,36.87,60.81z"/>
<g>
	<path class="st1" d="M78.6,14.71c0-0.21,0.06-0.39,0.22-0.77l0.91-1.93h0.77l-0.55,2.05c0.22,0.17,0.34,0.39,0.34,0.66
		c0,0.45-0.38,0.83-0.84,0.83C78.98,15.54,78.6,15.16,78.6,14.71z M81.01,14.71c0-0.21,0.06-0.39,0.22-0.77l0.91-1.93h0.77
		l-0.55,2.05c0.22,0.17,0.34,0.39,0.34,0.66c0,0.45-0.38,0.83-0.84,0.83C81.39,15.54,81.01,15.16,81.01,14.71z"/>
	<path class="st1" d="M87.74,18.37h-1.6v4.15h-1.2v-9.64h2.48c2.38,0,3.61,0.92,3.61,2.7c0,1.37-0.73,2.17-2.1,2.58l2.61,4.36H90.1
		L87.74,18.37z M87.56,17.43c1.39,0,2.19-0.52,2.19-1.85c0-1.22-0.7-1.75-2.34-1.75h-1.26v3.6H87.56z"/>
	<path class="st1" d="M99.02,18.82c0,2.31-1.19,3.87-3.25,3.87s-3.24-1.5-3.24-3.84c0-2.31,1.19-3.87,3.25-3.87
		C97.85,14.98,99.02,16.46,99.02,18.82z M93.79,18.84c0,1.95,0.7,2.89,1.98,2.89c1.27,0,1.99-0.94,1.99-2.91
		c0-1.95-0.7-2.89-1.98-2.89C94.52,15.93,93.79,16.87,93.79,18.84z"/>
	<path class="st1" d="M103.97,22.56c-0.52,1.57-1.34,2.66-3.32,2.91l-0.14-0.92c1.5-0.28,1.91-0.85,2.34-2.03h-0.41l-2.49-7.37h1.26
		l2.03,6.51l1.99-6.51h1.22L103.97,22.56z"/>
	<path class="st1" d="M113.25,21.86l-0.28,0.83c-0.71-0.1-1.18-0.39-1.37-1.13c-0.52,0.78-1.3,1.13-2.21,1.13
		c-1.46,0-2.33-0.91-2.33-2.23c0-1.57,1.18-2.41,3.19-2.41h1.2v-0.59c0-1.09-0.52-1.51-1.58-1.51c-0.56,0-1.23,0.14-1.99,0.41
		l-0.29-0.87c0.88-0.34,1.68-0.5,2.49-0.5c1.75,0,2.55,0.9,2.55,2.42v3.42C112.64,21.51,112.86,21.72,113.25,21.86z M111.46,20.58
		v-1.75h-1.05c-1.37,0-2.1,0.52-2.1,1.57c0,0.9,0.46,1.39,1.34,1.39C110.45,21.79,111.04,21.38,111.46,20.58z"/>
	<path class="st1" d="M115.14,21.11v-8.94l1.18-0.14v9.05c0,0.41,0.14,0.62,0.49,0.62c0.18,0,0.34-0.03,0.48-0.08l0.31,0.83
		c-0.27,0.14-0.62,0.24-0.98,0.24C115.71,22.68,115.14,22.14,115.14,21.11z"/>
	<path class="st1" d="M124.31,22.51h-1.2v-9.64h1.2V22.51z"/>
	<path class="st1" d="M136.44,17.23v5.28h-1.18V17.4c0-1.13-0.48-1.5-1.08-1.5c-0.83,0-1.3,0.55-1.82,1.36v5.25h-1.18V17.4
		c0-1.13-0.48-1.5-1.08-1.5c-0.81,0-1.3,0.55-1.81,1.36v5.25h-1.18v-7.37h1.01l0.1,1.11c0.52-0.76,1.2-1.27,2.16-1.27
		c0.92,0,1.58,0.52,1.85,1.37c0.53-0.81,1.23-1.37,2.23-1.37C135.67,14.98,136.44,15.85,136.44,17.23z"/>
	<path class="st1" d="M145.12,18.82c0,2.25-0.98,3.87-2.87,3.87c-0.83,0-1.5-0.29-1.96-0.87v3.52l-1.18,0.14V15.15h1.01l0.1,1.02
		c0.53-0.76,1.32-1.19,2.19-1.19C144.33,14.98,145.12,16.48,145.12,18.82z M143.86,18.82c0-1.96-0.59-2.9-1.74-2.9
		c-0.81,0-1.43,0.56-1.83,1.18v3.68c0.39,0.59,0.98,0.94,1.69,0.94C143.2,21.72,143.86,20.79,143.86,18.82z"/>
	<path class="st1" d="M151.22,15.06l-0.21,1.15c-0.22-0.06-0.38-0.08-0.64-0.08c-0.94,0-1.47,0.66-1.81,2.07v4.31h-1.18v-7.37h1.01
		l0.11,1.54c0.39-1.13,1.08-1.71,1.99-1.71C150.74,14.98,151.01,15.01,151.22,15.06z"/>
	<path class="st1" d="M157.77,19.24h-4.75c0.13,1.78,0.94,2.48,2.06,2.48c0.74,0,1.29-0.21,1.93-0.66l0.52,0.7
		c-0.71,0.57-1.53,0.92-2.54,0.92c-2.03,0-3.22-1.44-3.22-3.78c0-2.31,1.15-3.92,3.03-3.92c1.98,0,3,1.39,3,3.61
		C157.8,18.84,157.79,19.08,157.77,19.24z M156.64,18.26c0-1.48-0.59-2.34-1.81-2.34c-1.02,0-1.71,0.73-1.81,2.45h3.61V18.26z"/>
	<path class="st1" d="M164.34,15.82l-0.5,0.74c-0.66-0.43-1.22-0.64-1.92-0.64c-0.87,0-1.43,0.41-1.43,1.04s0.42,0.91,1.64,1.23
		c1.56,0.41,2.42,0.99,2.42,2.28c0,1.5-1.36,2.21-2.84,2.21c-1.25,0-2.12-0.41-2.76-0.97l0.63-0.71c0.6,0.45,1.27,0.73,2.1,0.73
		c0.98,0,1.64-0.45,1.64-1.19c0-0.77-0.38-1.05-1.83-1.44c-1.58-0.42-2.21-1.08-2.21-2.12c0-1.16,1.11-2,2.61-2
		C162.88,14.98,163.64,15.29,164.34,15.82z"/>
	<path class="st1" d="M170.71,15.82l-0.5,0.74c-0.66-0.43-1.22-0.64-1.92-0.64c-0.87,0-1.43,0.41-1.43,1.04s0.42,0.91,1.64,1.23
		c1.56,0.41,2.42,0.99,2.42,2.28c0,1.5-1.36,2.21-2.84,2.21c-1.25,0-2.12-0.41-2.76-0.97l0.63-0.71c0.6,0.45,1.27,0.73,2.1,0.73
		c0.98,0,1.64-0.45,1.64-1.19c0-0.77-0.38-1.05-1.83-1.44c-1.58-0.42-2.21-1.08-2.21-2.12c0-1.16,1.11-2,2.61-2
		C169.25,14.98,170.01,15.29,170.71,15.82z"/>
	<path class="st1" d="M174.23,12.49c0,0.46-0.34,0.81-0.84,0.81c-0.49,0-0.83-0.35-0.83-0.81c0-0.46,0.34-0.81,0.83-0.81
		C173.9,11.67,174.23,12.02,174.23,12.49z M174,22.51h-1.18v-7.37H174V22.51z"/>
	<path class="st1" d="M182.66,18.82c0,2.31-1.19,3.87-3.25,3.87s-3.24-1.5-3.24-3.84c0-2.31,1.19-3.87,3.25-3.87
		C181.5,14.98,182.66,16.46,182.66,18.82z M177.44,18.84c0,1.95,0.7,2.89,1.98,2.89c1.27,0,1.99-0.94,1.99-2.91
		c0-1.95-0.7-2.89-1.98-2.89C178.17,15.93,177.44,16.87,177.44,18.84z"/>
	<path class="st1" d="M190.39,17.23v5.28h-1.18V17.4c0-1.13-0.46-1.5-1.22-1.5c-0.87,0-1.46,0.55-1.96,1.36v5.25h-1.18v-7.37h1.01
		l0.1,1.11c0.55-0.76,1.32-1.27,2.31-1.27C189.62,14.98,190.39,15.83,190.39,17.23z"/>
	<path class="st1" d="M197.46,15.82l-0.5,0.74c-0.66-0.43-1.22-0.64-1.92-0.64c-0.87,0-1.43,0.41-1.43,1.04s0.42,0.91,1.64,1.23
		c1.56,0.41,2.42,0.99,2.42,2.28c0,1.5-1.36,2.21-2.84,2.21c-1.25,0-2.12-0.41-2.76-0.97L192.7,21c0.6,0.45,1.27,0.73,2.1,0.73
		c0.98,0,1.64-0.45,1.64-1.19c0-0.77-0.38-1.05-1.83-1.44c-1.58-0.42-2.21-1.08-2.21-2.12c0-1.16,1.11-2,2.61-2
		C196,14.98,196.76,15.29,197.46,15.82z"/>
	<path class="st1" d="M208.86,17.23v5.28h-1.18V17.4c0-1.13-0.48-1.5-1.23-1.5c-0.84,0-1.44,0.55-1.95,1.34v5.27h-1.18V12.19
		l1.18-0.14v4.15c0.55-0.74,1.29-1.22,2.24-1.22C208.07,14.98,208.86,15.85,208.86,17.23z"/>
	<path class="st1" d="M216.96,19.24h-4.75c0.13,1.78,0.94,2.48,2.06,2.48c0.74,0,1.29-0.21,1.93-0.66l0.52,0.7
		c-0.71,0.57-1.53,0.92-2.54,0.92c-2.03,0-3.22-1.44-3.22-3.78c0-2.31,1.15-3.92,3.03-3.92c1.98,0,3,1.39,3,3.61
		C216.99,18.84,216.98,19.08,216.96,19.24z M215.83,18.26c0-1.48-0.59-2.34-1.81-2.34c-1.02,0-1.71,0.73-1.81,2.45h3.61V18.26z"/>
	<path class="st1" d="M219.05,21.11v-8.94l1.18-0.14v9.05c0,0.41,0.14,0.62,0.49,0.62c0.18,0,0.34-0.03,0.48-0.08l0.31,0.83
		c-0.27,0.14-0.62,0.24-0.98,0.24C219.62,22.68,219.05,22.14,219.05,21.11z"/>
	<path class="st1" d="M229.2,18.82c0,2.25-0.98,3.87-2.87,3.87c-0.83,0-1.5-0.29-1.96-0.87v3.52l-1.18,0.14V15.15h1.01l0.1,1.02
		c0.53-0.76,1.32-1.19,2.18-1.19C228.42,14.98,229.2,16.48,229.2,18.82z M227.94,18.82c0-1.96-0.59-2.9-1.74-2.9
		c-0.81,0-1.43,0.56-1.83,1.18v3.68c0.39,0.59,0.98,0.94,1.7,0.94C227.28,21.72,227.94,20.79,227.94,18.82z"/>
	<path class="st1" d="M236.91,19.24h-4.75c0.13,1.78,0.94,2.48,2.06,2.48c0.74,0,1.29-0.21,1.93-0.66l0.52,0.7
		c-0.71,0.57-1.53,0.92-2.54,0.92c-2.03,0-3.22-1.44-3.22-3.78c0-2.31,1.15-3.92,3.03-3.92c1.97,0,3,1.39,3,3.61
		C236.94,18.84,236.93,19.08,236.91,19.24z M235.78,18.26c0-1.48-0.59-2.34-1.81-2.34c-1.02,0-1.71,0.73-1.81,2.45h3.61V18.26z"/>
	<path class="st1" d="M244.66,12.18v10.34h-1.02l-0.13-1.04c-0.46,0.73-1.2,1.2-2.14,1.2c-1.78,0-2.77-1.51-2.77-3.82
		c0-2.26,1.08-3.88,2.89-3.88c0.9,0,1.53,0.42,2,0.92v-3.87L244.66,12.18z M243.48,20.58v-3.67c-0.45-0.6-0.98-0.99-1.75-0.99
		c-1.15,0-1.88,0.97-1.88,2.93s0.64,2.9,1.75,2.9C242.46,21.74,242.99,21.32,243.48,20.58z"/>
	<path class="st1" d="M256.55,22.51h-1.01l-0.1-1.19c-0.55,0.9-1.25,1.36-2.31,1.36c-1.3,0-2.06-0.81-2.06-2.25v-5.28h1.18v5.15
		c0,1.05,0.36,1.44,1.21,1.44c0.84,0,1.46-0.55,1.92-1.32v-5.28h1.18V22.51z"/>
	<path class="st1" d="M263.69,15.82l-0.5,0.74c-0.66-0.43-1.22-0.64-1.92-0.64c-0.87,0-1.43,0.41-1.43,1.04s0.42,0.91,1.64,1.23
		c1.55,0.41,2.42,0.99,2.42,2.28c0,1.5-1.36,2.21-2.84,2.21c-1.25,0-2.12-0.41-2.76-0.97l0.63-0.71c0.6,0.45,1.28,0.73,2.1,0.73
		c0.98,0,1.64-0.45,1.64-1.19c0-0.77-0.38-1.05-1.83-1.44c-1.58-0.42-2.21-1.08-2.21-2.12c0-1.16,1.11-2,2.61-2
		C262.24,14.98,262.99,15.29,263.69,15.82z"/>
	<path class="st1" d="M273.4,15.06l-0.21,1.15c-0.22-0.06-0.38-0.08-0.64-0.08c-0.94,0-1.47,0.66-1.81,2.07v4.31h-1.18v-7.37h1.01
		l0.11,1.54c0.39-1.13,1.08-1.71,1.99-1.71C272.92,14.98,273.19,15.01,273.4,15.06z"/>
	<path class="st1" d="M279.95,19.24h-4.75c0.13,1.78,0.94,2.48,2.06,2.48c0.74,0,1.29-0.21,1.93-0.66l0.52,0.7
		c-0.71,0.57-1.53,0.92-2.54,0.92c-2.03,0-3.22-1.44-3.22-3.78c0-2.31,1.15-3.92,3.03-3.92c1.97,0,3,1.39,3,3.61
		C279.98,18.84,279.96,19.08,279.95,19.24z M278.81,18.26c0-1.48-0.59-2.34-1.81-2.34c-1.02,0-1.71,0.73-1.81,2.45h3.61V18.26z"/>
	<path class="st1" d="M287.63,17.23v5.28h-1.18V17.4c0-1.13-0.46-1.5-1.22-1.5c-0.87,0-1.46,0.55-1.96,1.36v5.25h-1.18v-7.37h1.01
		l0.1,1.11c0.55-0.76,1.32-1.27,2.31-1.27C286.86,14.98,287.63,15.83,287.63,17.23z"/>
	<path class="st1" d="M296.23,18.82c0,2.31-1.19,3.87-3.25,3.87c-2.06,0-3.24-1.5-3.24-3.84c0-2.31,1.19-3.87,3.25-3.87
		C295.07,14.98,296.23,16.46,296.23,18.82z M291,18.84c0,1.95,0.7,2.89,1.98,2.89c1.27,0,1.99-0.94,1.99-2.91
		c0-1.95-0.7-2.89-1.97-2.89C291.73,15.93,291,16.87,291,18.84z"/>
	<path class="st1" d="M301.16,22.51h-1.43l-2.56-7.37h1.29l2,6.32l1.97-6.32h1.25L301.16,22.51z"/>
	<path class="st1" d="M310.48,21.86l-0.28,0.83c-0.71-0.1-1.18-0.39-1.37-1.13c-0.52,0.78-1.3,1.13-2.21,1.13
		c-1.46,0-2.33-0.91-2.33-2.23c0-1.57,1.18-2.41,3.19-2.41h1.2v-0.59c0-1.09-0.52-1.51-1.58-1.51c-0.56,0-1.23,0.14-1.99,0.41
		l-0.29-0.87c0.88-0.34,1.68-0.5,2.49-0.5c1.75,0,2.55,0.9,2.55,2.42v3.42C309.87,21.51,310.09,21.72,310.48,21.86z M308.69,20.58
		v-1.75h-1.05c-1.37,0-2.1,0.52-2.1,1.57c0,0.9,0.46,1.39,1.34,1.39C307.68,21.79,308.27,21.38,308.69,20.58z"/>
	<path class="st1" d="M316.21,22.19c-0.48,0.32-1.01,0.49-1.62,0.49c-1.22,0-1.95-0.71-1.95-2.06v-4.57h-1.27v-0.91h1.27v-1.69
		l1.18-0.13v1.82h1.78l-0.13,0.91h-1.65v4.51c0,0.77,0.27,1.13,0.92,1.13c0.35,0,0.66-0.1,1.02-0.31L316.21,22.19z"/>
	<path class="st1" d="M322.82,19.24h-4.75c0.13,1.78,0.94,2.48,2.06,2.48c0.74,0,1.29-0.21,1.93-0.66l0.52,0.7
		c-0.71,0.57-1.53,0.92-2.54,0.92c-2.03,0-3.22-1.44-3.22-3.78c0-2.31,1.15-3.92,3.03-3.92c1.97,0,3,1.39,3,3.61
		C322.84,18.84,322.83,19.08,322.82,19.24z M321.68,18.26c0-1.48-0.59-2.34-1.81-2.34c-1.02,0-1.71,0.73-1.81,2.45h3.61V18.26z"/>
	<path class="st1" d="M334.66,18.82c0,2.31-1.19,3.87-3.25,3.87c-2.06,0-3.24-1.5-3.24-3.84c0-2.31,1.19-3.87,3.25-3.87
		C333.5,14.98,334.66,16.46,334.66,18.82z M329.43,18.84c0,1.95,0.7,2.89,1.98,2.89c1.27,0,1.99-0.94,1.99-2.91
		c0-1.95-0.7-2.89-1.97-2.89C330.16,15.93,329.43,16.87,329.43,18.84z"/>
	<path class="st1" d="M342.26,22.51h-1.01l-0.1-1.19c-0.55,0.9-1.25,1.36-2.31,1.36c-1.3,0-2.06-0.81-2.06-2.25v-5.28h1.18v5.15
		c0,1.05,0.36,1.44,1.2,1.44c0.84,0,1.46-0.55,1.92-1.32v-5.28h1.18V22.51z"/>
	<path class="st1" d="M348.83,15.06l-0.21,1.15c-0.22-0.06-0.38-0.08-0.64-0.08c-0.94,0-1.47,0.66-1.81,2.07v4.31h-1.18v-7.37H346
		l0.11,1.54c0.39-1.13,1.08-1.71,1.99-1.71C348.35,14.98,348.62,15.01,348.83,15.06z"/>
	<path class="st1" d="M85.31,39.22c0,2.33-1.08,3.87-2.87,3.87c-0.84,0-1.48-0.39-1.99-0.99l-0.13,0.83H79.3V32.58l1.18-0.14v4.05
		c0.5-0.69,1.2-1.11,2.12-1.11C84.26,35.38,85.31,36.77,85.31,39.22z M84.05,39.22c0-2.11-0.7-2.9-1.78-2.9
		c-0.84,0-1.4,0.56-1.79,1.18v3.63c0.39,0.6,0.99,1.02,1.69,1.02C83.29,42.14,84.05,41.26,84.05,39.22z"/>
	<path class="st1" d="M92.93,42.26l-0.28,0.83c-0.71-0.1-1.18-0.39-1.37-1.13c-0.52,0.78-1.3,1.13-2.21,1.13
		c-1.46,0-2.33-0.91-2.33-2.23c0-1.57,1.18-2.41,3.19-2.41h1.2v-0.59c0-1.09-0.52-1.51-1.58-1.51c-0.56,0-1.23,0.14-1.99,0.41
		l-0.29-0.87c0.88-0.34,1.68-0.5,2.49-0.5c1.75,0,2.55,0.9,2.55,2.42v3.42C92.31,41.91,92.53,42.12,92.93,42.26z M91.13,40.98v-1.75
		h-1.05c-1.37,0-2.1,0.52-2.1,1.57c0,0.9,0.46,1.39,1.34,1.39C90.12,42.19,90.71,41.78,91.13,40.98z"/>
	<path class="st1" d="M99.29,36.22l-0.5,0.74c-0.66-0.43-1.22-0.64-1.92-0.64c-0.87,0-1.43,0.41-1.43,1.04s0.42,0.91,1.64,1.23
		c1.56,0.41,2.42,0.99,2.42,2.28c0,1.5-1.36,2.21-2.84,2.21c-1.25,0-2.12-0.41-2.76-0.97l0.63-0.71c0.6,0.45,1.27,0.73,2.1,0.73
		c0.98,0,1.64-0.45,1.64-1.19c0-0.77-0.38-1.05-1.83-1.44c-1.58-0.42-2.21-1.08-2.21-2.12c0-1.16,1.11-2,2.61-2
		C97.84,35.38,98.59,35.69,99.29,36.22z"/>
	<path class="st1" d="M106.86,39.64h-4.75c0.13,1.78,0.94,2.48,2.06,2.48c0.74,0,1.29-0.21,1.93-0.66l0.52,0.7
		c-0.71,0.57-1.53,0.92-2.54,0.92c-2.03,0-3.22-1.44-3.22-3.78c0-2.31,1.15-3.92,3.03-3.92c1.98,0,3,1.39,3,3.61
		C106.88,39.24,106.87,39.48,106.86,39.64z M105.72,38.66c0-1.48-0.59-2.34-1.81-2.34c-1.02,0-1.71,0.73-1.81,2.45h3.61V38.66z"/>
	<path class="st1" d="M118.32,37.63v5.28h-1.18V37.8c0-1.13-0.48-1.5-1.08-1.5c-0.83,0-1.3,0.55-1.82,1.36v5.25h-1.18V37.8
		c0-1.13-0.48-1.5-1.08-1.5c-0.81,0-1.3,0.55-1.81,1.36v5.25h-1.18v-7.37h1.01l0.1,1.11c0.52-0.76,1.2-1.27,2.16-1.27
		c0.92,0,1.58,0.52,1.85,1.37c0.53-0.81,1.23-1.37,2.23-1.37C117.55,35.38,118.32,36.25,118.32,37.63z"/>
	<path class="st1" d="M126.44,39.64h-4.75c0.13,1.78,0.94,2.48,2.06,2.48c0.74,0,1.29-0.21,1.93-0.66l0.52,0.7
		c-0.71,0.57-1.53,0.92-2.54,0.92c-2.03,0-3.22-1.44-3.22-3.78c0-2.31,1.15-3.92,3.03-3.92c1.98,0,3,1.39,3,3.61
		C126.47,39.24,126.46,39.48,126.44,39.64z M125.31,38.66c0-1.48-0.59-2.34-1.81-2.34c-1.02,0-1.71,0.73-1.81,2.45h3.61V38.66z"/>
	<path class="st1" d="M134.13,37.63v5.28h-1.18V37.8c0-1.13-0.46-1.5-1.22-1.5c-0.87,0-1.46,0.55-1.96,1.36v5.25h-1.18v-7.37h1.01
		l0.1,1.11c0.55-0.76,1.32-1.27,2.31-1.27C133.36,35.38,134.13,36.23,134.13,37.63z"/>
	<path class="st1" d="M140.41,42.59c-0.48,0.32-1.01,0.49-1.62,0.49c-1.22,0-1.95-0.71-1.95-2.06v-4.57h-1.27v-0.91h1.27v-1.69
		l1.18-0.13v1.82h1.78l-0.13,0.91h-1.65v4.51c0,0.77,0.27,1.13,0.92,1.13c0.35,0,0.66-0.1,1.02-0.31L140.41,42.59z"/>
	<path class="st1" d="M149.93,36.22l-0.5,0.74c-0.66-0.43-1.22-0.64-1.92-0.64c-0.87,0-1.43,0.41-1.43,1.04s0.42,0.91,1.64,1.23
		c1.56,0.41,2.42,0.99,2.42,2.28c0,1.5-1.36,2.21-2.84,2.21c-1.25,0-2.12-0.41-2.76-0.97l0.63-0.71c0.6,0.45,1.27,0.73,2.1,0.73
		c0.98,0,1.64-0.45,1.64-1.19c0-0.77-0.38-1.05-1.83-1.44c-1.58-0.42-2.21-1.08-2.21-2.12c0-1.16,1.11-2,2.61-2
		C148.48,35.38,149.23,35.69,149.93,36.22z"/>
	<path class="st1" d="M157.98,39.22c0,2.31-1.19,3.87-3.25,3.87s-3.24-1.5-3.24-3.84c0-2.31,1.19-3.87,3.25-3.87
		C156.82,35.38,157.98,36.86,157.98,39.22z M152.76,39.24c0,1.95,0.7,2.89,1.98,2.89c1.27,0,1.99-0.94,1.99-2.91
		c0-1.95-0.7-2.89-1.98-2.89C153.49,36.33,152.76,37.27,152.76,39.24z"/>
	<path class="st1" d="M170.54,42.91h-1.61l-1.36-6.3l-1.4,6.3h-1.57l-1.75-7.37h1.19l1.39,6.54l1.51-6.54h1.32l1.46,6.54l1.4-6.54
		h1.12L170.54,42.91z"/>
	<path class="st1" d="M179.36,39.64h-4.75c0.13,1.78,0.94,2.48,2.06,2.48c0.74,0,1.29-0.21,1.93-0.66l0.52,0.7
		c-0.71,0.57-1.53,0.92-2.54,0.92c-2.03,0-3.22-1.44-3.22-3.78c0-2.31,1.15-3.92,3.03-3.92c1.98,0,3,1.39,3,3.61
		C179.39,39.24,179.38,39.48,179.36,39.64z M178.23,38.66c0-1.48-0.59-2.34-1.81-2.34c-1.02,0-1.71,0.73-1.81,2.45h3.61V38.66z"/>
	<path class="st1" d="M190.13,36.16l-0.57,0.74c-0.49-0.36-0.97-0.55-1.6-0.55c-1.2,0-1.98,0.94-1.98,2.91c0,1.96,0.77,2.8,1.98,2.8
		c0.63,0,1.08-0.2,1.62-0.57l0.55,0.77c-0.63,0.53-1.37,0.81-2.21,0.81c-1.96,0-3.19-1.41-3.19-3.8c0-2.35,1.22-3.91,3.19-3.91
		C188.77,35.38,189.45,35.6,190.13,36.16z"/>
	<path class="st1" d="M197.6,39.22c0,2.31-1.19,3.87-3.25,3.87s-3.24-1.5-3.24-3.84c0-2.31,1.19-3.87,3.25-3.87
		C196.44,35.38,197.6,36.86,197.6,39.22z M192.38,39.24c0,1.95,0.7,2.89,1.98,2.89c1.27,0,1.99-0.94,1.99-2.91
		c0-1.95-0.7-2.89-1.98-2.89C193.11,36.33,192.38,37.27,192.38,39.24z"/>
	<path class="st1" d="M205.2,42.91h-1.01l-0.1-1.19c-0.55,0.9-1.25,1.36-2.31,1.36c-1.3,0-2.06-0.81-2.06-2.25v-5.28h1.18v5.15
		c0,1.05,0.36,1.44,1.2,1.44s1.46-0.55,1.92-1.32v-5.28h1.18V42.91z"/>
	<path class="st1" d="M207.86,41.51v-8.94l1.18-0.14v9.05c0,0.41,0.14,0.62,0.49,0.62c0.18,0,0.34-0.03,0.48-0.08l0.31,0.83
		c-0.27,0.14-0.62,0.24-0.98,0.24C208.44,43.08,207.86,42.54,207.86,41.51z"/>
	<path class="st1" d="M217.52,32.58v10.34h-1.02l-0.13-1.04c-0.46,0.73-1.2,1.2-2.14,1.2c-1.78,0-2.77-1.51-2.77-3.82
		c0-2.26,1.08-3.88,2.89-3.88c0.9,0,1.53,0.42,2,0.92v-3.87L217.52,32.58z M216.35,40.98v-3.67c-0.45-0.6-0.98-0.99-1.75-0.99
		c-1.15,0-1.88,0.97-1.88,2.93s0.64,2.9,1.75,2.9C215.33,42.14,215.86,41.72,216.35,40.98z"/>
	<path class="st1" d="M229.55,37.63v5.28h-1.18V37.8c0-1.13-0.48-1.5-1.23-1.5c-0.84,0-1.44,0.55-1.95,1.34v5.27h-1.18V32.59
		l1.18-0.14v4.15c0.55-0.74,1.29-1.22,2.24-1.22C228.76,35.38,229.55,36.25,229.55,37.63z"/>
	<path class="st1" d="M237.7,42.26l-0.28,0.83c-0.71-0.1-1.18-0.39-1.37-1.13c-0.52,0.78-1.3,1.13-2.21,1.13
		c-1.46,0-2.33-0.91-2.33-2.23c0-1.57,1.18-2.41,3.19-2.41h1.2v-0.59c0-1.09-0.52-1.51-1.58-1.51c-0.56,0-1.23,0.14-1.99,0.41
		l-0.29-0.87c0.88-0.34,1.68-0.5,2.49-0.5c1.75,0,2.55,0.9,2.55,2.42v3.42C237.08,41.91,237.31,42.12,237.7,42.26z M235.9,40.98
		v-1.75h-1.05c-1.37,0-2.1,0.52-2.1,1.57c0,0.9,0.46,1.39,1.34,1.39C234.9,42.19,235.48,41.78,235.9,40.98z"/>
	<path class="st1" d="M242.36,42.91h-1.43l-2.56-7.37h1.29l2,6.32l1.98-6.32h1.25L242.36,42.91z"/>
	<path class="st1" d="M251.81,39.64h-4.75c0.13,1.78,0.94,2.48,2.06,2.48c0.74,0,1.29-0.21,1.93-0.66l0.52,0.7
		c-0.71,0.57-1.53,0.92-2.54,0.92c-2.03,0-3.22-1.44-3.22-3.78c0-2.31,1.15-3.92,3.03-3.92c1.97,0,3,1.39,3,3.61
		C251.84,39.24,251.82,39.48,251.81,39.64z M250.67,38.66c0-1.48-0.59-2.34-1.81-2.34c-1.02,0-1.71,0.73-1.81,2.45h3.61V38.66z"/>
	<path class="st1" d="M263.65,39.22c0,2.31-1.19,3.87-3.25,3.87c-2.06,0-3.24-1.5-3.24-3.84c0-2.31,1.19-3.87,3.25-3.87
		C262.49,35.38,263.65,36.86,263.65,39.22z M258.43,39.24c0,1.95,0.7,2.89,1.97,2.89c1.28,0,1.99-0.94,1.99-2.91
		c0-1.95-0.7-2.89-1.97-2.89C259.16,36.33,258.43,37.27,258.43,39.24z"/>
	<path class="st1" d="M271.25,42.91h-1.01l-0.1-1.19c-0.55,0.9-1.25,1.36-2.31,1.36c-1.3,0-2.06-0.81-2.06-2.25v-5.28h1.18v5.15
		c0,1.05,0.36,1.44,1.2,1.44c0.84,0,1.46-0.55,1.92-1.32v-5.28h1.18V42.91z"/>
	<path class="st1" d="M277.82,35.46l-0.21,1.15c-0.22-0.06-0.38-0.08-0.64-0.08c-0.94,0-1.47,0.66-1.81,2.07v4.31h-1.18v-7.37h1.01
		l0.11,1.54c0.39-1.13,1.08-1.71,1.99-1.71C277.34,35.38,277.61,35.41,277.82,35.46z"/>
	<path class="st1" d="M287.51,36.22l-0.5,0.74c-0.66-0.43-1.22-0.64-1.92-0.64c-0.87,0-1.43,0.41-1.43,1.04s0.42,0.91,1.64,1.23
		c1.55,0.41,2.42,0.99,2.42,2.28c0,1.5-1.36,2.21-2.84,2.21c-1.25,0-2.12-0.41-2.76-0.97l0.63-0.71c0.6,0.45,1.27,0.73,2.1,0.73
		c0.98,0,1.64-0.45,1.64-1.19c0-0.77-0.38-1.05-1.83-1.44c-1.58-0.42-2.21-1.08-2.21-2.12c0-1.16,1.11-2,2.6-2
		C286.05,35.38,286.81,35.69,287.51,36.22z"/>
	<path class="st1" d="M295.56,39.22c0,2.31-1.19,3.87-3.25,3.87c-2.06,0-3.24-1.5-3.24-3.84c0-2.31,1.19-3.87,3.25-3.87
		C294.4,35.38,295.56,36.86,295.56,39.22z M290.33,39.24c0,1.95,0.7,2.89,1.98,2.89c1.27,0,1.99-0.94,1.99-2.91
		c0-1.95-0.7-2.89-1.97-2.89C291.06,36.33,290.33,37.27,290.33,39.24z"/>
	<path class="st1" d="M303.29,37.63v5.28h-1.18V37.8c0-1.13-0.46-1.5-1.22-1.5c-0.87,0-1.46,0.55-1.96,1.36v5.25h-1.18v-7.37h1.01
		l0.1,1.11c0.55-0.76,1.32-1.27,2.31-1.27C302.52,35.38,303.29,36.23,303.29,37.63z"/>
	<path class="st1" d="M306.92,33.22c0,0.21-0.06,0.39-0.22,0.77l-0.91,1.93h-0.77l0.55-2.04c-0.22-0.17-0.34-0.39-0.34-0.66
		c0-0.45,0.38-0.83,0.84-0.83C306.55,32.4,306.92,32.77,306.92,33.22z"/>
	<path class="st1" d="M313.24,36.22l-0.5,0.74c-0.66-0.43-1.22-0.64-1.92-0.64c-0.87,0-1.43,0.41-1.43,1.04s0.42,0.91,1.64,1.23
		c1.55,0.41,2.42,0.99,2.42,2.28c0,1.5-1.36,2.21-2.84,2.21c-1.25,0-2.12-0.41-2.76-0.97l0.63-0.71c0.6,0.45,1.27,0.73,2.1,0.73
		c0.98,0,1.64-0.45,1.64-1.19c0-0.77-0.38-1.05-1.83-1.44c-1.58-0.42-2.21-1.08-2.21-2.12c0-1.16,1.11-2,2.6-2
		C311.78,35.38,312.54,35.69,313.24,36.22z"/>
	<path class="st1" d="M325.11,39.22c0,2.33-1.08,3.87-2.87,3.87c-0.84,0-1.49-0.39-1.99-0.99l-0.13,0.83h-1.02V32.58l1.18-0.14v4.05
		c0.5-0.69,1.2-1.11,2.11-1.11C324.06,35.38,325.11,36.77,325.11,39.22z M323.85,39.22c0-2.11-0.7-2.9-1.78-2.9
		c-0.84,0-1.4,0.56-1.79,1.18v3.63c0.39,0.6,0.99,1.02,1.69,1.02C323.1,42.14,323.85,41.26,323.85,39.22z"/>
	<path class="st1" d="M332.83,39.64h-4.75c0.13,1.78,0.94,2.48,2.06,2.48c0.74,0,1.29-0.21,1.93-0.66l0.52,0.7
		c-0.71,0.57-1.53,0.92-2.54,0.92c-2.03,0-3.22-1.44-3.22-3.78c0-2.31,1.15-3.92,3.03-3.92c1.97,0,3,1.39,3,3.61
		C332.85,39.24,332.84,39.48,332.83,39.64z M331.69,38.66c0-1.48-0.59-2.34-1.81-2.34c-1.02,0-1.71,0.73-1.81,2.45h3.61V38.66z"/>
	<path class="st1" d="M340.57,32.58v10.34h-1.02l-0.13-1.04c-0.46,0.73-1.21,1.2-2.14,1.2c-1.78,0-2.77-1.51-2.77-3.82
		c0-2.26,1.08-3.88,2.89-3.88c0.9,0,1.53,0.42,2,0.92v-3.87L340.57,32.58z M339.39,40.98v-3.67c-0.45-0.6-0.98-0.99-1.75-0.99
		c-1.15,0-1.88,0.97-1.88,2.93s0.64,2.9,1.75,2.9C338.37,42.14,338.9,41.72,339.39,40.98z"/>
	<path class="st1" d="M347.15,35.46l-0.21,1.15c-0.22-0.06-0.38-0.08-0.64-0.08c-0.94,0-1.47,0.66-1.81,2.07v4.31h-1.18v-7.37h1.01
		l0.11,1.54c0.39-1.13,1.08-1.71,1.99-1.71C346.67,35.38,346.94,35.41,347.15,35.46z"/>
	<path class="st1" d="M354.19,39.22c0,2.31-1.19,3.87-3.25,3.87c-2.06,0-3.24-1.5-3.24-3.84c0-2.31,1.19-3.87,3.25-3.87
		C353.03,35.38,354.19,36.86,354.19,39.22z M348.96,39.24c0,1.95,0.7,2.89,1.98,2.89c1.27,0,1.99-0.94,1.99-2.91
		c0-1.95-0.7-2.89-1.98-2.89C349.69,36.33,348.96,37.27,348.96,39.24z"/>
	<path class="st1" d="M362.32,39.22c0,2.31-1.19,3.87-3.25,3.87c-2.06,0-3.24-1.5-3.24-3.84c0-2.31,1.19-3.87,3.25-3.87
		C361.16,35.38,362.32,36.86,362.32,39.22z M357.1,39.24c0,1.95,0.7,2.89,1.98,2.89c1.27,0,1.99-0.94,1.99-2.91
		c0-1.95-0.7-2.89-1.97-2.89C357.83,36.33,357.1,37.27,357.1,39.24z"/>
	<path class="st1" d="M373.83,37.63v5.28h-1.18V37.8c0-1.13-0.48-1.5-1.08-1.5c-0.83,0-1.3,0.55-1.82,1.36v5.25h-1.18V37.8
		c0-1.13-0.48-1.5-1.08-1.5c-0.81,0-1.3,0.55-1.81,1.36v5.25h-1.18v-7.37h1.01l0.1,1.11c0.52-0.76,1.2-1.27,2.16-1.27
		c0.92,0,1.58,0.52,1.85,1.37c0.53-0.81,1.23-1.37,2.23-1.37C373.06,35.38,373.83,36.25,373.83,37.63z"/>
	<path class="st1" d="M384.67,36.22l-0.5,0.74c-0.66-0.43-1.22-0.64-1.92-0.64c-0.87,0-1.43,0.41-1.43,1.04s0.42,0.91,1.64,1.23
		c1.55,0.41,2.42,0.99,2.42,2.28c0,1.5-1.36,2.21-2.84,2.21c-1.25,0-2.12-0.41-2.76-0.97l0.63-0.71c0.6,0.45,1.27,0.73,2.1,0.73
		c0.98,0,1.64-0.45,1.64-1.19c0-0.77-0.38-1.05-1.83-1.44c-1.58-0.42-2.21-1.08-2.21-2.12c0-1.16,1.11-2,2.6-2
		C383.21,35.38,383.97,35.69,384.67,36.22z"/>
	<path class="st1" d="M392.23,39.64h-4.75c0.13,1.78,0.94,2.48,2.06,2.48c0.74,0,1.29-0.21,1.93-0.66l0.52,0.7
		c-0.71,0.57-1.53,0.92-2.54,0.92c-2.03,0-3.22-1.44-3.22-3.78c0-2.31,1.15-3.92,3.03-3.92c1.97,0,3,1.39,3,3.61
		C392.25,39.24,392.24,39.48,392.23,39.64z M391.09,38.66c0-1.48-0.59-2.34-1.81-2.34c-1.02,0-1.71,0.73-1.81,2.45h3.61V38.66z"/>
	<path class="st1" d="M398.01,42.59c-0.48,0.32-1.01,0.49-1.62,0.49c-1.22,0-1.95-0.71-1.95-2.06v-4.57h-1.27v-0.91h1.27v-1.69
		l1.18-0.13v1.82h1.78l-0.13,0.91h-1.65v4.51c0,0.77,0.27,1.13,0.92,1.13c0.35,0,0.66-0.1,1.02-0.31L398.01,42.59z"/>
	<path class="st1" d="M84.71,63.31H83.7l-0.1-1.19c-0.55,0.9-1.25,1.36-2.31,1.36c-1.3,0-2.06-0.81-2.06-2.25v-5.28h1.18v5.15
		c0,1.05,0.36,1.44,1.2,1.44s1.46-0.55,1.92-1.32v-5.28h1.18V63.31z"/>
	<path class="st1" d="M93.44,59.62c0,2.26-0.98,3.87-2.87,3.87c-0.83,0-1.5-0.29-1.96-0.87v3.52l-1.18,0.14V55.95h1.01l0.1,1.02
		c0.53-0.76,1.32-1.19,2.19-1.19C92.66,55.78,93.44,57.28,93.44,59.62z M92.18,59.62c0-1.96-0.59-2.9-1.74-2.9
		c-0.81,0-1.43,0.56-1.83,1.18v3.68c0.39,0.59,0.98,0.94,1.69,0.94C91.52,62.52,92.18,61.59,92.18,59.62z"/>
	<path class="st1" d="M96.72,62.57c0,0.5-0.38,0.91-0.91,0.91c-0.5,0-0.9-0.41-0.9-0.91c0-0.49,0.39-0.9,0.9-0.9
		C96.34,61.68,96.72,62.08,96.72,62.57z"/>
	<path class="st1" d="M99.96,62.57c0,0.5-0.38,0.91-0.91,0.91c-0.5,0-0.9-0.41-0.9-0.91c0-0.49,0.39-0.9,0.9-0.9
		C99.59,61.68,99.96,62.08,99.96,62.57z"/>
	<path class="st1" d="M103.21,62.57c0,0.5-0.38,0.91-0.91,0.91c-0.5,0-0.9-0.41-0.9-0.91c0-0.49,0.39-0.9,0.9-0.9
		C102.83,61.68,103.21,62.08,103.21,62.57z"/>
	<path class="st1" d="M116.84,63.31h-1.55l-1.85-8.22l-1.86,8.22h-1.51l-2-9.64h1.2l1.61,8.56l1.92-8.56h1.3l1.96,8.56l1.67-8.56
		h1.12L116.84,63.31z"/>
	<path class="st1" d="M125.88,60.04h-4.75c0.13,1.78,0.94,2.48,2.06,2.48c0.74,0,1.29-0.21,1.93-0.66l0.52,0.7
		c-0.71,0.57-1.53,0.92-2.54,0.92c-2.03,0-3.22-1.44-3.22-3.78c0-2.31,1.15-3.92,3.03-3.92c1.98,0,3,1.39,3,3.61
		C125.91,59.65,125.9,59.88,125.88,60.04z M124.75,59.06c0-1.48-0.59-2.34-1.81-2.34c-1.02,0-1.71,0.73-1.81,2.45h3.61V59.06z"/>
	<path class="st1" d="M133.08,54.88v1.06h1.82l-0.13,0.91h-1.69v6.46h-1.18v-6.46h-1.3v-0.91h1.3V54.9c0-1.22,0.8-2.06,2.24-2.06
		c0.69,0,1.18,0.13,1.75,0.38l-0.38,0.85c-0.48-0.21-0.91-0.28-1.3-0.28C133.38,53.79,133.08,54.14,133.08,54.88z"/>
	<path class="st1" d="M142.23,59.62c0,2.31-1.19,3.87-3.25,3.87s-3.24-1.5-3.24-3.84c0-2.31,1.19-3.87,3.25-3.87
		C141.07,55.78,142.23,57.26,142.23,59.62z M137.01,59.65c0,1.95,0.7,2.89,1.98,2.89c1.27,0,1.99-0.94,1.99-2.91
		c0-1.95-0.7-2.89-1.98-2.89C137.74,56.73,137.01,57.67,137.01,59.65z"/>
	<path class="st1" d="M149.83,63.31h-1.01l-0.1-1.19c-0.55,0.9-1.25,1.36-2.31,1.36c-1.3,0-2.06-0.81-2.06-2.25v-5.28h1.18v5.15
		c0,1.05,0.36,1.44,1.2,1.44s1.46-0.55,1.92-1.32v-5.28h1.18V63.31z"/>
	<path class="st1" d="M158.09,58.03v5.28h-1.18V58.2c0-1.13-0.46-1.5-1.22-1.5c-0.87,0-1.46,0.55-1.96,1.36v5.25h-1.18v-7.37h1.01
		l0.1,1.11c0.55-0.76,1.32-1.27,2.31-1.27C157.32,55.78,158.09,56.63,158.09,58.03z"/>
	<path class="st1" d="M166.34,52.98v10.34h-1.02l-0.13-1.04c-0.46,0.73-1.2,1.2-2.14,1.2c-1.78,0-2.77-1.51-2.77-3.82
		c0-2.26,1.08-3.88,2.89-3.88c0.9,0,1.53,0.42,2,0.92v-3.87L166.34,52.98z M165.16,61.38v-3.67c-0.45-0.6-0.98-0.99-1.75-0.99
		c-1.15,0-1.88,0.97-1.88,2.93s0.64,2.9,1.75,2.9C164.14,62.54,164.67,62.12,165.16,61.38z"/>
	<path class="st1" d="M176.46,62.99c-0.48,0.32-1.01,0.49-1.62,0.49c-1.22,0-1.95-0.71-1.95-2.06v-4.57h-1.27v-0.91h1.27v-1.69
		l1.18-0.13v1.82h1.78l-0.13,0.91h-1.65v4.51c0,0.77,0.27,1.13,0.92,1.13c0.35,0,0.66-0.1,1.02-0.31L176.46,62.99z"/>
	<path class="st1" d="M183.35,58.03v5.28h-1.18V58.2c0-1.13-0.48-1.5-1.23-1.5c-0.84,0-1.44,0.55-1.95,1.34v5.27h-1.18V52.99
		l1.18-0.14V57c0.55-0.74,1.29-1.22,2.24-1.22C182.57,55.78,183.35,56.65,183.35,58.03z"/>
	<path class="st1" d="M191.46,60.04h-4.75c0.13,1.78,0.94,2.48,2.06,2.48c0.74,0,1.29-0.21,1.93-0.66l0.52,0.7
		c-0.71,0.57-1.53,0.92-2.54,0.92c-2.03,0-3.22-1.44-3.22-3.78c0-2.31,1.15-3.92,3.03-3.92c1.98,0,3,1.39,3,3.61
		C191.48,59.65,191.47,59.88,191.46,60.04z M190.32,59.06c0-1.48-0.59-2.34-1.81-2.34c-1.02,0-1.71,0.73-1.81,2.45h3.61V59.06z"/>
	<path class="st1" d="M202.22,56.56l-0.57,0.74c-0.49-0.36-0.97-0.55-1.6-0.55c-1.2,0-1.98,0.94-1.98,2.91c0,1.96,0.77,2.8,1.98,2.8
		c0.63,0,1.08-0.2,1.62-0.57l0.55,0.77c-0.63,0.53-1.37,0.81-2.21,0.81c-1.96,0-3.19-1.41-3.19-3.8c0-2.35,1.22-3.91,3.19-3.91
		C200.86,55.78,201.55,56,202.22,56.56z"/>
	<path class="st1" d="M209.7,59.62c0,2.31-1.19,3.87-3.25,3.87s-3.24-1.5-3.24-3.84c0-2.31,1.19-3.87,3.25-3.87
		C208.54,55.78,209.7,57.26,209.7,59.62z M204.47,59.65c0,1.95,0.7,2.89,1.98,2.89c1.27,0,1.99-0.94,1.99-2.91
		c0-1.95-0.7-2.89-1.98-2.89C205.2,56.73,204.47,57.67,204.47,59.65z"/>
	<path class="st1" d="M221.21,58.03v5.28h-1.18V58.2c0-1.13-0.48-1.5-1.08-1.5c-0.83,0-1.3,0.55-1.82,1.36v5.25h-1.18V58.2
		c0-1.13-0.48-1.5-1.08-1.5c-0.81,0-1.3,0.55-1.81,1.36v5.25h-1.18v-7.37h1.01l0.1,1.11c0.52-0.76,1.2-1.27,2.16-1.27
		c0.92,0,1.58,0.52,1.85,1.37c0.53-0.81,1.23-1.37,2.23-1.37C220.44,55.78,221.21,56.65,221.21,58.03z"/>
	<path class="st1" d="M229.89,59.62c0,2.26-0.98,3.87-2.87,3.87c-0.83,0-1.5-0.29-1.96-0.87v3.52l-1.18,0.14V55.95h1.01l0.1,1.02
		c0.53-0.76,1.32-1.19,2.19-1.19C229.1,55.78,229.89,57.28,229.89,59.62z M228.62,59.62c0-1.96-0.59-2.9-1.74-2.9
		c-0.81,0-1.43,0.56-1.83,1.18v3.68c0.39,0.59,0.98,0.94,1.69,0.94C227.97,62.52,228.62,61.59,228.62,59.62z"/>
	<path class="st1" d="M237.5,62.66l-0.28,0.83c-0.71-0.1-1.18-0.39-1.37-1.13c-0.52,0.78-1.3,1.13-2.21,1.13
		c-1.46,0-2.33-0.91-2.33-2.23c0-1.57,1.18-2.41,3.19-2.41h1.21v-0.59c0-1.09-0.52-1.51-1.58-1.51c-0.56,0-1.23,0.14-1.99,0.41
		l-0.29-0.87c0.88-0.34,1.68-0.5,2.49-0.5c1.75,0,2.55,0.9,2.55,2.42v3.42C236.89,62.31,237.11,62.52,237.5,62.66z M235.71,61.38
		v-1.75h-1.05c-1.37,0-2.1,0.52-2.1,1.57c0,0.9,0.46,1.39,1.34,1.39C234.7,62.59,235.29,62.18,235.71,61.38z"/>
	<path class="st1" d="M245.13,58.03v5.28h-1.18V58.2c0-1.13-0.46-1.5-1.22-1.5c-0.87,0-1.46,0.55-1.96,1.36v5.25h-1.18v-7.37h1.01
		l0.1,1.11c0.55-0.76,1.32-1.27,2.31-1.27C244.36,55.78,245.13,56.63,245.13,58.03z"/>
	<path class="st1" d="M250.49,63.36c-0.52,1.57-1.34,2.66-3.32,2.91l-0.14-0.92c1.5-0.28,1.91-0.85,2.34-2.03h-0.41l-2.49-7.37h1.26
		l2.03,6.51l1.99-6.51h1.22L250.49,63.36z"/>
	<path class="st1" d="M264.19,59.62c0,2.31-1.19,3.87-3.25,3.87c-2.06,0-3.24-1.5-3.24-3.84c0-2.31,1.19-3.87,3.25-3.87
		C263.02,55.78,264.19,57.26,264.19,59.62z M258.96,59.65c0,1.95,0.7,2.89,1.97,2.89c1.28,0,1.99-0.94,1.99-2.91
		c0-1.95-0.7-2.89-1.97-2.89C259.69,56.73,258.96,57.67,258.96,59.65z"/>
	<path class="st1" d="M271.91,58.03v5.28h-1.18V58.2c0-1.13-0.46-1.5-1.22-1.5c-0.87,0-1.46,0.55-1.96,1.36v5.25h-1.18v-7.37h1.01
		l0.1,1.11c0.55-0.76,1.32-1.27,2.31-1.27C271.14,55.78,271.91,56.63,271.91,58.03z"/>
	<path class="st1" d="M283.79,58.75h-4.19v4.57h-1.21v-9.64h1.21v4.06h4.19v-4.06H285v9.64h-1.22V58.75z"/>
	<path class="st1" d="M293.75,59.62c0,2.31-1.19,3.87-3.25,3.87c-2.06,0-3.24-1.5-3.24-3.84c0-2.31,1.19-3.87,3.25-3.87
		C292.59,55.78,293.75,57.26,293.75,59.62z M288.53,59.65c0,1.95,0.7,2.89,1.98,2.89c1.27,0,1.99-0.94,1.99-2.91
		c0-1.95-0.7-2.89-1.97-2.89C289.26,56.73,288.53,57.67,288.53,59.65z"/>
	<path class="st1" d="M305.26,58.03v5.28h-1.18V58.2c0-1.13-0.48-1.5-1.08-1.5c-0.83,0-1.3,0.55-1.82,1.36v5.25h-1.18V58.2
		c0-1.13-0.48-1.5-1.08-1.5c-0.81,0-1.3,0.55-1.81,1.36v5.25h-1.18v-7.37h1.01l0.1,1.11c0.52-0.76,1.2-1.27,2.16-1.27
		c0.92,0,1.58,0.52,1.85,1.37c0.53-0.81,1.23-1.37,2.23-1.37C304.49,55.78,305.26,56.65,305.26,58.03z"/>
	<path class="st1" d="M313.38,60.04h-4.75c0.13,1.78,0.94,2.48,2.06,2.48c0.74,0,1.29-0.21,1.93-0.66l0.52,0.7
		c-0.71,0.57-1.53,0.92-2.54,0.92c-2.03,0-3.22-1.44-3.22-3.78c0-2.31,1.15-3.92,3.03-3.92c1.97,0,3,1.39,3,3.61
		C313.41,59.65,313.39,59.88,313.38,60.04z M312.25,59.06c0-1.48-0.59-2.34-1.81-2.34c-1.02,0-1.71,0.73-1.81,2.45h3.61V59.06z"/>
	<path class="st1" d="M319.95,56.62l-0.5,0.74c-0.66-0.43-1.22-0.64-1.92-0.64c-0.87,0-1.43,0.41-1.43,1.04s0.42,0.91,1.64,1.23
		c1.55,0.41,2.42,0.99,2.42,2.28c0,1.5-1.36,2.21-2.84,2.21c-1.25,0-2.12-0.41-2.76-0.97l0.63-0.71c0.6,0.45,1.27,0.73,2.1,0.73
		c0.98,0,1.64-0.45,1.64-1.19c0-0.77-0.38-1.05-1.83-1.44c-1.58-0.42-2.21-1.08-2.21-2.12c0-1.16,1.11-2,2.6-2
		C318.49,55.78,319.25,56.09,319.95,56.62z"/>
	<path class="st1" d="M325.68,62.99c-0.48,0.32-1.01,0.49-1.62,0.49c-1.22,0-1.95-0.71-1.95-2.06v-4.57h-1.27v-0.91h1.27v-1.69
		l1.18-0.13v1.82h1.78l-0.13,0.91h-1.65v4.51c0,0.77,0.27,1.13,0.92,1.13c0.35,0,0.66-0.1,1.02-0.31L325.68,62.99z"/>
	<path class="st1" d="M332.43,62.66l-0.28,0.83c-0.71-0.1-1.18-0.39-1.37-1.13c-0.52,0.78-1.3,1.13-2.21,1.13
		c-1.46,0-2.33-0.91-2.33-2.23c0-1.57,1.18-2.41,3.19-2.41h1.2v-0.59c0-1.09-0.52-1.51-1.58-1.51c-0.56,0-1.23,0.14-1.99,0.41
		l-0.29-0.87c0.88-0.34,1.68-0.5,2.49-0.5c1.75,0,2.55,0.9,2.55,2.42v3.42C331.82,62.31,332.04,62.52,332.43,62.66z M330.64,61.38
		v-1.75h-1.05c-1.37,0-2.1,0.52-2.1,1.57c0,0.9,0.46,1.39,1.34,1.39C329.63,62.59,330.22,62.18,330.64,61.38z"/>
	<path class="st1" d="M338.37,55.86l-0.21,1.15c-0.22-0.06-0.38-0.08-0.64-0.08c-0.94,0-1.47,0.66-1.81,2.07v4.31h-1.18v-7.37h1.01
		l0.11,1.54c0.39-1.13,1.08-1.71,1.99-1.71C337.89,55.78,338.16,55.81,338.37,55.86z"/>
	<path class="st1" d="M344.08,56.62l-0.5,0.74c-0.66-0.43-1.22-0.64-1.92-0.64c-0.87,0-1.43,0.41-1.43,1.04s0.42,0.91,1.64,1.23
		c1.55,0.41,2.42,0.99,2.42,2.28c0,1.5-1.36,2.21-2.84,2.21c-1.25,0-2.12-0.41-2.76-0.97l0.63-0.71c0.6,0.45,1.27,0.73,2.1,0.73
		c0.98,0,1.64-0.45,1.64-1.19c0-0.77-0.38-1.05-1.83-1.44c-1.58-0.42-2.21-1.08-2.21-2.12c0-1.16,1.11-2,2.6-2
		C342.62,55.78,343.38,56.09,344.08,56.62z"/>
	<path class="st1" d="M355.43,62.66l-0.28,0.83c-0.71-0.1-1.18-0.39-1.37-1.13c-0.52,0.78-1.3,1.13-2.21,1.13
		c-1.46,0-2.33-0.91-2.33-2.23c0-1.57,1.18-2.41,3.19-2.41h1.2v-0.59c0-1.09-0.52-1.51-1.58-1.51c-0.56,0-1.23,0.14-1.99,0.41
		l-0.29-0.87c0.88-0.34,1.68-0.5,2.49-0.5c1.75,0,2.55,0.9,2.55,2.42v3.42C354.82,62.31,355.04,62.52,355.43,62.66z M353.64,61.38
		v-1.75h-1.05c-1.37,0-2.1,0.52-2.1,1.57c0,0.9,0.46,1.39,1.34,1.39C352.63,62.59,353.22,62.18,353.64,61.38z"/>
	<path class="st1" d="M363.06,58.03v5.28h-1.18V58.2c0-1.13-0.46-1.5-1.22-1.5c-0.87,0-1.46,0.55-1.96,1.36v5.25h-1.18v-7.37h1.01
		l0.1,1.11c0.55-0.76,1.32-1.27,2.31-1.27C362.29,55.78,363.06,56.63,363.06,58.03z"/>
	<path class="st1" d="M371.31,52.98v10.34h-1.02l-0.13-1.04c-0.46,0.73-1.21,1.2-2.14,1.2c-1.78,0-2.77-1.51-2.77-3.82
		c0-2.26,1.08-3.88,2.89-3.88c0.9,0,1.53,0.42,2,0.92v-3.87L371.31,52.98z M370.13,61.38v-3.67c-0.45-0.6-0.98-0.99-1.75-0.99
		c-1.15,0-1.88,0.97-1.88,2.93s0.64,2.9,1.75,2.9C369.11,62.54,369.64,62.12,370.13,61.38z"/>
	<path class="st1" d="M384.42,63.31h-1.61l-1.36-6.3l-1.4,6.3h-1.57l-1.75-7.37h1.19l1.39,6.54l1.51-6.54h1.32l1.46,6.54l1.4-6.54
		h1.12L384.42,63.31z"/>
	<path class="st1" d="M393.23,60.04h-4.75c0.13,1.78,0.94,2.48,2.06,2.48c0.74,0,1.29-0.21,1.93-0.66l0.52,0.7
		c-0.71,0.57-1.53,0.92-2.54,0.92c-2.03,0-3.22-1.44-3.22-3.78c0-2.31,1.15-3.92,3.03-3.92c1.97,0,3,1.39,3,3.61
		C393.26,59.65,393.25,59.88,393.23,60.04z M392.1,59.06c0-1.48-0.59-2.34-1.81-2.34c-1.02,0-1.71,0.73-1.81,2.45h3.61V59.06z"/>
	<path class="st1" d="M399.23,55.86l-0.21,1.15c-0.22-0.06-0.38-0.08-0.64-0.08c-0.94,0-1.47,0.66-1.81,2.07v4.31h-1.18v-7.37h1.01
		l0.11,1.54c0.39-1.13,1.08-1.71,1.99-1.71C398.75,55.78,399.02,55.81,399.23,55.86z"/>
	<path class="st1" d="M405.78,60.04h-4.75c0.13,1.78,0.94,2.48,2.06,2.48c0.74,0,1.29-0.21,1.93-0.66l0.52,0.7
		c-0.71,0.57-1.53,0.92-2.54,0.92c-2.03,0-3.22-1.44-3.22-3.78c0-2.31,1.15-3.92,3.03-3.92c1.97,0,3,1.39,3,3.61
		C405.81,59.65,405.79,59.88,405.78,60.04z M404.64,59.06c0-1.48-0.59-2.34-1.81-2.34c-1.02,0-1.71,0.73-1.81,2.45h3.61V59.06z"/>
	<path class="st1" d="M85.31,80.02c0,2.26-0.98,3.87-2.87,3.87c-0.83,0-1.5-0.29-1.96-0.87v3.52l-1.18,0.14V76.35h1.01l0.1,1.02
		c0.53-0.76,1.32-1.19,2.19-1.19C84.53,76.18,85.31,77.68,85.31,80.02z M84.05,80.02c0-1.96-0.59-2.9-1.74-2.9
		c-0.81,0-1.43,0.56-1.83,1.18v3.68c0.39,0.59,0.98,0.94,1.69,0.94C83.39,82.92,84.05,81.99,84.05,80.02z"/>
	<path class="st1" d="M87.5,82.31v-8.94l1.18-0.14v9.05c0,0.41,0.14,0.62,0.49,0.62c0.18,0,0.34-0.03,0.48-0.08l0.31,0.83
		c-0.27,0.14-0.62,0.24-0.98,0.24C88.08,83.88,87.5,83.34,87.5,82.31z"/>
	<path class="st1" d="M97.03,80.44h-4.75c0.13,1.78,0.94,2.48,2.06,2.48c0.74,0,1.29-0.21,1.93-0.66l0.52,0.7
		c-0.71,0.58-1.53,0.92-2.54,0.92c-2.03,0-3.22-1.44-3.22-3.78c0-2.31,1.15-3.92,3.03-3.92c1.98,0,3,1.39,3,3.61
		C97.06,80.04,97.04,80.28,97.03,80.44z M95.89,79.46c0-1.48-0.59-2.34-1.81-2.34c-1.02,0-1.71,0.73-1.81,2.45h3.61V79.46z"/>
	<path class="st1" d="M104.53,83.06l-0.28,0.83c-0.71-0.1-1.18-0.39-1.37-1.13c-0.52,0.79-1.3,1.13-2.21,1.13
		c-1.46,0-2.33-0.91-2.33-2.23c0-1.57,1.18-2.41,3.19-2.41h1.2v-0.59c0-1.09-0.52-1.51-1.58-1.51c-0.56,0-1.23,0.14-1.99,0.41
		l-0.29-0.87c0.88-0.34,1.68-0.5,2.49-0.5c1.75,0,2.55,0.9,2.55,2.42v3.42C103.92,82.71,104.14,82.92,104.53,83.06z M102.74,81.78
		v-1.75h-1.05c-1.37,0-2.1,0.52-2.1,1.57c0,0.9,0.46,1.39,1.34,1.39C101.73,82.99,102.32,82.58,102.74,81.78z"/>
	<path class="st1" d="M110.9,77.02l-0.5,0.74c-0.66-0.43-1.22-0.64-1.92-0.64c-0.87,0-1.43,0.41-1.43,1.04
		c0,0.63,0.42,0.91,1.64,1.23c1.56,0.41,2.42,0.99,2.42,2.28c0,1.5-1.36,2.21-2.84,2.21c-1.25,0-2.12-0.41-2.76-0.97l0.63-0.71
		c0.6,0.45,1.27,0.73,2.1,0.73c0.98,0,1.64-0.45,1.64-1.19c0-0.77-0.38-1.05-1.83-1.44c-1.58-0.42-2.21-1.08-2.21-2.12
		c0-1.16,1.11-2,2.61-2C109.44,76.18,110.2,76.49,110.9,77.02z"/>
	<path class="st1" d="M118.46,80.44h-4.75c0.13,1.78,0.94,2.48,2.06,2.48c0.74,0,1.29-0.21,1.93-0.66l0.52,0.7
		c-0.71,0.58-1.53,0.92-2.54,0.92c-2.03,0-3.22-1.44-3.22-3.78c0-2.31,1.15-3.92,3.03-3.92c1.98,0,3,1.39,3,3.61
		C118.49,80.04,118.48,80.28,118.46,80.44z M117.33,79.46c0-1.48-0.59-2.34-1.81-2.34c-1.02,0-1.71,0.73-1.81,2.45h3.61V79.46z"/>
	<path class="st1" d="M126.2,73.38v10.34h-1.02l-0.13-1.04c-0.46,0.73-1.2,1.2-2.14,1.2c-1.78,0-2.77-1.51-2.77-3.82
		c0-2.25,1.08-3.88,2.89-3.88c0.9,0,1.53,0.42,2,0.92v-3.87L126.2,73.38z M125.03,81.78v-3.67c-0.45-0.6-0.98-1-1.75-1
		c-1.15,0-1.88,0.97-1.88,2.93s0.64,2.9,1.75,2.9C124,82.94,124.54,82.52,125.03,81.78z"/>
	<path class="st1" d="M139.31,83.71h-1.61l-1.36-6.3l-1.4,6.3h-1.57l-1.75-7.37h1.19l1.39,6.54l1.51-6.54h1.32l1.46,6.54l1.4-6.54
		H141L139.31,83.71z"/>
	<path class="st1" d="M144.09,73.69c0,0.46-0.34,0.81-0.84,0.81c-0.49,0-0.83-0.35-0.83-0.81c0-0.46,0.34-0.81,0.83-0.81
		C143.76,72.87,144.09,73.22,144.09,73.69z M143.85,83.71h-1.18v-7.37h1.18V83.71z"/>
	<path class="st1" d="M150.21,83.39c-0.48,0.32-1.01,0.49-1.62,0.49c-1.22,0-1.95-0.71-1.95-2.06v-4.57h-1.27v-0.91h1.27v-1.69
		l1.18-0.13v1.82h1.78l-0.13,0.91h-1.65v4.51c0,0.77,0.27,1.13,0.92,1.13c0.35,0,0.66-0.1,1.02-0.31L150.21,83.39z"/>
	<path class="st1" d="M157.1,78.43v5.28h-1.18V78.6c0-1.13-0.48-1.5-1.23-1.5c-0.84,0-1.44,0.55-1.95,1.34v5.27h-1.18V73.39
		l1.18-0.14v4.15c0.55-0.74,1.29-1.22,2.24-1.22C156.32,76.18,157.1,77.05,157.1,78.43z"/>
	<path class="st1" d="M167.14,83.39c-0.48,0.32-1.01,0.49-1.62,0.49c-1.22,0-1.95-0.71-1.95-2.06v-4.57h-1.27v-0.91h1.27v-1.69
		l1.18-0.13v1.82h1.78l-0.13,0.91h-1.65v4.51c0,0.77,0.27,1.13,0.92,1.13c0.35,0,0.66-0.1,1.02-0.31L167.14,83.39z"/>
	<path class="st1" d="M174.03,78.43v5.28h-1.18V78.6c0-1.13-0.48-1.5-1.23-1.5c-0.84,0-1.44,0.55-1.95,1.34v5.27h-1.18V73.39
		l1.18-0.14v4.15c0.55-0.74,1.29-1.22,2.24-1.22C173.24,76.18,174.03,77.05,174.03,78.43z"/>
	<path class="st1" d="M182.13,80.44h-4.75c0.13,1.78,0.94,2.48,2.06,2.48c0.74,0,1.29-0.21,1.93-0.66l0.52,0.7
		c-0.71,0.58-1.53,0.92-2.54,0.92c-2.03,0-3.22-1.44-3.22-3.78c0-2.31,1.15-3.92,3.03-3.92c1.98,0,3,1.39,3,3.61
		C182.16,80.04,182.15,80.28,182.13,80.44z M181,79.46c0-1.48-0.59-2.34-1.81-2.34c-1.02,0-1.71,0.73-1.81,2.45H181V79.46z"/>
	<path class="st1" d="M191.88,76.26l-0.21,1.15c-0.22-0.06-0.38-0.08-0.64-0.08c-0.94,0-1.47,0.66-1.81,2.07v4.31h-1.18v-7.37h1.01
		l0.11,1.54c0.39-1.13,1.08-1.71,1.99-1.71C191.4,76.18,191.67,76.21,191.88,76.26z"/>
	<path class="st1" d="M198.43,80.44h-4.75c0.13,1.78,0.94,2.48,2.06,2.48c0.74,0,1.29-0.21,1.93-0.66l0.52,0.7
		c-0.71,0.58-1.53,0.92-2.54,0.92c-2.03,0-3.22-1.44-3.22-3.78c0-2.31,1.15-3.92,3.03-3.92c1.98,0,3,1.39,3,3.61
		C198.46,80.04,198.44,80.28,198.43,80.44z M197.29,79.46c0-1.48-0.59-2.34-1.81-2.34c-1.02,0-1.71,0.73-1.81,2.45h3.61V79.46z"/>
	<path class="st1" d="M204.99,77.02l-0.5,0.74c-0.66-0.43-1.22-0.64-1.92-0.64c-0.87,0-1.43,0.41-1.43,1.04
		c0,0.63,0.42,0.91,1.64,1.23c1.56,0.41,2.42,0.99,2.42,2.28c0,1.5-1.36,2.21-2.84,2.21c-1.25,0-2.12-0.41-2.76-0.97l0.63-0.71
		c0.6,0.45,1.27,0.73,2.1,0.73c0.98,0,1.64-0.45,1.64-1.19c0-0.77-0.38-1.05-1.83-1.44c-1.58-0.42-2.21-1.08-2.21-2.12
		c0-1.16,1.11-2,2.61-2C203.54,76.18,204.29,76.49,204.99,77.02z"/>
	<path class="st1" d="M212.51,83.71h-1.01l-0.1-1.19c-0.55,0.9-1.25,1.36-2.31,1.36c-1.3,0-2.06-0.81-2.06-2.25v-5.28h1.18v5.16
		c0,1.05,0.36,1.44,1.2,1.44s1.46-0.55,1.92-1.32v-5.28h1.18V83.71z"/>
	<path class="st1" d="M215.17,82.31v-8.94l1.18-0.14v9.05c0,0.41,0.14,0.62,0.49,0.62c0.18,0,0.34-0.03,0.48-0.08l0.31,0.83
		c-0.27,0.14-0.62,0.24-0.98,0.24C215.74,83.88,215.17,83.34,215.17,82.31z"/>
	<path class="st1" d="M222.94,83.39c-0.48,0.32-1.01,0.49-1.62,0.49c-1.22,0-1.95-0.71-1.95-2.06v-4.57h-1.27v-0.91h1.27v-1.69
		l1.18-0.13v1.82h1.78l-0.13,0.91h-1.65v4.51c0,0.77,0.27,1.13,0.92,1.13c0.35,0,0.66-0.1,1.02-0.31L222.94,83.39z"/>
	<path class="st1" d="M228.71,77.02l-0.5,0.74c-0.66-0.43-1.22-0.64-1.92-0.64c-0.87,0-1.43,0.41-1.43,1.04
		c0,0.63,0.42,0.91,1.64,1.23c1.56,0.41,2.42,0.99,2.42,2.28c0,1.5-1.36,2.21-2.84,2.21c-1.25,0-2.12-0.41-2.76-0.97l0.63-0.71
		c0.6,0.45,1.27,0.73,2.1,0.73c0.98,0,1.64-0.45,1.64-1.19c0-0.77-0.38-1.05-1.83-1.44c-1.58-0.42-2.21-1.08-2.21-2.12
		c0-1.16,1.11-2,2.61-2C227.25,76.18,228.01,76.49,228.71,77.02z"/>
	<path class="st1" d="M231.97,82.97c0,0.5-0.38,0.91-0.91,0.91c-0.5,0-0.9-0.41-0.9-0.91c0-0.49,0.39-0.9,0.9-0.9
		C231.59,82.08,231.97,82.48,231.97,82.97z"/>
	<path class="st1" d="M235.22,82.97c0,0.5-0.38,0.91-0.91,0.91c-0.5,0-0.9-0.41-0.9-0.91c0-0.49,0.39-0.9,0.9-0.9
		C234.84,82.08,235.22,82.48,235.22,82.97z"/>
	<path class="st1" d="M238.46,82.97c0,0.5-0.38,0.91-0.91,0.91c-0.5,0-0.9-0.41-0.9-0.91c0-0.49,0.39-0.9,0.9-0.9
		C238.09,82.08,238.46,82.48,238.46,82.97z"/>
	<path class="st1" d="M240.29,74.02c0,0.21-0.06,0.39-0.22,0.77l-0.91,1.93h-0.77l0.55-2.04c-0.22-0.17-0.34-0.39-0.34-0.66
		c0-0.45,0.38-0.83,0.84-0.83C239.91,73.2,240.29,73.57,240.29,74.02z M242.69,74.02c0,0.21-0.06,0.39-0.22,0.77l-0.91,1.93h-0.77
		l0.55-2.04c-0.22-0.17-0.34-0.39-0.34-0.66c0-0.45,0.38-0.83,0.84-0.83C242.32,73.2,242.69,73.57,242.69,74.02z"/>
	<path class="st1" d="M247.98,78.83h3.91v1.01h-3.91V78.83z"/>
	<path class="st1" d="M267.04,83.71h-2.25l-0.17-3.8c-0.07-1.36-0.1-2.76-0.03-3.96l-1.5,6.74h-2.17l-1.6-6.74
		c0.1,1.43,0.1,2.63,0.04,3.99l-0.17,3.77h-2.24l0.73-9.71h2.9l1.46,6.58l1.36-6.58h2.91L267.04,83.71z"/>
	<path class="st1" d="M274.78,82.47l-0.46,1.44c-0.88-0.07-1.46-0.34-1.79-1.08c-0.53,0.83-1.36,1.12-2.24,1.12
		c-1.49,0-2.42-0.97-2.42-2.33c0-1.62,1.23-2.51,3.49-2.51h0.76V78.8c0-0.88-0.35-1.15-1.26-1.15c-0.48,0-1.2,0.14-1.95,0.39
		l-0.5-1.46c0.94-0.35,1.96-0.55,2.8-0.55c2.16,0,3.08,0.91,3.08,2.63v2.89C274.28,82.13,274.43,82.34,274.78,82.47z M272.11,81.66
		v-1.32h-0.55c-1.01,0-1.5,0.35-1.5,1.09c0,0.59,0.32,0.94,0.87,0.94C271.45,82.37,271.84,82.1,272.11,81.66z"/>
	<path class="st1" d="M280.7,83.36c-0.56,0.39-1.34,0.59-2.02,0.59c-1.64-0.01-2.44-0.94-2.44-2.69v-3.45h-1.05v-1.54h1.05v-1.61
		l2.21-0.25v1.86h1.71l-0.24,1.54h-1.47v3.42c0,0.71,0.24,0.97,0.7,0.97c0.25,0,0.5-0.07,0.8-0.24L280.7,83.36z"/>
	<path class="st1" d="M286.11,83.36c-0.56,0.39-1.34,0.59-2.02,0.59c-1.64-0.01-2.44-0.94-2.44-2.69v-3.45h-1.05v-1.54h1.05v-1.61
		l2.21-0.25v1.86h1.71l-0.24,1.54h-1.47v3.42c0,0.71,0.24,0.97,0.7,0.97c0.25,0,0.5-0.07,0.8-0.24L286.11,83.36z"/>
	<path class="st1" d="M289.03,82.68c0,0.43-0.14,0.8-0.45,1.48l-0.88,2.03h-1.25l0.6-2.47c-0.35-0.24-0.56-0.62-0.56-1.05
		c0-0.71,0.55-1.26,1.27-1.26C288.49,81.42,289.03,81.96,289.03,82.68z"/>
	<path class="st1" d="M300.09,75.77h-2.4v7.94h-2.3v-7.94h-2.51v-1.76h7.42L300.09,75.77z"/>
	<path class="st1" d="M307.29,80c0,2.38-1.37,3.95-3.64,3.95c-2.25,0-3.64-1.46-3.64-3.96c0-2.38,1.37-3.95,3.64-3.95
		C305.92,76.04,307.29,77.5,307.29,80z M302.3,79.99c0,1.65,0.45,2.34,1.34,2.34s1.34-0.71,1.34-2.33c0-1.65-0.45-2.34-1.34-2.34
		S302.3,78.38,302.3,79.99z"/>
	<path class="st1" d="M313.38,76.17l-0.35,2.14c-0.24-0.06-0.42-0.1-0.67-0.1c-0.92,0-1.3,0.69-1.54,1.82v3.68h-2.21v-7.44h1.93
		l0.18,1.44c0.34-1.04,1.06-1.65,1.92-1.65C312.92,76.07,313.14,76.09,313.38,76.17z"/>
	<path class="st1" d="M320.66,80c0,2.38-1.37,3.95-3.64,3.95c-2.25,0-3.64-1.46-3.64-3.96c0-2.38,1.37-3.95,3.64-3.95
		C319.29,76.04,320.66,77.5,320.66,80z M315.67,79.99c0,1.65,0.45,2.34,1.34,2.34s1.34-0.71,1.34-2.33c0-1.65-0.45-2.34-1.34-2.34
		S315.67,78.38,315.67,79.99z"/>
	<path class="st1" d="M328.39,78.28v5.43h-2.21v-5.06c0-0.78-0.27-1-0.7-1c-0.49,0-0.9,0.35-1.29,0.97v5.08h-2.21v-7.44h1.93
		l0.15,0.88c0.63-0.74,1.34-1.12,2.27-1.12C327.62,76.04,328.39,76.87,328.39,78.28z"/>
	<path class="st1" d="M334.71,83.36c-0.56,0.39-1.34,0.59-2.02,0.59c-1.64-0.01-2.44-0.94-2.44-2.69v-3.45h-1.05v-1.54h1.05v-1.61
		l2.21-0.25v1.86h1.71l-0.24,1.54h-1.47v3.42c0,0.71,0.24,0.97,0.7,0.97c0.25,0,0.5-0.07,0.8-0.24L334.71,83.36z"/>
	<path class="st1" d="M342.07,80c0,2.38-1.37,3.95-3.64,3.95c-2.25,0-3.64-1.46-3.64-3.96c0-2.38,1.37-3.95,3.64-3.95
		C340.69,76.04,342.07,77.5,342.07,80z M337.08,79.99c0,1.65,0.45,2.34,1.34,2.34s1.34-0.71,1.34-2.33c0-1.65-0.45-2.34-1.34-2.34
		S337.08,78.38,337.08,79.99z"/>
</g>
<g>
	<path class="st2" d="M36.87,52.9c-9.62,0-17.45-7.83-17.45-17.45c0-9.62,7.83-17.45,17.45-17.45c9.62,0,17.45,7.83,17.45,17.45
		C54.32,45.07,46.49,52.9,36.87,52.9z M48.07,46.99c-1.53-1.11-3.79-1.97-6.46-2.44c-0.8-0.14-1.37-0.85-1.34-1.65
		c0.02-0.5,0.02-1.04,0.02-1.59c0-0.78,0.39-1.53,0.79-2.32c0.4-0.78,0.82-1.59,0.86-2.41l0.01-0.14l0.06-0.12
		c0.48-0.99,0.75-1.98,0.75-2.7c0-0.33-0.06-0.55-0.18-0.67l-0.25-0.25l0.06-0.35c0.07-0.37,0.13-0.75,0.2-1.13
		c0.06-0.33,0.11-0.66,0.17-1c0.49-2.71-0.41-4.5-2.68-5.3c-0.19-0.07-0.57-0.16-1.01-0.28c-1.4-0.36-3.39-0.86-4.75-1.7
		c0,0.02,0,0.04,0,0.06c-0.05,1-0.09,1.78-0.69,2.05c-2.33,1.05-3.13,2.59-2.66,5.16c0.06,0.34,0.12,0.67,0.17,1
		c0.07,0.39,0.13,0.77,0.2,1.13l0.07,0.35l-0.25,0.25c-0.12,0.12-0.18,0.34-0.18,0.67c0,0.72,0.27,1.7,0.75,2.7l0.06,0.12l0.01,0.14
		c0.04,0.81,0.44,1.58,0.84,2.33c0.42,0.8,0.82,1.56,0.82,2.39c0,0.56,0,1.09,0.02,1.6c0.03,0.8-0.54,1.5-1.34,1.65
		c-2.67,0.47-4.93,1.33-6.46,2.45c2.9,2.82,6.85,4.56,11.2,4.56C41.22,51.55,45.17,49.81,48.07,46.99z M36.87,19.34
		c-8.88,0-16.1,7.22-16.1,16.1c0,4.04,1.51,7.73,3.98,10.57c1.7-1.28,4.2-2.26,7.15-2.79c0.14-0.02,0.23-0.13,0.23-0.27
		c-0.02-0.52-0.02-1.08-0.02-1.66c0-0.5-0.32-1.12-0.66-1.77c-0.42-0.8-0.89-1.71-0.98-2.75c-0.53-1.14-0.83-2.26-0.83-3.16
		c0-0.54,0.11-0.97,0.33-1.32c-0.05-0.28-0.1-0.57-0.15-0.86c-0.05-0.32-0.11-0.65-0.17-0.99c-0.56-3.14,0.47-5.22,3.25-6.54
		c0.05-0.23,0.07-0.69,0.09-0.98c0.05-0.92,0.08-1.54,0.63-1.75c0.29-0.11,0.61-0.04,0.85,0.2c0.99,0.96,3.56,1.61,4.95,1.96
		c0.49,0.12,0.88,0.22,1.13,0.31c2.9,1.03,4.16,3.44,3.56,6.8c-0.06,0.33-0.12,0.66-0.17,0.99c-0.05,0.29-0.1,0.58-0.15,0.86
		c0.22,0.35,0.33,0.78,0.33,1.32c0,0.9-0.29,2.02-0.83,3.16c-0.09,1.06-0.57,1.99-1,2.82c-0.33,0.64-0.65,1.25-0.65,1.7
		c0,0.58,0,1.13-0.02,1.65c-0.01,0.13,0.09,0.24,0.23,0.27c2.95,0.52,5.45,1.5,7.15,2.79c2.47-2.83,3.98-6.52,3.98-10.57
		C52.97,26.57,45.75,19.34,36.87,19.34z"/>
</g>
</svg>
