<?xml version="1.0" encoding="utf-8"?>
<!-- Generator: Adobe Illustrator 23.0.4, SVG Export Plug-In . SVG Version: 6.00 Build 0)  -->
<svg version="1.1" id="Layer_1" xmlns="http://www.w3.org/2000/svg" xmlns:xlink="http://www.w3.org/1999/xlink" x="0px" y="0px"
	 viewBox="0 0 420 140" style="enable-background:new 0 0 420 140;" xml:space="preserve">
<style type="text/css">
	.st0{fill:#F3FAFD;}
	.st1{fill:#333333;}
	.st2{fill:#26A7DF;}
</style>
<path class="st0" d="M36.87,60.81L36.87,60.81c-14.01,0-25.36-11.35-25.36-25.36v0c0-14.01,11.35-25.36,25.36-25.36h0
	c14.01,0,25.36,11.35,25.36,25.36v0C62.23,49.45,50.87,60.81,36.87,60.81z"/>
<g>
	<path class="st1" d="M78.6,14.71c0-0.21,0.06-0.39,0.22-0.77l0.91-1.93h0.77l-0.55,2.05c0.22,0.17,0.34,0.39,0.34,0.66
		c0,0.45-0.38,0.83-0.84,0.83C78.98,15.54,78.6,15.16,78.6,14.71z M81.01,14.71c0-0.21,0.06-0.39,0.22-0.77l0.91-1.93h0.77
		l-0.55,2.05c0.22,0.17,0.34,0.39,0.34,0.66c0,0.45-0.38,0.83-0.84,0.83C81.39,15.54,81.01,15.16,81.01,14.71z"/>
	<path class="st1" d="M90.53,13.91h-2.7v8.6h-1.21v-8.6h-2.77v-1.04h6.82L90.53,13.91z"/>
	<path class="st1" d="M97.71,17.23v5.28h-1.18V17.4c0-1.13-0.48-1.5-1.23-1.5c-0.84,0-1.44,0.55-1.95,1.34v5.27h-1.18V12.19
		l1.18-0.14v4.15c0.55-0.74,1.29-1.22,2.24-1.22C96.93,14.98,97.71,15.85,97.71,17.23z"/>
	<path class="st1" d="M105.82,19.24h-4.75c0.13,1.78,0.94,2.48,2.06,2.48c0.74,0,1.29-0.21,1.93-0.66l0.52,0.7
		c-0.71,0.57-1.53,0.92-2.54,0.92c-2.03,0-3.22-1.44-3.22-3.78c0-2.31,1.15-3.92,3.03-3.92c1.98,0,3,1.39,3,3.61
		C105.85,18.84,105.83,19.08,105.82,19.24z M104.68,18.26c0-1.48-0.59-2.34-1.81-2.34c-1.02,0-1.71,0.73-1.81,2.45h3.61V18.26z"/>
	<path class="st1" d="M117.26,17.23v5.28h-1.18V17.4c0-1.13-0.48-1.5-1.23-1.5c-0.84,0-1.44,0.55-1.95,1.34v5.27h-1.18V12.19
		l1.18-0.14v4.15c0.55-0.74,1.29-1.22,2.24-1.22C116.47,14.98,117.26,15.85,117.26,17.23z"/>
	<path class="st1" d="M125.85,18.82c0,2.31-1.19,3.87-3.25,3.87s-3.24-1.5-3.24-3.84c0-2.31,1.19-3.87,3.25-3.87
		C124.69,14.98,125.85,16.46,125.85,18.82z M120.63,18.84c0,1.95,0.7,2.89,1.98,2.89c1.27,0,1.99-0.94,1.99-2.91
		c0-1.95-0.7-2.89-1.98-2.89C121.36,15.93,120.63,16.87,120.63,18.84z"/>
	<path class="st1" d="M137.36,17.23v5.28h-1.18V17.4c0-1.13-0.48-1.5-1.08-1.5c-0.83,0-1.3,0.55-1.82,1.36v5.25h-1.18V17.4
		c0-1.13-0.48-1.5-1.08-1.5c-0.81,0-1.3,0.55-1.81,1.36v5.25h-1.18v-7.37h1.01l0.1,1.11c0.52-0.76,1.2-1.27,2.16-1.27
		c0.92,0,1.58,0.52,1.85,1.37c0.53-0.81,1.23-1.37,2.23-1.37C136.59,14.98,137.36,15.85,137.36,17.23z"/>
	<path class="st1" d="M145.48,19.24h-4.75c0.13,1.78,0.94,2.48,2.06,2.48c0.74,0,1.29-0.21,1.93-0.66l0.52,0.7
		c-0.71,0.57-1.53,0.92-2.54,0.92c-2.03,0-3.22-1.44-3.22-3.78c0-2.31,1.15-3.92,3.03-3.92c1.98,0,3,1.39,3,3.61
		C145.51,18.84,145.5,19.08,145.48,19.24z M144.35,18.26c0-1.48-0.59-2.34-1.81-2.34c-1.02,0-1.71,0.73-1.81,2.45h3.61V18.26z"/>
	<path class="st1" d="M152.8,12.49c0,0.46-0.34,0.81-0.84,0.81c-0.49,0-0.83-0.35-0.83-0.81c0-0.46,0.34-0.81,0.83-0.81
		C152.46,11.67,152.8,12.02,152.8,12.49z M152.56,22.51h-1.18v-7.37h1.18V22.51z"/>
	<path class="st1" d="M164.61,17.23v5.28h-1.18V17.4c0-1.13-0.48-1.5-1.08-1.5c-0.83,0-1.3,0.55-1.82,1.36v5.25h-1.18V17.4
		c0-1.13-0.48-1.5-1.08-1.5c-0.81,0-1.3,0.55-1.81,1.36v5.25h-1.18v-7.37h1.01l0.1,1.11c0.52-0.76,1.2-1.27,2.16-1.27
		c0.92,0,1.58,0.52,1.85,1.37c0.53-0.81,1.23-1.37,2.23-1.37C163.84,14.98,164.61,15.85,164.61,17.23z"/>
	<path class="st1" d="M173.28,18.82c0,2.25-0.98,3.87-2.87,3.87c-0.83,0-1.5-0.29-1.96-0.87v3.52l-1.18,0.14V15.15h1.01l0.1,1.02
		c0.53-0.76,1.32-1.19,2.19-1.19C172.5,14.98,173.28,16.48,173.28,18.82z M172.02,18.82c0-1.96-0.59-2.9-1.74-2.9
		c-0.81,0-1.43,0.56-1.83,1.18v3.68c0.39,0.59,0.98,0.94,1.69,0.94C171.37,21.72,172.02,20.79,172.02,18.82z"/>
	<path class="st1" d="M179.39,15.06l-0.21,1.15c-0.22-0.06-0.38-0.08-0.64-0.08c-0.94,0-1.47,0.66-1.81,2.07v4.31h-1.18v-7.37h1.01
		l0.11,1.54c0.39-1.13,1.08-1.71,1.99-1.71C178.91,14.98,179.18,15.01,179.39,15.06z"/>
	<path class="st1" d="M186.43,18.82c0,2.31-1.19,3.87-3.25,3.87s-3.24-1.5-3.24-3.84c0-2.31,1.19-3.87,3.25-3.87
		C185.27,14.98,186.43,16.46,186.43,18.82z M181.21,18.84c0,1.95,0.7,2.89,1.98,2.89c1.27,0,1.99-0.94,1.99-2.91
		c0-1.95-0.7-2.89-1.98-2.89C181.93,15.93,181.21,16.87,181.21,18.84z"/>
	<path class="st1" d="M191.36,22.51h-1.43l-2.56-7.37h1.29l2,6.32l1.98-6.32h1.25L191.36,22.51z"/>
	<path class="st1" d="M200.81,19.24h-4.75c0.13,1.78,0.94,2.48,2.06,2.48c0.74,0,1.29-0.21,1.93-0.66l0.52,0.7
		c-0.71,0.57-1.53,0.92-2.54,0.92c-2.03,0-3.22-1.44-3.22-3.78c0-2.31,1.15-3.92,3.03-3.92c1.98,0,3,1.39,3,3.61
		C200.84,18.84,200.82,19.08,200.81,19.24z M199.67,18.26c0-1.48-0.59-2.34-1.81-2.34c-1.02,0-1.71,0.73-1.81,2.45h3.61V18.26z"/>
	<path class="st1" d="M212.28,17.23v5.28h-1.18V17.4c0-1.13-0.48-1.5-1.08-1.5c-0.83,0-1.3,0.55-1.82,1.36v5.25h-1.18V17.4
		c0-1.13-0.48-1.5-1.08-1.5c-0.81,0-1.3,0.55-1.81,1.36v5.25h-1.18v-7.37h1.01l0.1,1.11c0.52-0.76,1.2-1.27,2.16-1.27
		c0.92,0,1.58,0.52,1.85,1.37c0.53-0.81,1.23-1.37,2.23-1.37C211.51,14.98,212.28,15.85,212.28,17.23z"/>
	<path class="st1" d="M220.39,19.24h-4.75c0.13,1.78,0.94,2.48,2.06,2.48c0.74,0,1.29-0.21,1.93-0.66l0.52,0.7
		c-0.71,0.57-1.53,0.92-2.54,0.92c-2.03,0-3.22-1.44-3.22-3.78c0-2.31,1.15-3.92,3.03-3.92c1.98,0,3,1.39,3,3.61
		C220.42,18.84,220.41,19.08,220.39,19.24z M219.26,18.26c0-1.48-0.59-2.34-1.81-2.34c-1.02,0-1.71,0.73-1.81,2.45h3.61V18.26z"/>
	<path class="st1" d="M228.08,17.23v5.28h-1.18V17.4c0-1.13-0.46-1.5-1.22-1.5c-0.87,0-1.46,0.55-1.96,1.36v5.25h-1.18v-7.37h1.01
		l0.1,1.11c0.55-0.76,1.32-1.27,2.31-1.27C227.31,14.98,228.08,15.83,228.08,17.23z"/>
	<path class="st1" d="M234.36,22.19c-0.48,0.32-1.01,0.49-1.62,0.49c-1.22,0-1.95-0.71-1.95-2.06v-4.57h-1.27v-0.91h1.27v-1.69
		l1.18-0.13v1.82h1.78l-0.13,0.91h-1.65v4.51c0,0.77,0.27,1.13,0.92,1.13c0.35,0,0.66-0.1,1.02-0.31L234.36,22.19z"/>
	<path class="st1" d="M244.92,19.24h-4.75c0.13,1.78,0.94,2.48,2.06,2.48c0.74,0,1.29-0.21,1.93-0.66l0.52,0.7
		c-0.71,0.57-1.53,0.92-2.54,0.92c-2.03,0-3.22-1.44-3.22-3.78c0-2.31,1.15-3.92,3.03-3.92c1.97,0,3,1.39,3,3.61
		C244.95,18.84,244.94,19.08,244.92,19.24z M243.79,18.26c0-1.48-0.59-2.34-1.81-2.34c-1.02,0-1.71,0.73-1.81,2.45h3.61V18.26z"/>
	<path class="st1" d="M252.22,22.51h-1.43l-1.88-3.19L247,22.51h-1.33l2.58-3.89l-2.27-3.47h1.37l1.61,2.76l1.61-2.76h1.33
		l-2.27,3.42L252.22,22.51z"/>
	<path class="st1" d="M259.68,18.82c0,2.25-0.98,3.87-2.87,3.87c-0.83,0-1.5-0.29-1.96-0.87v3.52l-1.18,0.14V15.15h1.01l0.1,1.02
		c0.53-0.76,1.32-1.19,2.19-1.19C258.89,14.98,259.68,16.48,259.68,18.82z M258.42,18.82c0-1.96-0.59-2.9-1.74-2.9
		c-0.81,0-1.43,0.56-1.83,1.18v3.68c0.39,0.59,0.98,0.94,1.69,0.94C257.76,21.72,258.42,20.79,258.42,18.82z"/>
	<path class="st1" d="M267.39,19.24h-4.75c0.13,1.78,0.94,2.48,2.06,2.48c0.74,0,1.29-0.21,1.93-0.66l0.52,0.7
		c-0.71,0.57-1.53,0.92-2.54,0.92c-2.03,0-3.22-1.44-3.22-3.78c0-2.31,1.15-3.92,3.03-3.92c1.98,0,3,1.39,3,3.61
		C267.42,18.84,267.41,19.08,267.39,19.24z M266.26,18.26c0-1.48-0.59-2.34-1.81-2.34c-1.02,0-1.71,0.73-1.81,2.45h3.61V18.26z"/>
	<path class="st1" d="M273.38,15.06l-0.21,1.15c-0.22-0.06-0.38-0.08-0.64-0.08c-0.94,0-1.47,0.66-1.81,2.07v4.31h-1.18v-7.37h1.01
		l0.11,1.54c0.39-1.13,1.08-1.71,1.99-1.71C272.91,14.98,273.17,15.01,273.38,15.06z"/>
	<path class="st1" d="M276.32,12.49c0,0.46-0.34,0.81-0.84,0.81c-0.49,0-0.83-0.35-0.83-0.81c0-0.46,0.34-0.81,0.83-0.81
		C275.99,11.67,276.32,12.02,276.32,12.49z M276.08,22.51h-1.18v-7.37h1.18V22.51z"/>
	<path class="st1" d="M284.26,19.24h-4.75c0.13,1.78,0.94,2.48,2.06,2.48c0.74,0,1.29-0.21,1.93-0.66l0.52,0.7
		c-0.71,0.57-1.53,0.92-2.54,0.92c-2.03,0-3.22-1.44-3.22-3.78c0-2.31,1.15-3.92,3.03-3.92c1.97,0,3,1.39,3,3.61
		C284.29,18.84,284.28,19.08,284.26,19.24z M283.13,18.26c0-1.48-0.59-2.34-1.81-2.34c-1.02,0-1.71,0.73-1.81,2.45h3.61V18.26z"/>
	<path class="st1" d="M291.95,17.23v5.28h-1.18V17.4c0-1.13-0.46-1.5-1.22-1.5c-0.87,0-1.46,0.55-1.96,1.36v5.25h-1.18v-7.37h1.01
		l0.1,1.11c0.55-0.76,1.32-1.27,2.31-1.27C291.18,14.98,291.95,15.83,291.95,17.23z"/>
	<path class="st1" d="M299.46,15.76l-0.57,0.74c-0.49-0.36-0.97-0.55-1.6-0.55c-1.21,0-1.98,0.94-1.98,2.91
		c0,1.96,0.77,2.8,1.98,2.8c0.63,0,1.08-0.2,1.62-0.57l0.55,0.77c-0.63,0.53-1.37,0.81-2.21,0.81c-1.96,0-3.19-1.41-3.19-3.8
		c0-2.35,1.22-3.91,3.19-3.91C298.11,14.98,298.79,15.2,299.46,15.76z"/>
	<path class="st1" d="M306.45,19.24h-4.75c0.13,1.78,0.94,2.48,2.06,2.48c0.74,0,1.29-0.21,1.93-0.66l0.52,0.7
		c-0.71,0.57-1.53,0.92-2.54,0.92c-2.03,0-3.22-1.44-3.22-3.78c0-2.31,1.15-3.92,3.03-3.92c1.97,0,3,1.39,3,3.61
		C306.48,18.84,306.46,19.08,306.45,19.24z M305.32,18.26c0-1.48-0.59-2.34-1.81-2.34c-1.02,0-1.71,0.73-1.81,2.45h3.61V18.26z"/>
	<path class="st1" d="M318.97,22.51h-1.61l-1.36-6.3l-1.4,6.3h-1.57l-1.75-7.37h1.19l1.39,6.54l1.51-6.54h1.32l1.46,6.54l1.4-6.54
		h1.12L318.97,22.51z"/>
	<path class="st1" d="M327.66,21.86l-0.28,0.83c-0.71-0.1-1.18-0.39-1.37-1.13c-0.52,0.78-1.3,1.13-2.21,1.13
		c-1.46,0-2.33-0.91-2.33-2.23c0-1.57,1.18-2.41,3.19-2.41h1.2v-0.59c0-1.09-0.52-1.51-1.58-1.51c-0.56,0-1.23,0.14-1.99,0.41
		L322,15.48c0.88-0.34,1.68-0.5,2.49-0.5c1.75,0,2.55,0.9,2.55,2.42v3.42C327.04,21.51,327.27,21.72,327.66,21.86z M325.87,20.58
		v-1.75h-1.05c-1.37,0-2.1,0.52-2.1,1.57c0,0.9,0.46,1.39,1.34,1.39C324.86,21.79,325.45,21.38,325.87,20.58z"/>
	<path class="st1" d="M334.03,15.82l-0.5,0.74c-0.66-0.43-1.22-0.64-1.92-0.64c-0.87,0-1.43,0.41-1.43,1.04s0.42,0.91,1.64,1.23
		c1.55,0.41,2.42,0.99,2.42,2.28c0,1.5-1.36,2.21-2.84,2.21c-1.25,0-2.12-0.41-2.76-0.97l0.63-0.71c0.6,0.45,1.27,0.73,2.1,0.73
		c0.98,0,1.64-0.45,1.64-1.19c0-0.77-0.38-1.05-1.83-1.44c-1.58-0.42-2.21-1.08-2.21-2.12c0-1.16,1.11-2,2.6-2
		C332.57,14.98,333.33,15.29,334.03,15.82z"/>
	<path class="st1" d="M345.72,15.44c-0.59,0.18-1.28,0.21-2.13,0.22c0.85,0.38,1.29,0.99,1.29,1.89c0,1.44-1.04,2.48-2.77,2.48
		c-0.34,0-0.64-0.04-0.94-0.14c-0.25,0.17-0.41,0.43-0.41,0.73c0,0.35,0.22,0.63,1.01,0.63h1.18c1.5,0,2.48,0.85,2.48,2
		c0,1.42-1.13,2.21-3.39,2.21c-2.37,0-3.14-0.71-3.14-2.2h1.06c0,0.88,0.42,1.27,2.07,1.27c1.62,0,2.2-0.43,2.2-1.2
		c0-0.73-0.57-1.09-1.53-1.09h-1.16c-1.29,0-1.88-0.64-1.88-1.37c0-0.49,0.28-0.95,0.8-1.29c-0.84-0.45-1.23-1.09-1.23-2.06
		c0-1.5,1.18-2.55,2.8-2.55c1.86,0.04,2.51-0.24,3.33-0.62L345.72,15.44z M340.44,17.53c0,1.04,0.59,1.72,1.62,1.72
		c1.05,0,1.61-0.63,1.61-1.72c0-1.09-0.55-1.69-1.64-1.69C340.99,15.83,340.44,16.55,340.44,17.53z"/>
	<path class="st1" d="M350.96,15.06l-0.21,1.15c-0.22-0.06-0.38-0.08-0.64-0.08c-0.94,0-1.47,0.66-1.81,2.07v4.31h-1.18v-7.37h1.01
		l0.11,1.54c0.39-1.13,1.08-1.71,1.99-1.71C350.48,14.98,350.75,15.01,350.96,15.06z"/>
	<path class="st1" d="M357.51,19.24h-4.75c0.13,1.78,0.94,2.48,2.06,2.48c0.74,0,1.29-0.21,1.93-0.66l0.52,0.7
		c-0.71,0.57-1.53,0.92-2.54,0.92c-2.03,0-3.22-1.44-3.22-3.78c0-2.31,1.15-3.92,3.03-3.92c1.97,0,3,1.39,3,3.61
		C357.54,18.84,357.52,19.08,357.51,19.24z M356.37,18.26c0-1.48-0.59-2.34-1.81-2.34c-1.02,0-1.71,0.73-1.81,2.45h3.61V18.26z"/>
	<path class="st1" d="M365.01,21.86l-0.28,0.83c-0.71-0.1-1.18-0.39-1.37-1.13c-0.52,0.78-1.3,1.13-2.21,1.13
		c-1.46,0-2.33-0.91-2.33-2.23c0-1.57,1.18-2.41,3.19-2.41h1.2v-0.59c0-1.09-0.52-1.51-1.58-1.51c-0.56,0-1.23,0.14-1.99,0.41
		l-0.29-0.87c0.88-0.34,1.68-0.5,2.49-0.5c1.75,0,2.55,0.9,2.55,2.42v3.42C364.4,21.51,364.62,21.72,365.01,21.86z M363.22,20.58
		v-1.75h-1.05c-1.37,0-2.1,0.52-2.1,1.57c0,0.9,0.46,1.39,1.34,1.39C362.21,21.79,362.8,21.38,363.22,20.58z"/>
	<path class="st1" d="M370.74,22.19c-0.48,0.32-1.01,0.49-1.62,0.49c-1.22,0-1.95-0.71-1.95-2.06v-4.57h-1.27v-0.91h1.27v-1.69
		l1.18-0.13v1.82h1.78l-0.13,0.91h-1.65v4.51c0,0.77,0.27,1.13,0.92,1.13c0.35,0,0.66-0.1,1.02-0.31L370.74,22.19z"/>
	<path class="st1" d="M373.28,21.77c0,0.29-0.07,0.56-0.24,0.94l-0.91,2.09h-0.84l0.56-2.27c-0.22-0.17-0.38-0.45-0.38-0.76
		c0-0.49,0.39-0.9,0.9-0.9C372.91,20.88,373.28,21.28,373.28,21.77z"/>
	<path class="st1" d="M380.42,14.08v1.06h1.82l-0.13,0.91h-1.7v6.46h-1.18v-6.46h-1.3v-0.91h1.3V14.1c0-1.22,0.8-2.06,2.24-2.06
		c0.69,0,1.18,0.13,1.75,0.38l-0.38,0.85c-0.48-0.21-0.91-0.28-1.3-0.28C380.73,12.99,380.42,13.34,380.42,14.08z"/>
	<path class="st1" d="M387.62,15.06l-0.21,1.15c-0.22-0.06-0.38-0.08-0.64-0.08c-0.94,0-1.47,0.66-1.81,2.07v4.31h-1.18v-7.37h1.01
		l0.11,1.54c0.39-1.13,1.08-1.71,1.99-1.71C387.14,14.98,387.41,15.01,387.62,15.06z"/>
	<path class="st1" d="M394.66,18.82c0,2.31-1.19,3.87-3.25,3.87c-2.06,0-3.24-1.5-3.24-3.84c0-2.31,1.19-3.87,3.25-3.87
		C393.5,14.98,394.66,16.46,394.66,18.82z M389.44,18.84c0,1.95,0.7,2.89,1.98,2.89c1.27,0,1.99-0.94,1.99-2.91
		c0-1.95-0.7-2.89-1.97-2.89C390.17,15.93,389.44,16.87,389.44,18.84z"/>
	<path class="st1" d="M406.17,17.23v5.28H405V17.4c0-1.13-0.48-1.5-1.08-1.5c-0.83,0-1.3,0.55-1.82,1.36v5.25h-1.18V17.4
		c0-1.13-0.48-1.5-1.08-1.5c-0.81,0-1.3,0.55-1.81,1.36v5.25h-1.18v-7.37h1.01l0.1,1.11c0.52-0.76,1.2-1.27,2.16-1.27
		c0.92,0,1.58,0.52,1.85,1.37c0.53-0.81,1.23-1.37,2.23-1.37C405.4,14.98,406.17,15.85,406.17,17.23z"/>
	<path class="st1" d="M84.89,35.55v10.32l-1.18-0.14v-3.8c-0.48,0.7-1.2,1.15-2.12,1.15c-1.78,0-2.77-1.51-2.77-3.82
		c0-2.26,1.08-3.88,2.89-3.88c0.95,0,1.6,0.46,2.09,1.01l0.08-0.84H84.89z M83.71,40.98v-3.67c-0.45-0.6-0.98-0.99-1.75-0.99
		c-1.15,0-1.88,0.97-1.88,2.93s0.64,2.9,1.76,2.9C82.69,42.14,83.22,41.72,83.71,40.98z"/>
	<path class="st1" d="M93.04,42.91h-1.01l-0.1-1.19c-0.55,0.9-1.25,1.36-2.31,1.36c-1.3,0-2.06-0.81-2.06-2.25v-5.28h1.18v5.15
		c0,1.05,0.36,1.44,1.2,1.44s1.46-0.55,1.92-1.32v-5.28h1.18V42.91z"/>
	<path class="st1" d="M101.7,39.22c0,2.31-1.19,3.87-3.25,3.87s-3.24-1.5-3.24-3.84c0-2.31,1.19-3.87,3.25-3.87
		C100.54,35.38,101.7,36.86,101.7,39.22z M96.48,39.24c0,1.95,0.7,2.89,1.98,2.89c1.27,0,1.99-0.94,1.99-2.91
		c0-1.95-0.7-2.89-1.98-2.89C97.21,36.33,96.48,37.27,96.48,39.24z"/>
	<path class="st1" d="M107.53,42.59c-0.48,0.32-1.01,0.49-1.62,0.49c-1.22,0-1.95-0.71-1.95-2.06v-4.57h-1.27v-0.91h1.27v-1.69
		l1.18-0.13v1.82h1.78l-0.13,0.91h-1.65v4.51c0,0.77,0.27,1.13,0.92,1.13c0.35,0,0.66-0.1,1.02-0.31L107.53,42.59z"/>
	<path class="st1" d="M110.3,32.89c0,0.46-0.34,0.81-0.84,0.81c-0.49,0-0.83-0.35-0.83-0.81c0-0.46,0.34-0.81,0.83-0.81
		C109.96,32.07,110.3,32.42,110.3,32.89z M110.06,42.91h-1.18v-7.37h1.18V42.91z"/>
	<path class="st1" d="M118.32,37.63v5.28h-1.18V37.8c0-1.13-0.46-1.5-1.22-1.5c-0.87,0-1.46,0.55-1.96,1.36v5.25h-1.18v-7.37h1.01
		l0.1,1.11c0.55-0.76,1.32-1.27,2.31-1.27C117.55,35.38,118.32,36.23,118.32,37.63z"/>
	<path class="st1" d="M126.8,35.84c-0.59,0.18-1.27,0.21-2.13,0.22c0.85,0.38,1.29,0.99,1.29,1.89c0,1.44-1.04,2.48-2.77,2.48
		c-0.34,0-0.64-0.04-0.94-0.14c-0.25,0.17-0.41,0.43-0.41,0.73c0,0.35,0.22,0.63,1.01,0.63h1.18c1.5,0,2.48,0.85,2.48,2
		c0,1.42-1.13,2.21-3.39,2.21c-2.37,0-3.14-0.71-3.14-2.2h1.06c0,0.88,0.42,1.27,2.07,1.27c1.62,0,2.2-0.43,2.2-1.2
		c0-0.73-0.57-1.09-1.53-1.09h-1.16c-1.29,0-1.88-0.64-1.88-1.37c0-0.49,0.28-0.95,0.8-1.29c-0.84-0.45-1.23-1.09-1.23-2.06
		c0-1.5,1.18-2.55,2.8-2.55c1.86,0.04,2.51-0.24,3.33-0.62L126.8,35.84z M121.52,37.93c0,1.04,0.59,1.72,1.62,1.72
		c1.05,0,1.61-0.63,1.61-1.72c0-1.09-0.55-1.69-1.64-1.69C122.07,36.23,121.52,36.95,121.52,37.93z"/>
	<path class="st1" d="M135.58,42.59c-0.48,0.32-1.01,0.49-1.62,0.49c-1.22,0-1.95-0.71-1.95-2.06v-4.57h-1.27v-0.91h1.27v-1.69
		l1.18-0.13v1.82h1.78l-0.13,0.91h-1.65v4.51c0,0.77,0.27,1.13,0.92,1.13c0.35,0,0.66-0.1,1.02-0.31L135.58,42.59z"/>
	<path class="st1" d="M142.47,37.63v5.28h-1.18V37.8c0-1.13-0.48-1.5-1.23-1.5c-0.84,0-1.44,0.55-1.95,1.34v5.27h-1.18V32.59
		l1.18-0.14v4.15c0.55-0.74,1.29-1.22,2.24-1.22C141.69,35.38,142.47,36.25,142.47,37.63z"/>
	<path class="st1" d="M150.58,39.64h-4.75c0.13,1.78,0.94,2.48,2.06,2.48c0.74,0,1.29-0.21,1.93-0.66l0.52,0.7
		c-0.71,0.57-1.53,0.92-2.54,0.92c-2.03,0-3.22-1.44-3.22-3.78c0-2.31,1.15-3.92,3.03-3.92c1.98,0,3,1.39,3,3.61
		C150.6,39.24,150.59,39.48,150.58,39.64z M149.44,38.66c0-1.48-0.59-2.34-1.81-2.34c-1.02,0-1.71,0.73-1.81,2.45h3.61V38.66z"/>
	<path class="st1" d="M157.63,42.51c0,2.06-0.74,2.66-2.26,3.35L155.04,45c0.97-0.46,1.41-0.83,1.41-2.42v-7.03h1.18V42.51z
		 M157.88,32.89c0,0.46-0.34,0.81-0.84,0.81c-0.49,0-0.83-0.35-0.83-0.81c0-0.46,0.34-0.81,0.83-0.81
		C157.55,32.07,157.88,32.42,157.88,32.89z"/>
	<path class="st1" d="M166.31,39.22c0,2.31-1.19,3.87-3.25,3.87s-3.24-1.5-3.24-3.84c0-2.31,1.19-3.87,3.25-3.87
		C165.15,35.38,166.31,36.86,166.31,39.22z M161.09,39.24c0,1.95,0.7,2.89,1.98,2.89c1.27,0,1.99-0.94,1.99-2.91
		c0-1.95-0.7-2.89-1.98-2.89C161.82,36.33,161.09,37.27,161.09,39.24z"/>
	<path class="st1" d="M174.52,39.22c0,2.33-1.08,3.87-2.87,3.87c-0.84,0-1.48-0.39-1.99-0.99l-0.13,0.83h-1.02V32.58l1.18-0.14v4.05
		c0.5-0.69,1.2-1.11,2.12-1.11C173.47,35.38,174.52,36.77,174.52,39.22z M173.25,39.22c0-2.11-0.7-2.9-1.78-2.9
		c-0.84,0-1.4,0.56-1.79,1.18v3.63c0.39,0.6,0.99,1.02,1.69,1.02C172.5,42.14,173.25,41.26,173.25,39.22z"/>
	<path class="st1" d="M186.54,39.22c0,2.33-1.08,3.87-2.87,3.87c-0.84,0-1.48-0.39-1.99-0.99l-0.13,0.83h-1.02V32.58l1.18-0.14v4.05
		c0.5-0.69,1.2-1.11,2.12-1.11C185.49,35.38,186.54,36.77,186.54,39.22z M185.28,39.22c0-2.11-0.7-2.9-1.78-2.9
		c-0.84,0-1.4,0.56-1.79,1.18v3.63c0.39,0.6,0.99,1.02,1.69,1.02C184.52,42.14,185.28,41.26,185.28,39.22z"/>
	<path class="st1" d="M191.57,42.96c-0.52,1.57-1.34,2.66-3.32,2.91l-0.14-0.92c1.5-0.28,1.91-0.85,2.34-2.03h-0.41l-2.49-7.37h1.26
		l2.03,6.51l1.99-6.51h1.22L191.57,42.96z"/>
	<path class="st1" d="M205.36,34.05l-0.66,0.78c-0.62-0.49-1.19-0.71-1.89-0.71c-1.51,0-2.76,1.02-2.76,3.98
		c0,2.82,1.2,3.95,2.75,3.95c0.92,0,1.51-0.38,2.07-0.8l0.6,0.77c-0.55,0.55-1.44,1.06-2.72,1.06c-2.31,0-3.99-1.75-3.99-4.99
		c0-3.28,1.79-4.99,3.98-4.99C203.93,33.11,204.6,33.45,205.36,34.05z"/>
	<path class="st1" d="M212.53,37.63v5.28h-1.18V37.8c0-1.13-0.48-1.5-1.23-1.5c-0.84,0-1.44,0.55-1.95,1.34v5.27h-1.18V32.59
		l1.18-0.14v4.15c0.55-0.74,1.29-1.22,2.24-1.22C211.74,35.38,212.53,36.25,212.53,37.63z"/>
	<path class="st1" d="M219.02,35.46l-0.21,1.15c-0.22-0.06-0.38-0.08-0.64-0.08c-0.94,0-1.47,0.66-1.81,2.07v4.31h-1.18v-7.37h1.01
		l0.11,1.54c0.39-1.13,1.08-1.71,1.99-1.71C218.54,35.38,218.81,35.41,219.02,35.46z"/>
	<path class="st1" d="M221.96,32.89c0,0.46-0.34,0.81-0.84,0.81c-0.49,0-0.83-0.35-0.83-0.81c0-0.46,0.34-0.81,0.83-0.81
		C221.62,32.07,221.96,32.42,221.96,32.89z M221.72,42.91h-1.18v-7.37h1.18V42.91z"/>
	<path class="st1" d="M228.86,36.22l-0.5,0.74c-0.66-0.43-1.22-0.64-1.92-0.64c-0.87,0-1.43,0.41-1.43,1.04s0.42,0.91,1.64,1.23
		c1.56,0.41,2.42,0.99,2.42,2.28c0,1.5-1.36,2.21-2.84,2.21c-1.25,0-2.12-0.41-2.76-0.97l0.63-0.71c0.6,0.45,1.27,0.73,2.1,0.73
		c0.98,0,1.64-0.45,1.64-1.19c0-0.77-0.38-1.05-1.83-1.44c-1.58-0.42-2.21-1.08-2.21-2.12c0-1.16,1.11-2,2.61-2
		C227.41,35.38,228.16,35.69,228.86,36.22z"/>
	<path class="st1" d="M232.12,42.17c0,0.29-0.07,0.56-0.24,0.94l-0.91,2.09h-0.84l0.56-2.27c-0.22-0.17-0.38-0.45-0.38-0.76
		c0-0.49,0.39-0.9,0.9-0.9C231.74,41.28,232.12,41.68,232.12,42.17z"/>
	<path class="st1" d="M241.6,42.59c-0.48,0.32-1.01,0.49-1.62,0.49c-1.22,0-1.95-0.71-1.95-2.06v-4.57h-1.27v-0.91h1.27v-1.69
		l1.18-0.13v1.82h1.78l-0.13,0.91h-1.65v4.51c0,0.77,0.27,1.13,0.92,1.13c0.35,0,0.66-0.1,1.02-0.31L241.6,42.59z"/>
	<path class="st1" d="M248.7,39.22c0,2.31-1.19,3.87-3.25,3.87c-2.06,0-3.24-1.5-3.24-3.84c0-2.31,1.19-3.87,3.25-3.87
		C247.54,35.38,248.7,36.86,248.7,39.22z M243.48,39.24c0,1.95,0.7,2.89,1.97,2.89c1.28,0,1.99-0.94,1.99-2.91
		c0-1.95-0.7-2.89-1.97-2.89C244.2,36.33,243.48,37.27,243.48,39.24z"/>
	<path class="st1" d="M259.51,36.16l-0.57,0.74c-0.49-0.36-0.97-0.55-1.6-0.55c-1.2,0-1.97,0.94-1.97,2.91c0,1.96,0.77,2.8,1.97,2.8
		c0.63,0,1.08-0.2,1.62-0.57l0.55,0.77c-0.63,0.53-1.37,0.81-2.21,0.81c-1.96,0-3.19-1.41-3.19-3.8c0-2.35,1.22-3.91,3.19-3.91
		C258.15,35.38,258.83,35.6,259.51,36.16z"/>
	<path class="st1" d="M266.98,39.22c0,2.31-1.19,3.87-3.25,3.87c-2.06,0-3.24-1.5-3.24-3.84c0-2.31,1.19-3.87,3.25-3.87
		C265.82,35.38,266.98,36.86,266.98,39.22z M261.76,39.24c0,1.95,0.7,2.89,1.97,2.89c1.28,0,1.99-0.94,1.99-2.91
		c0-1.95-0.7-2.89-1.97-2.89C262.49,36.33,261.76,37.27,261.76,39.24z"/>
	<path class="st1" d="M278.49,37.63v5.28h-1.18V37.8c0-1.13-0.48-1.5-1.08-1.5c-0.83,0-1.3,0.55-1.82,1.36v5.25h-1.18V37.8
		c0-1.13-0.48-1.5-1.08-1.5c-0.81,0-1.3,0.55-1.81,1.36v5.25h-1.18v-7.37h1.01l0.1,1.11c0.52-0.76,1.2-1.27,2.16-1.27
		c0.92,0,1.58,0.52,1.85,1.37c0.53-0.81,1.23-1.37,2.23-1.37C277.72,35.38,278.49,36.25,278.49,37.63z"/>
	<path class="st1" d="M282.58,32.89c0,0.46-0.34,0.81-0.84,0.81c-0.49,0-0.83-0.35-0.83-0.81c0-0.46,0.34-0.81,0.83-0.81
		C282.24,32.07,282.58,32.42,282.58,32.89z M282.34,42.91h-1.18v-7.37h1.18V42.91z"/>
	<path class="st1" d="M290.6,37.63v5.28h-1.18V37.8c0-1.13-0.46-1.5-1.22-1.5c-0.87,0-1.46,0.55-1.96,1.36v5.25h-1.18v-7.37h1.01
		l0.1,1.11c0.55-0.76,1.32-1.27,2.31-1.27C289.83,35.38,290.6,36.23,290.6,37.63z"/>
	<path class="st1" d="M299.09,35.84c-0.59,0.18-1.28,0.21-2.13,0.22c0.85,0.38,1.29,0.99,1.29,1.89c0,1.44-1.04,2.48-2.77,2.48
		c-0.34,0-0.64-0.04-0.94-0.14c-0.25,0.17-0.41,0.43-0.41,0.73c0,0.35,0.22,0.63,1.01,0.63h1.18c1.5,0,2.48,0.85,2.48,2
		c0,1.42-1.13,2.21-3.39,2.21c-2.37,0-3.14-0.71-3.14-2.2h1.06c0,0.88,0.42,1.27,2.07,1.27c1.62,0,2.2-0.43,2.2-1.2
		c0-0.73-0.57-1.09-1.53-1.09h-1.16c-1.29,0-1.88-0.64-1.88-1.37c0-0.49,0.28-0.95,0.8-1.29c-0.84-0.45-1.23-1.09-1.23-2.06
		c0-1.5,1.18-2.55,2.8-2.55c1.86,0.04,2.51-0.24,3.33-0.62L299.09,35.84z M293.8,37.93c0,1.04,0.59,1.72,1.62,1.72
		c1.05,0,1.61-0.63,1.61-1.72c0-1.09-0.55-1.69-1.64-1.69C294.35,36.23,293.8,36.95,293.8,37.93z"/>
	<path class="st1" d="M310.24,39.22c0,2.33-1.08,3.87-2.87,3.87c-0.84,0-1.49-0.39-1.99-0.99l-0.13,0.83h-1.02V32.58l1.18-0.14v4.05
		c0.5-0.69,1.2-1.11,2.11-1.11C309.19,35.38,310.24,36.77,310.24,39.22z M308.98,39.22c0-2.11-0.7-2.9-1.78-2.9
		c-0.84,0-1.4,0.56-1.79,1.18v3.63c0.39,0.6,0.99,1.02,1.69,1.02C308.23,42.14,308.98,41.26,308.98,39.22z"/>
	<path class="st1" d="M315.27,42.96c-0.52,1.57-1.34,2.66-3.32,2.91l-0.14-0.92c1.5-0.28,1.9-0.85,2.34-2.03h-0.41l-2.49-7.37h1.26
		l2.03,6.51l1.99-6.51h1.22L315.27,42.96z"/>
	<path class="st1" d="M332.34,37.63v5.28h-1.18V37.8c0-1.13-0.48-1.5-1.08-1.5c-0.83,0-1.3,0.55-1.82,1.36v5.25h-1.18V37.8
		c0-1.13-0.48-1.5-1.08-1.5c-0.81,0-1.3,0.55-1.81,1.36v5.25h-1.18v-7.37h1.01l0.1,1.11c0.52-0.76,1.2-1.27,2.16-1.27
		c0.92,0,1.58,0.52,1.85,1.37c0.53-0.81,1.23-1.37,2.23-1.37C331.57,35.38,332.34,36.25,332.34,37.63z"/>
	<path class="st1" d="M340.5,42.26l-0.28,0.83c-0.71-0.1-1.18-0.39-1.37-1.13c-0.52,0.78-1.3,1.13-2.21,1.13
		c-1.46,0-2.33-0.91-2.33-2.23c0-1.57,1.18-2.41,3.19-2.41h1.2v-0.59c0-1.09-0.52-1.51-1.58-1.51c-0.56,0-1.23,0.14-1.99,0.41
		l-0.29-0.87c0.88-0.34,1.68-0.5,2.49-0.5c1.75,0,2.55,0.9,2.55,2.42v3.42C339.88,41.91,340.1,42.12,340.5,42.26z M338.7,40.98
		v-1.75h-1.05c-1.37,0-2.1,0.52-2.1,1.57c0,0.9,0.46,1.39,1.34,1.39C337.69,42.19,338.28,41.78,338.7,40.98z"/>
	<path class="st1" d="M348.6,39.22c0,2.26-0.98,3.87-2.87,3.87c-0.83,0-1.5-0.29-1.96-0.87v3.52l-1.18,0.14V35.55h1.01l0.1,1.02
		c0.53-0.76,1.32-1.19,2.18-1.19C347.82,35.38,348.6,36.88,348.6,39.22z M347.34,39.22c0-1.96-0.59-2.9-1.74-2.9
		c-0.81,0-1.43,0.56-1.83,1.18v3.68c0.39,0.59,0.98,0.94,1.69,0.94C346.68,42.12,347.34,41.19,347.34,39.22z"/>
	<path class="st1" d="M360.56,39.22c0,2.31-1.19,3.87-3.25,3.87c-2.06,0-3.24-1.5-3.24-3.84c0-2.31,1.19-3.87,3.25-3.87
		C359.39,35.38,360.56,36.86,360.56,39.22z M355.33,39.24c0,1.95,0.7,2.89,1.98,2.89c1.27,0,1.99-0.94,1.99-2.91
		c0-1.95-0.7-2.89-1.98-2.89C356.06,36.33,355.33,37.27,355.33,39.24z"/>
	<path class="st1" d="M368.16,42.91h-1.01l-0.1-1.19c-0.55,0.9-1.25,1.36-2.31,1.36c-1.3,0-2.06-0.81-2.06-2.25v-5.28h1.18v5.15
		c0,1.05,0.36,1.44,1.2,1.44c0.84,0,1.46-0.55,1.92-1.32v-5.28h1.18V42.91z"/>
	<path class="st1" d="M374.51,42.59c-0.48,0.32-1.01,0.49-1.62,0.49c-1.22,0-1.95-0.71-1.95-2.06v-4.57h-1.27v-0.91h1.27v-1.69
		l1.18-0.13v1.82h1.78l-0.13,0.91h-1.65v4.51c0,0.77,0.27,1.13,0.92,1.13c0.35,0,0.66-0.1,1.02-0.31L374.51,42.59z"/>
	<path class="st1" d="M377.06,42.17c0,0.29-0.07,0.56-0.24,0.94l-0.91,2.09h-0.84l0.56-2.27c-0.22-0.17-0.38-0.45-0.38-0.76
		c0-0.49,0.39-0.9,0.9-0.9C376.68,41.28,377.06,41.68,377.06,42.17z"/>
	<path class="st1" d="M388.4,42.26l-0.28,0.83c-0.71-0.1-1.18-0.39-1.37-1.13c-0.52,0.78-1.3,1.13-2.21,1.13
		c-1.46,0-2.33-0.91-2.33-2.23c0-1.57,1.18-2.41,3.19-2.41h1.2v-0.59c0-1.09-0.52-1.51-1.58-1.51c-0.56,0-1.23,0.14-1.99,0.41
		l-0.29-0.87c0.88-0.34,1.68-0.5,2.49-0.5c1.75,0,2.55,0.9,2.55,2.42v3.42C387.79,41.91,388.01,42.12,388.4,42.26z M386.61,40.98
		v-1.75h-1.05c-1.37,0-2.1,0.52-2.1,1.57c0,0.9,0.46,1.39,1.34,1.39C385.6,42.19,386.19,41.78,386.61,40.98z"/>
	<path class="st1" d="M396.03,37.63v5.28h-1.18V37.8c0-1.13-0.46-1.5-1.22-1.5c-0.87,0-1.46,0.55-1.96,1.36v5.25h-1.18v-7.37h1.01
		l0.1,1.11c0.55-0.76,1.32-1.27,2.31-1.27C395.26,35.38,396.03,36.23,396.03,37.63z"/>
	<path class="st1" d="M404.28,32.58v10.34h-1.02l-0.13-1.04c-0.46,0.73-1.21,1.2-2.14,1.2c-1.78,0-2.77-1.51-2.77-3.82
		c0-2.26,1.08-3.88,2.89-3.88c0.9,0,1.53,0.42,2,0.92v-3.87L404.28,32.58z M403.1,40.98v-3.67c-0.45-0.6-0.98-0.99-1.75-0.99
		c-1.15,0-1.88,0.97-1.88,2.93s0.64,2.9,1.75,2.9C402.08,42.14,402.61,41.72,403.1,40.98z"/>
	<path class="st1" d="M84.82,54.71h-2.7v8.6h-1.21v-8.6h-2.77v-1.04h6.82L84.82,54.71z"/>
	<path class="st1" d="M89.89,55.86l-0.21,1.15c-0.22-0.06-0.38-0.08-0.64-0.08c-0.94,0-1.47,0.66-1.81,2.07v4.31h-1.18v-7.37h1.01
		l0.11,1.54c0.39-1.13,1.08-1.71,1.99-1.71C89.41,55.78,89.68,55.81,89.89,55.86z"/>
	<path class="st1" d="M96.44,60.04h-4.75c0.13,1.78,0.94,2.48,2.06,2.48c0.74,0,1.29-0.21,1.93-0.66l0.52,0.7
		c-0.71,0.57-1.53,0.92-2.54,0.92c-2.03,0-3.22-1.44-3.22-3.78c0-2.31,1.15-3.92,3.03-3.92c1.98,0,3,1.39,3,3.61
		C96.47,59.65,96.45,59.88,96.44,60.04z M95.3,59.06c0-1.48-0.59-2.34-1.81-2.34c-1.02,0-1.71,0.73-1.81,2.45h3.61V59.06z"/>
	<path class="st1" d="M101.32,63.31H99.9l-2.56-7.37h1.29l2,6.32l1.98-6.32h1.25L101.32,63.31z"/>
	<path class="st1" d="M111.27,59.62c0,2.31-1.19,3.87-3.25,3.87s-3.24-1.5-3.24-3.84c0-2.31,1.19-3.87,3.25-3.87
		C110.1,55.78,111.27,57.26,111.27,59.62z M106.04,59.65c0,1.95,0.7,2.89,1.98,2.89c1.27,0,1.99-0.94,1.99-2.91
		c0-1.95-0.7-2.89-1.98-2.89C106.77,56.73,106.04,57.67,106.04,59.65z"/>
	<path class="st1" d="M117.3,55.86l-0.21,1.15c-0.22-0.06-0.38-0.08-0.64-0.08c-0.94,0-1.47,0.66-1.81,2.07v4.31h-1.18v-7.37h1.01
		l0.11,1.54c0.39-1.13,1.08-1.71,1.99-1.71C116.82,55.78,117.09,55.81,117.3,55.86z"/>
	<path class="st1" d="M129.19,63.31h-1.61l-1.36-6.3l-1.4,6.3h-1.57l-1.75-7.37h1.19l1.39,6.54l1.51-6.54h1.32l1.46,6.54l1.4-6.54
		h1.12L129.19,63.31z"/>
	<path class="st1" d="M138.09,58.03v5.28h-1.18V58.2c0-1.13-0.48-1.5-1.23-1.5c-0.84,0-1.44,0.55-1.95,1.34v5.27h-1.18V52.99
		l1.18-0.14V57c0.55-0.74,1.29-1.22,2.24-1.22C137.3,55.78,138.09,56.65,138.09,58.03z"/>
	<path class="st1" d="M146.69,59.62c0,2.31-1.19,3.87-3.25,3.87s-3.24-1.5-3.24-3.84c0-2.31,1.19-3.87,3.25-3.87
		C145.52,55.78,146.69,57.26,146.69,59.62z M141.46,59.65c0,1.95,0.7,2.89,1.98,2.89c1.27,0,1.99-0.94,1.99-2.91
		c0-1.95-0.7-2.89-1.98-2.89C142.19,56.73,141.46,57.67,141.46,59.65z"/>
	<path class="st1" d="M158.22,52.98v10.34h-1.02l-0.13-1.04c-0.46,0.73-1.2,1.2-2.14,1.2c-1.78,0-2.77-1.51-2.77-3.82
		c0-2.26,1.08-3.88,2.89-3.88c0.9,0,1.53,0.42,2,0.92v-3.87L158.22,52.98z M157.04,61.38v-3.67c-0.45-0.6-0.98-0.99-1.75-0.99
		c-1.15,0-1.88,0.97-1.88,2.93s0.64,2.9,1.75,2.9C156.02,62.54,156.55,62.12,157.04,61.38z"/>
	<path class="st1" d="M162.38,53.29c0,0.46-0.34,0.81-0.84,0.81c-0.49,0-0.83-0.35-0.83-0.81c0-0.46,0.34-0.81,0.83-0.81
		C162.04,52.47,162.38,52.82,162.38,53.29z M162.14,63.31h-1.18v-7.37h1.18V63.31z"/>
	<path class="st1" d="M170.46,52.98v10.34h-1.02l-0.13-1.04c-0.46,0.73-1.2,1.2-2.14,1.2c-1.78,0-2.77-1.51-2.77-3.82
		c0-2.26,1.08-3.88,2.89-3.88c0.9,0,1.53,0.42,2,0.92v-3.87L170.46,52.98z M169.28,61.38v-3.67c-0.45-0.6-0.98-0.99-1.75-0.99
		c-1.15,0-1.88,0.97-1.88,2.93s0.64,2.9,1.75,2.9C168.26,62.54,168.79,62.12,169.28,61.38z"/>
	<path class="st1" d="M180.58,62.99c-0.48,0.32-1.01,0.49-1.62,0.49c-1.22,0-1.95-0.71-1.95-2.06v-4.57h-1.27v-0.91H177v-1.69
		l1.18-0.13v1.82h1.78l-0.13,0.91h-1.65v4.51c0,0.77,0.27,1.13,0.92,1.13c0.35,0,0.66-0.1,1.02-0.31L180.58,62.99z"/>
	<path class="st1" d="M187.47,58.03v5.28h-1.18V58.2c0-1.13-0.48-1.5-1.23-1.5c-0.84,0-1.44,0.55-1.95,1.34v5.27h-1.18V52.99
		l1.18-0.14V57c0.55-0.74,1.29-1.22,2.24-1.22C186.68,55.78,187.47,56.65,187.47,58.03z"/>
	<path class="st1" d="M195.57,60.04h-4.75c0.13,1.78,0.94,2.48,2.06,2.48c0.74,0,1.29-0.21,1.93-0.66l0.52,0.7
		c-0.71,0.57-1.53,0.92-2.54,0.92c-2.03,0-3.22-1.44-3.22-3.78c0-2.31,1.15-3.92,3.03-3.92c1.98,0,3,1.39,3,3.61
		C195.6,59.65,195.58,59.88,195.57,60.04z M194.44,59.06c0-1.48-0.59-2.34-1.81-2.34c-1.02,0-1.71,0.73-1.81,2.45h3.61V59.06z"/>
	<path class="st1" d="M208.09,63.31h-1.61l-1.36-6.3l-1.4,6.3h-1.57l-1.75-7.37h1.19l1.39,6.54l1.51-6.54h1.32l1.46,6.54l1.4-6.54
		h1.12L208.09,63.31z"/>
	<path class="st1" d="M217.4,59.62c0,2.31-1.19,3.87-3.25,3.87c-2.06,0-3.24-1.5-3.24-3.84c0-2.31,1.19-3.87,3.25-3.87
		C216.23,55.78,217.4,57.26,217.4,59.62z M212.17,59.65c0,1.95,0.7,2.89,1.98,2.89s1.99-0.94,1.99-2.91c0-1.95-0.7-2.89-1.98-2.89
		C212.9,56.73,212.17,57.67,212.17,59.65z"/>
	<path class="st1" d="M223.43,55.86l-0.21,1.15c-0.22-0.06-0.38-0.08-0.64-0.08c-0.94,0-1.47,0.66-1.81,2.07v4.31h-1.18v-7.37h1.01
		l0.11,1.54c0.39-1.13,1.08-1.71,1.99-1.71C222.95,55.78,223.22,55.81,223.43,55.86z"/>
	<path class="st1" d="M226.13,63.31h-1.18V52.98l1.18-0.14V63.31z M227.53,59.21l3.12,4.1h-1.41l-3.03-4.02l2.8-3.35h1.32
		L227.53,59.21z"/>
	<path class="st1" d="M237.08,54.88v1.06h1.82l-0.13,0.91h-1.7v6.46h-1.18v-6.46h-1.3v-0.91h1.3V54.9c0-1.22,0.8-2.06,2.24-2.06
		c0.69,0,1.18,0.13,1.75,0.38l-0.38,0.85c-0.48-0.21-0.91-0.28-1.3-0.28C237.39,53.79,237.08,54.14,237.08,54.88z"/>
	<path class="st1" d="M244.28,55.86l-0.21,1.15c-0.22-0.06-0.38-0.08-0.64-0.08c-0.94,0-1.47,0.66-1.81,2.07v4.31h-1.18v-7.37h1.01
		l0.11,1.54c0.39-1.13,1.08-1.71,1.99-1.71C243.8,55.78,244.07,55.81,244.28,55.86z"/>
	<path class="st1" d="M250.8,62.66l-0.28,0.83c-0.71-0.1-1.18-0.39-1.37-1.13c-0.52,0.78-1.3,1.13-2.21,1.13
		c-1.46,0-2.33-0.91-2.33-2.23c0-1.57,1.18-2.41,3.19-2.41h1.21v-0.59c0-1.09-0.52-1.51-1.58-1.51c-0.56,0-1.23,0.14-1.99,0.41
		l-0.29-0.87c0.88-0.34,1.68-0.5,2.49-0.5c1.75,0,2.55,0.9,2.55,2.42v3.42C250.18,62.31,250.41,62.52,250.8,62.66z M249.01,61.38
		v-1.75h-1.05c-1.37,0-2.1,0.52-2.1,1.57c0,0.9,0.46,1.39,1.34,1.39C248,62.59,248.59,62.18,249.01,61.38z"/>
	<path class="st1" d="M262.21,58.03v5.28h-1.18V58.2c0-1.13-0.48-1.5-1.08-1.5c-0.83,0-1.3,0.55-1.82,1.36v5.25h-1.18V58.2
		c0-1.13-0.48-1.5-1.08-1.5c-0.81,0-1.3,0.55-1.81,1.36v5.25h-1.18v-7.37h1.01l0.1,1.11c0.52-0.76,1.21-1.27,2.16-1.27
		c0.92,0,1.58,0.52,1.85,1.37c0.53-0.81,1.23-1.37,2.23-1.37C261.44,55.78,262.21,56.65,262.21,58.03z"/>
	<path class="st1" d="M266.3,53.29c0,0.46-0.34,0.81-0.84,0.81c-0.49,0-0.83-0.35-0.83-0.81c0-0.46,0.34-0.81,0.83-0.81
		C265.96,52.47,266.3,52.82,266.3,53.29z M266.06,63.31h-1.18v-7.37h1.18V63.31z"/>
	<path class="st1" d="M274.32,58.03v5.28h-1.18V58.2c0-1.13-0.46-1.5-1.22-1.5c-0.87,0-1.46,0.55-1.96,1.36v5.25h-1.18v-7.37h1.01
		l0.1,1.11c0.55-0.76,1.32-1.27,2.31-1.27C273.55,55.78,274.32,56.63,274.32,58.03z"/>
	<path class="st1" d="M282.8,56.24c-0.59,0.18-1.28,0.21-2.13,0.22c0.85,0.38,1.29,0.99,1.29,1.89c0,1.44-1.04,2.48-2.77,2.48
		c-0.34,0-0.64-0.04-0.94-0.14c-0.25,0.17-0.41,0.43-0.41,0.73c0,0.35,0.22,0.63,1.01,0.63h1.18c1.5,0,2.48,0.85,2.48,2
		c0,1.42-1.13,2.21-3.39,2.21c-2.37,0-3.14-0.71-3.14-2.2h1.06c0,0.88,0.42,1.27,2.07,1.27c1.62,0,2.2-0.43,2.2-1.2
		c0-0.73-0.57-1.09-1.53-1.09h-1.16c-1.29,0-1.88-0.64-1.88-1.37c0-0.49,0.28-0.95,0.8-1.29c-0.84-0.45-1.23-1.09-1.23-2.06
		c0-1.5,1.18-2.55,2.8-2.55c1.86,0.04,2.51-0.24,3.33-0.62L282.8,56.24z M277.52,58.33c0,1.04,0.59,1.72,1.62,1.72
		c1.05,0,1.61-0.63,1.61-1.72c0-1.09-0.55-1.69-1.64-1.69C278.07,56.63,277.52,57.35,277.52,58.33z"/>
	<path class="st1" d="M289.37,53.29c0,0.46-0.34,0.81-0.84,0.81c-0.49,0-0.83-0.35-0.83-0.81c0-0.46,0.34-0.81,0.83-0.81
		C289.03,52.47,289.37,52.82,289.37,53.29z M289.13,63.31h-1.18v-7.37h1.18V63.31z"/>
	<path class="st1" d="M297.39,58.03v5.28h-1.18V58.2c0-1.13-0.46-1.5-1.22-1.5c-0.87,0-1.46,0.55-1.96,1.36v5.25h-1.18v-7.37h1.01
		l0.1,1.11c0.55-0.76,1.32-1.27,2.31-1.27C296.62,55.78,297.39,56.63,297.39,58.03z"/>
	<path class="st1" d="M309.29,62.66l-0.28,0.83c-0.71-0.1-1.18-0.39-1.37-1.13c-0.52,0.78-1.3,1.13-2.21,1.13
		c-1.46,0-2.33-0.91-2.33-2.23c0-1.57,1.18-2.41,3.19-2.41h1.2v-0.59c0-1.09-0.52-1.51-1.58-1.51c-0.56,0-1.23,0.14-1.99,0.41
		l-0.29-0.87c0.88-0.34,1.68-0.5,2.49-0.5c1.75,0,2.55,0.9,2.55,2.42v3.42C308.67,62.31,308.9,62.52,309.29,62.66z M307.5,61.38
		v-1.75h-1.05c-1.37,0-2.1,0.52-2.1,1.57c0,0.9,0.46,1.39,1.34,1.39C306.49,62.59,307.08,62.18,307.5,61.38z"/>
	<path class="st1" d="M321.75,63.31h-1.61l-1.36-6.3l-1.4,6.3h-1.57l-1.75-7.37h1.19l1.39,6.54l1.51-6.54h1.32l1.46,6.54l1.4-6.54
		h1.12L321.75,63.31z"/>
	<path class="st1" d="M330.45,62.66l-0.28,0.83c-0.71-0.1-1.18-0.39-1.37-1.13c-0.52,0.78-1.3,1.13-2.21,1.13
		c-1.46,0-2.33-0.91-2.33-2.23c0-1.57,1.18-2.41,3.19-2.41h1.2v-0.59c0-1.09-0.52-1.51-1.58-1.51c-0.56,0-1.23,0.14-1.99,0.41
		l-0.29-0.87c0.88-0.34,1.68-0.5,2.49-0.5c1.75,0,2.55,0.9,2.55,2.42v3.42C329.83,62.31,330.05,62.52,330.45,62.66z M328.65,61.38
		v-1.75h-1.05c-1.37,0-2.1,0.52-2.1,1.57c0,0.9,0.46,1.39,1.34,1.39C327.64,62.59,328.23,62.18,328.65,61.38z"/>
	<path class="st1" d="M332.33,61.91v-8.94l1.18-0.14v9.05c0,0.41,0.14,0.62,0.49,0.62c0.18,0,0.34-0.03,0.48-0.08l0.31,0.83
		c-0.27,0.14-0.62,0.24-0.98,0.24C332.91,63.48,332.33,62.94,332.33,61.91z"/>
	<path class="st1" d="M336.41,61.91v-8.94l1.18-0.14v9.05c0,0.41,0.14,0.62,0.49,0.62c0.18,0,0.34-0.03,0.48-0.08l0.31,0.83
		c-0.27,0.14-0.62,0.24-0.98,0.24C336.98,63.48,336.41,62.94,336.41,61.91z"/>
	<path class="st1" d="M349.79,62.66l-0.28,0.83c-0.71-0.1-1.18-0.39-1.37-1.13c-0.52,0.78-1.3,1.13-2.21,1.13
		c-1.46,0-2.33-0.91-2.33-2.23c0-1.57,1.18-2.41,3.19-2.41h1.2v-0.59c0-1.09-0.52-1.51-1.58-1.51c-0.56,0-1.23,0.14-1.99,0.41
		l-0.29-0.87c0.88-0.34,1.68-0.5,2.49-0.5c1.75,0,2.55,0.9,2.55,2.42v3.42C349.18,62.31,349.4,62.52,349.79,62.66z M348,61.38v-1.75
		h-1.05c-1.37,0-2.1,0.52-2.1,1.57c0,0.9,0.46,1.39,1.34,1.39C346.99,62.59,347.58,62.18,348,61.38z"/>
	<path class="st1" d="M357.42,58.03v5.28h-1.18V58.2c0-1.13-0.46-1.5-1.22-1.5c-0.87,0-1.46,0.55-1.96,1.36v5.25h-1.18v-7.37h1.01
		l0.1,1.11c0.55-0.76,1.32-1.27,2.31-1.27C356.65,55.78,357.42,56.63,357.42,58.03z"/>
	<path class="st1" d="M365.67,52.98v10.34h-1.02l-0.13-1.04c-0.46,0.73-1.21,1.2-2.14,1.2c-1.78,0-2.77-1.51-2.77-3.82
		c0-2.26,1.08-3.88,2.89-3.88c0.9,0,1.53,0.42,2,0.92v-3.87L365.67,52.98z M364.49,61.38v-3.67c-0.45-0.6-0.98-0.99-1.75-0.99
		c-1.15,0-1.88,0.97-1.88,2.93s0.64,2.9,1.75,2.9C363.47,62.54,364,62.12,364.49,61.38z"/>
	<path class="st1" d="M84.16,76.96l-0.57,0.74c-0.49-0.36-0.97-0.55-1.6-0.55c-1.2,0-1.98,0.94-1.98,2.91c0,1.96,0.77,2.8,1.98,2.8
		c0.63,0,1.08-0.2,1.62-0.57l0.55,0.77c-0.63,0.53-1.37,0.81-2.21,0.81c-1.96,0-3.19-1.42-3.19-3.8c0-2.35,1.22-3.91,3.19-3.91
		C82.8,76.18,83.49,76.4,84.16,76.96z"/>
	<path class="st1" d="M85.89,82.31v-8.94l1.18-0.14v9.05c0,0.41,0.14,0.62,0.49,0.62c0.18,0,0.34-0.03,0.48-0.08l0.31,0.83
		c-0.27,0.14-0.62,0.24-0.98,0.24C86.47,83.88,85.89,83.34,85.89,82.31z"/>
	<path class="st1" d="M95.91,80.02c0,2.31-1.19,3.87-3.25,3.87s-3.24-1.5-3.24-3.84c0-2.31,1.19-3.87,3.25-3.87
		C94.75,76.18,95.91,77.66,95.91,80.02z M90.68,80.04c0,1.95,0.7,2.89,1.98,2.89c1.27,0,1.99-0.94,1.99-2.91
		c0-1.95-0.7-2.89-1.98-2.89C91.41,77.13,90.68,78.07,90.68,80.04z"/>
	<path class="st1" d="M102.51,77.02l-0.5,0.74c-0.66-0.43-1.22-0.64-1.92-0.64c-0.87,0-1.43,0.41-1.43,1.04
		c0,0.63,0.42,0.91,1.64,1.23c1.56,0.41,2.42,0.99,2.42,2.28c0,1.5-1.36,2.21-2.84,2.21c-1.25,0-2.12-0.41-2.76-0.97l0.63-0.71
		c0.6,0.45,1.27,0.73,2.1,0.73c0.98,0,1.64-0.45,1.64-1.19c0-0.77-0.38-1.05-1.83-1.44c-1.58-0.42-2.21-1.08-2.21-2.12
		c0-1.16,1.11-2,2.61-2C101.06,76.18,101.81,76.49,102.51,77.02z"/>
	<path class="st1" d="M110.08,80.44h-4.75c0.13,1.78,0.94,2.48,2.06,2.48c0.74,0,1.29-0.21,1.93-0.66l0.52,0.7
		c-0.71,0.58-1.53,0.92-2.54,0.92c-2.03,0-3.22-1.44-3.22-3.78c0-2.31,1.15-3.92,3.03-3.92c1.98,0,3,1.39,3,3.61
		C110.1,80.04,110.09,80.28,110.08,80.44z M108.94,79.46c0-1.48-0.59-2.34-1.81-2.34c-1.02,0-1.71,0.73-1.81,2.45h3.61V79.46z"/>
	<path class="st1" d="M115.86,83.39c-0.48,0.32-1.01,0.49-1.62,0.49c-1.22,0-1.95-0.71-1.95-2.06v-4.57h-1.27v-0.91h1.27v-1.69
		l1.18-0.13v1.82h1.78l-0.13,0.91h-1.65v4.51c0,0.77,0.27,1.13,0.92,1.13c0.35,0,0.66-0.1,1.02-0.31L115.86,83.39z"/>
	<path class="st1" d="M122.25,75.28v1.06h1.82l-0.13,0.91h-1.69v6.46h-1.18v-6.46h-1.3v-0.91h1.3V75.3c0-1.22,0.8-2.06,2.24-2.06
		c0.69,0,1.18,0.13,1.75,0.38l-0.38,0.85c-0.48-0.21-0.91-0.28-1.3-0.28C122.56,74.19,122.25,74.54,122.25,75.28z"/>
	<path class="st1" d="M131.41,80.02c0,2.31-1.19,3.87-3.25,3.87s-3.24-1.5-3.24-3.84c0-2.31,1.19-3.87,3.25-3.87
		C130.25,76.18,131.41,77.66,131.41,80.02z M126.19,80.04c0,1.95,0.7,2.89,1.98,2.89c1.27,0,1.99-0.94,1.99-2.91
		c0-1.95-0.7-2.89-1.98-2.89C126.91,77.13,126.19,78.07,126.19,80.04z"/>
	<path class="st1" d="M137.44,76.26l-0.21,1.15c-0.22-0.06-0.38-0.08-0.64-0.08c-0.94,0-1.47,0.66-1.81,2.07v4.31h-1.18v-7.37h1.01
		l0.11,1.54c0.39-1.13,1.08-1.71,1.99-1.71C136.97,76.18,137.23,76.21,137.44,76.26z"/>
	<path class="st1" d="M148.21,83.06l-0.28,0.83c-0.71-0.1-1.18-0.39-1.37-1.13c-0.52,0.79-1.3,1.13-2.21,1.13
		c-1.46,0-2.33-0.91-2.33-2.23c0-1.57,1.18-2.41,3.19-2.41h1.2v-0.59c0-1.09-0.52-1.51-1.58-1.51c-0.56,0-1.23,0.14-1.99,0.41
		l-0.29-0.87c0.88-0.34,1.68-0.5,2.49-0.5c1.75,0,2.55,0.9,2.55,2.42v3.42C147.59,82.71,147.82,82.92,148.21,83.06z M146.42,81.78
		v-1.75h-1.05c-1.37,0-2.1,0.52-2.1,1.57c0,0.9,0.46,1.39,1.34,1.39C145.41,82.99,146,82.58,146.42,81.78z"/>
	<path class="st1" d="M158.47,77.02l-0.5,0.74c-0.66-0.43-1.22-0.64-1.92-0.64c-0.87,0-1.43,0.41-1.43,1.04
		c0,0.63,0.42,0.91,1.64,1.23c1.56,0.41,2.42,0.99,2.42,2.28c0,1.5-1.36,2.21-2.84,2.21c-1.25,0-2.12-0.41-2.76-0.97l0.63-0.71
		c0.6,0.45,1.27,0.73,2.1,0.73c0.98,0,1.64-0.45,1.64-1.19c0-0.77-0.38-1.05-1.83-1.44c-1.58-0.42-2.21-1.08-2.21-2.12
		c0-1.16,1.11-2,2.61-2C157.01,76.18,157.77,76.49,158.47,77.02z"/>
	<path class="st1" d="M166.03,80.44h-4.75c0.13,1.78,0.94,2.48,2.06,2.48c0.74,0,1.29-0.21,1.93-0.66l0.52,0.7
		c-0.71,0.58-1.53,0.92-2.54,0.92c-2.03,0-3.22-1.44-3.22-3.78c0-2.31,1.15-3.92,3.03-3.92c1.98,0,3,1.39,3,3.61
		C166.06,80.04,166.05,80.28,166.03,80.44z M164.9,79.46c0-1.48-0.59-2.34-1.81-2.34c-1.02,0-1.71,0.73-1.81,2.45h3.61V79.46z"/>
	<path class="st1" d="M173.05,76.96l-0.57,0.74c-0.49-0.36-0.97-0.55-1.6-0.55c-1.2,0-1.98,0.94-1.98,2.91c0,1.96,0.77,2.8,1.98,2.8
		c0.63,0,1.08-0.2,1.62-0.57l0.55,0.77c-0.63,0.53-1.37,0.81-2.21,0.81c-1.96,0-3.19-1.42-3.19-3.8c0-2.35,1.22-3.91,3.19-3.91
		C171.69,76.18,172.37,76.4,173.05,76.96z"/>
	<path class="st1" d="M180.52,80.02c0,2.31-1.19,3.87-3.25,3.87s-3.24-1.5-3.24-3.84c0-2.31,1.19-3.87,3.25-3.87
		C179.36,76.18,180.52,77.66,180.52,80.02z M175.3,80.04c0,1.95,0.7,2.89,1.98,2.89c1.27,0,1.99-0.94,1.99-2.91
		c0-1.95-0.7-2.89-1.98-2.89C176.03,77.13,175.3,78.07,175.3,80.04z"/>
	<path class="st1" d="M188.25,78.43v5.28h-1.18V78.6c0-1.13-0.46-1.5-1.22-1.5c-0.87,0-1.46,0.55-1.96,1.36v5.25h-1.18v-7.37h1.01
		l0.1,1.11c0.55-0.76,1.32-1.27,2.31-1.27C187.48,76.18,188.25,77.03,188.25,78.43z"/>
	<path class="st1" d="M196.5,73.38v10.34h-1.02l-0.13-1.04c-0.46,0.73-1.2,1.2-2.14,1.2c-1.78,0-2.77-1.51-2.77-3.82
		c0-2.25,1.08-3.88,2.89-3.88c0.9,0,1.53,0.42,2,0.92v-3.87L196.5,73.38z M195.32,81.78v-3.67c-0.45-0.6-0.98-1-1.75-1
		c-1.15,0-1.88,0.97-1.88,2.93s0.64,2.9,1.75,2.9C194.3,82.94,194.83,82.52,195.32,81.78z"/>
	<path class="st1" d="M209,80.02c0,2.33-1.08,3.87-2.87,3.87c-0.84,0-1.48-0.39-1.99-0.99l-0.13,0.83h-1.02V73.38l1.18-0.14v4.05
		c0.5-0.69,1.2-1.11,2.12-1.11C207.95,76.18,209,77.57,209,80.02z M207.74,80.02c0-2.12-0.7-2.9-1.78-2.9
		c-0.84,0-1.4,0.56-1.79,1.18v3.63c0.39,0.6,0.99,1.02,1.69,1.02C206.98,82.94,207.74,82.06,207.74,80.02z"/>
	<path class="st1" d="M216.71,80.44h-4.75c0.13,1.78,0.94,2.48,2.06,2.48c0.74,0,1.29-0.21,1.93-0.66l0.52,0.7
		c-0.71,0.58-1.53,0.92-2.54,0.92c-2.03,0-3.22-1.44-3.22-3.78c0-2.31,1.15-3.92,3.03-3.92c1.97,0,3,1.39,3,3.61
		C216.74,80.04,216.73,80.28,216.71,80.44z M215.58,79.46c0-1.48-0.59-2.34-1.81-2.34c-1.02,0-1.71,0.73-1.81,2.45h3.61V79.46z"/>
	<path class="st1" d="M224.45,73.38v10.34h-1.02l-0.13-1.04c-0.46,0.73-1.2,1.2-2.14,1.2c-1.78,0-2.77-1.51-2.77-3.82
		c0-2.25,1.08-3.88,2.89-3.88c0.9,0,1.53,0.42,2,0.92v-3.87L224.45,73.38z M223.28,81.78v-3.67c-0.45-0.6-0.98-1-1.75-1
		c-1.15,0-1.88,0.97-1.88,2.93s0.64,2.9,1.75,2.9C222.25,82.94,222.79,82.52,223.28,81.78z"/>
	<path class="st1" d="M231.03,76.26l-0.21,1.15c-0.22-0.06-0.38-0.08-0.64-0.08c-0.94,0-1.47,0.66-1.81,2.07v4.31h-1.18v-7.37h1.01
		l0.11,1.54c0.39-1.13,1.08-1.71,1.99-1.71C230.56,76.18,230.82,76.21,231.03,76.26z"/>
	<path class="st1" d="M238.08,80.02c0,2.31-1.19,3.87-3.25,3.87c-2.06,0-3.24-1.5-3.24-3.84c0-2.31,1.19-3.87,3.25-3.87
		C236.91,76.18,238.08,77.66,238.08,80.02z M232.85,80.04c0,1.95,0.7,2.89,1.97,2.89c1.28,0,1.99-0.94,1.99-2.91
		c0-1.95-0.7-2.89-1.97-2.89C233.58,77.13,232.85,78.07,232.85,80.04z"/>
	<path class="st1" d="M246.21,80.02c0,2.31-1.19,3.87-3.25,3.87c-2.06,0-3.24-1.5-3.24-3.84c0-2.31,1.19-3.87,3.25-3.87
		C245.05,76.18,246.21,77.66,246.21,80.02z M240.98,80.04c0,1.95,0.7,2.89,1.97,2.89c1.28,0,1.99-0.94,1.99-2.91
		c0-1.95-0.7-2.89-1.97-2.89C241.71,77.13,240.98,78.07,240.98,80.04z"/>
	<path class="st1" d="M257.72,78.43v5.28h-1.18V78.6c0-1.13-0.48-1.5-1.08-1.5c-0.83,0-1.3,0.55-1.82,1.36v5.25h-1.18V78.6
		c0-1.13-0.48-1.5-1.08-1.5c-0.81,0-1.3,0.55-1.81,1.36v5.25h-1.18v-7.37h1.01l0.1,1.11c0.52-0.76,1.2-1.27,2.16-1.27
		c0.92,0,1.58,0.52,1.85,1.37c0.53-0.81,1.23-1.37,2.23-1.37C256.95,76.18,257.72,77.05,257.72,78.43z"/>
	<path class="st1" d="M261.54,82.97c0,0.29-0.07,0.56-0.24,0.94L260.39,86h-0.84l0.56-2.27c-0.22-0.17-0.38-0.45-0.38-0.76
		c0-0.49,0.39-0.9,0.9-0.9C261.16,82.08,261.54,82.48,261.54,82.97z"/>
	<path class="st1" d="M271.88,73.74l-0.42,0.83c-0.48-0.24-0.99-0.38-1.6-0.38c-1.01,0-1.32,0.38-1.32,1.13v1.02h4.12v7.37h-1.18
		v-6.46h-2.94v6.46h-1.18v-6.46h-1.18v-0.91h1.18v-1.02c0-1.23,0.76-2.09,2.45-2.09C270.65,73.24,271.28,73.43,271.88,73.74z"/>
	<path class="st1" d="M280.93,78.43v5.28h-1.18V78.6c0-1.13-0.46-1.5-1.22-1.5c-0.87,0-1.46,0.55-1.96,1.36v5.25h-1.18v-7.37h1.01
		l0.1,1.11c0.55-0.76,1.32-1.27,2.31-1.27C280.16,76.18,280.93,77.03,280.93,78.43z"/>
	<path class="st1" d="M285,73.69c0,0.46-0.34,0.81-0.84,0.81c-0.49,0-0.83-0.35-0.83-0.81c0-0.46,0.34-0.81,0.83-0.81
		C284.66,72.87,285,73.22,285,73.69z M284.76,83.71h-1.18v-7.37h1.18V83.71z"/>
	<path class="st1" d="M291.9,77.02l-0.5,0.74c-0.66-0.43-1.22-0.64-1.92-0.64c-0.87,0-1.43,0.41-1.43,1.04
		c0,0.63,0.42,0.91,1.64,1.23c1.55,0.41,2.42,0.99,2.42,2.28c0,1.5-1.36,2.21-2.84,2.21c-1.25,0-2.12-0.41-2.76-0.97l0.63-0.71
		c0.6,0.45,1.27,0.73,2.1,0.73c0.98,0,1.64-0.45,1.64-1.19c0-0.77-0.38-1.05-1.83-1.44c-1.58-0.42-2.21-1.08-2.21-2.12
		c0-1.16,1.11-2,2.6-2C290.45,76.18,291.2,76.49,291.9,77.02z"/>
	<path class="st1" d="M299.55,78.43v5.28h-1.18V78.6c0-1.13-0.48-1.5-1.23-1.5c-0.84,0-1.44,0.55-1.95,1.34v5.27h-1.18V73.39
		l1.18-0.14v4.15c0.55-0.74,1.29-1.22,2.24-1.22C298.76,76.18,299.55,77.05,299.55,78.43z"/>
	<path class="st1" d="M303.62,73.69c0,0.46-0.34,0.81-0.84,0.81c-0.49,0-0.83-0.35-0.83-0.81c0-0.46,0.34-0.81,0.83-0.81
		C303.28,72.87,303.62,73.22,303.62,73.69z M303.38,83.71h-1.18v-7.37h1.18V83.71z"/>
	<path class="st1" d="M311.64,78.43v5.28h-1.18V78.6c0-1.13-0.46-1.5-1.22-1.5c-0.87,0-1.46,0.55-1.96,1.36v5.25h-1.18v-7.37h1.01
		l0.1,1.11c0.55-0.76,1.32-1.27,2.31-1.27C310.87,76.18,311.64,77.03,311.64,78.43z"/>
	<path class="st1" d="M320.13,76.64c-0.59,0.18-1.28,0.21-2.13,0.22c0.85,0.38,1.29,0.99,1.29,1.89c0,1.44-1.04,2.48-2.77,2.48
		c-0.34,0-0.64-0.04-0.94-0.14c-0.25,0.17-0.41,0.43-0.41,0.73c0,0.35,0.22,0.63,1.01,0.63h1.18c1.5,0,2.48,0.85,2.48,2
		c0,1.42-1.13,2.21-3.39,2.21c-2.37,0-3.14-0.71-3.14-2.2h1.06c0,0.88,0.42,1.27,2.07,1.27c1.62,0,2.2-0.43,2.2-1.21
		c0-0.73-0.57-1.09-1.53-1.09h-1.16c-1.29,0-1.88-0.64-1.88-1.37c0-0.49,0.28-0.95,0.8-1.29c-0.84-0.45-1.23-1.09-1.23-2.06
		c0-1.5,1.18-2.55,2.8-2.55c1.86,0.04,2.51-0.24,3.33-0.62L320.13,76.64z M314.85,78.73c0,1.04,0.59,1.72,1.62,1.72
		c1.05,0,1.61-0.63,1.61-1.72c0-1.09-0.55-1.7-1.64-1.7C315.39,77.03,314.85,77.75,314.85,78.73z"/>
	<path class="st1" d="M330.77,83.06l-0.28,0.83c-0.71-0.1-1.18-0.39-1.37-1.13c-0.52,0.79-1.3,1.13-2.21,1.13
		c-1.46,0-2.33-0.91-2.33-2.23c0-1.57,1.18-2.41,3.19-2.41h1.2v-0.59c0-1.09-0.52-1.51-1.58-1.51c-0.56,0-1.23,0.14-1.99,0.41
		l-0.29-0.87c0.88-0.34,1.68-0.5,2.49-0.5c1.75,0,2.55,0.9,2.55,2.42v3.42C330.15,82.71,330.38,82.92,330.77,83.06z M328.97,81.78
		v-1.75h-1.05c-1.37,0-2.1,0.52-2.1,1.57c0,0.9,0.46,1.39,1.34,1.39C327.97,82.99,328.55,82.58,328.97,81.78z"/>
	<path class="st1" d="M338.4,78.43v5.28h-1.18V78.6c0-1.13-0.46-1.5-1.22-1.5c-0.87,0-1.46,0.55-1.96,1.36v5.25h-1.18v-7.37h1.01
		l0.1,1.11c0.55-0.76,1.32-1.27,2.31-1.27C337.63,76.18,338.4,77.03,338.4,78.43z"/>
	<path class="st1" d="M346.64,73.38v10.34h-1.02l-0.13-1.04c-0.46,0.73-1.21,1.2-2.14,1.2c-1.78,0-2.77-1.51-2.77-3.82
		c0-2.25,1.08-3.88,2.89-3.88c0.9,0,1.53,0.42,2,0.92v-3.87L346.64,73.38z M345.47,81.78v-3.67c-0.45-0.6-0.98-1-1.75-1
		c-1.15,0-1.88,0.97-1.88,2.93s0.64,2.9,1.75,2.9C344.44,82.94,344.98,82.52,345.47,81.78z"/>
	<path class="st1" d="M359.14,80.02c0,2.26-0.98,3.87-2.87,3.87c-0.83,0-1.5-0.29-1.96-0.87v3.52l-1.18,0.14V76.35h1.01l0.1,1.02
		c0.53-0.76,1.32-1.19,2.18-1.19C358.36,76.18,359.14,77.68,359.14,80.02z M357.88,80.02c0-1.96-0.59-2.9-1.74-2.9
		c-0.81,0-1.43,0.56-1.83,1.18v3.68c0.39,0.59,0.98,0.94,1.69,0.94C357.23,82.92,357.88,81.99,357.88,80.02z"/>
	<path class="st1" d="M366.76,83.06l-0.28,0.83c-0.71-0.1-1.18-0.39-1.37-1.13c-0.52,0.79-1.3,1.13-2.21,1.13
		c-1.46,0-2.33-0.91-2.33-2.23c0-1.57,1.18-2.41,3.19-2.41h1.2v-0.59c0-1.09-0.52-1.51-1.58-1.51c-0.56,0-1.23,0.14-1.99,0.41
		l-0.29-0.87c0.88-0.34,1.68-0.5,2.49-0.5c1.75,0,2.55,0.9,2.55,2.42v3.42C366.14,82.71,366.37,82.92,366.76,83.06z M364.97,81.78
		v-1.75h-1.05c-1.37,0-2.1,0.52-2.1,1.57c0,0.9,0.46,1.39,1.34,1.39C363.96,82.99,364.55,82.58,364.97,81.78z"/>
	<path class="st1" d="M370.27,73.69c0,0.46-0.34,0.81-0.84,0.81c-0.49,0-0.83-0.35-0.83-0.81c0-0.46,0.34-0.81,0.83-0.81
		C369.94,72.87,370.27,73.22,370.27,73.69z M370.03,83.71h-1.18v-7.37h1.18V83.71z"/>
	<path class="st1" d="M378.3,78.43v5.28h-1.18V78.6c0-1.13-0.46-1.5-1.22-1.5c-0.87,0-1.46,0.55-1.96,1.36v5.25h-1.18v-7.37h1.01
		l0.1,1.11c0.55-0.76,1.32-1.27,2.31-1.27C377.53,76.18,378.3,77.03,378.3,78.43z"/>
	<path class="st1" d="M384.58,83.39c-0.48,0.32-1.01,0.49-1.62,0.49c-1.22,0-1.95-0.71-1.95-2.06v-4.57h-1.27v-0.91h1.27v-1.69
		l1.18-0.13v1.82h1.78l-0.13,0.91h-1.65v4.51c0,0.77,0.27,1.13,0.92,1.13c0.35,0,0.66-0.1,1.02-0.31L384.58,83.39z"/>
	<path class="st1" d="M387.35,73.69c0,0.46-0.34,0.81-0.84,0.81c-0.49,0-0.83-0.35-0.83-0.81c0-0.46,0.34-0.81,0.83-0.81
		C387.01,72.87,387.35,73.22,387.35,73.69z M387.11,83.71h-1.18v-7.37h1.18V83.71z"/>
	<path class="st1" d="M395.37,78.43v5.28h-1.18V78.6c0-1.13-0.46-1.5-1.22-1.5c-0.87,0-1.46,0.55-1.96,1.36v5.25h-1.18v-7.37h1.01
		l0.1,1.11c0.55-0.76,1.32-1.27,2.31-1.27C394.6,76.18,395.37,77.03,395.37,78.43z"/>
	<path class="st1" d="M403.86,76.64c-0.59,0.18-1.28,0.21-2.13,0.22c0.85,0.38,1.29,0.99,1.29,1.89c0,1.44-1.04,2.48-2.77,2.48
		c-0.34,0-0.64-0.04-0.94-0.14c-0.25,0.17-0.41,0.43-0.41,0.73c0,0.35,0.22,0.63,1.01,0.63h1.18c1.5,0,2.48,0.85,2.48,2
		c0,1.42-1.13,2.21-3.39,2.21c-2.37,0-3.14-0.71-3.14-2.2h1.06c0,0.88,0.42,1.27,2.07,1.27c1.62,0,2.2-0.43,2.2-1.21
		c0-0.73-0.57-1.09-1.53-1.09h-1.16c-1.29,0-1.88-0.64-1.88-1.37c0-0.49,0.28-0.95,0.8-1.29c-0.84-0.45-1.23-1.09-1.23-2.06
		c0-1.5,1.18-2.55,2.8-2.55c1.86,0.04,2.51-0.24,3.33-0.62L403.86,76.64z M398.58,78.73c0,1.04,0.59,1.72,1.62,1.72
		c1.05,0,1.61-0.63,1.61-1.72c0-1.09-0.55-1.7-1.64-1.7C399.12,77.03,398.58,77.75,398.58,78.73z"/>
	<path class="st1" d="M406.4,82.97c0,0.5-0.38,0.91-0.91,0.91c-0.5,0-0.9-0.41-0.9-0.91c0-0.49,0.39-0.9,0.9-0.9
		C406.03,82.08,406.4,82.48,406.4,82.97z"/>
	<path class="st1" d="M85.72,95.35L85,96.1c-0.67-0.55-1.26-0.78-2.13-0.78c-1.42,0-2.84,1.08-2.84,3.96c0,2.82,0.99,3.99,2.73,3.99
		c0.67,0,1.32-0.14,1.88-0.45V99.8h-1.75l-0.14-0.99h3.1v4.64c-0.9,0.52-1.89,0.84-3.08,0.84c-2.47,0-4.02-1.67-4.02-5
		c0-3.26,1.95-4.97,4.13-4.97C84.12,94.31,84.9,94.67,85.72,95.35z"/>
	<path class="st1" d="M91.93,96.66l-0.21,1.15c-0.22-0.06-0.38-0.08-0.64-0.08c-0.94,0-1.47,0.66-1.81,2.07v4.31h-1.18v-7.37h1.01
		l0.11,1.54c0.39-1.13,1.08-1.71,1.99-1.71C91.45,96.58,91.72,96.61,91.93,96.66z"/>
	<path class="st1" d="M98.48,100.84h-4.75c0.13,1.78,0.94,2.48,2.06,2.48c0.74,0,1.29-0.21,1.93-0.66l0.52,0.7
		c-0.71,0.58-1.53,0.92-2.54,0.92c-2.03,0-3.22-1.44-3.22-3.78c0-2.31,1.15-3.92,3.03-3.92c1.98,0,3,1.39,3,3.61
		C98.51,100.45,98.5,100.68,98.48,100.84z M97.35,99.86c0-1.48-0.59-2.34-1.81-2.34c-1.02,0-1.71,0.73-1.81,2.45h3.61V99.86z"/>
	<path class="st1" d="M105.99,103.46l-0.28,0.83c-0.71-0.1-1.18-0.39-1.37-1.13c-0.52,0.79-1.3,1.13-2.21,1.13
		c-1.46,0-2.33-0.91-2.33-2.23c0-1.57,1.18-2.41,3.19-2.41h1.2v-0.59c0-1.09-0.52-1.51-1.58-1.51c-0.56,0-1.23,0.14-1.99,0.41
		l-0.29-0.87c0.88-0.34,1.68-0.5,2.49-0.5c1.75,0,2.55,0.9,2.55,2.42v3.42C105.37,103.11,105.6,103.32,105.99,103.46z
		 M104.19,102.18v-1.75h-1.05c-1.37,0-2.1,0.52-2.1,1.57c0,0.9,0.46,1.39,1.34,1.39C103.19,103.39,103.77,102.98,104.19,102.18z"/>
	<path class="st1" d="M111.71,103.79c-0.48,0.32-1.01,0.49-1.62,0.49c-1.22,0-1.95-0.71-1.95-2.06v-4.57h-1.27v-0.91h1.27v-1.69
		l1.18-0.13v1.82h1.78l-0.13,0.91h-1.65v4.51c0,0.77,0.27,1.13,0.92,1.13c0.35,0,0.66-0.1,1.02-0.31L111.71,103.79z"/>
	<path class="st1" d="M117.97,103.71c0,2.06-0.74,2.66-2.26,3.35l-0.34-0.85c0.97-0.46,1.41-0.83,1.41-2.42v-7.03h1.18V103.71z
		 M118.22,94.09c0,0.46-0.34,0.81-0.84,0.81c-0.49,0-0.83-0.35-0.83-0.81s0.34-0.81,0.83-0.81
		C117.88,93.27,118.22,93.62,118.22,94.09z"/>
	<path class="st1" d="M126.65,100.42c0,2.31-1.19,3.87-3.25,3.87s-3.24-1.5-3.24-3.84c0-2.31,1.19-3.87,3.25-3.87
		C125.49,96.58,126.65,98.06,126.65,100.42z M121.43,100.45c0,1.95,0.7,2.89,1.98,2.89c1.27,0,1.99-0.94,1.99-2.91
		c0-1.95-0.7-2.89-1.98-2.89C122.15,97.53,121.43,98.47,121.43,100.45z"/>
	<path class="st1" d="M134.85,100.42c0,2.33-1.08,3.87-2.87,3.87c-0.84,0-1.48-0.39-1.99-0.99l-0.13,0.83h-1.02V93.78l1.18-0.14
		v4.05c0.5-0.69,1.2-1.11,2.12-1.11C133.8,96.58,134.85,97.97,134.85,100.42z M133.59,100.42c0-2.12-0.7-2.9-1.78-2.9
		c-0.84,0-1.4,0.56-1.79,1.18v3.63c0.39,0.6,0.99,1.02,1.69,1.02C132.84,103.34,133.59,102.46,133.59,100.42z"/>
	<path class="st1" d="M138.13,103.37c0,0.29-0.07,0.56-0.24,0.94l-0.91,2.09h-0.84l0.56-2.27c-0.22-0.17-0.38-0.45-0.38-0.76
		c0-0.49,0.39-0.9,0.9-0.9C137.75,102.48,138.13,102.88,138.13,103.37z"/>
	<path class="st1" d="M145.25,104.12h-1.2v-9.64h1.2V104.12z"/>
	<path class="st1" d="M158.43,104.12h-1.61l-1.36-6.3l-1.4,6.3h-1.57l-1.75-7.37h1.19l1.39,6.54l1.51-6.54h1.32l1.46,6.54l1.4-6.54
		h1.12L158.43,104.12z"/>
	<path class="st1" d="M167.74,100.42c0,2.31-1.19,3.87-3.25,3.87s-3.24-1.5-3.24-3.84c0-2.31,1.19-3.87,3.25-3.87
		C166.58,96.58,167.74,98.06,167.74,100.42z M162.52,100.45c0,1.95,0.7,2.89,1.98,2.89c1.27,0,1.99-0.94,1.99-2.91
		c0-1.95-0.7-2.89-1.98-2.89C163.24,97.53,162.52,98.47,162.52,100.45z"/>
	<path class="st1" d="M175.34,104.12h-1.01l-0.1-1.19c-0.55,0.9-1.25,1.36-2.31,1.36c-1.3,0-2.06-0.81-2.06-2.25v-5.28h1.18v5.16
		c0,1.05,0.36,1.44,1.2,1.44s1.46-0.55,1.92-1.32v-5.28h1.18V104.12z"/>
	<path class="st1" d="M178,102.71v-8.94l1.18-0.14v9.05c0,0.41,0.14,0.62,0.49,0.62c0.18,0,0.34-0.03,0.48-0.08l0.31,0.83
		c-0.27,0.14-0.62,0.24-0.98,0.24C178.57,104.28,178,103.74,178,102.71z"/>
	<path class="st1" d="M187.66,93.78v10.34h-1.02l-0.13-1.04c-0.46,0.73-1.2,1.2-2.14,1.2c-1.78,0-2.77-1.51-2.77-3.82
		c0-2.25,1.08-3.88,2.89-3.88c0.9,0,1.53,0.42,2,0.92v-3.87L187.66,93.78z M186.49,102.18v-3.67c-0.45-0.6-0.98-1-1.75-1
		c-1.15,0-1.88,0.97-1.88,2.93s0.64,2.9,1.75,2.9C185.46,103.34,186,102.92,186.49,102.18z"/>
	<path class="st1" d="M197.99,96.66l-0.21,1.15c-0.22-0.06-0.38-0.08-0.64-0.08c-0.94,0-1.47,0.66-1.81,2.07v4.31h-1.18v-7.37h1.01
		l0.11,1.54c0.39-1.13,1.08-1.71,1.99-1.71C197.52,96.58,197.78,96.61,197.99,96.66z"/>
	<path class="st1" d="M204.55,100.84h-4.75c0.13,1.78,0.94,2.48,2.06,2.48c0.74,0,1.29-0.21,1.93-0.66l0.52,0.7
		c-0.71,0.58-1.53,0.92-2.54,0.92c-2.03,0-3.22-1.44-3.22-3.78c0-2.31,1.15-3.92,3.03-3.92c1.98,0,3,1.39,3,3.61
		C204.57,100.45,204.56,100.68,204.55,100.84z M203.41,99.86c0-1.48-0.59-2.34-1.81-2.34c-1.02,0-1.71,0.73-1.81,2.45h3.61V99.86z"
		/>
	<path class="st1" d="M211.56,97.36l-0.57,0.74c-0.49-0.36-0.97-0.55-1.6-0.55c-1.2,0-1.98,0.94-1.98,2.91c0,1.96,0.77,2.8,1.98,2.8
		c0.63,0,1.08-0.2,1.62-0.57l0.55,0.77c-0.63,0.53-1.37,0.81-2.21,0.81c-1.96,0-3.19-1.42-3.19-3.8c0-2.35,1.22-3.91,3.19-3.91
		C210.2,96.58,210.89,96.8,211.56,97.36z"/>
	<path class="st1" d="M219.04,100.42c0,2.31-1.19,3.87-3.25,3.87c-2.06,0-3.24-1.5-3.24-3.84c0-2.31,1.19-3.87,3.25-3.87
		C217.87,96.58,219.04,98.06,219.04,100.42z M213.81,100.45c0,1.95,0.7,2.89,1.98,2.89s1.99-0.94,1.99-2.91
		c0-1.95-0.7-2.89-1.98-2.89C214.54,97.53,213.81,98.47,213.81,100.45z"/>
	<path class="st1" d="M230.55,98.83v5.28h-1.18V99c0-1.13-0.48-1.5-1.08-1.5c-0.83,0-1.3,0.55-1.82,1.36v5.25h-1.18V99
		c0-1.13-0.48-1.5-1.08-1.5c-0.81,0-1.3,0.55-1.81,1.36v5.25h-1.18v-7.37h1.01l0.1,1.11c0.52-0.76,1.21-1.27,2.16-1.27
		c0.92,0,1.58,0.52,1.85,1.37c0.53-0.81,1.23-1.37,2.23-1.37C229.78,96.58,230.55,97.45,230.55,98.83z"/>
	<path class="st1" d="M242.53,98.83v5.28h-1.18V99c0-1.13-0.48-1.5-1.08-1.5c-0.83,0-1.3,0.55-1.82,1.36v5.25h-1.18V99
		c0-1.13-0.48-1.5-1.08-1.5c-0.81,0-1.3,0.55-1.81,1.36v5.25h-1.18v-7.37h1.01l0.1,1.11c0.52-0.76,1.2-1.27,2.16-1.27
		c0.92,0,1.58,0.52,1.85,1.37c0.53-0.81,1.23-1.37,2.23-1.37C241.76,96.58,242.53,97.45,242.53,98.83z"/>
	<path class="st1" d="M250.65,100.84h-4.75c0.13,1.78,0.94,2.48,2.06,2.48c0.74,0,1.29-0.21,1.93-0.66l0.52,0.7
		c-0.71,0.58-1.53,0.92-2.54,0.92c-2.03,0-3.22-1.44-3.22-3.78c0-2.31,1.15-3.92,3.03-3.92c1.97,0,3,1.39,3,3.61
		C250.67,100.45,250.66,100.68,250.65,100.84z M249.51,99.86c0-1.48-0.59-2.34-1.81-2.34c-1.02,0-1.71,0.73-1.81,2.45h3.61V99.86z"
		/>
	<path class="st1" d="M258.33,98.83v5.28h-1.18V99c0-1.13-0.46-1.5-1.22-1.5c-0.87,0-1.46,0.55-1.96,1.36v5.25h-1.18v-7.37h1.01
		l0.1,1.11c0.55-0.76,1.32-1.27,2.31-1.27C257.56,96.58,258.33,97.43,258.33,98.83z"/>
	<path class="st1" d="M266.58,93.78v10.34h-1.02l-0.13-1.04c-0.46,0.73-1.21,1.2-2.14,1.2c-1.78,0-2.77-1.51-2.77-3.82
		c0-2.25,1.08-3.88,2.89-3.88c0.9,0,1.53,0.42,2,0.92v-3.87L266.58,93.78z M265.4,102.18v-3.67c-0.45-0.6-0.98-1-1.75-1
		c-1.15,0-1.88,0.97-1.88,2.93s0.64,2.9,1.75,2.9C264.38,103.34,264.91,102.92,265.4,102.18z"/>
	<path class="st1" d="M276.7,103.79c-0.48,0.32-1.01,0.49-1.62,0.49c-1.22,0-1.95-0.71-1.95-2.06v-4.57h-1.28v-0.91h1.28v-1.69
		l1.18-0.13v1.82h1.78l-0.13,0.91h-1.65v4.51c0,0.77,0.27,1.13,0.92,1.13c0.35,0,0.66-0.1,1.02-0.31L276.7,103.79z"/>
	<path class="st1" d="M283.59,98.83v5.28h-1.18V99c0-1.13-0.48-1.5-1.23-1.5c-0.84,0-1.44,0.55-1.95,1.34v5.27h-1.18V93.79
		l1.18-0.14v4.15c0.55-0.74,1.29-1.22,2.24-1.22C282.8,96.58,283.59,97.45,283.59,98.83z"/>
	<path class="st1" d="M287.66,94.09c0,0.46-0.34,0.81-0.84,0.81c-0.49,0-0.83-0.35-0.83-0.81s0.34-0.81,0.83-0.81
		C287.32,93.27,287.66,93.62,287.66,94.09z M287.42,104.12h-1.18v-7.37h1.18V104.12z"/>
	<path class="st1" d="M294.56,97.42l-0.5,0.74c-0.66-0.43-1.22-0.64-1.92-0.64c-0.87,0-1.43,0.41-1.43,1.04
		c0,0.63,0.42,0.91,1.64,1.23c1.55,0.41,2.42,0.99,2.42,2.28c0,1.5-1.36,2.21-2.84,2.21c-1.25,0-2.12-0.41-2.76-0.97l0.63-0.71
		c0.6,0.45,1.27,0.73,2.1,0.73c0.98,0,1.64-0.45,1.64-1.19c0-0.77-0.38-1.05-1.83-1.44c-1.58-0.42-2.21-1.08-2.21-2.12
		c0-1.16,1.11-2,2.6-2C293.11,96.58,293.86,96.89,294.56,97.42z"/>
	<path class="st1" d="M306.25,97.04c-0.59,0.18-1.28,0.21-2.13,0.22c0.85,0.38,1.29,0.99,1.29,1.89c0,1.44-1.04,2.48-2.77,2.48
		c-0.34,0-0.64-0.04-0.94-0.14c-0.25,0.17-0.41,0.43-0.41,0.73c0,0.35,0.22,0.63,1.01,0.63h1.18c1.5,0,2.48,0.85,2.48,2
		c0,1.42-1.13,2.21-3.39,2.21c-2.37,0-3.14-0.71-3.14-2.2h1.06c0,0.88,0.42,1.27,2.07,1.27c1.62,0,2.2-0.43,2.2-1.21
		c0-0.73-0.57-1.09-1.53-1.09h-1.16c-1.29,0-1.88-0.64-1.88-1.37c0-0.49,0.28-0.95,0.8-1.29c-0.84-0.45-1.23-1.09-1.23-2.06
		c0-1.5,1.18-2.55,2.8-2.55c1.86,0.04,2.51-0.24,3.33-0.62L306.25,97.04z M300.97,99.13c0,1.04,0.59,1.72,1.62,1.72
		c1.05,0,1.61-0.63,1.61-1.72c0-1.09-0.55-1.7-1.64-1.7C301.52,97.43,300.97,98.15,300.97,99.13z"/>
	<path class="st1" d="M311.49,96.66l-0.21,1.15c-0.22-0.06-0.38-0.08-0.64-0.08c-0.94,0-1.47,0.66-1.81,2.07v4.31h-1.18v-7.37h1.01
		l0.11,1.54c0.39-1.13,1.08-1.71,1.99-1.71C311.01,96.58,311.28,96.61,311.49,96.66z"/>
	<path class="st1" d="M318.53,100.42c0,2.31-1.19,3.87-3.25,3.87c-2.06,0-3.24-1.5-3.24-3.84c0-2.31,1.19-3.87,3.25-3.87
		C317.37,96.58,318.53,98.06,318.53,100.42z M313.31,100.45c0,1.95,0.7,2.89,1.98,2.89c1.27,0,1.99-0.94,1.99-2.91
		c0-1.95-0.7-2.89-1.97-2.89C314.03,97.53,313.31,98.47,313.31,100.45z"/>
	<path class="st1" d="M326.13,104.12h-1.01l-0.1-1.19c-0.55,0.9-1.25,1.36-2.31,1.36c-1.3,0-2.06-0.81-2.06-2.25v-5.28h1.18v5.16
		c0,1.05,0.36,1.44,1.2,1.44c0.84,0,1.46-0.55,1.92-1.32v-5.28h1.18V104.12z"/>
	<path class="st1" d="M334.87,100.42c0,2.26-0.98,3.87-2.87,3.87c-0.83,0-1.5-0.29-1.96-0.87v3.52l-1.18,0.14V96.75h1.01l0.1,1.02
		c0.53-0.76,1.32-1.19,2.18-1.19C334.08,96.58,334.87,98.08,334.87,100.42z M333.61,100.42c0-1.96-0.59-2.9-1.74-2.9
		c-0.81,0-1.43,0.56-1.83,1.18v3.68c0.39,0.59,0.98,0.94,1.69,0.94C332.95,103.32,333.61,102.39,333.61,100.42z"/>
	<path class="st1" d="M344.51,103.79c-0.48,0.32-1.01,0.49-1.62,0.49c-1.22,0-1.95-0.71-1.95-2.06v-4.57h-1.27v-0.91h1.27v-1.69
		l1.18-0.13v1.82h1.78l-0.13,0.91h-1.65v4.51c0,0.77,0.27,1.13,0.92,1.13c0.35,0,0.66-0.1,1.02-0.31L344.51,103.79z"/>
	<path class="st1" d="M351.61,100.42c0,2.31-1.19,3.87-3.25,3.87c-2.06,0-3.24-1.5-3.24-3.84c0-2.31,1.19-3.87,3.25-3.87
		C350.45,96.58,351.61,98.06,351.61,100.42z M346.39,100.45c0,1.95,0.7,2.89,1.98,2.89c1.27,0,1.99-0.94,1.99-2.91
		c0-1.95-0.7-2.89-1.98-2.89C347.12,97.53,346.39,98.47,346.39,100.45z"/>
	<path class="st1" d="M84.75,121.24H80c0.13,1.78,0.94,2.48,2.06,2.48c0.74,0,1.29-0.21,1.93-0.66l0.52,0.7
		c-0.71,0.58-1.53,0.92-2.54,0.92c-2.03,0-3.22-1.44-3.22-3.78c0-2.31,1.15-3.92,3.03-3.92c1.98,0,3,1.39,3,3.61
		C84.78,120.85,84.76,121.08,84.75,121.24z M83.61,120.26c0-1.48-0.59-2.34-1.81-2.34c-1.02,0-1.71,0.73-1.81,2.45h3.61V120.26z"/>
	<path class="st1" d="M89.63,124.52h-1.43l-2.56-7.37h1.29l2,6.32l1.98-6.32h1.25L89.63,124.52z"/>
	<path class="st1" d="M99.09,121.24h-4.75c0.13,1.78,0.94,2.48,2.06,2.48c0.74,0,1.29-0.21,1.93-0.66l0.52,0.7
		c-0.71,0.58-1.53,0.92-2.54,0.92c-2.03,0-3.22-1.44-3.22-3.78c0-2.31,1.15-3.92,3.03-3.92c1.98,0,3,1.39,3,3.61
		C99.11,120.85,99.1,121.08,99.09,121.24z M97.95,120.26c0-1.48-0.59-2.34-1.81-2.34c-1.02,0-1.71,0.73-1.81,2.45h3.61V120.26z"/>
	<path class="st1" d="M105.08,117.06l-0.21,1.15c-0.22-0.06-0.38-0.08-0.64-0.08c-0.94,0-1.47,0.66-1.81,2.07v4.31h-1.18v-7.37h1.01
		l0.11,1.54c0.39-1.13,1.08-1.71,1.99-1.71C104.6,116.98,104.87,117.01,105.08,117.06z"/>
	<path class="st1" d="M109.4,124.56c-0.52,1.57-1.34,2.66-3.32,2.91l-0.14-0.92c1.5-0.28,1.91-0.85,2.34-2.03h-0.41l-2.49-7.37h1.26
		l2.03,6.51l1.99-6.51h1.22L109.4,124.56z"/>
	<path class="st1" d="M119.3,120.82c0,2.31-1.19,3.87-3.25,3.87s-3.24-1.5-3.24-3.84c0-2.31,1.19-3.87,3.25-3.87
		C118.14,116.98,119.3,118.46,119.3,120.82z M114.08,120.85c0,1.95,0.7,2.89,1.98,2.89c1.27,0,1.99-0.94,1.99-2.91
		c0-1.95-0.7-2.89-1.98-2.89C114.81,117.93,114.08,118.87,114.08,120.85z"/>
	<path class="st1" d="M127.03,119.23v5.28h-1.18v-5.11c0-1.13-0.46-1.5-1.22-1.5c-0.87,0-1.46,0.55-1.96,1.36v5.25h-1.18v-7.37h1.01
		l0.1,1.11c0.55-0.76,1.32-1.27,2.31-1.27C126.26,116.98,127.03,117.83,127.03,119.23z"/>
	<path class="st1" d="M135.14,121.24h-4.75c0.13,1.78,0.94,2.48,2.06,2.48c0.74,0,1.29-0.21,1.93-0.66l0.52,0.7
		c-0.71,0.58-1.53,0.92-2.54,0.92c-2.03,0-3.22-1.44-3.22-3.78c0-2.31,1.15-3.92,3.03-3.92c1.98,0,3,1.39,3,3.61
		C135.16,120.85,135.15,121.08,135.14,121.24z M134,120.26c0-1.48-0.59-2.34-1.81-2.34c-1.02,0-1.71,0.73-1.81,2.45H134V120.26z"/>
	<path class="st1" d="M138.3,123.77c0,0.5-0.38,0.91-0.91,0.91c-0.5,0-0.9-0.41-0.9-0.91c0-0.49,0.39-0.9,0.9-0.9
		C137.92,122.88,138.3,123.28,138.3,123.77z"/>
	<path class="st1" d="M149.67,115.92h-2.7v8.6h-1.21v-8.6h-2.77v-1.04h6.82L149.67,115.92z"/>
	<path class="st1" d="M156.85,119.23v5.28h-1.18v-5.11c0-1.13-0.48-1.5-1.23-1.5c-0.84,0-1.44,0.55-1.95,1.34v5.27h-1.18v-10.32
		l1.18-0.14v4.15c0.55-0.74,1.29-1.22,2.24-1.22C156.06,116.98,156.85,117.85,156.85,119.23z"/>
	<path class="st1" d="M165,123.86l-0.28,0.83c-0.71-0.1-1.18-0.39-1.37-1.13c-0.52,0.79-1.3,1.13-2.21,1.13
		c-1.46,0-2.33-0.91-2.33-2.23c0-1.57,1.18-2.41,3.19-2.41h1.2v-0.59c0-1.09-0.52-1.51-1.58-1.51c-0.56,0-1.23,0.14-1.99,0.41
		l-0.29-0.87c0.88-0.34,1.68-0.5,2.49-0.5c1.75,0,2.55,0.9,2.55,2.42v3.42C164.38,123.51,164.6,123.72,165,123.86z M163.2,122.58
		v-1.75h-1.05c-1.37,0-2.1,0.52-2.1,1.57c0,0.9,0.46,1.39,1.34,1.39C162.2,123.79,162.78,123.38,163.2,122.58z"/>
	<path class="st1" d="M172.63,119.23v5.28h-1.18v-5.11c0-1.13-0.46-1.5-1.22-1.5c-0.87,0-1.46,0.55-1.96,1.36v5.25h-1.18v-7.37h1.01
		l0.1,1.11c0.55-0.76,1.32-1.27,2.31-1.27C171.86,116.98,172.63,117.83,172.63,119.23z"/>
	<path class="st1" d="M176.46,124.52h-1.18v-10.34l1.18-0.14V124.52z M177.86,120.41l3.12,4.1h-1.41l-3.03-4.02l2.8-3.35h1.32
		L177.86,120.41z"/>
	<path class="st1" d="M188.92,124.56c-0.52,1.57-1.34,2.66-3.32,2.91l-0.14-0.92c1.5-0.28,1.91-0.85,2.34-2.03h-0.41l-2.49-7.37
		h1.26l2.03,6.51l1.99-6.51h1.22L188.92,124.56z"/>
	<path class="st1" d="M198.82,120.82c0,2.31-1.19,3.87-3.25,3.87s-3.24-1.5-3.24-3.84c0-2.31,1.19-3.87,3.25-3.87
		C197.66,116.98,198.82,118.46,198.82,120.82z M193.6,120.85c0,1.95,0.7,2.89,1.98,2.89c1.27,0,1.99-0.94,1.99-2.91
		c0-1.95-0.7-2.89-1.98-2.89C194.32,117.93,193.6,118.87,193.6,120.85z"/>
	<path class="st1" d="M206.42,124.52h-1.01l-0.1-1.19c-0.55,0.9-1.25,1.36-2.31,1.36c-1.3,0-2.06-0.81-2.06-2.25v-5.28h1.18v5.16
		c0,1.05,0.36,1.44,1.2,1.44s1.46-0.55,1.92-1.32v-5.28h1.18V124.52z"/>
	<path class="st1" d="M210.3,123.77c0,0.5-0.38,0.91-0.91,0.91c-0.5,0-0.9-0.41-0.9-0.91c0-0.49,0.39-0.9,0.9-0.9
		C209.92,122.88,210.3,123.28,210.3,123.77z"/>
	<path class="st1" d="M212.12,114.82c0,0.21-0.06,0.39-0.22,0.77l-0.91,1.93h-0.77l0.55-2.04c-0.22-0.17-0.34-0.39-0.34-0.66
		c0-0.45,0.38-0.83,0.84-0.83C211.74,114,212.12,114.37,212.12,114.82z M214.53,114.82c0,0.21-0.06,0.39-0.22,0.77l-0.91,1.93h-0.77
		l0.55-2.04c-0.22-0.17-0.34-0.39-0.34-0.66c0-0.45,0.38-0.83,0.84-0.83C214.15,114,214.53,114.37,214.53,114.82z"/>
	<path class="st1" d="M219.82,119.63h3.91v1.01h-3.91V119.63z"/>
	<path class="st1" d="M238.88,124.52h-2.26l-0.17-3.8c-0.07-1.36-0.1-2.76-0.03-3.96l-1.5,6.74h-2.17l-1.6-6.74
		c0.1,1.43,0.1,2.63,0.04,3.99l-0.17,3.77h-2.24l0.73-9.71h2.9l1.46,6.58l1.36-6.58h2.91L238.88,124.52z"/>
	<path class="st1" d="M242.61,114.42c0,0.71-0.55,1.26-1.32,1.26s-1.3-0.55-1.3-1.26c0-0.71,0.53-1.26,1.3-1.26
		S242.61,113.7,242.61,114.42z M242.41,124.52h-2.21v-7.44h2.21V124.52z"/>
	<path class="st1" d="M249.92,117.75l-0.95,1.32c-0.48-0.36-0.91-0.53-1.42-0.53c-0.95,0-1.5,0.64-1.5,2.31
		c0,1.65,0.59,2.16,1.47,2.16c0.53,0,0.9-0.17,1.43-0.5l0.97,1.37c-0.69,0.55-1.48,0.88-2.51,0.88c-2.28,0-3.68-1.54-3.68-3.89
		c0-2.37,1.42-4.02,3.64-4.02C248.41,116.84,249.21,117.15,249.92,117.75z"/>
	<path class="st1" d="M257.27,119.08v5.43h-2.21v-5.06c0-0.78-0.28-1-0.7-1c-0.49,0-0.9,0.35-1.29,0.95v5.1h-2.21v-10.39l2.21-0.22
		v3.98c0.6-0.69,1.27-1.04,2.14-1.04C256.5,116.84,257.27,117.67,257.27,119.08z"/>
	<path class="st1" d="M265.38,121.45h-4.61c0.15,1.33,0.78,1.69,1.69,1.69c0.6,0,1.13-0.21,1.78-0.66l0.91,1.23
		c-0.74,0.59-1.69,1.04-2.9,1.04c-2.48,0-3.74-1.6-3.74-3.92c0-2.23,1.22-3.99,3.47-3.99c2.13,0,3.43,1.4,3.43,3.81
		C265.42,120.89,265.4,121.22,265.38,121.45z M263.25,120.02c-0.01-1.01-0.32-1.71-1.2-1.71c-0.74,0-1.18,0.48-1.27,1.81h2.48
		V120.02z"/>
	<path class="st1" d="M266.59,122.62v-8.5l2.21-0.24v8.66c0,0.31,0.11,0.46,0.38,0.46c0.15,0,0.27-0.03,0.36-0.07l0.43,1.57
		c-0.34,0.14-0.81,0.25-1.34,0.25C267.35,124.75,266.59,123.98,266.59,122.62z"/>
	<path class="st1" d="M277.19,121.45h-4.61c0.15,1.33,0.78,1.69,1.69,1.69c0.6,0,1.13-0.21,1.78-0.66l0.91,1.23
		c-0.74,0.59-1.69,1.04-2.9,1.04c-2.48,0-3.74-1.6-3.74-3.92c0-2.23,1.22-3.99,3.47-3.99c2.13,0,3.43,1.4,3.43,3.81
		C277.23,120.89,277.22,121.22,277.19,121.45z M275.06,120.02c-0.01-1.01-0.32-1.71-1.21-1.71c-0.74,0-1.18,0.48-1.27,1.81h2.48
		V120.02z"/>
	<path class="st1" d="M280.41,123.48c0,0.43-0.14,0.8-0.45,1.48l-0.88,2.03h-1.25l0.6-2.47c-0.35-0.24-0.56-0.62-0.56-1.05
		c0-0.71,0.55-1.26,1.27-1.26C279.86,122.22,280.41,122.76,280.41,123.48z"/>
	<path class="st1" d="M291.47,116.57h-2.4v7.94h-2.3v-7.94h-2.51v-1.76h7.42L291.47,116.57z"/>
	<path class="st1" d="M298.67,120.8c0,2.38-1.37,3.95-3.64,3.95c-2.25,0-3.64-1.46-3.64-3.96c0-2.38,1.37-3.95,3.64-3.95
		C297.29,116.84,298.67,118.3,298.67,120.8z M293.68,120.79c0,1.65,0.45,2.34,1.34,2.34s1.34-0.71,1.34-2.33
		c0-1.65-0.45-2.34-1.34-2.34S293.68,119.18,293.68,120.79z"/>
	<path class="st1" d="M304.76,116.97l-0.35,2.14c-0.24-0.06-0.42-0.1-0.67-0.1c-0.92,0-1.3,0.69-1.54,1.82v3.68h-2.21v-7.44h1.93
		l0.18,1.44c0.34-1.04,1.06-1.65,1.92-1.65C304.29,116.87,304.52,116.9,304.76,116.97z"/>
	<path class="st1" d="M312.04,120.8c0,2.38-1.37,3.95-3.64,3.95c-2.25,0-3.64-1.46-3.64-3.96c0-2.38,1.37-3.95,3.64-3.95
		C310.67,116.84,312.04,118.3,312.04,120.8z M307.05,120.79c0,1.65,0.45,2.34,1.34,2.34s1.34-0.71,1.34-2.33
		c0-1.65-0.45-2.34-1.34-2.34S307.05,119.18,307.05,120.79z"/>
	<path class="st1" d="M319.77,119.08v5.43h-2.21v-5.06c0-0.78-0.27-1-0.7-1c-0.49,0-0.9,0.35-1.29,0.97v5.08h-2.21v-7.44h1.93
		l0.15,0.88c0.63-0.74,1.34-1.12,2.27-1.12C319,116.84,319.77,117.67,319.77,119.08z"/>
	<path class="st1" d="M326.09,124.17c-0.56,0.39-1.34,0.59-2.02,0.59c-1.64-0.01-2.44-0.94-2.44-2.69v-3.45h-1.05v-1.54h1.05v-1.61
		l2.21-0.25v1.86h1.71l-0.24,1.54h-1.47v3.42c0,0.71,0.24,0.97,0.7,0.97c0.25,0,0.5-0.07,0.8-0.24L326.09,124.17z"/>
	<path class="st1" d="M333.44,120.8c0,2.38-1.37,3.95-3.64,3.95c-2.25,0-3.64-1.46-3.64-3.96c0-2.38,1.37-3.95,3.64-3.95
		C332.07,116.84,333.44,118.3,333.44,120.8z M328.46,120.79c0,1.65,0.45,2.34,1.34,2.34s1.34-0.71,1.34-2.33
		c0-1.65-0.45-2.34-1.34-2.34S328.46,119.18,328.46,120.79z"/>
</g>
<g>
	<path class="st2" d="M36.87,52.9c-9.62,0-17.45-7.83-17.45-17.45c0-9.62,7.83-17.45,17.45-17.45c9.62,0,17.45,7.83,17.45,17.45
		C54.32,45.07,46.49,52.9,36.87,52.9z M48.07,46.99c-1.53-1.11-3.79-1.97-6.46-2.44c-0.8-0.14-1.37-0.85-1.34-1.65
		c0.02-0.5,0.02-1.04,0.02-1.59c0-0.78,0.39-1.53,0.79-2.32c0.4-0.78,0.82-1.59,0.86-2.41l0.01-0.14l0.06-0.12
		c0.48-0.99,0.75-1.98,0.75-2.7c0-0.33-0.06-0.55-0.18-0.67l-0.25-0.25l0.06-0.35c0.07-0.37,0.13-0.75,0.2-1.13
		c0.06-0.33,0.11-0.66,0.17-1c0.49-2.71-0.41-4.5-2.68-5.3c-0.19-0.07-0.57-0.16-1.01-0.28c-1.4-0.36-3.39-0.86-4.75-1.7
		c0,0.02,0,0.04,0,0.06c-0.05,1-0.09,1.78-0.69,2.05c-2.33,1.05-3.13,2.59-2.66,5.16c0.06,0.34,0.12,0.67,0.17,1
		c0.07,0.39,0.13,0.77,0.2,1.13l0.07,0.35l-0.25,0.25c-0.12,0.12-0.18,0.34-0.18,0.67c0,0.72,0.27,1.7,0.75,2.7l0.06,0.12l0.01,0.14
		c0.04,0.81,0.44,1.58,0.84,2.33c0.42,0.8,0.82,1.56,0.82,2.39c0,0.56,0,1.09,0.02,1.6c0.03,0.8-0.54,1.5-1.34,1.65
		c-2.67,0.47-4.93,1.33-6.46,2.45c2.9,2.82,6.85,4.56,11.2,4.56C41.22,51.55,45.17,49.81,48.07,46.99z M36.87,19.34
		c-8.88,0-16.1,7.22-16.1,16.1c0,4.04,1.51,7.73,3.98,10.57c1.7-1.28,4.2-2.26,7.15-2.79c0.14-0.02,0.23-0.13,0.23-0.27
		c-0.02-0.52-0.02-1.08-0.02-1.66c0-0.5-0.32-1.12-0.66-1.77c-0.42-0.8-0.89-1.71-0.98-2.75c-0.53-1.14-0.83-2.26-0.83-3.16
		c0-0.54,0.11-0.97,0.33-1.32c-0.05-0.28-0.1-0.57-0.15-0.86c-0.05-0.32-0.11-0.65-0.17-0.99c-0.56-3.14,0.47-5.22,3.25-6.54
		c0.05-0.23,0.07-0.69,0.09-0.98c0.05-0.92,0.08-1.54,0.63-1.75c0.29-0.11,0.61-0.04,0.85,0.2c0.99,0.96,3.56,1.61,4.95,1.96
		c0.49,0.12,0.88,0.22,1.13,0.31c2.9,1.03,4.16,3.44,3.56,6.8c-0.06,0.33-0.12,0.66-0.17,0.99c-0.05,0.29-0.1,0.58-0.15,0.86
		c0.22,0.35,0.33,0.78,0.33,1.32c0,0.9-0.29,2.02-0.83,3.16c-0.09,1.06-0.57,1.99-1,2.82c-0.33,0.64-0.65,1.25-0.65,1.7
		c0,0.58,0,1.13-0.02,1.65c-0.01,0.13,0.09,0.24,0.23,0.27c2.95,0.52,5.45,1.5,7.15,2.79c2.47-2.83,3.98-6.52,3.98-10.57
		C52.97,26.57,45.75,19.34,36.87,19.34z"/>
</g>
</svg>
