<?xml version="1.0" encoding="utf-8"?>
<!-- Generator: Adobe Illustrator 23.0.4, SVG Export Plug-In . SVG Version: 6.00 Build 0)  -->
<svg version="1.1" id="Layer_1" xmlns:ev="http://www.w3.org/2001/xml-events"
	 xmlns="http://www.w3.org/2000/svg" xmlns:xlink="http://www.w3.org/1999/xlink" x="0px" y="0px" viewBox="0 0 59 50"
	 style="enable-background:new 0 0 59 50;" xml:space="preserve">
<style type="text/css">
	.st0{fill:#F3FAFE;}
	.st1{fill:#26A9E1;}
</style>
<circle class="st0" cx="30.11" cy="25" r="24.2"/>
<path class="st1" d="M42.7,25.44h-1.81v2.71c0,0.18-0.11,0.35-0.28,0.42c-0.06,0.02-0.11,0.03-0.17,0.03
	c-0.12,0-0.23-0.05-0.32-0.13l-3.03-3.03h-1.17v-0.9h1.36c0.12,0,0.23,0.05,0.32,0.13l2.39,2.39v-2.07c0-0.25,0.2-0.45,0.45-0.45
	h2.26c0.25,0,0.45-0.2,0.45-0.45v-9.94c0-0.25-0.2-0.45-0.45-0.45H27.34c-0.25,0-0.45,0.2-0.45,0.45v7.68h-0.9v-7.68
	c0-0.75,0.61-1.36,1.36-1.36H42.7c0.75,0,1.36,0.61,1.36,1.36v9.94C44.05,24.84,43.45,25.44,42.7,25.44z M35.02,24.09v9.94
	c0,0.75-0.61,1.36-1.36,1.36h-9.75l-3.03,3.03c-0.09,0.09-0.2,0.13-0.32,0.13c-0.06,0-0.12-0.01-0.17-0.03
	c-0.17-0.07-0.28-0.23-0.28-0.42v-2.71H18.3c-0.75,0-1.36-0.61-1.36-1.36v-9.94c0-0.75,0.61-1.36,1.36-1.36h15.36
	C34.41,22.73,35.02,23.34,35.02,24.09z M17.85,24.09v9.94c0,0.25,0.2,0.45,0.45,0.45h2.26c0.25,0,0.45,0.2,0.45,0.45V37l2.39-2.39
	c0.08-0.08,0.2-0.13,0.32-0.13h9.94c0.25,0,0.45-0.2,0.45-0.45v-9.94c0-0.25-0.2-0.45-0.45-0.45H18.3
	C18.05,23.64,17.85,23.84,17.85,24.09z"/>
</svg>
